<?xml version="1.0" encoding="UTF-8" standalone="no"?>
<!-- Created with Inkscape (http://www.inkscape.org/) -->

<svg
   version="1.1"
   id="svg2"
   xml:space="preserve"
   width="2666.6667"
   height="2666.6667"
   viewBox="0 0 2666.6667 2666.6667"
   sodipodi:docname="846.eps"
   xmlns:inkscape="http://www.inkscape.org/namespaces/inkscape"
   xmlns:sodipodi="http://sodipodi.sourceforge.net/DTD/sodipodi-0.dtd"
   xmlns="http://www.w3.org/2000/svg"
   xmlns:svg="http://www.w3.org/2000/svg"><defs
     id="defs6" /><sodipodi:namedview
     id="namedview4"
     pagecolor="#ffffff"
     bordercolor="#666666"
     borderopacity="1.0"
     inkscape:pageshadow="2"
     inkscape:pageopacity="0.0"
     inkscape:pagecheckerboard="0" /><g
     id="g8"
     inkscape:groupmode="layer"
     inkscape:label="ink_ext_XXXXXX"
     transform="matrix(1.3333333,0,0,-1.3333333,0,2666.6667)"><g
       id="g10"
       transform="scale(0.1)"><path
         d="M 20000,0 H 0 V 20000 H 20000 V 0"
         style="fill:#ffffff;fill-opacity:1;fill-rule:nonzero;stroke:none"
         id="path12" /><path
         d="M 6823.66,5976.1 V 5364.4 L 8973.17,4111 v 624.2 L 6823.66,5976.1"
         style="fill:#a0a0a0;fill-opacity:1;fill-rule:nonzero;stroke:none"
         id="path14" /><path
         d="m 8973.17,4735.2 553.74,305.4 V 4416.4 L 8973.17,4111 v 624.2"
         style="fill:#c6c6c6;fill-opacity:1;fill-rule:nonzero;stroke:none"
         id="path16" /><path
         d="M 6823.66,5976.1 7377.4,6281.5 9526.91,5040.6 8973.17,4735.2 6823.66,5976.1"
         style="fill:#c1c1c1;fill-opacity:1;fill-rule:nonzero;stroke:none"
         id="path18" /><path
         d="M 9449.31,4344 V 3075.4 l 1060.49,634.3 V 4963.2 L 9449.31,4344"
         style="fill:#1d1d1e;fill-opacity:1;fill-rule:nonzero;stroke:none"
         id="path20" /><path
         d="M 8365.32,4978.3 9449.31,4344 V 3075.4 l -1083.99,634.3 v 1268.6"
         style="fill:#313133;fill-opacity:1;fill-rule:nonzero;stroke:none"
         id="path22" /><path
         d="M 8365.32,4978.3 9425.82,5597.5 10509.8,4963.2 9449.31,4344 8365.32,4978.3"
         style="fill:#494949;fill-opacity:1;fill-rule:nonzero;stroke:none"
         id="path24" /><path
         d="M 9698.07,4166.3 V 3554.7 L 11847.6,2301.2 v 624.3 L 9698.07,4166.3"
         style="fill:#a0a0a0;fill-opacity:1;fill-rule:nonzero;stroke:none"
         id="path26" /><path
         d="m 11847.6,2925.5 553.7,305.3 v -624.2 l -553.7,-305.4 v 624.3"
         style="fill:#939393;fill-opacity:1;fill-rule:nonzero;stroke:none"
         id="path28" /><path
         d="m 9698.07,4166.3 553.73,305.4 2149.5,-1240.9 -553.7,-305.3 -2149.53,1240.8"
         style="fill:#c1c1c1;fill-opacity:1;fill-rule:nonzero;stroke:none"
         id="path30" /><path
         d="M 9449.31,7411 V 4630.8 l 557.59,324.8 V 7724.7 L 9449.31,7411"
         style="fill:#7c7c7c;fill-opacity:1;fill-rule:nonzero;stroke:none"
         id="path32" /><path
         d="M 9449.31,7411 V 4630.8 l -557.58,324.8 V 7724.7 L 9449.31,7411"
         style="fill:#939393;fill-opacity:1;fill-rule:nonzero;stroke:none"
         id="path34" /><path
         d="M 5984.69,9847.8 V 7971.2 l 4801.41,-2785 v 1866.6 l -4801.41,2795"
         style="fill:#37383a;fill-opacity:1;fill-rule:nonzero;stroke:none"
         id="path36" /><path
         d="m 10786.1,7052.8 3229.2,1871.7 -4851.31,2785 -3179.3,-1861.7 4801.41,-2795"
         style="fill:#292a2b;fill-opacity:1;fill-rule:nonzero;stroke:none"
         id="path38" /><path
         d="m 10786.1,5186.2 3229.2,1866.6 V 8924.5 L 10786.1,7052.8 V 5186.2"
         style="fill:#1d1d1e;fill-opacity:1;fill-rule:nonzero;stroke:none"
         id="path40" /><path
         d="M 6341.96,9209.4 V 8799.3 L 7764,7985.7 v 402.4 l -1422.04,821.3"
         style="fill:#666666;fill-opacity:1;fill-rule:nonzero;stroke:none"
         id="path42" /><path
         d="m 6341.96,8799.3 350.61,207.6 -350.61,202.5 z"
         style="fill:#515151;fill-opacity:1;fill-rule:nonzero;stroke:none"
         id="path44" /><path
         d="M 6341.96,8535.6 V 8125.5 L 7764,7311.9 v 402.4 l -1422.04,821.3"
         style="fill:#666666;fill-opacity:1;fill-rule:nonzero;stroke:none"
         id="path46" /><path
         d="m 6341.96,8125.5 350.61,207.6 -350.61,202.5 z"
         style="fill:#515151;fill-opacity:1;fill-rule:nonzero;stroke:none"
         id="path48" /><path
         d="m 8536.99,7546.6 c -83.38,48.8 -151.6,9 -151.6,-88.6 0,-97.6 68.22,-216.6 151.6,-264.5 83.39,-47.8 151.61,-7.9 151.61,88.7 0,96.5 -68.22,215.5 -151.61,264.4"
         style="fill:#2467d3;fill-opacity:1;fill-rule:nonzero;stroke:none"
         id="path50" /><path
         d="m 9038.59,7224.7 c -83.38,48.8 -151.6,9 -151.6,-88.7 0,-97.6 68.22,-216.5 151.6,-264.4 83.39,-47.8 151.61,-7.9 151.61,88.6 0,96.6 -68.22,215.6 -151.61,264.5"
         style="fill:#e5e017;fill-opacity:1;fill-rule:nonzero;stroke:none"
         id="path52" /><path
         d="m 9558.92,6918.6 c -83.39,48.9 -151.61,9 -151.61,-88.6 0,-97.6 68.22,-216.6 151.61,-264.4 83.37,-47.8 151.6,-7.9 151.6,88.6 0,96.6 -68.23,215.6 -151.6,264.4"
         style="fill:#ed590f;fill-opacity:1;fill-rule:nonzero;stroke:none"
         id="path54" /><path
         d="m 10060.5,6596.7 c -83.37,48.9 -151.59,9 -151.59,-88.6 0,-97.6 68.22,-216.6 151.59,-264.4 83.4,-47.9 151.6,-8 151.6,88.6 0,96.6 -68.2,215.6 -151.6,264.4"
         style="fill:#24bc2b;fill-opacity:1;fill-rule:nonzero;stroke:none"
         id="path56" /><path
         d="M 5984.69,7971.2 V 7771.5 L 10786.1,4946.6 v 239.6 l -4801.41,2785"
         style="fill:#666666;fill-opacity:1;fill-rule:nonzero;stroke:none"
         id="path58" /><path
         d="m 10786.1,4946.6 3229.2,1874.1 v 232.1 L 10786.1,5186.2 v -239.6"
         style="fill:#7c7c7c;fill-opacity:1;fill-rule:nonzero;stroke:none"
         id="path60" /><path
         d="m 5984.69,12842.4 v -1876.6 l 4801.41,-2785 v 1866.7 l -4801.41,2794.9"
         style="fill:#37383a;fill-opacity:1;fill-rule:nonzero;stroke:none"
         id="path62" /><path
         d="m 10786.1,10047.5 3229.2,1871.6 -4851.31,2785 -3179.3,-1861.7 4801.41,-2794.9"
         style="fill:#292a2b;fill-opacity:1;fill-rule:nonzero;stroke:none"
         id="path64" /><path
         d="m 10786.1,8180.8 3229.2,1866.7 v 1871.6 L 10786.1,10047.5 V 8180.8"
         style="fill:#1d1d1e;fill-opacity:1;fill-rule:nonzero;stroke:none"
         id="path66" /><path
         d="m 6341.96,12204 v -410.1 L 7764,10980.4 v 402.3 L 6341.96,12204"
         style="fill:#666666;fill-opacity:1;fill-rule:nonzero;stroke:none"
         id="path68" /><path
         d="m 6341.96,11793.9 350.61,207.6 -350.61,202.5 z"
         style="fill:#515151;fill-opacity:1;fill-rule:nonzero;stroke:none"
         id="path70" /><path
         d="m 6341.96,11530.2 v -410.1 L 7764,10306.6 v 402.3 l -1422.04,821.3"
         style="fill:#666666;fill-opacity:1;fill-rule:nonzero;stroke:none"
         id="path72" /><path
         d="m 6341.96,11120.1 350.61,207.6 -350.61,202.5 z"
         style="fill:#515151;fill-opacity:1;fill-rule:nonzero;stroke:none"
         id="path74" /><path
         d="m 8536.99,10541.2 c -83.38,48.9 -151.6,9 -151.6,-88.6 0,-97.6 68.22,-216.6 151.6,-264.4 83.39,-47.8 151.61,-8 151.61,88.6 0,96.6 -68.22,215.6 -151.61,264.4"
         style="fill:#2467d3;fill-opacity:1;fill-rule:nonzero;stroke:none"
         id="path76" /><path
         d="m 9038.59,10219.3 c -83.38,48.9 -151.6,9 -151.6,-88.6 0,-97.6 68.22,-216.6 151.6,-264.4 83.39,-47.9 151.61,-8 151.61,88.6 0,96.5 -68.22,215.5 -151.61,264.4"
         style="fill:#e5e017;fill-opacity:1;fill-rule:nonzero;stroke:none"
         id="path78" /><path
         d="m 9558.92,9913.3 c -83.39,48.8 -151.61,9 -151.61,-88.6 0,-97.6 68.22,-216.6 151.61,-264.5 83.37,-47.8 151.6,-7.9 151.6,88.7 0,96.5 -68.23,215.5 -151.6,264.4"
         style="fill:#ed590f;fill-opacity:1;fill-rule:nonzero;stroke:none"
         id="path80" /><path
         d="m 10060.5,9591.4 c -83.37,48.8 -151.59,9 -151.59,-88.6 0,-97.7 68.22,-216.6 151.59,-264.5 83.4,-47.8 151.6,-7.9 151.6,88.6 0,96.6 -68.2,215.6 -151.6,264.5"
         style="fill:#24bc2b;fill-opacity:1;fill-rule:nonzero;stroke:none"
         id="path82" /><path
         d="m 5984.69,10965.8 v -199.6 l 4801.41,-2825 v 239.6 l -4801.41,2785"
         style="fill:#666666;fill-opacity:1;fill-rule:nonzero;stroke:none"
         id="path84" /><path
         d="m 10786.1,7941.2 3229.2,1874.2 v 232.1 L 10786.1,8180.8 v -239.6"
         style="fill:#7c7c7c;fill-opacity:1;fill-rule:nonzero;stroke:none"
         id="path86" /><path
         d="m 5984.69,15837.1 v -1876.7 l 4801.41,-2785 v 1866.7 l -4801.41,2795"
         style="fill:#37383a;fill-opacity:1;fill-rule:nonzero;stroke:none"
         id="path88" /><path
         d="m 10786.1,13042.1 3229.2,1871.7 -4851.31,2785 -3179.3,-1861.7 4801.41,-2795"
         style="fill:#292a2b;fill-opacity:1;fill-rule:nonzero;stroke:none"
         id="path90" /><path
         d="m 10786.1,11175.4 3229.2,1866.7 v 1871.7 l -3229.2,-1871.7 v -1866.7"
         style="fill:#1d1d1e;fill-opacity:1;fill-rule:nonzero;stroke:none"
         id="path92" /><path
         d="m 6341.96,15198.7 v -410.1 L 7764,13975 v 402.4 l -1422.04,821.3"
         style="fill:#666666;fill-opacity:1;fill-rule:nonzero;stroke:none"
         id="path94" /><path
         d="m 6341.96,14788.6 350.61,207.6 -350.61,202.5 z"
         style="fill:#515151;fill-opacity:1;fill-rule:nonzero;stroke:none"
         id="path96" /><path
         d="m 6341.96,14524.9 v -410.1 L 7764,13301.2 v 402.4 l -1422.04,821.3"
         style="fill:#666666;fill-opacity:1;fill-rule:nonzero;stroke:none"
         id="path98" /><path
         d="m 6341.96,14114.8 350.61,207.6 -350.61,202.5 z"
         style="fill:#515151;fill-opacity:1;fill-rule:nonzero;stroke:none"
         id="path100" /><path
         d="m 8536.99,13535.9 c -83.38,48.8 -151.6,9 -151.6,-88.6 0,-97.6 68.22,-216.6 151.6,-264.5 83.39,-47.8 151.61,-7.9 151.61,88.6 0,96.6 -68.22,215.6 -151.61,264.5"
         style="fill:#2467d3;fill-opacity:1;fill-rule:nonzero;stroke:none"
         id="path102" /><path
         d="m 9038.59,13213.9 c -83.38,48.9 -151.6,9 -151.6,-88.6 0,-97.6 68.22,-216.6 151.6,-264.4 83.39,-47.8 151.61,-8 151.61,88.6 0,96.6 -68.22,215.6 -151.61,264.4"
         style="fill:#e5e017;fill-opacity:1;fill-rule:nonzero;stroke:none"
         id="path104" /><path
         d="m 9558.92,12907.9 c -83.39,48.9 -151.61,9 -151.61,-88.6 0,-97.6 68.22,-216.6 151.61,-264.4 83.37,-47.8 151.6,-8 151.6,88.6 0,96.6 -68.23,215.6 -151.6,264.4"
         style="fill:#ed590f;fill-opacity:1;fill-rule:nonzero;stroke:none"
         id="path106" /><path
         d="m 10060.5,12586 c -83.37,48.9 -151.59,9 -151.59,-88.6 0,-97.6 68.22,-216.6 151.59,-264.4 83.4,-47.9 151.6,-8 151.6,88.6 0,96.5 -68.2,215.5 -151.6,264.4"
         style="fill:#24bc2b;fill-opacity:1;fill-rule:nonzero;stroke:none"
         id="path108" /><path
         d="m 5984.69,13960.4 v -199.6 l 4801.41,-2824.9 v 239.5 l -4801.41,2785"
         style="fill:#666666;fill-opacity:1;fill-rule:nonzero;stroke:none"
         id="path110" /><path
         d="m 10786.1,10935.9 3229.2,1874.1 v 232.1 l -3229.2,-1866.7 v -239.5"
         style="fill:#7c7c7c;fill-opacity:1;fill-rule:nonzero;stroke:none"
         id="path112" /></g></g></svg>
