<svg width="240mm" height="210mm" version="1.1" viewBox="0 0 907.09 793.7" xml:space="preserve" xmlns="http://www.w3.org/2000/svg"><g transform="matrix(1.3333 0 0 -1.3333 -797.96 2359.8)"><g transform="matrix(.03318 0 0 .03318 603.06 1142.2)"><path d="m6823.7 5976.1v-611.7l2149.5-1253.4v624.2l-2149.5 1240.9" style="fill:#acacac"/><path d="m8973.2 4735.2 553.74 305.4v-624.2l-553.74-305.4v624.2" style="fill:#c6c6c6"/><path d="m6823.7 5976.1 553.74 305.4 2149.5-1240.9-553.74-305.4-2149.5 1240.9" style="fill:#dadada"/><path d="m9449.3 4344v-1268.6l1060.5 634.3v1253.5l-1060.5-619.2" style="fill:#1d1d1e"/><path d="m8365.3 4978.3 1084-634.3v-1268.6l-1084 634.3v1268.6" style="fill:#313133"/><path d="m8365.3 4978.3 1060.5 619.2 1084-634.3-1060.5-619.2-1084 634.3" style="fill:#494949"/><path d="m9698.1 4166.3v-611.6l2149.5-1253.5v624.3l-2149.5 1240.8" style="fill:#acacac"/><path d="m11848 2925.5 553.7 305.3v-624.2l-553.7-305.4v624.3" style="fill:#939393"/><path d="m9698.1 4166.3 553.73 305.4 2149.5-1240.9-553.7-305.3-2149.5 1240.8" style="fill:#dadada"/><path d="m9449.3 7411v-2780.2l557.59 324.8v2769.1l-557.59-313.7" style="fill:#7c7c7c"/><path d="m9449.3 7411v-2780.2l-557.58 324.8v2769.1l557.58-313.7" style="fill:#acacac"/><path d="m5984.7 9862.8v-1876.6l4801.4-2785v1866.6l-4801.4 2795" style="fill:#efefef"/><path d="m10786 7052.8 3229.2 1871.7-4851.3 2785-3179.3-1861.7 4801.4-2795" style="fill:#d6d6d6"/><path d="m10771 5201.2 3229.2 1866.6v1871.7l-3229.2-1871.7v-1866.6" style="fill:#b5b5b5"/><path d="m6342 9209.4v-410.1l1422-813.6v402.4l-1422 821.3" style="fill:#666"/><path d="m6342 8799.3 350.61 207.6-350.61 202.5z" style="fill:#515151"/><path d="m6342 8535.6v-410.1l1422-813.6v402.4l-1422 821.3" style="fill:#666"/><path d="m6342 8125.5 350.61 207.6-350.61 202.5z" style="fill:#515151"/><path d="m5984.7 8001.2v-199.7l4801.4-2824.9v239.6l-4801.4 2785" style="fill:#b7b7bc"/><path d="m10771 4976.6 3229.2 1874.1v232.1l-3229.2-1866.6v-239.6" style="fill:#7c7c7c"/><path d="m5984.7 12857v-1876.6l4801.4-2785v1866.7l-4801.4 2794.9" style="fill:#efefef"/><path d="m10786 10047 3229.2 1871.6-4851.3 2785-3179.3-1861.7 4801.4-2794.9" style="fill:#d6d6d6"/><path d="m10786 8195.8 3229.2 1866.7v1871.6l-3229.2-1871.6v-1866.7" style="fill:#b5b5b5"/><path d="m6342 12204v-410.1l1422-813.5v402.3l-1422 821.3" style="fill:#666"/><path d="m6342 11794 350.61 207.6-350.61 202.5z" style="fill:#515151"/><path d="m6342 11530v-410.1l1422-813.5v402.3l-1422 821.3" style="fill:#666"/><path d="m6342 11120 350.61 207.6-350.61 202.5z" style="fill:#515151"/><path d="m5984.7 10996v-199.6l4801.4-2825v239.6l-4801.4 2785" style="fill:#b7b7bc"/><path d="m10786 7971.2 3229.2 1874.2v232.1l-3229.2-1866.7v-239.6" style="fill:#7c7c7c"/><path d="m5984.7 15852v-1876.7l4801.4-2785v1866.7l-4801.4 2795" style="fill:#efefef"/><path d="m10786 13042 3229.2 1871.7-4851.3 2785-3179.3-1861.7 4801.4-2795" style="fill:#d6d6d6"/><path d="m10786 11190 3229.2 1866.7v1871.7l-3229.2-1871.7v-1866.7" style="fill:#b5b5b5"/><path d="m6342 15199v-410.1l1422-813.6v402.4l-1422 821.3" style="fill:#666"/><path d="m6342 14789 350.61 207.6-350.61 202.5z" style="fill:#515151"/><path d="m6342 14525v-410.1l1422-813.6v402.4l-1422 821.3" style="fill:#666"/><path d="m6342 14115 350.61 207.6-350.61 202.5z" style="fill:#515151"/><path d="m5984.7 13990v-199.6l4801.4-2824.9v239.5l-4801.4 2785" style="fill:#b7b7bc"/><path d="m10786 10966 3229.2 1874.1v232.1l-3229.2-1866.7v-239.5" style="fill:#7c7c7c"/><g transform="matrix(7.4166 0 0 -7.4166 -9814.5 3661.4)" style="stroke-width:.75"><g transform="translate(461.73,188.27)"><path d="m2171.6-1928.6-9.8218-5.6881 21.042-12.249 9.8218 5.6898z" style="fill-opacity:.87513;fill:#0f0f0f"/><path d="m2181.4-1922.9-9.8205-5.6872 21.042-12.247 9.8205 5.689z" style="fill-opacity:.87513;fill:#0f0f0f"/><path d="m2201.9-1926.8-13.558 7.8896-1.1585-0.6709 12.243-7.1244-5.8484-3.3876 1.3151-0.7654zm-16.434 6.224-1.1585-0.6709 8.9781-5.2247-2.9722-1.7215 1.3151-0.7653 4.1307 2.3925z" style="fill-opacity:.87513;fill:#0f0f0f"/><path d="m2259.9-1877.5-9.8092-5.6806 21.042-12.233 9.8091 5.6825z" style="fill-opacity:.87513;fill:#0f0f0f"/><path d="m2269.7-1871.8-9.8077-5.6798 21.041-12.231 9.8077 5.6815z" style="fill-opacity:.87513;fill:#0f0f0f"/><path d="m2279.5-1866.1-9.8062-5.679 21.041-12.23 9.8063 5.6808z" style="fill-opacity:.87513;fill:#0f0f0f"/><path d="m2289.3-1860.4-9.8049-5.6782 21.042-12.228 9.8049 5.68z" style="fill-opacity:.87513;fill:#0f0f0f"/><path d="m2299.1-1854.7-9.8035-5.6774 21.042-12.226 9.8034 5.6791z" style="fill-opacity:.87513;fill:#0f0f0f"/><path d="m2319.6-1858.6-13.558 7.876-1.1565-0.6697 12.243-7.1122-5.8383-3.3817 1.3151-0.764zm-16.43 6.2133-1.1565-0.6698 8.9781-5.2157-2.9671-1.7185 1.315-0.764 4.1236 2.3884z" style="fill-opacity:.87513;fill:#0f0f0f"/><path d="m2328.5-1837.7-9.7992-5.6749 21.042-12.221 9.7992 5.6766z" style="fill-opacity:.87513;fill:#0f0f0f"/><path d="m2338.3-1832-9.7978-5.6741 21.042-12.219 9.7978 5.6759z" style="fill-opacity:.87513;fill:#0f0f0f"/><path d="m2348.1-1826.4-9.7964-5.6733 21.042-12.217 9.7963 5.675z" style="fill-opacity:.87513;fill:#0f0f0f"/><path d="m2357.9-1820.7-9.795-5.6724 21.041-12.216 9.795 5.6742z" style="fill-opacity:.87513;fill:#0f0f0f"/><path d="m2367.7-1815-9.7935-5.6716 21.041-12.214 9.7935 5.6734z" style="fill-opacity:.87513;fill:#0f0f0f"/><path d="m2377.5-1809.4-9.7922-5.6709 21.041-12.212 9.7922 5.6726z" style="fill-opacity:.87513;fill:#0f0f0f"/><path d="m2387.3-1803.7-9.7907-5.67 21.041-12.21 9.7907 5.6718z" style="fill-opacity:.87513;fill:#0f0f0f"/><path d="m2407.8-1807.6-13.558 7.8658-1.1549-0.6688 12.243-7.103-5.8308-3.3774 1.3152-0.763zm-16.426 6.2052-1.155-0.6689 8.9781-5.2089-2.9633-1.7163 1.3151-0.763 4.1182 2.3853z" style="fill-opacity:.87513;fill:#0f0f0f"/><path d="m2406.9-1792.3-9.7878-5.6683 21.041-12.207 9.7879 5.6701z" style="fill-opacity:.87513;fill:#0f0f0f"/><path d="m2416.7-1786.7-9.7866-5.6676 21.041-12.205 9.7866 5.6693z" style="fill-opacity:.87513;fill:#0f0f0f"/><path d="m2437.1-1790.5-13.558 7.8625-1.1544-0.6686 12.243-7.0999-5.8282-3.3759 1.3151-0.7627zm-16.424 6.2026-1.1545-0.6686 8.9781-5.2067-2.962-1.7155 1.3151-0.7627 4.1164 2.3842z" style="fill-opacity:.87513;fill:#0f0f0f"/><path d="m2465.6-1758.4-9.7794-5.6635 21.041-12.196 9.7794 5.6652z" style="fill-opacity:.87513;fill:#0f0f0f"/><path d="m2475.3-1752.7-9.7781-5.6627 21.041-12.194 9.7781 5.6644z" style="fill-opacity:.87513;fill:#0f0f0f"/><path d="m2495.8-1756.6-13.558 7.8557-1.1534-0.668 12.243-7.0938-5.8232-3.3729 1.3152-0.7621zm-16.422 6.1972-1.1535-0.668 8.978-5.2022-2.9593-1.7141 1.315-0.762 4.1129 2.3822z" style="fill-opacity:.87513;fill:#0f0f0f"/><path d="m2147.8-1914.8-9.8219-5.6861 21.034-12.245 9.8218 5.6878z" style="fill-opacity:.87513;fill:#0f0f0f"/><path d="m2157.6-1909.1-9.8205-5.6852 21.034-12.243 9.8205 5.687z" style="fill-opacity:.87513;fill:#0f0f0f"/><path d="m2181.6-1919.7 1.1585 0.6709-21.034 12.24-1.1585-0.6707zm2.8762 1.6656 1.1585 0.6709-21.034 12.24-1.1585-0.6706z" style="fill-opacity:.87513;fill:#0f0f0f"/><path d="m2226.3-1869.3-9.8106-5.6795 21.034-12.231 9.8106 5.6813z" style="fill-opacity:.87513;fill:#0f0f0f"/><path d="m2236.1-1863.6-9.8091-5.6786 21.034-12.229 9.8091 5.6804z" style="fill-opacity:.87513;fill:#0f0f0f"/><path d="m2252.6-1869.9 6.9985 4.0524-1.3147 0.7641-5.8413-3.3823-12.239 7.114-1.1571-0.6699zm-0.3911 3.5607 4.1256 2.3887-1.3147 0.7641-2.9684-1.7187-8.975 5.2165-1.1571-0.6698z" style="fill-opacity:.87513;fill:#0f0f0f"/><path d="m2254.8-1863.2 1.3146-0.7641 9.9659 5.7703-1.3147 0.764zm3.2639-1.897 1.3147-0.7641 9.9659 5.7705-1.3147 0.764z" style="fill-opacity:.87513;fill:#0f0f0f"/><path d="m2264.6-1857.6 1.3147-0.764 9.9644 5.7695-1.3146 0.7638zm3.264-1.8968 1.3147-0.764 9.9644 5.7697-1.3147 0.7639z" style="fill-opacity:.87513;fill:#0f0f0f"/><path d="m2275.4-1840.9-9.8034-5.6754 21.034-12.222 9.8035 5.6772z" style="fill-opacity:.87513;fill:#0f0f0f"/><path d="m2285.2-1835.3-9.8021-5.6745 21.034-12.22 9.802 5.6763z" style="fill-opacity:.87513;fill:#0f0f0f"/><path d="m2305.6-1839.1-13.554 7.8722-1.1563-0.6694 12.239-7.1087-5.8375-3.38 1.3147-0.7637zm-16.424 6.2102-1.1563-0.6694 8.9749-5.2131-2.9666-1.7177 1.3146-0.7636 4.123 2.3872z" style="fill-opacity:.87513;fill:#0f0f0f"/><path d="m2318.9-1840.1 1.1562 0.6696-10.744 6.2399 5.8362 3.3793-1.3146 0.7634-6.9925-4.0486zm2.8705 1.6623 1.1561 0.6695-7.4806 4.3442 2.9659 1.7174-1.3147 0.7634-4.122-2.3867z" style="fill-opacity:.87513;fill:#0f0f0f"/><path d="m2313.7-1829.2 1.3147-0.7634 9.9572 5.7652-1.3146 0.7634zm3.264-1.8954 1.3146-0.7635 9.9573 5.7656-1.3147 0.7633z" style="fill-opacity:.87513;fill:#0f0f0f"/><path d="m2323.5-1823.5 1.3147-0.7634 9.9558 5.7645-1.3147 0.7632zm3.264-1.8952 1.3147-0.7633 9.9558 5.7647-1.3147 0.7632z" style="fill-opacity:.87513;fill:#0f0f0f"/><path d="m2334.2-1806.9-9.795-5.6705 21.034-12.211 9.795 5.6722z" style="fill-opacity:.87513;fill:#0f0f0f"/><path d="m2343.9-1801.2-9.7935-5.6696 21.034-12.21 9.7936 5.6714z" style="fill-opacity:.87513;fill:#0f0f0f"/><path d="m2353.7-1795.6-9.7922-5.6689 21.034-12.208 9.7921 5.6706z" style="fill-opacity:.87513;fill:#0f0f0f"/><path d="m2370.2-1801.8 6.9864 4.0453-1.3147 0.7628-5.8313-3.3764-12.239 7.1017-1.1551-0.6687zm-0.3961 3.5545 4.1185 2.3846-1.3147 0.7628-2.9633-1.7158-8.9749 5.2076-1.1552-0.6688z" style="fill-opacity:.87513;fill:#0f0f0f"/><path d="m2379.4-1791.1-6.9857-4.0447 1.3147-0.7628 5.8308 3.3761 10.744-6.2336 1.1549 0.6689zm8.0367-9.3256 1.155 0.6689-8.7952 5.1028-4.1182-2.3846 1.3146-0.7627 2.9633 1.7158z" style="fill-opacity:.87513;fill:#0f0f0f"/><path d="m2397.2-1794.8 1.1549 0.6687-10.744 6.2328 5.8295 3.3754-1.3147 0.7625-6.9844-4.0439zm2.8672 1.6603 1.1547 0.6687-7.4805 4.3393 2.9625 1.7153-1.3147 0.7626-4.1173-2.384z" style="fill-opacity:.87513;fill:#0f0f0f"/><path d="m2392.9-1772.9-9.7865-5.6656 21.034-12.201 9.7865 5.6673z" style="fill-opacity:.87513;fill:#0f0f0f"/><path d="m2402.7-1767.2-9.7851-5.6647 21.034-12.199 9.7851 5.6665z" style="fill-opacity:.87513;fill:#0f0f0f"/><path d="m2423.1-1771.1-13.554 7.8586-1.1543-0.6682 12.239-7.0964-5.8274-3.3742 1.3146-0.7624zm-16.419 6.1996-1.1544-0.6683 8.9749-5.2042-2.9615-1.7147 1.3147-0.7623 4.1158 2.3831z" style="fill-opacity:.87513;fill:#0f0f0f"/><path d="m2432-1750.2-9.7808-5.6623 21.034-12.194 9.7808 5.664z" style="fill-opacity:.87513;fill:#0f0f0f"/><path d="m2441.8-1744.6-9.7795-5.6614 21.034-12.192 9.7794 5.6633z" style="fill-opacity:.87513;fill:#0f0f0f"/><path d="m2458.2-1750.8 6.9773 4.04-1.3147 0.7618-5.8236-3.372-12.239 7.0926-1.1536-0.6679zm-0.3998 3.5499 4.1131 2.3815-1.3146 0.7618-2.9595-1.7136-8.9749 5.2009-1.1536-0.6679z" style="fill-opacity:.87513;fill:#0f0f0f"/><path d="m2467.5-1740.1-6.9766-4.0394 1.3147-0.7618 5.8231 3.3716 10.744-6.2255 1.1535 0.668zm8.0419-9.3135 1.1535 0.668-8.7952 5.0962-4.1128-2.3815 1.3146-0.7618 2.9594 1.7136z" style="fill-opacity:.87513;fill:#0f0f0f"/><path d="m2124.1-1901-9.8219-5.684 21.027-12.24 9.8219 5.6858z" style="fill-opacity:.87513;fill:#0f0f0f"/><path d="m2133.9-1895.3-9.8205-5.6833 21.027-12.239 9.8204 5.685z" style="fill-opacity:.87513;fill:#0f0f0f"/><path d="m2157.8-1905.8 1.1585 0.6706-21.027 12.236-1.1585-0.6704zm2.8762 1.665 1.1584 0.6706-21.027 12.236-1.1585-0.6704z" style="fill-opacity:.87513;fill:#0f0f0f"/><path d="m2202.6-1855.5-9.8106-5.6775 21.027-12.226 9.8105 5.6793z" style="fill-opacity:.87513;fill:#0f0f0f"/><path d="m2212.4-1849.8-9.8091-5.6767 21.027-12.224 9.8091 5.6784z" style="fill-opacity:.87513;fill:#0f0f0f"/><path d="m2222.2-1844.2-9.8077-5.6758 21.027-12.223 9.8078 5.6776z" style="fill-opacity:.87513;fill:#0f0f0f"/><path d="m2232-1838.5-9.8063-5.6751 21.027-12.221 9.8062 5.6768z" style="fill-opacity:.87513;fill:#0f0f0f"/><path d="m2241.8-1832.8-9.8049-5.6742 21.027-12.219 9.8049 5.676z" style="fill-opacity:.87513;fill:#0f0f0f"/><path d="m2251.6-1827.1-9.8034-5.6734 21.027-12.218 9.8035 5.6752z" style="fill-opacity:.87513;fill:#0f0f0f"/><path d="m2261.4-1821.5-9.8021-5.6726 21.027-12.216 9.802 5.6743z" style="fill-opacity:.87513;fill:#0f0f0f"/><path d="m2285.3-1832 1.1564 0.6694-21.027 12.213-1.1563-0.6692zm2.8709 1.6619 1.1562 0.6694-21.027 12.213-1.1563-0.6691z" style="fill-opacity:.87513;fill:#0f0f0f"/><path d="m2300.6-1798.8-9.7964-5.6693 21.027-12.209 9.7964 5.6711z" style="fill-opacity:.87513;fill:#0f0f0f"/><path d="m2310.4-1793.1-9.7949-5.6685 21.027-12.207 9.795 5.6702z" style="fill-opacity:.87513;fill:#0f0f0f"/><path d="m2320.2-1787.4-9.7936-5.6677 21.027-12.205 9.7935 5.6694z" style="fill-opacity:.87513;fill:#0f0f0f"/><path d="m2336.6-1793.6 6.9874 4.0445-1.3143 0.7626-5.832-3.3757-12.235 7.1002-1.1554-0.6686zm-0.3945 3.5537 4.119 2.3841-1.3142 0.7627-2.9637-1.7154-8.9719 5.2065-1.1552-0.6686z" style="fill-opacity:.87513;fill:#0f0f0f"/><path d="m2345.9-1783-6.9868-4.0438 1.3142-0.7627 5.8316 3.3754 10.741-6.2323 1.1551 0.6687zm8.0319-9.3236 1.1551 0.6687-8.7922 5.1017-4.1188-2.384 1.3143-0.7627 2.9636 1.7155z" style="fill-opacity:.87513;fill:#0f0f0f"/><path d="m2383.3-1775.3 1.1547 0.6684-10.741 6.2297 5.8288 3.3737-1.3143 0.7622-6.9834-4.0419zm2.8667 1.6595 1.1546 0.6684-7.478 4.3371 2.9622 1.7145-1.3142 0.7622-4.1168-2.3828z" style="fill-opacity:.87513;fill:#0f0f0f"/><path d="m2378.9-1753.5-9.7851-5.6628 21.027-12.195 9.7851 5.6645z" style="fill-opacity:.87513;fill:#0f0f0f"/><path d="m2388.7-1747.8-9.7837-5.6619 21.027-12.193 9.7836 5.6637z" style="fill-opacity:.87513;fill:#0f0f0f"/><path d="m2398.5-1742.1-9.7823-5.6612 21.027-12.191 9.7824 5.663z" style="fill-opacity:.87513;fill:#0f0f0f"/><path d="m2408.3-1736.5-9.7809-5.6603 21.027-12.189 9.7808 5.662z" style="fill-opacity:.87513;fill:#0f0f0f"/><path d="m2424.7-1742.7 6.9784 4.0392-1.3142 0.7617-5.8245-3.3713-12.235 7.091-1.1539-0.6677zm-0.3981 3.5492 4.1137 2.381-1.3142 0.7616-2.9599-1.7132-8.9718 5.1998-1.1538-0.6677z" style="fill-opacity:.87513;fill:#0f0f0f"/><path d="m2433.9-1732-6.9777-4.0386 1.3142-0.7616 5.8241 3.371 10.741-6.2243 1.1536 0.6678zm8.0372-9.3115 1.1536 0.6678-8.7921 5.0951-4.1136-2.3809 1.3142-0.7617 2.9599 1.7133z" style="fill-opacity:.87513;fill:#0f0f0f"/><path d="m2100.3-1887.1-9.8219-5.6821 21.02-12.236 9.8219 5.6838z" style="fill-opacity:.87513;fill:#0f0f0f"/><path d="m2110.1-1881.5-9.8204-5.6812 21.02-12.234 9.8205 5.683z" style="fill-opacity:.87513;fill:#0f0f0f"/><path d="m2134-1892 1.1585 0.6704-21.02 12.232-1.1585-0.6702zm2.8762 1.6645 1.1585 0.6703-21.02 12.231-1.1584-0.6702z" style="fill-opacity:.87513;fill:#0f0f0f"/><path d="m2178.8-1841.7-9.8106-5.6755 21.02-12.222 9.8106 5.6773z" style="fill-opacity:.87513;fill:#0f0f0f"/><path d="m2188.6-1836-9.8091-5.6747 21.02-12.22 9.8091 5.6765z" style="fill-opacity:.87513;fill:#0f0f0f"/><path d="m2205.1-1842.2 6.9985 4.0495-1.3137 0.7636-5.8414-3.3799-12.23 7.109-1.1571-0.6694zm-0.3888 3.5582 4.1256 2.387-1.3136 0.7636-2.9685-1.7176-8.9688 5.213-1.1571-0.6694z" style="fill-opacity:.87513;fill:#0f0f0f"/><path d="m2207.3-1835.6 1.3137-0.7635 9.9658 5.7662-1.3137 0.7635zm3.2616-1.8957 1.3137-0.7635 9.9659 5.7665-1.3137 0.7634z" style="fill-opacity:.87513;fill:#0f0f0f"/><path d="m2217.1-1829.9 1.3137-0.7634 9.9644 5.7654-1.3137 0.7633zm3.2616-1.8954 1.3137-0.7634 9.9645 5.7656-1.3138 0.7634z" style="fill-opacity:.87513;fill:#0f0f0f"/><path d="m2227.9-1813.3-9.8034-5.6714 21.02-12.213 9.8035 5.6731z" style="fill-opacity:.87513;fill:#0f0f0f"/><path d="m2237.7-1807.7-9.8021-5.6706 21.02-12.212 9.802 5.6724z" style="fill-opacity:.87513;fill:#0f0f0f"/><path d="m2261.6-1818.2 1.1563 0.6692-21.02 12.209-1.1563-0.669zm2.8708 1.6614 1.1563 0.6691-21.02 12.208-1.1563-0.6689z" style="fill-opacity:.87513;fill:#0f0f0f"/><path d="m2267.1-1790.7-9.7978-5.6681 21.02-12.206 9.7978 5.6699z" style="fill-opacity:.87513;fill:#0f0f0f"/><path d="m2276.9-1785-9.7964-5.6673 21.02-12.204 9.7964 5.669z" style="fill-opacity:.87513;fill:#0f0f0f"/><path d="m2286.7-1779.3-9.795-5.6666 21.02-12.203 9.795 5.6683z" style="fill-opacity:.87513;fill:#0f0f0f"/><path d="m2303.1-1785.5 6.9884 4.0437-1.3137 0.7624-5.8329-3.375-12.23 7.0988-1.1555-0.6684zm-0.3929 3.5531 4.1197 2.3836-1.3137 0.7624-2.9642-1.7151-8.9688 5.2055-1.1554-0.6684z" style="fill-opacity:.87513;fill:#0f0f0f"/><path d="m2312.3-1774.9-6.9877-4.043 1.3137-0.7624 5.8325 3.3746 10.737-6.231 1.1553 0.6686zm8.0272-9.3217 1.1553 0.6686-8.7891 5.1007-4.1195-2.3836 1.3138-0.7625 2.9641 1.7152z" style="fill-opacity:.87513;fill:#0f0f0f"/><path d="m2369.3-1755.9 1.1544 0.6681-10.737 6.2267 5.8279 3.372-1.3137 0.7618-6.9824-4.04zm2.8662 1.6587 1.1545 0.6681-7.4753 4.3349 2.9616 1.7137-1.3137 0.7618-4.1162-2.3816z" style="fill-opacity:.87513;fill:#0f0f0f"/><path d="m2365-1734-9.7837-5.6599 21.019-12.189 9.7837 5.6617z" style="fill-opacity:.87513;fill:#0f0f0f"/><path d="m2374.7-1728.4-9.7823-5.6592 21.019-12.187 9.7823 5.6609z" style="fill-opacity:.87513;fill:#0f0f0f"/><path d="m2391.2-1734.6 6.9794 4.0385-1.3138 0.7615-5.8254-3.3707-12.23 7.0897-1.154-0.6676zm-0.3967 3.5485 4.1144 2.3806-1.3137 0.7614-2.9604-1.7128-8.9687 5.1987-1.154-0.6676z" style="fill-opacity:.87513;fill:#0f0f0f"/><path d="m2400.4-1723.9-6.9787-4.0378 1.3137-0.7614 5.8249 3.3702 10.737-6.2229 1.1538 0.6677zm8.0323-9.3097 1.1538 0.6678-8.7891 5.0941-4.1141-2.3805 1.3138-0.7615 2.9602 1.7129z" style="fill-opacity:.87513;fill:#0f0f0f"/><path d="m2076.6-1873.3-9.8219-5.6801 21.012-12.232 9.8218 5.6818z" style="fill-opacity:.87513;fill:#0f0f0f"/><path d="m2086.4-1867.6-9.8205-5.6793 21.012-12.23 9.8205 5.6811z" style="fill-opacity:.87513;fill:#0f0f0f"/><path d="m2096.2-1862-9.819-5.6784 21.012-12.228 9.819 5.6801z" style="fill-opacity:.87513;fill:#0f0f0f"/><path d="m2106-1856.3-9.8176-5.6776 21.012-12.227 9.8177 5.6794z" style="fill-opacity:.87513;fill:#0f0f0f"/><path d="m2115.8-1850.6-9.8162-5.6768 21.012-12.225 9.8162 5.6786z" style="fill-opacity:.87513;fill:#0f0f0f"/><path d="m2125.7-1844.9-9.8148-5.676 21.012-12.223 9.8147 5.6777z" style="fill-opacity:.87513;fill:#0f0f0f"/><path d="m2135.5-1839.3-9.8134-5.6752 21.012-12.221 9.8134 5.6769z" style="fill-opacity:.87513;fill:#0f0f0f"/><path d="m2155.9-1843.1-13.54 7.873-1.1576-0.6694 12.226-7.1095-5.8442-3.3804 1.3133-0.7637zm-16.414 6.2109-1.1576-0.6695 8.9656-5.2137-2.9701-1.7178 1.3132-0.7637 4.1278 2.3874z" style="fill-opacity:.87513;fill:#0f0f0f"/><path d="m2155.1-1827.9-9.8105-5.6735 21.012-12.218 9.8105 5.6753z" style="fill-opacity:.87513;fill:#0f0f0f"/><path d="m2164.9-1822.2-9.8091-5.6727 21.012-12.216 9.8091 5.6745z" style="fill-opacity:.87513;fill:#0f0f0f"/><path d="m2188.8-1832.8 1.1572 0.6694-21.012 12.214-1.1572-0.6692zm2.8729 1.662 1.1572 0.6693-21.012 12.213-1.1572-0.6691z" style="fill-opacity:.87513;fill:#0f0f0f"/><path d="m2204.1-1799.6-9.8035-5.6695 21.012-12.209 9.8035 5.6712z" style="fill-opacity:.87513;fill:#0f0f0f"/><path d="m2213.9-1793.9-9.8021-5.6686 21.012-12.207 9.8021 5.6704z" style="fill-opacity:.87513;fill:#0f0f0f"/><path d="m2237.8-1804.4 1.1563 0.669-21.012 12.205-1.1563-0.6687zm2.8708 1.6608 1.1563 0.6689-21.012 12.204-1.1563-0.6687z" style="fill-opacity:.87513;fill:#0f0f0f"/><path d="m2233.5-1782.5-9.7993-5.667 21.012-12.204 9.7992 5.6687z" style="fill-opacity:.87513;fill:#0f0f0f"/><path d="m2243.3-1776.9-9.7978-5.6661 21.012-12.202 9.7978 5.6679z" style="fill-opacity:.87513;fill:#0f0f0f"/><path d="m2253.1-1771.2-9.7964-5.6654 21.012-12.2 9.7965 5.6671z" style="fill-opacity:.87513;fill:#0f0f0f"/><path d="m2262.9-1765.6-9.795-5.6645 21.012-12.198 9.7949 5.6663z" style="fill-opacity:.87513;fill:#0f0f0f"/><path d="m2272.7-1759.9-9.7935-5.6637 21.012-12.197 9.7936 5.6654z" style="fill-opacity:.87513;fill:#0f0f0f"/><path d="m2282.5-1754.2-9.7923-5.6629 21.012-12.195 9.7922 5.6647z" style="fill-opacity:.87513;fill:#0f0f0f"/><path d="m2292.3-1748.6-9.7907-5.6621 21.012-12.193 9.7908 5.6638z" style="fill-opacity:.87513;fill:#0f0f0f"/><path d="m2312.7-1752.4-13.539 7.8549-1.155-0.6679 12.226-7.0931-5.8308-3.3726 1.3133-0.762zm-16.407 6.1966-1.1549-0.6679 8.9656-5.2017-2.9632-1.7139 1.3132-0.762 4.1182 2.382z" style="fill-opacity:.87513;fill:#0f0f0f"/><path d="m2341.2-1720.3-9.7837-5.658 21.012-12.184 9.7837 5.6598z" style="fill-opacity:.87513;fill:#0f0f0f"/><path d="m2351-1714.6-9.7824-5.6572 21.012-12.183 9.7823 5.6589z" style="fill-opacity:.87513;fill:#0f0f0f"/><path d="m2374.9-1725.1 1.1539 0.6675-21.012 12.18-1.154-0.6674zm2.865 1.6574 1.154 0.6675-21.012 12.18-1.154-0.6674z" style="fill-opacity:.87513;fill:#0f0f0f"/><path d="m2066.9-1875.7 1.1589 0.6702-10.73 6.2456 5.8498 3.3823-1.3128 0.7641-7.0086-4.0522zm2.8771 1.6638 1.1588 0.6701-7.4702 4.3482 2.9728 1.7189-1.3129 0.7641-4.1315-2.3889z" style="fill-opacity:.87513;fill:#0f0f0f"/><path d="m2061.7-1864.8 1.3127-0.7641 9.9803 5.7706-1.3128 0.7639zm3.2593-1.8971 1.3129-0.7641 9.9802 5.7708-1.3128 0.764z" style="fill-opacity:.87513;fill:#0f0f0f"/><path d="m2076.4-1852.4-1.6617-0.9608c1.2717-1.1972 2.2382-2.1088 2.8997-2.7346 0.6667-0.6228 1.465-1.3376 2.3949-2.1444-0.909 0.3497-1.7348 0.6635-2.4776 0.9412-0.7374 0.2808-2.7177 0.9914-5.9409 2.1317l-1.6618-0.9608 10.528-8.0827 1.5101 0.8733-6.6894 4.9033c-0.7055 0.5094-1.6618 1.1678-2.8689 1.9753 1.0033-0.3861 1.8326-0.7049 2.4876-0.9564 0.6604-0.2483 2.6585-0.9662 5.9944-2.1535l1.3982 0.8084c-1.1597 1.1012-2.0732 1.9664-2.7407 2.5959-0.6622 0.6324-1.5266 1.4104-2.5935 2.334l3.4121-1.6612 8.3913-3.9189 1.5099 0.8731z" style="fill-opacity:.87513;fill:#0f0f0f"/><path d="m2086.2-1846.7-1.6615-0.9606c1.2717-1.197 2.2383-2.1085 2.8998-2.7343 0.6668-0.6227 1.4651-1.3374 2.395-2.1441-0.9089 0.3497-1.7348 0.6634-2.4775 0.9411-0.7374 0.2808-2.7177 0.9913-5.9407 2.1315l-1.6616-0.9607 10.528-8.0815 1.5099 0.8731-6.6896 4.9026c-0.7055 0.5093-1.6618 1.1676-2.8689 1.975 1.0033-0.386 1.8325-0.7048 2.4875-0.9562 0.6604-0.2483 2.6585-0.9661 5.9942-2.1533l1.398 0.8084c-1.1597 1.101-2.0732 1.9661-2.7408 2.5954-0.6622 0.6324-1.5267 1.4103-2.5936 2.3337l3.4121-1.6609 8.3911-3.9183 1.5097 0.873z" style="fill-opacity:.87513;fill:#0f0f0f"/><path d="m2091.2-1847.7 1.3128-0.7637 9.9759 5.768-1.3127 0.7637zm3.2594-1.8962 1.3128-0.7638 9.976 5.7683-1.3129 0.7637z" style="fill-opacity:.87513;fill:#0f0f0f"/><path d="m2101-1842.1 1.3128-0.7636 9.9745 5.7672-1.3128 0.7635zm3.2594-1.896 1.3128-0.7637 9.9745 5.7675-1.3128 0.7636z" style="fill-opacity:.87513;fill:#0f0f0f"/><path d="m2110.8-1836.4 1.3128-0.7636 9.9731 5.7664-1.3128 0.7634zm3.2594-1.8958 1.3128-0.7636 9.9731 5.7667-1.3128 0.7635z" style="fill-opacity:.87513;fill:#0f0f0f"/><path d="m2127.6-1826.7-7.0019-4.0483 1.3128-0.7634 5.8442 3.3791 10.73-6.2392 1.1576 0.6694zm8.0106-9.3339 1.1576 0.6694-8.783 5.1074-4.1277-2.3867 1.3128-0.7634 2.9701 1.7173z" style="fill-opacity:.87513;fill:#0f0f0f"/><path d="m2145.4-1830.3 1.1575 0.6694-10.73 6.2385 5.8431 3.3784-1.3128 0.7632-7.0006-4.0476zm2.8738 1.6619 1.1574 0.6693-7.4702 4.3432 2.9694 1.7169-1.3129 0.7633-4.1268-2.3862z" style="fill-opacity:.87513;fill:#0f0f0f"/><path d="m2140.2-1819.4 1.3127-0.7632 9.9688 5.7639-1.3128 0.7631zm3.2593-1.8949 1.3128-0.7633 9.9688 5.7642-1.3128 0.7631z" style="fill-opacity:.87513;fill:#0f0f0f"/><path d="m2157.1-1809.7-6.9988-4.0466 1.3128-0.7631 5.8417 3.3776 10.73-6.2365 1.1571 0.6691zm8.0124-9.33 1.1571 0.6692-8.783 5.1052-4.126-2.3857 1.3129-0.7631 2.9688 1.7166z" style="fill-opacity:.87513;fill:#0f0f0f"/><path d="m2194.5-1802 1.1567 0.6689-10.73 6.234 5.8388 3.376-1.3128 0.7626-6.9955-4.0446zm2.8717 1.6607 1.1566 0.6688-7.4702 4.3401 2.9672 1.7157-1.3128 0.7627-4.1238-2.3844z" style="fill-opacity:.87513;fill:#0f0f0f"/><path d="m2189.3-1791 1.3128-0.7627 9.9616 5.7598-1.3128 0.7625zm3.2594-1.8936 1.3128-0.7627 9.9616 5.76-1.3129 0.7626z" style="fill-opacity:.87513;fill:#0f0f0f"/><path d="m2206.1-1781.3-6.9938-4.0437 1.3128-0.7626 5.8375 3.3752 10.73-6.232 1.1563 0.6687zm8.0152-9.3232 1.1563 0.6686-8.783 5.1016-4.123-2.384 1.3129-0.7626 2.9666 1.7154z" style="fill-opacity:.87513;fill:#0f0f0f"/><path d="m2223.9-1785 1.1562 0.6686-10.73 6.2313 5.8363 3.3745-1.3128 0.7623-6.9924-4.0429zm2.8705 1.6599 1.1561 0.6686-7.4702 4.3381 2.9659 1.715-1.3128 0.7624-4.122-2.3834z" style="fill-opacity:.87513;fill:#0f0f0f"/><path d="m2218.7-1774 1.3128-0.7623 9.9572 5.7572-1.3127 0.7622zm3.2593-1.8927 1.3129-0.7624 9.9572 5.7575-1.3128 0.7623z" style="fill-opacity:.87513;fill:#0f0f0f"/><path d="m2228.5-1768.4 1.3128-0.7623 9.9558 5.7564-1.3127 0.7622zm3.2594-1.8925 1.3128-0.7623 9.9558 5.7567-1.3128 0.7622z" style="fill-opacity:.87513;fill:#0f0f0f"/><path d="m2238.3-1762.7 1.3128-0.7621 9.9544 5.7555-1.3127 0.7621zm3.2594-1.8922 1.3128-0.7622 9.9544 5.7559-1.3128 0.762z" style="fill-opacity:.87513;fill:#0f0f0f"/><path d="m2248.1-1757 1.3128-0.762 9.953 5.7547-1.3128 0.7619zm3.2594-1.8919 1.3128-0.7621 9.953 5.755-1.3128 0.762z" style="fill-opacity:.87513;fill:#0f0f0f"/><path d="m2257.9-1751.4 1.3128-0.7619 9.9515 5.7539-1.3127 0.7618zm3.2594-1.8917 1.3128-0.7619 9.9515 5.7542-1.3128 0.7618z" style="fill-opacity:.87513;fill:#0f0f0f"/><path d="m2267.7-1745.7 1.3127-0.7618 9.9501 5.7531-1.3127 0.7616zm3.2593-1.8914 1.3128-0.7618 9.9501 5.7533-1.3128 0.7617z" style="fill-opacity:.87513;fill:#0f0f0f"/><path d="m2284.4-1736-6.9857-4.039 1.3128-0.7617 5.8308 3.3714 10.73-6.2249 1.1549 0.6679zm8.0199-9.3125 1.155 0.6679-8.783 5.0957-4.1182-2.3812 1.3128-0.7617 2.9632 1.7134z" style="fill-opacity:.87513;fill:#0f0f0f"/><path d="m2331.6-1722.7 1.1543 0.6676-10.73 6.2214 5.827 3.3692-1.3128 0.7611-6.9814-4.0365zm2.8659 1.6573 1.1542 0.6675-7.4701 4.3314 2.9612 1.7122-1.3128 0.7612-4.1155-2.3796z" style="fill-opacity:.87513;fill:#0f0f0f"/><path d="m2331.2-1705.1-1.6555-0.9572c1.2731-1.1927 2.2409-2.1009 2.9031-2.7244 0.6674-0.6205 1.4666-1.3326 2.3973-2.1364-0.9084 0.3484-1.7337 0.661-2.476 0.9377-0.7369 0.2798-2.7158 0.9877-5.9366 2.1238l-1.6556-0.9572 10.534-8.0526 1.5045 0.87-6.6927 4.885c-0.7058 0.5075-1.6624 1.1635-2.8698 1.968 1.0027-0.3847 1.8313-0.7023 2.486-0.9528 0.66-0.2475 2.6566-0.9626 5.99-2.1456l1.393 0.8055c-1.161 1.097-2.0757 1.959-2.7439 2.5861-0.6629 0.6301-1.5284 1.4052-2.5962 2.3253l3.4111-1.6549 8.3881-3.9043 1.5043 0.8698z" style="fill-opacity:.87513;fill:#0f0f0f"/><path d="m2343.1-1702.1-6.9797-4.0355 1.3127-0.7611 5.8258 3.3684 10.73-6.2195 1.154 0.6673zm8.0233-9.3045 1.154 0.6673-8.783 5.0913-4.1147-2.3791 1.3129-0.7611 2.9606 1.7119z" style="fill-opacity:.87513;fill:#0f0f0f"/><path d="m2044.9-1838.6 17.278-10.054 1.3262 0.7667-17.278 10.054z" style="fill-opacity:.87513;fill:#0f0f0f"/><path d="m2054.7-1832.9 17.278-10.053 1.3261 0.7666-17.278 10.053z" style="fill-opacity:.87513;fill:#0f0f0f"/><path d="m2130.8-1791.1 0.8687-0.5049 9.8782 5.7089-0.8688 0.5049z" style="fill-opacity:.87513;fill:#0f0f0f"/><path d="m2140.6-1785.4 0.8688-0.5049 9.8766 5.7082-0.8687 0.5048z" style="fill-opacity:.87513;fill:#0f0f0f"/><path d="m2150.4-1779.8 0.8688-0.5048 9.8752 5.7073-0.8687 0.5047z" style="fill-opacity:.87513;fill:#0f0f0f"/><path d="m2160.2-1774.1 0.8687-0.5047 9.8739 5.7065-0.8688 0.5046z" style="fill-opacity:.87513;fill:#0f0f0f"/><path d="m2172.8-1768.9 20.16-4.1224 1.4194 0.8205-20.128 4.1408z" style="fill-opacity:.87513;fill:#0f0f0f"/><path d="m2182.6-1763.3 20.159-4.1218 1.4192 0.8204-20.127 4.1402z" style="fill-opacity:.87513;fill:#0f0f0f"/><path d="m2192.4-1757.6 20.158-4.1212 1.419 0.8203-20.126 4.1395z" style="fill-opacity:.87513;fill:#0f0f0f"/><path d="m2199.4-1751.4 0.8687-0.5044 9.8682 5.7032-0.8688 0.5043z" style="fill-opacity:.87513;fill:#0f0f0f"/><path d="m2209.2-1745.8 0.8688-0.5044 9.8667 5.7024-0.8688 0.5043z" style="fill-opacity:.87513;fill:#0f0f0f"/><path d="m2299.7-1691.3 17.278-10.017 1.3213 0.7638-17.278 10.017z" style="fill-opacity:.87513;fill:#0f0f0f"/><path d="m2309.5-1685.7 17.278-10.015 1.3211 0.7636-17.278 10.015z" style="fill-opacity:.87513;fill:#0f0f0f"/><path d="m2011.4-1830.4 17.272-10.052 1.3264 0.7665-17.272 10.052z" style="fill-opacity:.87513;fill:#0f0f0f"/><path d="m2031-1819.1 17.272-10.049 1.3261 0.7663-17.272 10.049z" style="fill-opacity:.87513;fill:#0f0f0f"/><path d="m2100-1783.5 20.16-4.124 1.4204 0.8209-20.128 4.1422z" style="fill-opacity:.87513;fill:#0f0f0f"/><path d="m2116.9-1771.6 0.8685-0.5047 9.8767 5.7062-0.8685 0.5046z" style="fill-opacity:.87513;fill:#0f0f0f"/><path d="m2126.7-1766 0.8685-0.5046 9.8752 5.7054-0.8684 0.5045z" style="fill-opacity:.87513;fill:#0f0f0f"/><path d="m2136.5-1760.3 0.8685-0.5045 9.8738 5.7045-0.8684 0.5045z" style="fill-opacity:.87513;fill:#0f0f0f"/><path d="m2146.3-1754.6 0.8684-0.5045 9.8725 5.7037-0.8685 0.5044z" style="fill-opacity:.87513;fill:#0f0f0f"/><path d="m2156.1-1749 0.8685-0.5044 9.871 5.7028-0.8685 0.5044z" style="fill-opacity:.87513;fill:#0f0f0f"/><path d="m2165.9-1743.3 0.8684-0.5043 9.8696 5.702-0.8684 0.5043z" style="fill-opacity:.87513;fill:#0f0f0f"/><path d="m2175.7-1737.7 0.8685-0.5042 9.8681 5.7012-0.8684 0.5042z" style="fill-opacity:.87513;fill:#0f0f0f"/><path d="m2204.6-1723.1 7.0973-11.66 1.4185 0.8197-7.0655 11.678z" style="fill-opacity:.87513;fill:#0f0f0f"/><path d="m2276-1677.6 17.272-10.013 1.3213 0.7636-17.272 10.013z" style="fill-opacity:.87513;fill:#0f0f0f"/><path d="m2295.6-1666.3 17.272-10.01 1.3209 0.7633-17.272 10.01z" style="fill-opacity:.87513;fill:#0f0f0f"/><path d="m1987.7-1816.7 17.266-10.049 1.3264 0.7663-17.266 10.048z" style="fill-opacity:.87513;fill:#0f0f0f"/><path d="m2007.3-1805.3 17.266-10.046 1.3261 0.766-17.266 10.046z" style="fill-opacity:.87513;fill:#0f0f0f"/><path d="m2066.5-1775.4 20.156-4.1231 1.4206 0.8206-20.124 4.1415z" style="fill-opacity:.87513;fill:#0f0f0f"/><path d="m2086.1-1764 20.154-4.1219 1.4202 0.8204-20.122 4.1402z" style="fill-opacity:.87513;fill:#0f0f0f"/><path d="m2093.2-1757.9 0.8682-0.5045 9.8766 5.7042-0.8681 0.5044z" style="fill-opacity:.87513;fill:#0f0f0f"/><path d="m2152-1723.9 0.8682-0.5041 9.8681 5.6992-0.8681 0.504z" style="fill-opacity:.87513;fill:#0f0f0f"/><path d="m2171.1-1715 7.0915-11.658 1.4187 0.8196-7.0598 11.676z" style="fill-opacity:.87513;fill:#0f0f0f"/><path d="m2190.6-1703.7 7.0934-11.654 1.4183 0.8193-7.0617 11.672z" style="fill-opacity:.87513;fill:#0f0f0f"/><path d="m2252.3-1663.8 17.266-10.01 1.3212 0.7632-17.266 10.01z" style="fill-opacity:.87513;fill:#0f0f0f"/><path d="m2271.9-1652.5 17.266-10.007 1.3209 0.7631-17.266 10.007z" style="fill-opacity:.87513;fill:#0f0f0f"/><path d="m1964-1802.9 17.26-10.045 1.3264 0.766-17.26 10.045z" style="fill-opacity:.87513;fill:#0f0f0f"/><path d="m1983.6-1791.5 17.26-10.042 1.3261 0.7658-17.26 10.042z" style="fill-opacity:.87513;fill:#0f0f0f"/><path d="m2042.5-1757.5 17.26-10.034 1.3249 0.765-17.26 10.034z" style="fill-opacity:.87513;fill:#0f0f0f"/><path d="m2059.7-1749.8 0.8679-0.5045 9.8782 5.703-0.868 0.5044z" style="fill-opacity:.87513;fill:#0f0f0f"/><path d="m2078.4-1746.1 1.4467-0.8407 4.4676 2.5796-1.4466 0.8406z" style="fill-opacity:.87513;fill:#0f0f0f"/><path d="m2093.2-1738.3c-1.6877 0.9804-3.4182 1.7302-5.1915 2.2492-1.7621 0.5187-3.8647 0.8964-6.3081 1.1333l-1.5315-0.8842c2.4947-0.2421 4.6344-0.6229 6.4191-1.1424 1.7908-0.523 3.4969-1.2555 5.1182-2.1975 1.6154-0.9385 2.8688-1.9255 3.7603-2.9609 0.8975-1.0389 1.5515-2.2814 1.962-3.7274l1.5315 0.8845c-0.4097 1.4393-1.0563 2.6651-1.9396 3.6773s-2.1568 2.0015-3.8204 2.9681z" style="fill-opacity:.87513;fill:#0f0f0f"/><path d="m2114.6-1726c-1.6455 0.9557-3.2401 1.494-4.7838 1.6148-1.5325 0.1205-2.9286-0.183-4.1886-0.9104-1.2334-0.7121-1.7397-1.5141-1.519-2.4058 0.226-0.8887 1.1527-1.8057 2.7801-2.751 1.6817-0.9768 3.2794-1.5169 4.7932-1.6203 1.5251-0.1038 2.9044 0.2004 4.1378 0.9126 1.2971 0.749 1.8431 1.5495 1.6379 2.4014-0.2053 0.8519-1.1578 1.7715-2.8576 2.7587zm-1.5071-0.8702c1.2959-0.7526 2.08-1.4204 2.3521-2.0034 0.2774-0.5798 0.01-1.1046-0.8039-1.5742-0.8241-0.4759-1.753-0.6352-2.7868-0.4781-1.0337 0.1571-2.1866 0.605-3.4584 1.3438-1.2657 0.7352-2.0387 1.4059-2.3189 2.012-0.2742 0.6026-0.029 1.1249 0.737 1.5669 0.8453 0.488 1.7792 0.6537 2.8015 0.497 1.0224-0.1566 2.1815-0.6113 3.4774-1.364z" style="fill-opacity:.87513;fill:#0f0f0f"/><path d="m2129.5-1717.3c-1.6575 0.9624-2.9294 1.9626-3.8157 3.0003-0.8862 1.0378-1.5303 2.2641-1.9322 3.6791l-1.5147-0.8744c0.4019-1.415 1.0456-2.6381 1.9311-3.6693 0.8969-1.0317 2.1831-2.034 3.8587-3.007 1.6456-0.9556 3.3463-1.6908 5.1022-2.2057 1.762-0.5184 3.8845-0.8984 6.3676-1.14l1.5147 0.8747c-2.443 0.2368-4.5626 0.615-6.3585 1.1347-1.7899 0.5162-3.5076 1.252-5.1532 2.2076z" style="fill-opacity:.87513;fill:#0f0f0f"/><path d="m2137.2-1712.2 1.4466-0.8399 4.4638 2.5774-1.4466 0.8398z" style="fill-opacity:.87513;fill:#0f0f0f"/><path d="m2138.1-1704.5 0.8679-0.5039 9.8667 5.6965-0.8679 0.5038z" style="fill-opacity:.87513;fill:#0f0f0f"/><path d="m2160.1-1689.6 17.26-10.016 1.3226 0.7638-17.26 10.016z" style="fill-opacity:.87513;fill:#0f0f0f"/><path d="m2228.6-1650.1 17.26-10.006 1.3213 0.7629-17.26 10.006z" style="fill-opacity:.87513;fill:#0f0f0f"/><path d="m2248.2-1638.8 17.26-10.004 1.3209 0.7628-17.26 10.003z" style="fill-opacity:.87513;fill:#0f0f0f"/><path d="m1940.3-1789.1 17.254-10.042 1.3265 0.7657-17.254 10.042z" style="fill-opacity:.87513;fill:#0f0f0f"/><path d="m1976.6-1772.4 7.0681-11.675 1.4217 0.8208-7.0362 11.693z" style="fill-opacity:.87513;fill:#0f0f0f"/><path d="m1977.1-1770 0.8676-0.5047 9.8866 5.7059-0.8676 0.5047z" style="fill-opacity:.87513;fill:#0f0f0f"/><path d="m1986.9-1764.3 0.8676-0.5046 9.8852 5.7051-0.8676 0.5045z" style="fill-opacity:.87513;fill:#0f0f0f"/><path d="m1996.7-1758.6 0.8676-0.5045 9.8838 5.7043-0.8676 0.5045z" style="fill-opacity:.87513;fill:#0f0f0f"/><path d="m2006.6-1753 0.8676-0.5045 9.8824 5.7035-0.8676 0.5044z" style="fill-opacity:.87513;fill:#0f0f0f"/><path d="m2018.8-1743.8 17.254-10.03 1.3249 0.7648-17.254 10.03z" style="fill-opacity:.87513;fill:#0f0f0f"/><path d="m2045.3-1732.7 7.0747-11.663 1.4203 0.8199-7.0429 11.681z" style="fill-opacity:.87513;fill:#0f0f0f"/><path d="m2045.8-1730.3 0.8676-0.5042 9.8767 5.7002-0.8676 0.5041z" style="fill-opacity:.87513;fill:#0f0f0f"/><path d="m2055.6-1724.7 0.8676-0.5041 9.8753 5.6994-0.8676 0.504z" style="fill-opacity:.87513;fill:#0f0f0f"/><path d="m2065.4-1719 0.8676-0.504 9.8739 5.6985-0.8676 0.504z" style="fill-opacity:.87513;fill:#0f0f0f"/><path d="m2088.7-1712.5 4.6343-5.7299-9.8576 2.7151-1.2122-0.6997 11.212-3.0217 1.6188 0.9344-5.1677 6.5106z" style="fill-opacity:.87513;fill:#0f0f0f"/><path d="m2085-1707.7 0.8677-0.5039 9.871 5.6969-0.8676 0.5038z" style="fill-opacity:.87513;fill:#0f0f0f"/><path d="m2094.8-1702 0.8676-0.5038 9.8696 5.6961-0.8676 0.5037z" style="fill-opacity:.87513;fill:#0f0f0f"/><path d="m2104.6-1696.4 0.8676-0.5038 9.8682 5.6953-0.8676 0.5037z" style="fill-opacity:.87513;fill:#0f0f0f"/><path d="m2117.2-1691.2 20.137-4.1144 1.4186 0.8189-20.105 4.1327z" style="fill-opacity:.87513;fill:#0f0f0f"/><path d="m2136.4-1675.9 17.254-10.013 1.3226 0.7635-17.254 10.013z" style="fill-opacity:.87513;fill:#0f0f0f"/><path d="m2143.8-1673.8 0.8676-0.5035 9.8625 5.692-0.8676 0.5034z" style="fill-opacity:.87513;fill:#0f0f0f"/><path d="m2153.6-1668.1 0.8676-0.5034 9.861 5.6912-0.8676 0.5033z" style="fill-opacity:.87513;fill:#0f0f0f"/><path d="m2163.4-1662.5 0.8676-0.5033 9.8596 5.6903-0.8676 0.5033z" style="fill-opacity:.87513;fill:#0f0f0f"/><path d="m2173.1-1656.8 0.8676-0.5032 9.8583 5.6895-0.8676 0.5032z" style="fill-opacity:.87513;fill:#0f0f0f"/><path d="m2182.9-1651.2 0.8676-0.5032 9.8568 5.6888-0.8676 0.5031z" style="fill-opacity:.87513;fill:#0f0f0f"/><path d="m2195.5-1646 20.129-4.1097 1.417 0.818-20.098 4.1279z" style="fill-opacity:.87513;fill:#0f0f0f"/><path d="m2224.5-1625.1 17.254-10 1.321 0.7625-17.254 9.9999z" style="fill-opacity:.87513;fill:#0f0f0f"/><path d="m1933.3-1769.9 7.0614-11.674 1.4222 0.8207-7.0296 11.692z" style="fill-opacity:.87513;fill:#0f0f0f"/><path d="m2191.4-1621 20.123-4.107 1.4165 0.8174-20.091 4.1253z" style="fill-opacity:.87513;fill:#0f0f0f"/></g><path x="947.6781" y="-1796.2705" width="900" height="900" ry="0" d="m2699.8-1889.2 489.89 284.38-556.19 321.86-489.89-282.06z" style="fill:none;stroke-linejoin:round;stroke-width:52.132"/></g></g></g></svg>
