<svg width="2355" height="3500" viewBox="0 0 2355 3500" fill="none" xmlns="http://www.w3.org/2000/svg">
<path d="M1873.94 2354.55V1093.11L1132.8 1522.12V2786.04L1873.94 2354.55" fill="#B5B5B5"/>
<path d="M480.053 2407.6V1146.16L1132.85 1522.12V2786.04L480.053 2407.6" fill="#EFEFEF"/>
<path d="M535.567 2332.52V1285.62L1077.34 1597.63V2646.58L535.567 2332.52" fill="#2D2D2D"/>
<path d="M1873.94 1093.05L1221.14 714L480 1146.1L1132.8 1522.07L1873.94 1093.05Z" fill="#D6D6D6"/>
<path d="M535.567 2332.52L608.045 2287.61L1077.34 2556.63V2646.58L535.568 2332.52" fill="#1E1E1E"/>
<path d="M608.043 2287.61V1327.35L535.565 1285.62V2332.52L608.043 2287.61" fill="#0F0F0F"/>
<path d="M1027.79 1751.94L1038.75 1747.37V1647.92L1027.79 1652.49V1751.94Z" fill="#0C0C0C"/>
<path d="M657.387 1528.92V1430.2L1038.76 1647.88V1747.33L657.387 1528.92Z" fill="#1C1C1C"/>
<path d="M646.42 1533.58V1434.87L1027.79 1652.54V1751.99L646.42 1533.58Z" fill="#3F3F3F"/>
<path d="M951.797 1640.35V1623.34L1017.51 1660.84V1677.98L951.797 1640.35Z" fill="#8C8C8C"/>
<path d="M951.797 1667.67V1650.67L1017.51 1688.17V1705.31L951.797 1667.67Z" fill="#8C8C8C"/>
<path d="M951.797 1695.13V1678.12L1017.51 1715.63V1732.76L951.797 1695.13Z" fill="#8C8C8C"/>
<path d="M867.528 1618.36V1601.33L933.239 1638.84V1655.98L867.528 1618.36Z" fill="#8C8C8C"/>
<path d="M867.528 1645.81V1628.81L933.239 1666.31V1683.44L867.528 1645.81Z" fill="#8C8C8C"/>
<path d="M782.352 1541.05V1524.04L848.062 1561.55V1578.67L782.352 1541.05Z" fill="#8C8C8C"/>
<path d="M782.352 1568.5V1551.5L848.062 1588.99V1606.13L782.352 1568.5Z" fill="#8C8C8C"/>
<path d="M782.352 1595.96V1578.95L848.062 1616.46V1633.6L782.352 1595.96Z" fill="#8C8C8C"/>
<path d="M698.083 1519.19V1502.18L763.793 1539.67V1556.81L698.083 1519.19Z" fill="#8C8C8C"/>
<path d="M698.083 1546.51V1529.5L763.793 1567.01V1584.15L698.083 1546.51Z" fill="#8C8C8C"/>
<path d="M1027.79 1652.48L1038.75 1647.91L657.382 1430.23L646.419 1434.8L1027.79 1652.48" fill="#191919"/>
<path d="M657.387 1668.34V1569.62L1038.76 1787.3V1886.75L657.387 1668.34Z" fill="#1C1C1C"/>
<path d="M646.42 1672.87V1574.16L1027.79 1791.82V1891.28L646.42 1672.87Z" fill="#3F3F3F"/>
<path d="M951.797 1779.65V1762.64L1017.51 1800.14V1817.28L951.797 1779.65Z" fill="#8C8C8C"/>
<path d="M951.797 1807.06V1790.05L1017.51 1827.56V1844.7L951.797 1807.06Z" fill="#8C8C8C"/>
<path d="M951.797 1834.47V1817.47L1017.51 1854.97V1872.1L951.797 1834.47Z" fill="#8C8C8C"/>
<path d="M867.528 1757.71V1740.7L933.239 1778.21V1795.35L867.528 1757.71Z" fill="#8C8C8C"/>
<path d="M867.528 1785.13V1768.12L933.239 1805.63V1822.76L867.528 1785.13Z" fill="#8C8C8C"/>
<path d="M782.352 1680.47V1663.46L848.062 1700.97V1718.1L782.352 1680.47Z" fill="#8C8C8C"/>
<path d="M782.352 1707.79V1690.79L848.062 1728.28V1745.42L782.352 1707.79Z" fill="#8C8C8C"/>
<path d="M782.352 1735.25V1718.24L848.062 1755.75V1772.88L782.352 1735.25Z" fill="#8C8C8C"/>
<path d="M698.083 1658.48V1641.47L763.793 1678.96V1696.1L698.083 1658.48Z" fill="#8C8C8C"/>
<path d="M698.083 1685.93V1668.93L763.793 1706.43V1723.56L698.083 1685.93Z" fill="#8C8C8C"/>
<path d="M1027.79 1791.83L1038.75 1787.28L657.382 1569.6L646.419 1574.17L1027.79 1791.83" fill="#191919"/>
<path d="M657.387 1807.67V1708.95L1038.76 1926.63V2026.08L657.387 1807.67Z" fill="#1C1C1C"/>
<path d="M646.42 1812.24V1713.53L1027.79 1931.19V2030.65L646.42 1812.24Z" fill="#3F3F3F"/>
<path d="M951.797 1919.01V1902L1017.51 1939.49V1956.64L951.797 1919.01Z" fill="#8C8C8C"/>
<path d="M951.797 1946.41V1929.4L1017.51 1966.91V1984.04L951.797 1946.41Z" fill="#8C8C8C"/>
<path d="M951.797 1973.83V1956.82L1017.51 1994.33V2011.46L951.797 1973.83Z" fill="#8C8C8C"/>
<path d="M867.528 1897.07V1880.06L933.239 1917.57V1934.71L867.528 1897.07Z" fill="#8C8C8C"/>
<path d="M867.528 1924.49V1907.48L933.239 1944.99V1962.11L867.528 1924.49Z" fill="#8C8C8C"/>
<path d="M782.352 1819.79V1802.78L848.062 1840.29V1857.41L782.352 1819.79Z" fill="#8C8C8C"/>
<path d="M782.352 1847.2V1830.2L848.062 1867.69V1884.83L782.352 1847.2Z" fill="#8C8C8C"/>
<path d="M782.352 1874.61V1857.6L848.062 1895.11V1912.25L782.352 1874.61Z" fill="#8C8C8C"/>
<path d="M698.083 1797.86V1780.85L763.793 1818.35V1835.49L698.083 1797.86Z" fill="#8C8C8C"/>
<path d="M698.083 1825.26V1808.26L763.793 1845.76V1862.89L698.083 1825.26Z" fill="#8C8C8C"/>
<path d="M1027.79 1931.19L1038.75 1926.63L657.382 1708.95L646.419 1713.53L1027.79 1931.19" fill="#191919"/>
<path d="M657.387 1947.03V1848.31L1038.76 2065.99V2165.44L657.387 1947.03Z" fill="#1C1C1C"/>
<path d="M646.42 1951.6V1852.88L1027.79 2070.55V2170.01L646.42 1951.6Z" fill="#3F3F3F"/>
<path d="M951.797 2058.36V2041.36L1017.51 2078.85V2095.99L951.797 2058.36Z" fill="#8C8C8C"/>
<path d="M951.797 2085.77V2068.76L1017.51 2106.27V2123.41L951.797 2085.77Z" fill="#8C8C8C"/>
<path d="M951.797 2113.19V2096.18L1017.51 2133.69V2150.81L951.797 2113.19" fill="#8C8C8C"/>
<path d="M867.528 2036.42V2019.42L933.239 2056.92V2074.07L867.528 2036.42Z" fill="#8C8C8C"/>
<path d="M867.528 2063.84V2046.83L933.239 2084.34V2101.47L867.528 2063.84" fill="#8C8C8C"/>
<path d="M782.352 1959.14V1942.13L848.062 1979.64V1996.77L782.352 1959.14Z" fill="#8C8C8C"/>
<path d="M782.352 1986.56V1969.54L848.062 2007.05V2024.19L782.352 1986.56Z" fill="#8C8C8C"/>
<path d="M782.352 2013.96V1996.96L848.062 2034.46V2051.59L782.352 2013.96" fill="#8C8C8C"/>
<path d="M698.083 1937.2V1920.21L763.793 1957.7V1974.84L698.083 1937.2Z" fill="#8C8C8C"/>
<path d="M698.083 1964.62V1947.61L763.793 1985.12V2002.25L698.083 1964.62Z" fill="#8C8C8C"/>
<path d="M1027.79 2070.55L1038.75 2065.99L657.382 1848.31L646.419 1852.88L1027.79 2070.55" fill="#191919"/>
<path d="M657.387 2086.38V1987.67L1038.76 2205.33V2304.79L657.387 2086.38" fill="#1C1C1C"/>
<path d="M646.42 2090.94V1992.24L1027.79 2209.9V2309.36L646.42 2090.94Z" fill="#3F3F3F"/>
<path d="M951.797 2197.72V2180.71L1017.51 2218.21V2235.35L951.797 2197.72Z" fill="#8C8C8C"/>
<path d="M951.797 2225.12V2208.12L1017.51 2245.62V2262.75L951.797 2225.12" fill="#8C8C8C"/>
<path d="M951.797 2252.54V2235.53L1017.51 2273.04V2290.17L951.797 2252.54" fill="#8C8C8C"/>
<path d="M867.528 2175.78V2158.77L933.239 2196.28V2213.41L867.528 2175.78" fill="#8C8C8C"/>
<path d="M867.528 2203.2V2186.19L933.239 2223.7V2240.83L867.528 2203.2" fill="#8C8C8C"/>
<path d="M782.352 2098.5V2081.49L848.062 2118.98V2136.13L782.352 2098.5Z" fill="#8C8C8C"/>
<path d="M782.352 2125.9V2108.89L848.062 2146.4V2163.54L782.352 2125.9Z" fill="#8C8C8C"/>
<path d="M782.352 2153.32V2136.31L848.062 2173.82V2190.95L782.352 2153.32" fill="#8C8C8C"/>
<path d="M698.083 2076.56V2059.55L763.793 2097.06V2114.2L698.083 2076.56Z" fill="#8C8C8C"/>
<path d="M698.083 2103.98V2086.97L763.793 2124.48V2141.6L698.083 2103.98" fill="#8C8C8C"/>
<path d="M1027.79 2209.9L1038.75 2205.33L657.382 1987.67L646.419 1992.24L1027.79 2209.9" fill="#191919"/>
<path d="M657.387 2225.74V2127.02L1038.76 2344.69V2444.15L657.387 2225.74" fill="#1C1C1C"/>
<path d="M646.42 2230.3V2131.59L1027.79 2349.26V2448.72L646.42 2230.3Z" fill="#3F3F3F"/>
<path d="M951.797 2337.06V2320.05L1017.51 2357.56V2374.7L951.797 2337.06Z" fill="#8C8C8C"/>
<path d="M951.797 2364.48V2347.47L1017.51 2384.98V2402.11L951.797 2364.48" fill="#8C8C8C"/>
<path d="M951.797 2391.9V2374.89L1017.51 2412.4V2429.53L951.797 2391.9" fill="#8C8C8C"/>
<path d="M867.528 2315.14V2298.13L933.239 2335.64V2352.76L867.528 2315.14" fill="#8C8C8C"/>
<path d="M867.528 2342.55V2325.55L933.239 2363.05V2380.18L867.528 2342.55" fill="#8C8C8C"/>
<path d="M782.352 2237.85V2220.85L848.062 2258.34V2275.48L782.352 2237.85Z" fill="#8C8C8C"/>
<path d="M782.352 2265.26V2248.25L848.062 2285.76V2302.9L782.352 2265.26Z" fill="#8C8C8C"/>
<path d="M782.352 2292.68V2275.67L848.062 2313.18V2330.3L782.352 2292.68" fill="#8C8C8C"/>
<path d="M698.083 2215.91V2198.91L763.793 2236.41V2253.56L698.083 2215.91Z" fill="#8C8C8C"/>
<path d="M698.083 2243.33V2226.32L763.793 2263.83V2280.96L698.083 2243.33" fill="#8C8C8C"/>
<path d="M1027.79 2349.26L1038.75 2344.69L657.382 2127.02L646.419 2131.59L1027.79 2349.26" fill="#191919"/>
<path d="M1038.76 1647.95L1027.8 1652.52V1751.97L1038.76 1747.39V1647.95Z" fill="#0F0F0F"/>
<path d="M1814.64 2323.29L1811.98 2209.9L1795.59 2220.98L1798.21 2333.05L1814.64 2323.29" fill="#1E1E1E"/>
<path d="M1789.32 2336.96L1786.66 2223.58L1770.25 2234.65L1772.89 2346.71L1789.32 2336.96" fill="#1E1E1E"/>
<path d="M1762.54 2352.72L1759.87 2239.33L1743.47 2250.41L1746.11 2362.47L1762.54 2352.72" fill="#1E1E1E"/>
<path d="M1737.22 2366.39L1734.56 2253.01L1718.15 2264.09L1720.79 2376.14L1737.22 2366.39" fill="#1E1E1E"/>
<path d="M1710.3 2382.16L1707.64 2268.76L1691.23 2279.84L1693.87 2391.9L1710.3 2382.16" fill="#1E1E1E"/>
<path d="M1684.99 2395.82L1682.32 2282.44L1665.93 2293.52L1668.56 2405.57L1684.99 2395.82Z" fill="#1E1E1E"/>
<path d="M1658.2 2411.57L1655.54 2298.19L1639.13 2309.27L1641.77 2421.33L1658.2 2411.57" fill="#1E1E1E"/>
<path d="M1633.02 2425.25L1630.35 2311.87L1613.95 2322.95L1616.59 2435L1633.02 2425.25" fill="#1E1E1E"/>
<path d="M1607.43 2440.59L1604.77 2327.2L1588.36 2338.29L1591 2450.35L1607.43 2440.59" fill="#1E1E1E"/>
<path d="M1582.11 2454.27L1579.45 2340.87L1563.04 2351.95L1565.67 2464.02L1582.11 2454.27" fill="#1E1E1E"/>
<path d="M1555.33 2470.02L1552.66 2356.63L1536.26 2367.72L1538.9 2479.78L1555.33 2470.02" fill="#1E1E1E"/>
<path d="M1530.01 2483.7L1527.35 2370.31L1510.94 2381.38L1513.58 2493.45L1530.01 2483.7" fill="#1E1E1E"/>
<path d="M1503.23 2499.45L1500.56 2386.06L1484.16 2397.15L1486.78 2509.21L1503.23 2499.45Z" fill="#1E1E1E"/>
<path d="M1477.91 2513.13L1475.24 2399.74L1458.84 2410.81L1461.48 2522.87L1477.91 2513.13" fill="#1E1E1E"/>
<path d="M1451.12 2528.88L1448.46 2415.49L1432.06 2426.57L1434.69 2538.64L1451.12 2528.88" fill="#1E1E1E"/>
<path d="M1425.81 2542.54L1423.14 2429.17L1406.75 2440.24L1409.38 2552.3L1425.81 2542.54" fill="#1E1E1E"/>
<path d="M1400.36 2556.74L1397.69 2443.35L1381.29 2454.44L1383.93 2566.5L1400.36 2556.74" fill="#1E1E1E"/>
<path d="M1375.04 2570.4L1372.36 2457.03L1355.97 2468.1L1358.59 2580.16L1375.04 2570.4" fill="#1E1E1E"/>
<path d="M1348.25 2586.17L1345.59 2472.78L1329.2 2483.86L1331.82 2595.93L1348.25 2586.17" fill="#1E1E1E"/>
<path d="M1322.93 2599.83L1320.27 2486.46L1303.87 2497.53L1306.5 2609.59L1322.93 2599.83" fill="#1E1E1E"/>
<path d="M1296.15 2615.6L1293.49 2502.21L1277.08 2513.29L1279.71 2625.36L1296.15 2615.6" fill="#1E1E1E"/>
<path d="M1270.83 2629.26L1268.17 2515.89L1251.76 2526.96L1254.4 2639.02L1270.83 2629.26" fill="#1E1E1E"/>
<path d="M1244.05 2645.03L1241.38 2531.64L1224.98 2542.72L1227.62 2654.79L1244.05 2645.03" fill="#1E1E1E"/>
<path d="M1218.73 2658.69L1216.07 2545.32L1199.68 2556.39L1202.3 2668.45L1218.73 2658.69Z" fill="#1E1E1E"/>
<path d="M1814.64 1903.53L1811.98 1790.14L1795.59 1801.22L1798.21 1913.29L1814.64 1903.53" fill="#1E1E1E"/>
<path d="M1789.32 1917.19L1786.66 1803.82L1770.25 1814.89L1772.89 1926.95L1789.32 1917.19" fill="#1E1E1E"/>
<path d="M1762.54 1932.96L1759.87 1819.57L1743.47 1830.65L1746.11 1942.72L1762.54 1932.96" fill="#1E1E1E"/>
<path d="M1737.22 1946.63L1734.56 1833.25L1718.15 1844.32L1720.79 1956.38L1737.22 1946.63" fill="#1E1E1E"/>
<path d="M1710.3 1962.39L1707.64 1849L1691.23 1860.08L1693.87 1972.15L1710.3 1962.39" fill="#1E1E1E"/>
<path d="M1684.99 1976.06L1682.32 1862.68L1665.93 1873.75L1668.56 1985.81L1684.99 1976.06Z" fill="#1E1E1E"/>
<path d="M1658.2 1991.81L1655.54 1878.43L1639.13 1889.51L1641.77 2001.58L1658.2 1991.81" fill="#1E1E1E"/>
<path d="M1633.02 2005.49L1630.35 1892.11L1613.95 1903.19L1616.59 2015.24L1633.02 2005.49" fill="#1E1E1E"/>
<path d="M1607.43 2020.83L1604.77 1907.45L1588.36 1918.53L1591 2030.59L1607.43 2020.83" fill="#1E1E1E"/>
<path d="M1582.11 2034.5L1579.45 1921.11L1563.04 1932.19L1565.67 2044.26L1582.11 2034.5Z" fill="#1E1E1E"/>
<path d="M1555.33 2050.26L1552.66 1936.88L1536.26 1947.96L1538.9 2060.02L1555.33 2050.26" fill="#1E1E1E"/>
<path d="M1530.01 2063.94L1527.35 1950.54L1510.94 1961.62L1513.58 2073.69L1530.01 2063.94" fill="#1E1E1E"/>
<path d="M1503.23 2079.69L1500.56 1966.31L1484.16 1977.39L1486.78 2089.45L1503.23 2079.69Z" fill="#1E1E1E"/>
<path d="M1477.91 2093.37L1475.24 1979.98L1458.84 1991.05L1461.48 2103.12L1477.91 2093.37" fill="#1E1E1E"/>
<path d="M1451.12 2109.12L1448.46 1995.73L1432.06 2006.82L1434.69 2118.88L1451.12 2109.12" fill="#1E1E1E"/>
<path d="M1425.81 2122.8L1423.14 2009.41L1406.75 2020.48L1409.38 2132.54L1425.81 2122.8Z" fill="#1E1E1E"/>
<path d="M1400.36 2136.98L1397.69 2023.59L1381.29 2034.68L1383.93 2146.74L1400.36 2136.98" fill="#1E1E1E"/>
<path d="M1375.04 2150.64L1372.36 2037.26L1355.97 2048.34L1358.59 2160.4L1375.04 2150.64Z" fill="#1E1E1E"/>
<path d="M1348.25 2166.41L1345.59 2053.02L1329.2 2064.1L1331.82 2176.17L1348.25 2166.41" fill="#1E1E1E"/>
<path d="M1322.93 2180.09L1320.27 2066.69L1303.87 2077.77L1306.5 2189.83L1322.93 2180.09" fill="#1E1E1E"/>
<path d="M1296.15 2195.84L1293.49 2082.45L1277.08 2093.53L1279.71 2205.6L1296.15 2195.84" fill="#1E1E1E"/>
<path d="M1270.83 2209.5L1268.17 2096.13L1251.76 2107.2L1254.4 2219.26L1270.83 2209.5" fill="#1E1E1E"/>
<path d="M1244.05 2225.27L1241.38 2111.88L1224.98 2122.96L1227.62 2235.03L1244.05 2225.27" fill="#1E1E1E"/>
<path d="M1218.73 2238.93L1216.07 2125.56L1199.68 2136.63L1202.3 2248.69L1218.73 2238.93Z" fill="#1E1E1E"/>
<path d="M1814.64 1458.27L1811.98 1344.88L1795.59 1355.96L1798.21 1468.02L1814.64 1458.27Z" fill="#1E1E1E"/>
<path d="M1789.32 1472L1786.66 1358.62L1770.25 1369.7L1772.89 1481.76L1789.32 1472" fill="#1E1E1E"/>
<path d="M1762.54 1487.73L1759.87 1374.35L1743.47 1385.43L1746.11 1497.49L1762.54 1487.73" fill="#1E1E1E"/>
<path d="M1737.22 1501.33L1734.56 1387.95L1718.15 1399.02L1720.79 1511.08L1737.22 1501.33" fill="#1E1E1E"/>
<path d="M1710.3 1517.19L1707.64 1403.81L1691.23 1414.89L1693.87 1526.94L1710.3 1517.19" fill="#1E1E1E"/>
<path d="M1684.99 1530.78L1682.32 1417.41L1665.93 1428.48L1668.56 1540.54L1684.99 1530.78Z" fill="#1E1E1E"/>
<path d="M1658.2 1546.51L1655.54 1433.13L1639.13 1444.21L1641.77 1556.27L1658.2 1546.51" fill="#1E1E1E"/>
<path d="M1633.02 1560.24L1630.35 1446.85L1613.95 1457.94L1616.59 1570L1633.02 1560.24" fill="#1E1E1E"/>
<path d="M1607.43 1575.57L1604.77 1462.18L1588.36 1473.27L1591 1585.33L1607.43 1575.57" fill="#1E1E1E"/>
<path d="M1582.11 1589.3L1579.45 1475.92L1563.04 1487L1565.67 1599.05L1582.11 1589.3Z" fill="#1E1E1E"/>
<path d="M1555.33 1605.03L1552.66 1491.64L1536.26 1502.71L1538.9 1614.78L1555.33 1605.03" fill="#1E1E1E"/>
<path d="M1530.01 1618.62L1527.35 1505.24L1510.94 1516.32L1513.58 1628.38L1530.01 1618.62" fill="#1E1E1E"/>
<path d="M1503.23 1634.48L1500.56 1521.09L1484.16 1532.17L1486.78 1644.24L1503.23 1634.48" fill="#1E1E1E"/>
<path d="M1477.91 1648.08L1475.24 1534.7L1458.84 1545.78L1461.48 1657.84L1477.91 1648.08" fill="#1E1E1E"/>
<path d="M1451.12 1663.94L1448.46 1550.55L1432.06 1561.63L1434.69 1673.7L1451.12 1663.94" fill="#1E1E1E"/>
<path d="M1425.81 1677.54L1423.14 1564.16L1406.75 1575.24L1409.38 1687.29L1425.81 1677.54Z" fill="#1E1E1E"/>
<path d="M1400.36 1691.67L1397.69 1578.27L1381.29 1589.35L1383.93 1701.41L1400.36 1691.67" fill="#1E1E1E"/>
<path d="M1375.04 1705.39L1372.36 1592.02L1355.97 1603.09L1358.59 1715.15L1375.04 1705.39Z" fill="#1E1E1E"/>
<path d="M1348.25 1721.12L1345.59 1607.75L1329.2 1618.82L1331.82 1730.88L1348.25 1721.12Z" fill="#1E1E1E"/>
<path d="M1322.93 1734.85L1320.27 1621.47L1303.87 1632.55L1306.5 1744.61L1322.93 1734.85" fill="#1E1E1E"/>
<path d="M1296.15 1750.58L1293.49 1637.2L1277.08 1648.28L1279.71 1760.34L1296.15 1750.58Z" fill="#1E1E1E"/>
<path d="M1270.83 1764.26L1268.17 1650.88L1251.76 1661.96L1254.4 1774.01L1270.83 1764.26" fill="#1E1E1E"/>
<path d="M1244.05 1780.01L1241.38 1666.63L1224.98 1677.71L1227.62 1789.77L1244.05 1780.01" fill="#1E1E1E"/>
<path d="M1218.73 1793.69L1216.07 1680.31L1199.68 1691.39L1202.3 1803.44L1218.73 1793.69Z" fill="#1E1E1E"/>
<path d="M1133.81 1470.27L1192.89 1434.89L1181.34 1427.67L1123.09 1464.31L1133.81 1470.27Z" fill="#1E1E1E"/>
<path d="M1115.91 1459.87L1174.99 1424.5L1163.44 1417.27L1105.19 1453.91L1115.91 1459.87" fill="#1E1E1E"/>
<path d="M1098.39 1449.88L1157.47 1414.49L1145.92 1407.28L1087.67 1443.92L1098.39 1449.88Z" fill="#1E1E1E"/>
<path d="M1080.49 1439.48L1139.58 1404.1L1128.02 1396.88L1069.77 1433.52L1080.49 1439.48Z" fill="#1E1E1E"/>
<path d="M1061.86 1428.68L1120.94 1393.29L1109.39 1386.07L1051.15 1422.72L1061.86 1428.68" fill="#1E1E1E"/>
<path d="M1043.97 1418.28L1103.05 1382.9L1091.49 1375.69L1033.25 1412.33L1043.97 1418.28Z" fill="#1E1E1E"/>
<path d="M1026.45 1408.29L1085.53 1372.9L1073.97 1365.67L1015.73 1402.33L1026.45 1408.29" fill="#1E1E1E"/>
<path d="M1008.55 1397.89L1067.63 1362.5L1056.08 1355.28L997.831 1391.93L1008.55 1397.89Z" fill="#1E1E1E"/>
<path d="M989.015 1385.9L1048.09 1350.51L1036.54 1343.28L978.295 1379.92L989.015 1385.9" fill="#1E1E1E"/>
<path d="M971.119 1375.37L1030.2 1339.98L1018.65 1332.75L960.4 1369.39L971.119 1375.37" fill="#1E1E1E"/>
<path d="M953.583 1365.5L1012.66 1330.13L1001.11 1322.9L942.864 1359.54L953.583 1365.5" fill="#1E1E1E"/>
<path d="M935.7 1354.97L994.78 1319.58L983.224 1312.36L924.98 1349L935.7 1354.97" fill="#1E1E1E"/>
<path d="M917.071 1344.31L976.152 1308.93L964.596 1301.71L906.351 1338.35L917.071 1344.31Z" fill="#1E1E1E"/>
<path d="M899.176 1333.78L958.255 1298.4L946.699 1291.18L888.456 1327.82L899.176 1333.78" fill="#1E1E1E"/>
<path d="M881.653 1323.91L940.734 1288.54L929.179 1281.31L870.934 1317.96L881.653 1323.91Z" fill="#1E1E1E"/>
<path d="M863.757 1313.38L922.838 1278.01L911.282 1270.78L853.037 1307.43L863.757 1313.38" fill="#1E1E1E"/>
<path d="M845.248 1302.45L904.328 1267.07L892.773 1259.84L834.529 1296.48L845.248 1302.45" fill="#1E1E1E"/>
<path d="M827.352 1291.92L886.433 1256.54L874.876 1249.31L816.632 1285.95L827.352 1291.92" fill="#1E1E1E"/>
<path d="M809.829 1282.06L868.91 1246.69L857.355 1239.46L799.11 1276.1L809.829 1282.06" fill="#1E1E1E"/>
<path d="M791.92 1271.53L851 1236.14L839.446 1228.92L781.202 1265.56L791.92 1271.53" fill="#1E1E1E"/>
<path d="M773.304 1260.87L832.385 1225.49L820.828 1218.27L762.585 1254.91L773.304 1260.87Z" fill="#1E1E1E"/>
<path d="M755.408 1250.34L814.49 1214.95L802.933 1207.72L744.689 1244.37L755.408 1250.34" fill="#1E1E1E"/>
<path d="M737.885 1240.47L796.965 1205.1L785.409 1197.87L727.165 1234.52L737.885 1240.47" fill="#1E1E1E"/>
<path d="M719.989 1229.94L779.07 1194.57L767.516 1187.34L709.271 1223.99L719.989 1229.94" fill="#1E1E1E"/>
<path d="M700.455 1218.08L759.535 1182.69L747.981 1175.48L689.736 1212.12L700.455 1218.08" fill="#1E1E1E"/>
<path d="M682.545 1207.55L741.624 1172.18L730.069 1164.95L671.826 1201.59L682.545 1207.55" fill="#1E1E1E"/>
<path d="M665.023 1197.69L724.102 1162.3L712.549 1155.07L654.304 1191.73L665.023 1197.69" fill="#1E1E1E"/>
<path d="M647.127 1187.16L706.207 1151.77L694.652 1144.56L636.409 1181.2L647.127 1187.16Z" fill="#1E1E1E"/>
<path d="M628.511 1176.49L687.593 1141.11L676.037 1133.88L617.793 1170.52L628.511 1176.49" fill="#1E1E1E"/>
<path d="M610.615 1165.96L669.696 1130.58L658.141 1123.35L599.896 1160.01L610.615 1165.96" fill="#1E1E1E"/>
<path d="M593.079 1156.1L652.158 1120.71L640.602 1113.49L582.358 1150.13L593.079 1156.1" fill="#1E1E1E"/>
<path d="M575.183 1145.57L634.262 1110.18L622.709 1102.96L564.464 1139.61L575.183 1145.57" fill="#1E1E1E"/>
<path d="M1132.65 912.523L1119.56 904.941L1147.6 888.614L1160.69 896.198L1132.65 912.523Z" fill="#0F0F0F" fill-opacity="0.87513"/>
<path d="M1145.71 920.121L1132.62 912.54L1160.66 896.216L1173.75 903.799L1145.71 920.121Z" fill="#0F0F0F" fill-opacity="0.87513"/>
<path d="M1173.02 914.922L1154.96 925.438L1153.41 924.544L1169.73 915.048L1161.94 910.533L1163.69 909.512L1173.02 914.922ZM1151.13 923.218L1149.58 922.324L1161.55 915.36L1157.59 913.065L1159.34 912.045L1164.84 915.234L1151.13 923.218Z" fill="#0F0F0F" fill-opacity="0.87513"/>
<path d="M1250.31 980.635L1237.24 973.063L1265.28 956.758L1278.35 964.332L1250.31 980.635Z" fill="#0F0F0F" fill-opacity="0.87513"/>
<path d="M1263.37 988.232L1250.3 980.662L1278.34 964.359L1291.41 971.932L1263.37 988.232Z" fill="#0F0F0F" fill-opacity="0.87513"/>
<path d="M1276.43 995.83L1263.36 988.26L1291.4 971.959L1304.47 979.531L1276.43 995.83Z" fill="#0F0F0F" fill-opacity="0.87513"/>
<path d="M1289.49 1003.43L1276.42 995.859L1304.46 979.56L1317.53 987.131L1289.49 1003.43Z" fill="#0F0F0F" fill-opacity="0.87513"/>
<path d="M1302.55 1011.03L1289.48 1003.46L1317.52 987.162L1330.59 994.731L1302.55 1011.03Z" fill="#0F0F0F" fill-opacity="0.87513"/>
<path d="M1329.87 1005.83L1311.8 1016.32L1310.26 1015.43L1326.57 1005.95L1318.79 1001.44L1320.54 1000.43L1329.87 1005.83ZM1307.97 1014.11L1306.43 1013.22L1318.39 1006.26L1314.44 1003.97L1316.19 1002.95L1321.69 1006.14L1307.97 1014.11Z" fill="#0F0F0F" fill-opacity="0.87513"/>
<path d="M1341.72 1033.68L1328.67 1026.12L1356.71 1009.83L1369.76 1017.4L1341.72 1033.68Z" fill="#0F0F0F" fill-opacity="0.87513"/>
<path d="M1354.78 1041.28L1341.73 1033.72L1369.77 1017.43L1382.82 1025L1354.78 1041.28Z" fill="#0F0F0F" fill-opacity="0.87513"/>
<path d="M1367.84 1048.75L1354.79 1041.18L1382.83 1024.9L1395.88 1032.46L1367.84 1048.75Z" fill="#0F0F0F" fill-opacity="0.87513"/>
<path d="M1380.9 1056.34L1367.85 1048.78L1395.89 1032.5L1408.94 1040.06L1380.9 1056.34Z" fill="#0F0F0F" fill-opacity="0.87513"/>
<path d="M1393.96 1063.94L1380.91 1056.38L1408.95 1040.1L1422 1047.66L1393.96 1063.94Z" fill="#0F0F0F" fill-opacity="0.87513"/>
<path d="M1407.02 1071.41L1393.97 1063.85L1422.01 1047.57L1435.06 1055.13L1407.02 1071.41Z" fill="#0F0F0F" fill-opacity="0.87513"/>
<path d="M1420.08 1079L1407.03 1071.45L1435.07 1055.17L1448.12 1062.73L1420.08 1079Z" fill="#0F0F0F" fill-opacity="0.87513"/>
<path d="M1447.39 1073.81L1429.33 1084.29L1427.79 1083.4L1444.1 1073.93L1436.33 1069.43L1438.09 1068.41L1447.39 1073.81ZM1425.51 1082.08L1423.97 1081.18L1435.93 1074.24L1431.98 1071.95L1433.73 1070.94L1439.22 1074.12L1425.51 1082.08Z" fill="#0F0F0F" fill-opacity="0.87513"/>
<path d="M1446.19 1094.2L1433.15 1086.64L1461.19 1070.37L1474.23 1077.93L1446.19 1094.2Z" fill="#0F0F0F" fill-opacity="0.87513"/>
<path d="M1459.25 1101.66L1446.21 1094.11L1474.25 1077.84L1487.29 1085.4L1459.25 1101.66Z" fill="#0F0F0F" fill-opacity="0.87513"/>
<path d="M1486.44 1096.6L1468.37 1107.08L1466.83 1106.19L1483.15 1096.72L1475.38 1092.22L1477.13 1091.21L1486.44 1096.6ZM1464.55 1104.87L1463.01 1103.97L1474.98 1097.03L1471.03 1094.75L1472.78 1093.73L1478.27 1096.91L1464.55 1104.87Z" fill="#0F0F0F" fill-opacity="0.87513"/>
<path d="M1524.41 1139.39L1511.38 1131.84L1539.42 1115.58L1552.45 1123.13L1524.41 1139.39Z" fill="#0F0F0F" fill-opacity="0.87513"/>
<path d="M1537.34 1146.98L1524.31 1139.43L1552.35 1123.18L1565.38 1130.73L1537.34 1146.98Z" fill="#0F0F0F" fill-opacity="0.87513"/>
<path d="M1564.66 1141.78L1546.59 1152.26L1545.05 1151.36L1561.37 1141.91L1553.61 1137.41L1555.36 1136.4L1564.66 1141.78ZM1542.77 1150.04L1541.24 1149.15L1553.2 1142.22L1549.26 1139.94L1551.01 1138.92L1556.49 1142.09L1542.77 1150.04Z" fill="#0F0F0F" fill-opacity="0.87513"/>
<path d="M1100.93 930.917L1087.85 923.338L1115.88 907.017L1128.96 914.598L1100.93 930.917Z" fill="#0F0F0F" fill-opacity="0.87513"/>
<path d="M1113.99 938.515L1100.91 930.937L1128.94 914.618L1142.02 922.198L1113.99 938.515Z" fill="#0F0F0F" fill-opacity="0.87513"/>
<path d="M1145.98 924.386L1147.52 925.28L1119.49 941.595L1117.95 940.701L1145.98 924.386ZM1149.81 926.606L1151.35 927.5L1123.32 943.815L1121.78 942.921L1149.81 926.606Z" fill="#0F0F0F" fill-opacity="0.87513"/>
<path d="M1205.54 991.565L1192.47 983.994L1220.49 967.692L1233.57 975.264L1205.54 991.565Z" fill="#0F0F0F" fill-opacity="0.87513"/>
<path d="M1218.6 999.162L1205.53 991.593L1233.56 975.293L1246.63 982.865L1218.6 999.162Z" fill="#0F0F0F" fill-opacity="0.87513"/>
<path d="M1240.58 990.765L1249.91 996.167L1248.16 997.185L1240.37 992.677L1224.07 1002.16L1222.52 1001.27L1240.58 990.765ZM1240.06 995.511L1245.56 998.695L1243.81 999.714L1239.85 997.423L1227.89 1004.38L1226.35 1003.48L1240.06 995.511Z" fill="#0F0F0F" fill-opacity="0.87513"/>
<path d="M1243.52 999.695L1245.27 998.677L1258.55 1006.37L1256.8 1007.39L1243.52 999.695ZM1247.87 997.167L1249.62 996.148L1262.9 1003.84L1261.15 1004.86L1247.87 997.167Z" fill="#0F0F0F" fill-opacity="0.87513"/>
<path d="M1256.58 1007.16L1258.33 1006.14L1271.6 1013.83L1269.85 1014.85L1256.58 1007.16ZM1260.92 1004.63L1262.68 1003.61L1275.95 1011.3L1274.2 1012.32L1260.92 1004.63Z" fill="#0F0F0F" fill-opacity="0.87513"/>
<path d="M1270.97 1029.42L1257.9 1021.85L1285.93 1005.56L1299 1013.13L1270.97 1029.42Z" fill="#0F0F0F" fill-opacity="0.87513"/>
<path d="M1284.03 1036.88L1270.96 1029.32L1298.99 1013.03L1312.05 1020.6L1284.03 1036.88Z" fill="#0F0F0F" fill-opacity="0.87513"/>
<path d="M1311.21 1031.82L1293.15 1042.31L1291.61 1041.42L1307.92 1031.94L1300.14 1027.44L1301.89 1026.42L1311.21 1031.82ZM1289.32 1040.1L1287.78 1039.2L1299.74 1032.26L1295.79 1029.97L1297.54 1028.95L1303.03 1032.13L1289.32 1040.1Z" fill="#0F0F0F" fill-opacity="0.87513"/>
<path d="M1328.93 1030.49L1330.47 1031.38L1316.16 1039.7L1323.93 1044.2L1322.18 1045.22L1312.86 1039.82L1328.93 1030.49ZM1332.76 1032.7L1334.3 1033.59L1324.33 1039.38L1328.28 1041.67L1326.53 1042.69L1321.04 1039.51L1332.76 1032.7Z" fill="#0F0F0F" fill-opacity="0.87513"/>
<path d="M1322 1045.01L1323.75 1044L1337.02 1051.68L1335.27 1052.7L1322 1045.01ZM1326.35 1042.49L1328.1 1041.47L1341.37 1049.16L1339.62 1050.17L1326.35 1042.49Z" fill="#0F0F0F" fill-opacity="0.87513"/>
<path d="M1335.06 1052.61L1336.81 1051.59L1350.08 1059.28L1348.33 1060.3L1335.06 1052.61ZM1339.41 1050.09L1341.16 1049.07L1354.43 1056.75L1352.68 1057.77L1339.41 1050.09Z" fill="#0F0F0F" fill-opacity="0.87513"/>
<path d="M1349.32 1074.74L1336.27 1067.18L1364.3 1050.9L1377.35 1058.46L1349.32 1074.74Z" fill="#0F0F0F" fill-opacity="0.87513"/>
<path d="M1362.24 1082.34L1349.19 1074.78L1377.22 1058.5L1390.27 1066.06L1362.24 1082.34Z" fill="#0F0F0F" fill-opacity="0.87513"/>
<path d="M1375.3 1089.8L1362.26 1082.24L1390.28 1065.97L1403.33 1073.53L1375.3 1089.8Z" fill="#0F0F0F" fill-opacity="0.87513"/>
<path d="M1397.29 1081.54L1406.6 1086.93L1404.85 1087.95L1397.08 1083.44L1380.77 1092.91L1379.23 1092.02L1397.29 1081.54ZM1396.76 1086.27L1402.25 1089.45L1400.5 1090.47L1396.55 1088.18L1384.59 1095.12L1383.05 1094.23L1396.76 1086.27Z" fill="#0F0F0F" fill-opacity="0.87513"/>
<path d="M1409.55 1095.8L1400.24 1090.41L1401.99 1089.39L1409.76 1093.89L1424.08 1085.58L1425.62 1086.47L1409.55 1095.8ZM1420.26 1083.37L1421.8 1084.26L1410.08 1091.06L1404.59 1087.88L1406.34 1086.87L1410.29 1089.15L1420.26 1083.37Z" fill="#0F0F0F" fill-opacity="0.87513"/>
<path d="M1433.27 1090.87L1434.81 1091.76L1420.49 1100.07L1428.26 1104.57L1426.51 1105.58L1417.2 1100.19L1433.27 1090.87ZM1437.09 1093.08L1438.63 1093.97L1428.66 1099.76L1432.61 1102.04L1430.86 1103.06L1425.37 1099.88L1437.09 1093.08Z" fill="#0F0F0F" fill-opacity="0.87513"/>
<path d="M1427.54 1120.06L1414.5 1112.51L1442.53 1096.24L1455.57 1103.8L1427.54 1120.06Z" fill="#0F0F0F" fill-opacity="0.87513"/>
<path d="M1440.6 1127.66L1427.56 1120.1L1455.59 1103.84L1468.63 1111.4L1440.6 1127.66Z" fill="#0F0F0F" fill-opacity="0.87513"/>
<path d="M1467.78 1122.46L1449.72 1132.93L1448.18 1132.04L1464.49 1122.58L1456.73 1118.08L1458.48 1117.07L1467.78 1122.46ZM1445.9 1130.72L1444.36 1129.83L1456.32 1122.89L1452.38 1120.61L1454.13 1119.59L1459.61 1122.77L1445.9 1130.72Z" fill="#0F0F0F" fill-opacity="0.87513"/>
<path d="M1479.64 1150.31L1466.61 1142.77L1494.64 1126.51L1507.67 1134.06L1479.64 1150.31Z" fill="#0F0F0F" fill-opacity="0.87513"/>
<path d="M1492.7 1157.78L1479.67 1150.23L1507.7 1133.98L1520.73 1141.53L1492.7 1157.78Z" fill="#0F0F0F" fill-opacity="0.87513"/>
<path d="M1514.55 1149.51L1523.85 1154.9L1522.1 1155.92L1514.34 1151.42L1498.03 1160.87L1496.49 1159.98L1514.55 1149.51ZM1514.02 1154.25L1519.5 1157.42L1517.75 1158.44L1513.81 1156.15L1501.85 1163.08L1500.31 1162.19L1514.02 1154.25Z" fill="#0F0F0F" fill-opacity="0.87513"/>
<path d="M1526.95 1163.78L1517.65 1158.39L1519.4 1157.38L1527.16 1161.87L1541.48 1153.57L1543.01 1154.46L1526.95 1163.78ZM1537.66 1151.36L1539.2 1152.25L1527.48 1159.05L1522 1155.87L1523.75 1154.86L1527.69 1157.14L1537.66 1151.36Z" fill="#0F0F0F" fill-opacity="0.87513"/>
<path d="M1069.35 949.311L1056.27 941.735L1084.29 925.42L1097.37 932.999L1069.35 949.311Z" fill="#0F0F0F" fill-opacity="0.87513"/>
<path d="M1082.41 956.909L1069.33 949.334L1097.35 933.02L1110.43 940.598L1082.41 956.909Z" fill="#0F0F0F" fill-opacity="0.87513"/>
<path d="M1114.26 942.914L1115.8 943.807L1087.78 960.117L1086.24 959.223L1114.26 942.914ZM1118.09 945.133L1119.64 946.027L1091.62 962.336L1090.07 961.443L1118.09 945.133Z" fill="#0F0F0F" fill-opacity="0.87513"/>
<path d="M1173.96 1009.96L1160.88 1002.39L1188.9 986.095L1201.98 993.665L1173.96 1009.96Z" fill="#0F0F0F" fill-opacity="0.87513"/>
<path d="M1187.02 1017.56L1173.95 1009.99L1201.97 993.697L1215.04 1001.27L1187.02 1017.56Z" fill="#0F0F0F" fill-opacity="0.87513"/>
<path d="M1200.08 1025.02L1187.01 1017.46L1215.03 1001.16L1228.09 1008.73L1200.08 1025.02Z" fill="#0F0F0F" fill-opacity="0.87513"/>
<path d="M1213.13 1032.62L1200.07 1025.05L1228.09 1008.76L1241.15 1016.33L1213.13 1032.62Z" fill="#0F0F0F" fill-opacity="0.87513"/>
<path d="M1226.19 1040.22L1213.13 1032.65L1241.15 1016.37L1254.21 1023.93L1226.19 1040.22Z" fill="#0F0F0F" fill-opacity="0.87513"/>
<path d="M1239.25 1047.81L1226.19 1040.25L1254.21 1023.97L1267.27 1031.53L1239.25 1047.81Z" fill="#0F0F0F" fill-opacity="0.87513"/>
<path d="M1252.31 1055.28L1239.25 1047.72L1267.27 1031.43L1280.33 1039L1252.31 1055.28Z" fill="#0F0F0F" fill-opacity="0.87513"/>
<path d="M1284.16 1041.28L1285.7 1042.17L1257.68 1058.45L1256.14 1057.56L1284.16 1041.28ZM1287.98 1043.5L1289.52 1044.39L1261.51 1060.67L1259.96 1059.78L1287.98 1043.5Z" fill="#0F0F0F" fill-opacity="0.87513"/>
<path d="M1304.55 1085.54L1291.49 1077.98L1319.51 1061.71L1332.57 1069.26L1304.55 1085.54Z" fill="#0F0F0F" fill-opacity="0.87513"/>
<path d="M1317.61 1093.13L1304.55 1085.58L1332.57 1069.31L1345.62 1076.86L1317.61 1093.13Z" fill="#0F0F0F" fill-opacity="0.87513"/>
<path d="M1330.66 1100.73L1317.61 1093.18L1345.63 1076.91L1358.68 1084.46L1330.66 1100.73Z" fill="#0F0F0F" fill-opacity="0.87513"/>
<path d="M1352.52 1092.47L1361.83 1097.86L1360.08 1098.87L1352.31 1094.37L1336 1103.84L1334.46 1102.95L1352.52 1092.47ZM1351.99 1097.2L1357.48 1100.38L1355.73 1101.4L1351.78 1099.11L1339.82 1106.05L1338.29 1105.16L1351.99 1097.2Z" fill="#0F0F0F" fill-opacity="0.87513"/>
<path d="M1364.91 1106.6L1355.6 1101.21L1357.35 1100.19L1365.12 1104.69L1379.44 1096.38L1380.97 1097.27L1364.91 1106.6ZM1375.61 1094.17L1377.15 1095.06L1365.44 1101.86L1359.95 1098.68L1361.7 1097.66L1365.65 1099.95L1375.61 1094.17Z" fill="#0F0F0F" fill-opacity="0.87513"/>
<path d="M1414.75 1116.86L1416.29 1117.75L1401.97 1126.05L1409.74 1130.55L1407.99 1131.57L1398.68 1126.18L1414.75 1116.86ZM1418.57 1119.07L1420.11 1119.96L1410.14 1125.74L1414.09 1128.03L1412.34 1129.04L1406.85 1125.87L1418.57 1119.07Z" fill="#0F0F0F" fill-opacity="0.87513"/>
<path d="M1408.88 1145.92L1395.85 1138.37L1423.86 1122.11L1436.9 1129.66L1408.88 1145.92Z" fill="#0F0F0F" fill-opacity="0.87513"/>
<path d="M1421.94 1153.51L1408.91 1145.97L1436.92 1129.71L1449.96 1137.26L1421.94 1153.51Z" fill="#0F0F0F" fill-opacity="0.87513"/>
<path d="M1435 1161.11L1421.97 1153.57L1449.99 1137.32L1463.02 1144.86L1435 1161.11Z" fill="#0F0F0F" fill-opacity="0.87513"/>
<path d="M1448.06 1168.58L1435.03 1161.03L1463.05 1144.78L1476.08 1152.33L1448.06 1168.58Z" fill="#0F0F0F" fill-opacity="0.87513"/>
<path d="M1469.91 1160.31L1479.21 1165.7L1477.46 1166.71L1469.7 1162.22L1453.4 1171.67L1451.86 1170.78L1469.91 1160.31ZM1469.38 1165.04L1474.87 1168.22L1473.11 1169.23L1469.17 1166.95L1457.21 1173.88L1455.68 1172.99L1469.38 1165.04Z" fill="#0F0F0F" fill-opacity="0.87513"/>
<path d="M1482.17 1174.57L1472.88 1169.19L1474.63 1168.18L1482.39 1172.67L1496.7 1164.37L1498.24 1165.26L1482.17 1174.57ZM1492.88 1162.16L1494.42 1163.05L1482.7 1169.84L1477.22 1166.67L1478.97 1165.66L1482.92 1167.94L1492.88 1162.16Z" fill="#0F0F0F" fill-opacity="0.87513"/>
<path d="M1037.64 967.839L1024.55 960.265L1052.56 943.956L1065.65 951.531L1037.64 967.839Z" fill="#0F0F0F" fill-opacity="0.87513"/>
<path d="M1050.7 975.303L1037.61 967.731L1065.62 951.424L1078.71 958.999L1050.7 975.303Z" fill="#0F0F0F" fill-opacity="0.87513"/>
<path d="M1082.55 961.308L1084.09 962.201L1056.08 978.505L1054.54 977.612L1082.55 961.308ZM1086.38 963.526L1087.92 964.42L1059.91 980.723L1058.37 979.829L1086.38 963.526Z" fill="#0F0F0F" fill-opacity="0.87513"/>
<path d="M1142.24 1028.35L1129.17 1020.79L1157.18 1004.5L1170.25 1012.06L1142.24 1028.35Z" fill="#0F0F0F" fill-opacity="0.87513"/>
<path d="M1155.3 1035.95L1142.23 1028.39L1170.24 1012.1L1183.31 1019.66L1155.3 1035.95Z" fill="#0F0F0F" fill-opacity="0.87513"/>
<path d="M1177.29 1027.69L1186.62 1033.08L1184.86 1034.1L1177.08 1029.6L1160.78 1039.07L1159.24 1038.18L1177.29 1027.69ZM1176.77 1032.43L1182.27 1035.61L1180.52 1036.63L1176.56 1034.34L1164.61 1041.29L1163.07 1040.4L1176.77 1032.43Z" fill="#0F0F0F" fill-opacity="0.87513"/>
<path d="M1180.22 1036.48L1181.97 1035.47L1195.25 1043.15L1193.5 1044.17L1180.22 1036.48ZM1184.57 1033.96L1186.32 1032.94L1199.6 1040.63L1197.85 1041.64L1184.57 1033.96Z" fill="#0F0F0F" fill-opacity="0.87513"/>
<path d="M1193.28 1044.08L1195.03 1043.06L1208.31 1050.75L1206.56 1051.77L1193.28 1044.08ZM1197.63 1041.56L1199.38 1040.54L1212.65 1048.22L1210.9 1049.24L1197.63 1041.56Z" fill="#0F0F0F" fill-opacity="0.87513"/>
<path d="M1207.67 1066.21L1194.61 1058.65L1222.62 1042.37L1235.68 1049.93L1207.67 1066.21Z" fill="#0F0F0F" fill-opacity="0.87513"/>
<path d="M1220.73 1073.67L1207.67 1066.11L1235.68 1049.84L1248.74 1057.4L1220.73 1073.67Z" fill="#0F0F0F" fill-opacity="0.87513"/>
<path d="M1252.58 1059.68L1254.12 1060.57L1226.11 1076.84L1224.57 1075.95L1252.58 1059.68ZM1256.4 1061.89L1257.94 1062.78L1229.93 1079.06L1228.39 1078.16L1256.4 1061.89Z" fill="#0F0F0F" fill-opacity="0.87513"/>
<path d="M1259.91 1096.33L1246.85 1088.78L1274.86 1072.51L1287.92 1080.06L1259.91 1096.33Z" fill="#0F0F0F" fill-opacity="0.87513"/>
<path d="M1272.97 1103.93L1259.91 1096.38L1287.92 1080.11L1300.98 1087.66L1272.97 1103.93Z" fill="#0F0F0F" fill-opacity="0.87513"/>
<path d="M1286.02 1111.53L1272.97 1103.97L1300.98 1087.71L1314.03 1095.26L1286.02 1111.53Z" fill="#0F0F0F" fill-opacity="0.87513"/>
<path d="M1307.88 1103.26L1317.19 1108.65L1315.44 1109.67L1307.67 1105.17L1291.37 1114.63L1289.83 1113.74L1307.88 1103.26ZM1307.35 1108L1312.84 1111.18L1311.09 1112.19L1307.14 1109.91L1295.19 1116.84L1293.65 1115.95L1307.35 1108Z" fill="#0F0F0F" fill-opacity="0.87513"/>
<path d="M1320.14 1117.39L1310.83 1112L1312.58 1110.99L1320.35 1115.48L1334.66 1107.18L1336.2 1108.07L1320.14 1117.39ZM1330.83 1104.97L1332.37 1105.86L1320.66 1112.66L1315.17 1109.48L1316.92 1108.46L1320.87 1110.75L1330.83 1104.97Z" fill="#0F0F0F" fill-opacity="0.87513"/>
<path d="M1396.09 1142.72L1397.63 1143.61L1383.32 1151.91L1391.09 1156.4L1389.34 1157.42L1380.03 1152.03L1396.09 1142.72ZM1399.91 1144.93L1401.45 1145.82L1391.49 1151.6L1395.43 1153.88L1393.68 1154.9L1388.2 1151.72L1399.91 1144.93Z" fill="#0F0F0F" fill-opacity="0.87513"/>
<path d="M1390.36 1171.91L1377.32 1164.36L1405.33 1148.12L1418.37 1155.66L1390.36 1171.91Z" fill="#0F0F0F" fill-opacity="0.87513"/>
<path d="M1403.29 1179.37L1390.25 1171.83L1418.26 1155.58L1431.3 1163.13L1403.29 1179.37Z" fill="#0F0F0F" fill-opacity="0.87513"/>
<path d="M1425.27 1171.11L1434.57 1176.49L1432.82 1177.51L1425.06 1173.01L1408.76 1182.46L1407.23 1181.57L1425.27 1171.11ZM1424.75 1175.84L1430.23 1179.01L1428.48 1180.03L1424.53 1177.74L1412.58 1184.67L1411.04 1183.78L1424.75 1175.84Z" fill="#0F0F0F" fill-opacity="0.87513"/>
<path d="M1437.53 1185.37L1428.23 1179.99L1429.98 1178.97L1437.75 1183.47L1452.05 1175.17L1453.59 1176.06L1437.53 1185.37ZM1448.24 1172.96L1449.77 1173.85L1438.06 1180.64L1432.58 1177.47L1434.33 1176.45L1438.28 1178.74L1448.24 1172.96Z" fill="#0F0F0F" fill-opacity="0.87513"/>
<path d="M1006.06 986.233L992.97 978.662L1020.97 962.358L1034.06 969.931L1006.06 986.233Z" fill="#0F0F0F" fill-opacity="0.87513"/>
<path d="M1019.12 993.831L1006.03 986.26L1034.03 969.959L1047.12 977.531L1019.12 993.831Z" fill="#0F0F0F" fill-opacity="0.87513"/>
<path d="M1032.18 1001.3L1019.09 993.726L1047.09 977.427L1060.18 984.999L1032.18 1001.3Z" fill="#0F0F0F" fill-opacity="0.87513"/>
<path d="M1045.24 1008.89L1032.15 1001.33L1060.15 985.028L1073.23 992.598L1045.24 1008.89Z" fill="#0F0F0F" fill-opacity="0.87513"/>
<path d="M1058.29 1016.49L1045.21 1008.92L1073.21 992.628L1086.29 1000.2L1058.29 1016.49Z" fill="#0F0F0F" fill-opacity="0.87513"/>
<path d="M1071.49 1024.09L1058.41 1016.52L1086.41 1000.23L1099.48 1007.8L1071.49 1024.09Z" fill="#0F0F0F" fill-opacity="0.87513"/>
<path d="M1084.55 1031.55L1071.47 1023.99L1099.47 1007.7L1112.54 1015.27L1084.55 1031.55Z" fill="#0F0F0F" fill-opacity="0.87513"/>
<path d="M1111.73 1026.49L1093.69 1036.98L1092.14 1036.09L1108.44 1026.61L1100.65 1022.11L1102.4 1021.09L1111.73 1026.49ZM1089.86 1034.77L1088.31 1033.87L1100.26 1026.92L1096.3 1024.63L1098.05 1023.62L1103.55 1026.8L1089.86 1034.77Z" fill="#0F0F0F" fill-opacity="0.87513"/>
<path d="M1110.66 1046.75L1097.59 1039.19L1125.59 1022.9L1138.66 1030.46L1110.66 1046.75Z" fill="#0F0F0F" fill-opacity="0.87513"/>
<path d="M1123.72 1054.35L1110.65 1046.78L1138.65 1030.5L1151.72 1038.06L1123.72 1054.35Z" fill="#0F0F0F" fill-opacity="0.87513"/>
<path d="M1155.57 1040.22L1157.11 1041.11L1129.11 1057.39L1127.57 1056.5L1155.57 1040.22ZM1159.4 1042.43L1160.94 1043.32L1132.94 1059.6L1131.4 1058.71L1159.4 1042.43Z" fill="#0F0F0F" fill-opacity="0.87513"/>
<path d="M1175.96 1084.47L1162.89 1076.91L1190.89 1060.64L1203.96 1068.2L1175.96 1084.47Z" fill="#0F0F0F" fill-opacity="0.87513"/>
<path d="M1189.02 1092.07L1175.95 1084.51L1203.95 1068.24L1217.02 1075.8L1189.02 1092.07Z" fill="#0F0F0F" fill-opacity="0.87513"/>
<path d="M1220.86 1078.07L1222.4 1078.96L1194.41 1095.23L1192.86 1094.34L1220.86 1078.07ZM1224.69 1080.28L1226.23 1081.18L1198.23 1097.44L1196.69 1096.55L1224.69 1080.28Z" fill="#0F0F0F" fill-opacity="0.87513"/>
<path d="M1215.13 1107.26L1202.08 1099.71L1230.07 1083.44L1243.13 1091L1215.13 1107.26Z" fill="#0F0F0F" fill-opacity="0.87513"/>
<path d="M1228.19 1114.73L1215.14 1107.17L1243.14 1090.91L1256.19 1098.46L1228.19 1114.73Z" fill="#0F0F0F" fill-opacity="0.87513"/>
<path d="M1241.25 1122.32L1228.2 1114.77L1256.2 1098.51L1269.25 1106.06L1241.25 1122.32Z" fill="#0F0F0F" fill-opacity="0.87513"/>
<path d="M1254.31 1129.79L1241.26 1122.24L1269.26 1105.98L1282.31 1113.53L1254.31 1129.79Z" fill="#0F0F0F" fill-opacity="0.87513"/>
<path d="M1267.37 1137.39L1254.32 1129.84L1282.32 1113.58L1295.37 1121.13L1267.37 1137.39Z" fill="#0F0F0F" fill-opacity="0.87513"/>
<path d="M1280.43 1144.98L1267.38 1137.43L1295.38 1121.18L1308.43 1128.73L1280.43 1144.98Z" fill="#0F0F0F" fill-opacity="0.87513"/>
<path d="M1293.49 1152.45L1280.44 1144.9L1308.44 1128.65L1321.49 1136.2L1293.49 1152.45Z" fill="#0F0F0F" fill-opacity="0.87513"/>
<path d="M1320.67 1147.38L1302.63 1157.85L1301.09 1156.96L1317.38 1147.51L1309.61 1143.01L1311.36 1142L1320.67 1147.38ZM1298.81 1155.64L1297.27 1154.75L1309.22 1147.82L1305.27 1145.53L1307.02 1144.52L1312.5 1147.69L1298.81 1155.64Z" fill="#0F0F0F" fill-opacity="0.87513"/>
<path d="M1358.65 1190.17L1345.61 1182.63L1373.61 1166.39L1386.65 1173.93L1358.65 1190.17Z" fill="#0F0F0F" fill-opacity="0.87513"/>
<path d="M1371.71 1197.77L1358.67 1190.23L1386.67 1173.99L1399.71 1181.53L1371.71 1197.77Z" fill="#0F0F0F" fill-opacity="0.87513"/>
<path d="M1403.55 1183.77L1405.09 1184.66L1377.09 1200.9L1375.55 1200.01L1403.55 1183.77ZM1407.37 1185.98L1408.91 1186.87L1380.91 1203.1L1379.37 1202.22L1407.37 1185.98Z" fill="#0F0F0F" fill-opacity="0.87513"/>
<path d="M993.133 983.034L994.677 983.927L980.379 992.252L988.174 996.761L986.425 997.779L977.086 992.378L993.133 983.034ZM996.967 985.252L998.511 986.145L988.557 991.941L992.518 994.232L990.768 995.25L985.263 992.066L996.967 985.252Z" fill="#0F0F0F" fill-opacity="0.87513"/>
<path d="M986.204 997.563L987.953 996.545L1001.25 1004.24L999.503 1005.25L986.204 997.563ZM990.547 995.034L992.296 994.016L1005.6 1001.71L1003.85 1002.73L990.547 995.034Z" fill="#0F0F0F" fill-opacity="0.87513"/>
<path d="M1005.79 1014.09L1003.58 1012.81C1005.27 1011.21 1006.56 1010 1007.44 1009.17C1008.33 1008.34 1009.39 1007.38 1010.63 1006.31C1009.42 1006.77 1008.32 1007.19 1007.33 1007.56C1006.35 1007.94 1003.71 1008.88 999.415 1010.4L997.201 1009.12L1011.23 998.349L1013.24 999.513L1004.33 1006.05C1003.39 1006.73 1002.11 1007.6 1000.51 1008.68C1001.84 1008.17 1002.95 1007.74 1003.82 1007.41C1004.7 1007.08 1007.36 1006.12 1011.81 1004.54L1013.67 1005.61C1012.13 1007.08 1010.91 1008.23 1010.02 1009.07C1009.14 1009.92 1007.98 1010.95 1006.56 1012.18L1011.11 1009.97L1022.29 1004.75L1024.3 1005.91L1005.79 1014.09Z" fill="#0F0F0F" fill-opacity="0.87513"/>
<path d="M1018.85 1021.69L1016.64 1020.41C1018.33 1018.81 1019.62 1017.6 1020.5 1016.76C1021.39 1015.93 1022.45 1014.98 1023.69 1013.91C1022.48 1014.37 1021.38 1014.79 1020.39 1015.16C1019.41 1015.53 1016.77 1016.48 1012.47 1018L1010.26 1016.72L1024.29 1005.95L1026.3 1007.11L1017.39 1013.65C1016.45 1014.33 1015.17 1015.2 1013.56 1016.28C1014.9 1015.77 1016.01 1015.34 1016.88 1015.01C1017.76 1014.67 1020.42 1013.72 1024.87 1012.14L1026.73 1013.21C1025.18 1014.68 1023.97 1015.83 1023.08 1016.67C1022.2 1017.52 1021.04 1018.55 1019.62 1019.78L1024.17 1017.57L1035.35 1012.35L1037.36 1013.51L1018.85 1021.69Z" fill="#0F0F0F" fill-opacity="0.87513"/>
<path d="M1025.51 1020.36L1027.26 1019.34L1040.56 1027.03L1038.81 1028.04L1025.51 1020.36ZM1029.86 1017.83L1031.61 1016.81L1044.9 1024.5L1043.15 1025.52L1029.86 1017.83Z" fill="#0F0F0F" fill-opacity="0.87513"/>
<path d="M1038.57 1027.82L1040.32 1026.8L1053.61 1034.49L1051.86 1035.51L1038.57 1027.82ZM1042.92 1025.29L1044.66 1024.27L1057.96 1031.96L1056.21 1032.98L1042.92 1025.29Z" fill="#0F0F0F" fill-opacity="0.87513"/>
<path d="M1051.63 1035.42L1053.38 1034.4L1066.67 1042.09L1064.92 1043.1L1051.63 1035.42ZM1055.97 1032.89L1057.72 1031.87L1071.01 1039.56L1069.26 1040.58L1055.97 1032.89Z" fill="#0F0F0F" fill-opacity="0.87513"/>
<path d="M1074.02 1048.35L1064.69 1042.95L1066.44 1041.93L1074.22 1046.44L1088.52 1038.12L1090.06 1039.01L1074.02 1048.35ZM1084.69 1035.91L1086.23 1036.8L1074.53 1043.61L1069.03 1040.42L1070.78 1039.41L1074.74 1041.7L1084.69 1035.91Z" fill="#0F0F0F" fill-opacity="0.87513"/>
<path d="M1097.74 1043.55L1099.28 1044.44L1084.98 1052.76L1092.77 1057.26L1091.02 1058.28L1081.69 1052.88L1097.74 1043.55ZM1101.57 1045.76L1103.11 1046.66L1093.15 1052.44L1097.11 1054.73L1095.36 1055.75L1089.86 1052.57L1101.57 1045.76Z" fill="#0F0F0F" fill-opacity="0.87513"/>
<path d="M1090.81 1058.08L1092.56 1057.06L1105.84 1064.74L1104.09 1065.76L1090.81 1058.08ZM1095.15 1055.55L1096.9 1054.53L1110.18 1062.22L1108.43 1063.23L1095.15 1055.55Z" fill="#0F0F0F" fill-opacity="0.87513"/>
<path d="M1113.33 1071.01L1104 1065.61L1105.75 1064.6L1113.53 1069.1L1127.83 1060.78L1129.37 1061.68L1113.33 1071.01ZM1124 1058.57L1125.55 1059.46L1113.84 1066.27L1108.34 1063.09L1110.09 1062.07L1114.05 1064.36L1124 1058.57Z" fill="#0F0F0F" fill-opacity="0.87513"/>
<path d="M1163.16 1081.27L1164.71 1082.16L1150.41 1090.47L1158.19 1094.97L1156.44 1095.99L1147.12 1090.6L1163.16 1081.27ZM1166.99 1083.48L1168.53 1084.37L1158.58 1090.16L1162.53 1092.45L1160.78 1093.46L1155.29 1090.29L1166.99 1083.48Z" fill="#0F0F0F" fill-opacity="0.87513"/>
<path d="M1156.24 1095.93L1157.98 1094.92L1171.26 1102.59L1169.51 1103.61L1156.24 1095.93ZM1160.58 1093.41L1162.33 1092.39L1175.6 1100.07L1173.85 1101.09L1160.58 1093.41Z" fill="#0F0F0F" fill-opacity="0.87513"/>
<path d="M1178.62 1108.86L1169.3 1103.47L1171.05 1102.45L1178.83 1106.95L1193.13 1098.65L1194.67 1099.54L1178.62 1108.86ZM1189.3 1096.43L1190.84 1097.33L1179.14 1104.13L1173.65 1100.95L1175.39 1099.93L1179.35 1102.22L1189.3 1096.43Z" fill="#0F0F0F" fill-opacity="0.87513"/>
<path d="M1202.34 1103.93L1203.88 1104.82L1189.58 1113.13L1197.36 1117.62L1195.61 1118.64L1186.29 1113.25L1202.34 1103.93ZM1206.17 1106.14L1207.71 1107.03L1197.75 1112.82L1201.7 1115.1L1199.96 1116.12L1194.46 1112.94L1206.17 1106.14Z" fill="#0F0F0F" fill-opacity="0.87513"/>
<path d="M1195.41 1118.59L1197.16 1117.58L1210.43 1125.25L1208.68 1126.27L1195.41 1118.59ZM1199.76 1116.07L1201.5 1115.05L1214.77 1122.73L1213.02 1123.74L1199.76 1116.07Z" fill="#0F0F0F" fill-opacity="0.87513"/>
<path d="M1208.47 1126.06L1210.22 1125.04L1223.49 1132.71L1221.74 1133.73L1208.47 1126.06ZM1212.81 1123.53L1214.56 1122.52L1227.83 1130.19L1226.08 1131.21L1212.81 1123.53Z" fill="#0F0F0F" fill-opacity="0.87513"/>
<path d="M1221.53 1133.65L1223.28 1132.64L1236.54 1140.31L1234.79 1141.32L1221.53 1133.65ZM1225.87 1131.13L1227.62 1130.12L1240.89 1137.79L1239.14 1138.8L1225.87 1131.13Z" fill="#0F0F0F" fill-opacity="0.87513"/>
<path d="M1234.59 1141.25L1236.34 1140.24L1249.6 1147.91L1247.85 1148.92L1234.59 1141.25ZM1238.93 1138.73L1240.68 1137.71L1253.94 1145.38L1252.19 1146.4L1238.93 1138.73Z" fill="#0F0F0F" fill-opacity="0.87513"/>
<path d="M1247.65 1148.72L1249.4 1147.7L1262.66 1155.37L1260.91 1156.38L1247.65 1148.72ZM1251.99 1146.19L1253.74 1145.18L1267 1152.85L1265.25 1153.86L1251.99 1146.19Z" fill="#0F0F0F" fill-opacity="0.87513"/>
<path d="M1260.71 1156.31L1262.46 1155.3L1275.71 1162.97L1273.97 1163.98L1260.71 1156.31ZM1265.05 1153.79L1266.8 1152.78L1280.06 1160.45L1278.31 1161.46L1265.05 1153.79Z" fill="#0F0F0F" fill-opacity="0.87513"/>
<path d="M1282.96 1169.24L1273.65 1163.86L1275.4 1162.84L1283.17 1167.34L1297.47 1159.04L1299.01 1159.93L1282.96 1169.24ZM1293.65 1156.83L1295.19 1157.72L1283.48 1164.51L1277.99 1161.34L1279.74 1160.32L1283.69 1162.61L1293.65 1156.83Z" fill="#0F0F0F" fill-opacity="0.87513"/>
<path d="M1345.86 1186.97L1347.39 1187.86L1333.1 1196.15L1340.86 1200.64L1339.11 1201.66L1329.81 1196.28L1345.86 1186.97ZM1349.67 1189.18L1351.21 1190.07L1341.26 1195.84L1345.2 1198.12L1343.45 1199.14L1337.97 1195.97L1349.67 1189.18Z" fill="#0F0F0F" fill-opacity="0.87513"/>
<path d="M1345.32 1210.43L1343.12 1209.15C1344.81 1207.56 1346.1 1206.35 1346.98 1205.52C1347.87 1204.7 1348.94 1203.75 1350.18 1202.67C1348.97 1203.14 1347.87 1203.56 1346.88 1203.92C1345.9 1204.3 1343.26 1205.24 1338.97 1206.76L1336.76 1205.48L1350.8 1194.75L1352.8 1195.91L1343.89 1202.42C1342.95 1203.09 1341.67 1203.97 1340.06 1205.04C1341.4 1204.53 1342.5 1204.1 1343.37 1203.77C1344.25 1203.44 1346.91 1202.49 1351.36 1200.91L1353.21 1201.98C1351.67 1203.45 1350.45 1204.59 1349.56 1205.43C1348.67 1206.27 1347.52 1207.3 1346.1 1208.53L1350.64 1206.32L1361.82 1201.12L1363.82 1202.28L1345.32 1210.43Z" fill="#0F0F0F" fill-opacity="0.87513"/>
<path d="M1361.18 1214.43L1351.88 1209.05L1353.63 1208.03L1361.39 1212.52L1375.69 1204.23L1377.23 1205.12L1361.18 1214.43ZM1371.87 1202.03L1373.41 1202.92L1361.71 1209.7L1356.22 1206.53L1357.97 1205.52L1361.92 1207.8L1371.87 1202.03Z" fill="#0F0F0F" fill-opacity="0.87513"/>
<path d="M963.817 1032.49L986.841 1019.08L988.608 1020.11L965.585 1033.51L963.817 1032.49Z" fill="#0F0F0F" fill-opacity="0.87513"/>
<path d="M976.876 1040.08L999.9 1026.68L1001.67 1027.7L978.643 1041.1L976.876 1040.08Z" fill="#0F0F0F" fill-opacity="0.87513"/>
<path d="M1078.28 1095.8L1079.44 1095.13L1092.6 1102.74L1091.44 1103.41L1078.28 1095.8Z" fill="#0F0F0F" fill-opacity="0.87513"/>
<path d="M1091.34 1103.4L1092.5 1102.72L1105.66 1110.33L1104.5 1111L1091.34 1103.4Z" fill="#0F0F0F" fill-opacity="0.87513"/>
<path d="M1104.4 1110.86L1105.56 1110.19L1118.72 1117.8L1117.56 1118.47L1104.4 1110.86Z" fill="#0F0F0F" fill-opacity="0.87513"/>
<path d="M1117.46 1118.46L1118.62 1117.79L1131.77 1125.39L1130.62 1126.06L1117.46 1118.46Z" fill="#0F0F0F" fill-opacity="0.87513"/>
<path d="M1134.25 1125.39L1161.11 1119.89L1163 1120.99L1136.18 1126.51L1134.25 1125.39Z" fill="#0F0F0F" fill-opacity="0.87513"/>
<path d="M1147.31 1132.85L1174.17 1127.36L1176.06 1128.45L1149.24 1133.97L1147.31 1132.85Z" fill="#0F0F0F" fill-opacity="0.87513"/>
<path d="M1160.37 1140.45L1187.23 1134.96L1189.12 1136.05L1162.3 1141.57L1160.37 1140.45Z" fill="#0F0F0F" fill-opacity="0.87513"/>
<path d="M1169.69 1148.72L1170.85 1148.04L1184 1155.64L1182.84 1156.32L1169.69 1148.72Z" fill="#0F0F0F" fill-opacity="0.87513"/>
<path d="M1182.75 1156.18L1183.91 1155.51L1197.06 1163.11L1195.9 1163.78L1182.75 1156.18Z" fill="#0F0F0F" fill-opacity="0.87513"/>
<path d="M1303.35 1228.82L1326.37 1215.47L1328.13 1216.49L1305.11 1229.84L1303.35 1228.82Z" fill="#0F0F0F" fill-opacity="0.87513"/>
<path d="M1316.41 1236.29L1339.43 1222.94L1341.19 1223.96L1318.17 1237.31L1316.41 1236.29Z" fill="#0F0F0F" fill-opacity="0.87513"/>
<path d="M919.177 1043.42L942.193 1030.02L943.96 1031.04L920.945 1044.44L919.177 1043.42Z" fill="#0F0F0F" fill-opacity="0.87513"/>
<path d="M945.295 1058.48L968.31 1045.08L970.078 1046.1L947.062 1059.5L945.295 1058.48Z" fill="#0F0F0F" fill-opacity="0.87513"/>
<path d="M1037.24 1105.93L1064.1 1100.43L1066 1101.53L1039.18 1107.05L1037.24 1105.93Z" fill="#0F0F0F" fill-opacity="0.87513"/>
<path d="M1059.76 1121.79L1060.92 1121.12L1074.08 1128.72L1072.92 1129.4L1059.76 1121.79Z" fill="#0F0F0F" fill-opacity="0.87513"/>
<path d="M1072.82 1129.25L1073.98 1128.58L1087.13 1136.19L1085.98 1136.86L1072.82 1129.25Z" fill="#0F0F0F" fill-opacity="0.87513"/>
<path d="M1085.88 1136.85L1087.03 1136.18L1100.19 1143.78L1099.03 1144.46L1085.88 1136.85Z" fill="#0F0F0F" fill-opacity="0.87513"/>
<path d="M1098.94 1144.45L1100.09 1143.78L1113.25 1151.38L1112.09 1152.05L1098.94 1144.45Z" fill="#0F0F0F" fill-opacity="0.87513"/>
<path d="M1112 1151.91L1113.15 1151.24L1126.31 1158.84L1125.15 1159.52L1112 1151.91Z" fill="#0F0F0F" fill-opacity="0.87513"/>
<path d="M1125.05 1159.51L1126.21 1158.84L1139.36 1166.44L1138.21 1167.11L1125.05 1159.51Z" fill="#0F0F0F" fill-opacity="0.87513"/>
<path d="M1138.11 1166.98L1139.27 1166.3L1152.42 1173.9L1151.26 1174.58L1138.11 1166.98Z" fill="#0F0F0F" fill-opacity="0.87513"/>
<path d="M1176.62 1186.44L1186.08 1170.9L1187.97 1171.99L1178.56 1187.55L1176.62 1186.44Z" fill="#0F0F0F" fill-opacity="0.87513"/>
<path d="M1271.77 1247.08L1294.78 1233.74L1296.54 1234.76L1273.53 1248.1L1271.77 1247.08Z" fill="#0F0F0F" fill-opacity="0.87513"/>
<path d="M1297.88 1262.15L1320.9 1248.8L1322.66 1249.82L1299.64 1263.16L1297.88 1262.15Z" fill="#0F0F0F" fill-opacity="0.87513"/>
<path d="M887.596 1061.68L910.604 1048.28L912.371 1049.3L889.364 1062.7L887.596 1061.68Z" fill="#0F0F0F" fill-opacity="0.87513"/>
<path d="M913.714 1076.87L936.721 1063.48L938.488 1064.5L915.481 1077.89L913.714 1076.87Z" fill="#0F0F0F" fill-opacity="0.87513"/>
<path d="M992.6 1116.73L1019.46 1111.23L1021.35 1112.32L994.536 1117.84L992.6 1116.73Z" fill="#0F0F0F" fill-opacity="0.87513"/>
<path d="M1018.72 1131.92L1045.57 1126.43L1047.47 1127.52L1020.65 1133.04L1018.72 1131.92Z" fill="#0F0F0F" fill-opacity="0.87513"/>
<path d="M1028.18 1140.05L1029.34 1139.38L1042.5 1146.98L1041.34 1147.65L1028.18 1140.05Z" fill="#0F0F0F" fill-opacity="0.87513"/>
<path d="M1106.53 1185.37L1107.69 1184.7L1120.84 1192.3L1119.68 1192.97L1106.53 1185.37Z" fill="#0F0F0F" fill-opacity="0.87513"/>
<path d="M1131.98 1197.23L1141.43 1181.69L1143.32 1182.79L1133.92 1198.35L1131.98 1197.23Z" fill="#0F0F0F" fill-opacity="0.87513"/>
<path d="M1157.97 1212.3L1167.42 1196.76L1169.31 1197.85L1159.9 1213.41L1157.97 1212.3Z" fill="#0F0F0F" fill-opacity="0.87513"/>
<path d="M1240.19 1265.48L1263.19 1252.14L1264.95 1253.15L1241.95 1266.5L1240.19 1265.48Z" fill="#0F0F0F" fill-opacity="0.87513"/>
<path d="M1266.3 1280.54L1289.31 1267.2L1291.07 1268.22L1268.06 1281.56L1266.3 1280.54Z" fill="#0F0F0F" fill-opacity="0.87513"/>
<path d="M856.015 1080.07L879.015 1066.68L880.782 1067.7L857.783 1081.09L856.015 1080.07Z" fill="#0F0F0F" fill-opacity="0.87513"/>
<path d="M882.133 1095.27L905.132 1081.88L906.9 1082.9L883.9 1096.29L882.133 1095.27Z" fill="#0F0F0F" fill-opacity="0.87513"/>
<path d="M960.619 1140.58L983.619 1127.21L985.384 1128.23L962.385 1141.6L960.619 1140.58Z" fill="#0F0F0F" fill-opacity="0.87513"/>
<path d="M983.539 1150.85L984.695 1150.18L997.858 1157.78L996.702 1158.45L983.539 1150.85Z" fill="#0F0F0F" fill-opacity="0.87513"/>
<path d="M1008.46 1155.78L1010.38 1154.66L1016.34 1158.1L1014.41 1159.22L1008.46 1155.78Z" fill="#0F0F0F" fill-opacity="0.87513"/>
<path d="M1028.18 1166.18C1025.93 1167.48 1023.62 1168.48 1021.26 1169.17C1018.91 1169.87 1016.11 1170.37 1012.86 1170.69L1010.81 1169.51C1014.14 1169.18 1016.99 1168.68 1019.37 1167.98C1021.75 1167.29 1024.03 1166.31 1026.19 1165.05C1028.34 1163.8 1030.01 1162.49 1031.2 1161.11C1032.4 1159.72 1033.27 1158.07 1033.81 1156.14L1035.85 1157.32C1035.31 1159.24 1034.45 1160.87 1033.27 1162.22C1032.09 1163.57 1030.4 1164.89 1028.18 1166.18V1166.18Z" fill="#0F0F0F" fill-opacity="0.87513"/>
<path d="M1056.7 1182.57C1054.5 1183.85 1052.38 1184.56 1050.32 1184.72C1048.28 1184.88 1046.42 1184.48 1044.74 1183.51C1043.1 1182.56 1042.42 1181.49 1042.71 1180.3C1043.02 1179.12 1044.25 1177.9 1046.42 1176.64C1048.66 1175.33 1050.79 1174.61 1052.81 1174.48C1054.84 1174.34 1056.68 1174.74 1058.32 1175.69C1060.05 1176.69 1060.78 1177.76 1060.5 1178.89C1060.23 1180.03 1058.96 1181.26 1056.7 1182.57V1182.57ZM1054.69 1181.41C1056.41 1180.41 1057.46 1179.52 1057.82 1178.74C1058.19 1177.97 1057.83 1177.27 1056.75 1176.64C1055.65 1176.01 1054.41 1175.8 1053.04 1176.01C1051.66 1176.21 1050.12 1176.81 1048.43 1177.8C1046.74 1178.78 1045.71 1179.67 1045.34 1180.48C1044.97 1181.28 1045.3 1181.98 1046.32 1182.57C1047.45 1183.22 1048.69 1183.44 1050.05 1183.23C1051.42 1183.02 1052.96 1182.41 1054.69 1181.41V1181.41Z" fill="#0F0F0F" fill-opacity="0.87513"/>
<path d="M1076.55 1194.17C1074.34 1195.45 1072.65 1196.78 1071.47 1198.17C1070.28 1199.55 1069.43 1201.18 1068.89 1203.07L1066.87 1201.91C1067.41 1200.02 1068.27 1198.39 1069.45 1197.01C1070.64 1195.64 1072.35 1194.3 1074.59 1193.01C1076.78 1191.73 1079.05 1190.75 1081.39 1190.07C1083.73 1189.38 1086.56 1188.87 1089.87 1188.55L1091.89 1189.71C1088.63 1190.03 1085.81 1190.53 1083.42 1191.23C1081.03 1191.91 1078.74 1192.89 1076.55 1194.17V1194.17Z" fill="#0F0F0F" fill-opacity="0.87513"/>
<path d="M1086.81 1200.97L1088.74 1199.85L1094.69 1203.28L1092.76 1204.4L1086.81 1200.97Z" fill="#0F0F0F" fill-opacity="0.87513"/>
<path d="M1088.01 1211.23L1089.17 1210.56L1102.31 1218.15L1101.16 1218.82L1088.01 1211.23Z" fill="#0F0F0F" fill-opacity="0.87513"/>
<path d="M1117.33 1231.09L1140.32 1217.74L1142.09 1218.76L1119.09 1232.11L1117.33 1231.09Z" fill="#0F0F0F" fill-opacity="0.87513"/>
<path d="M1208.6 1283.74L1231.6 1270.4L1233.36 1271.42L1210.36 1284.76L1208.6 1283.74Z" fill="#0F0F0F" fill-opacity="0.87513"/>
<path d="M1234.72 1298.8L1257.72 1285.47L1259.48 1286.48L1236.48 1299.82L1234.72 1298.8Z" fill="#0F0F0F" fill-opacity="0.87513"/>
<path d="M824.434 1098.46L847.426 1085.08L849.193 1086.1L826.202 1099.48L824.434 1098.46Z" fill="#0F0F0F" fill-opacity="0.87513"/>
<path d="M872.805 1120.72L882.224 1105.16L884.118 1106.26L874.742 1121.84L872.805 1120.72Z" fill="#0F0F0F" fill-opacity="0.87513"/>
<path d="M873.471 1123.92L874.627 1123.25L887.802 1130.86L886.645 1131.53L873.471 1123.92Z" fill="#0F0F0F" fill-opacity="0.87513"/>
<path d="M886.53 1131.52L887.686 1130.85L900.859 1138.45L899.703 1139.13L886.53 1131.52Z" fill="#0F0F0F" fill-opacity="0.87513"/>
<path d="M899.589 1139.12L900.745 1138.45L913.916 1146.05L912.759 1146.72L899.589 1139.12Z" fill="#0F0F0F" fill-opacity="0.87513"/>
<path d="M912.781 1146.58L913.937 1145.91L927.106 1153.51L925.95 1154.18L912.781 1146.58Z" fill="#0F0F0F" fill-opacity="0.87513"/>
<path d="M929.038 1158.85L952.03 1145.48L953.795 1146.5L930.803 1159.86L929.038 1158.85Z" fill="#0F0F0F" fill-opacity="0.87513"/>
<path d="M964.351 1173.64L973.778 1158.09L975.67 1159.19L966.285 1174.76L964.351 1173.64Z" fill="#0F0F0F" fill-opacity="0.87513"/>
<path d="M965.017 1176.84L966.173 1176.17L979.334 1183.77L978.178 1184.44L965.017 1176.84Z" fill="#0F0F0F" fill-opacity="0.87513"/>
<path d="M978.075 1184.3L979.231 1183.63L992.391 1191.23L991.234 1191.9L978.075 1184.3Z" fill="#0F0F0F" fill-opacity="0.87513"/>
<path d="M991.134 1191.9L992.29 1191.23L1005.45 1198.83L1004.29 1199.5L991.134 1191.9Z" fill="#0F0F0F" fill-opacity="0.87513"/>
<path d="M1022.18 1200.57L1028.36 1192.93L1015.22 1196.55L1013.61 1195.61L1028.55 1191.59L1030.7 1192.83L1023.82 1201.51L1022.18 1200.57Z" fill="#0F0F0F" fill-opacity="0.87513"/>
<path d="M1017.25 1206.96L1018.41 1206.29L1031.56 1213.89L1030.41 1214.56L1017.25 1206.96Z" fill="#0F0F0F" fill-opacity="0.87513"/>
<path d="M1030.31 1214.56L1031.47 1213.89L1044.62 1221.48L1043.46 1222.15L1030.31 1214.56Z" fill="#0F0F0F" fill-opacity="0.87513"/>
<path d="M1043.37 1222.03L1044.53 1221.35L1057.68 1228.95L1056.52 1229.62L1043.37 1222.03Z" fill="#0F0F0F" fill-opacity="0.87513"/>
<path d="M1060.16 1228.96L1086.99 1223.47L1088.88 1224.56L1062.09 1230.07L1060.16 1228.96Z" fill="#0F0F0F" fill-opacity="0.87513"/>
<path d="M1085.74 1249.35L1108.74 1236L1110.5 1237.02L1087.51 1250.37L1085.74 1249.35Z" fill="#0F0F0F" fill-opacity="0.87513"/>
<path d="M1095.6 1252.15L1096.76 1251.48L1109.9 1259.07L1108.75 1259.74L1095.6 1252.15Z" fill="#0F0F0F" fill-opacity="0.87513"/>
<path d="M1108.66 1259.75L1109.82 1259.08L1122.96 1266.66L1121.8 1267.33L1108.66 1259.75Z" fill="#0F0F0F" fill-opacity="0.87513"/>
<path d="M1121.72 1267.21L1122.88 1266.54L1136.02 1274.13L1134.86 1274.8L1121.72 1267.21Z" fill="#0F0F0F" fill-opacity="0.87513"/>
<path d="M1134.65 1274.81L1135.8 1274.14L1148.94 1281.72L1147.78 1282.39L1134.65 1274.81Z" fill="#0F0F0F" fill-opacity="0.87513"/>
<path d="M1147.71 1282.27L1148.86 1281.6L1162 1289.19L1160.84 1289.86L1147.71 1282.27Z" fill="#0F0F0F" fill-opacity="0.87513"/>
<path d="M1164.5 1289.2L1191.32 1283.73L1193.21 1284.82L1166.43 1290.32L1164.5 1289.2Z" fill="#0F0F0F" fill-opacity="0.87513"/>
<path d="M1203.14 1317.06L1226.13 1303.73L1227.89 1304.75L1204.9 1318.08L1203.14 1317.06Z" fill="#0F0F0F" fill-opacity="0.87513"/>
<path d="M815.106 1124.06L824.516 1108.5L826.411 1109.59L817.044 1125.17L815.106 1124.06Z" fill="#0F0F0F" fill-opacity="0.87513"/>
<path d="M1159.03 1322.53L1185.85 1317.05L1187.74 1318.14L1160.96 1323.64L1159.03 1322.53Z" fill="#0F0F0F" fill-opacity="0.87513"/>
</svg>
