<svg width="2019" height="3000" viewBox="0 0 2019 3000" fill="none" xmlns="http://www.w3.org/2000/svg">
<path d="M1705.94 2104.55V843.108L964.795 1272.12V2536.04L1705.94 2104.55" fill="#B5B5B5"/>
<path d="M312.053 2157.6V896.157L964.849 1272.12V2536.04L312.053 2157.6" fill="#EFEFEF"/>
<path d="M367.567 2082.52V1035.62L909.336 1347.63V2396.58L367.567 2082.52" fill="#2D2D2D"/>
<path d="M1705.94 843.054L1053.14 464L312 896.104L964.796 1272.07L1705.94 843.054Z" fill="#D6D6D6"/>
<path d="M367.567 2082.52L440.045 2037.61L909.337 2306.63V2396.58L367.568 2082.52" fill="#1E1E1E"/>
<path d="M440.043 2037.61V1077.35L367.565 1035.62V2082.52L440.043 2037.61" fill="#0F0F0F"/>
<path d="M859.792 1501.94L870.753 1497.37V1397.92L859.792 1402.49V1501.94Z" fill="#0C0C0C"/>
<path d="M489.387 1278.92V1180.2L870.759 1397.88V1497.33L489.387 1278.92Z" fill="#1C1C1C"/>
<path d="M478.42 1283.58V1184.87L859.792 1402.54V1501.99L478.42 1283.58Z" fill="#3F3F3F"/>
<path d="M783.797 1390.35V1373.34L849.509 1410.84V1427.98L783.797 1390.35Z" fill="#8C8C8C"/>
<path d="M783.797 1417.67V1400.67L849.509 1438.17V1455.31L783.797 1417.67Z" fill="#8C8C8C"/>
<path d="M783.797 1445.13V1428.12L849.509 1465.63V1482.76L783.797 1445.13Z" fill="#8C8C8C"/>
<path d="M699.528 1368.36V1351.33L765.239 1388.84V1405.98L699.528 1368.36Z" fill="#8C8C8C"/>
<path d="M699.528 1395.81V1378.81L765.239 1416.31V1433.44L699.528 1395.81Z" fill="#8C8C8C"/>
<path d="M614.352 1291.05V1274.04L680.062 1311.55V1328.67L614.352 1291.05Z" fill="#8C8C8C"/>
<path d="M614.352 1318.5V1301.5L680.062 1338.99V1356.13L614.352 1318.5Z" fill="#8C8C8C"/>
<path d="M614.352 1345.96V1328.95L680.062 1366.46V1383.6L614.352 1345.96Z" fill="#8C8C8C"/>
<path d="M530.083 1269.19V1252.18L595.793 1289.67V1306.81L530.083 1269.19Z" fill="#8C8C8C"/>
<path d="M530.083 1296.51V1279.5L595.793 1317.01V1334.15L530.083 1296.51Z" fill="#8C8C8C"/>
<path d="M859.792 1402.48L870.753 1397.91L489.382 1180.23L478.419 1184.8L859.791 1402.48" fill="#191919"/>
<path d="M489.387 1418.34V1319.62L870.759 1537.3V1636.75L489.387 1418.34Z" fill="#1C1C1C"/>
<path d="M478.42 1422.87V1324.16L859.792 1541.82V1641.28L478.42 1422.87Z" fill="#3F3F3F"/>
<path d="M783.797 1529.65V1512.64L849.509 1550.14V1567.28L783.797 1529.65Z" fill="#8C8C8C"/>
<path d="M783.797 1557.06V1540.05L849.509 1577.56V1594.7L783.797 1557.06Z" fill="#8C8C8C"/>
<path d="M783.797 1584.47V1567.47L849.509 1604.97V1622.1L783.797 1584.47Z" fill="#8C8C8C"/>
<path d="M699.528 1507.71V1490.7L765.239 1528.21V1545.35L699.528 1507.71Z" fill="#8C8C8C"/>
<path d="M699.528 1535.13V1518.12L765.239 1555.63V1572.76L699.528 1535.13Z" fill="#8C8C8C"/>
<path d="M614.352 1430.47V1413.46L680.062 1450.97V1468.1L614.352 1430.47Z" fill="#8C8C8C"/>
<path d="M614.352 1457.79V1440.79L680.062 1478.28V1495.42L614.352 1457.79Z" fill="#8C8C8C"/>
<path d="M614.352 1485.25V1468.24L680.062 1505.75V1522.88L614.352 1485.25Z" fill="#8C8C8C"/>
<path d="M530.083 1408.48V1391.47L595.793 1428.96V1446.1L530.083 1408.48Z" fill="#8C8C8C"/>
<path d="M530.083 1435.93V1418.93L595.793 1456.43V1473.56L530.083 1435.93Z" fill="#8C8C8C"/>
<path d="M859.792 1541.83L870.753 1537.28L489.382 1319.6L478.419 1324.17L859.791 1541.83" fill="#191919"/>
<path d="M489.387 1557.67V1458.95L870.759 1676.63V1776.08L489.387 1557.67Z" fill="#1C1C1C"/>
<path d="M478.42 1562.24V1463.53L859.792 1681.19V1780.65L478.42 1562.24Z" fill="#3F3F3F"/>
<path d="M783.797 1669.01V1652L849.509 1689.49V1706.64L783.797 1669.01Z" fill="#8C8C8C"/>
<path d="M783.797 1696.41V1679.4L849.509 1716.91V1734.04L783.797 1696.41Z" fill="#8C8C8C"/>
<path d="M783.797 1723.83V1706.82L849.509 1744.33V1761.46L783.797 1723.83Z" fill="#8C8C8C"/>
<path d="M699.528 1647.07V1630.06L765.239 1667.57V1684.71L699.528 1647.07Z" fill="#8C8C8C"/>
<path d="M699.528 1674.49V1657.48L765.239 1694.99V1712.11L699.528 1674.49Z" fill="#8C8C8C"/>
<path d="M614.352 1569.79V1552.78L680.062 1590.29V1607.41L614.352 1569.79Z" fill="#8C8C8C"/>
<path d="M614.352 1597.2V1580.2L680.062 1617.69V1634.83L614.352 1597.2Z" fill="#8C8C8C"/>
<path d="M614.352 1624.61V1607.6L680.062 1645.11V1662.25L614.352 1624.61Z" fill="#8C8C8C"/>
<path d="M530.083 1547.86V1530.85L595.793 1568.35V1585.49L530.083 1547.86Z" fill="#8C8C8C"/>
<path d="M530.083 1575.26V1558.26L595.793 1595.76V1612.89L530.083 1575.26Z" fill="#8C8C8C"/>
<path d="M859.792 1681.19L870.753 1676.63L489.382 1458.95L478.419 1463.53L859.791 1681.19" fill="#191919"/>
<path d="M489.387 1697.03V1598.31L870.759 1815.99V1915.44L489.387 1697.03Z" fill="#1C1C1C"/>
<path d="M478.42 1701.6V1602.88L859.792 1820.55V1920.01L478.42 1701.6Z" fill="#3F3F3F"/>
<path d="M783.797 1808.36V1791.36L849.509 1828.85V1845.99L783.797 1808.36Z" fill="#8C8C8C"/>
<path d="M783.797 1835.77V1818.76L849.509 1856.27V1873.41L783.797 1835.77Z" fill="#8C8C8C"/>
<path d="M783.797 1863.19V1846.18L849.509 1883.69V1900.81L783.797 1863.19" fill="#8C8C8C"/>
<path d="M699.528 1786.42V1769.42L765.239 1806.92V1824.07L699.528 1786.42Z" fill="#8C8C8C"/>
<path d="M699.528 1813.84V1796.83L765.239 1834.34V1851.47L699.528 1813.84" fill="#8C8C8C"/>
<path d="M614.352 1709.14V1692.13L680.062 1729.64V1746.77L614.352 1709.14Z" fill="#8C8C8C"/>
<path d="M614.352 1736.56V1719.54L680.062 1757.05V1774.19L614.352 1736.56Z" fill="#8C8C8C"/>
<path d="M614.352 1763.96V1746.96L680.062 1784.46V1801.59L614.352 1763.96" fill="#8C8C8C"/>
<path d="M530.083 1687.2V1670.21L595.793 1707.7V1724.84L530.083 1687.2Z" fill="#8C8C8C"/>
<path d="M530.083 1714.62V1697.61L595.793 1735.12V1752.25L530.083 1714.62Z" fill="#8C8C8C"/>
<path d="M859.792 1820.55L870.753 1815.99L489.382 1598.31L478.419 1602.88L859.791 1820.55" fill="#191919"/>
<path d="M489.387 1836.38V1737.67L870.759 1955.33V2054.79L489.387 1836.38" fill="#1C1C1C"/>
<path d="M478.42 1840.94V1742.24L859.792 1959.9V2059.36L478.42 1840.94Z" fill="#3F3F3F"/>
<path d="M783.797 1947.72V1930.71L849.509 1968.21V1985.35L783.797 1947.72Z" fill="#8C8C8C"/>
<path d="M783.797 1975.12V1958.12L849.509 1995.62V2012.75L783.797 1975.12" fill="#8C8C8C"/>
<path d="M783.797 2002.54V1985.53L849.509 2023.04V2040.17L783.797 2002.54" fill="#8C8C8C"/>
<path d="M699.528 1925.78V1908.77L765.239 1946.28V1963.41L699.528 1925.78" fill="#8C8C8C"/>
<path d="M699.528 1953.2V1936.19L765.239 1973.7V1990.83L699.528 1953.2" fill="#8C8C8C"/>
<path d="M614.352 1848.5V1831.49L680.062 1868.98V1886.13L614.352 1848.5Z" fill="#8C8C8C"/>
<path d="M614.352 1875.9V1858.89L680.062 1896.4V1913.54L614.352 1875.9Z" fill="#8C8C8C"/>
<path d="M614.352 1903.32V1886.31L680.062 1923.82V1940.95L614.352 1903.32" fill="#8C8C8C"/>
<path d="M530.083 1826.56V1809.55L595.793 1847.06V1864.2L530.083 1826.56Z" fill="#8C8C8C"/>
<path d="M530.083 1853.98V1836.97L595.793 1874.48V1891.6L530.083 1853.98" fill="#8C8C8C"/>
<path d="M859.792 1959.9L870.753 1955.33L489.382 1737.67L478.419 1742.24L859.791 1959.9" fill="#191919"/>
<path d="M489.387 1975.74V1877.02L870.759 2094.69V2194.15L489.387 1975.74" fill="#1C1C1C"/>
<path d="M478.42 1980.3V1881.59L859.792 2099.26V2198.72L478.42 1980.3Z" fill="#3F3F3F"/>
<path d="M783.797 2087.06V2070.05L849.509 2107.56V2124.7L783.797 2087.06Z" fill="#8C8C8C"/>
<path d="M783.797 2114.48V2097.47L849.509 2134.98V2152.11L783.797 2114.48" fill="#8C8C8C"/>
<path d="M783.797 2141.9V2124.89L849.509 2162.4V2179.53L783.797 2141.9" fill="#8C8C8C"/>
<path d="M699.528 2065.14V2048.13L765.239 2085.64V2102.76L699.528 2065.14" fill="#8C8C8C"/>
<path d="M699.528 2092.55V2075.55L765.239 2113.05V2130.18L699.528 2092.55" fill="#8C8C8C"/>
<path d="M614.352 1987.85V1970.85L680.062 2008.34V2025.48L614.352 1987.85Z" fill="#8C8C8C"/>
<path d="M614.352 2015.26V1998.25L680.062 2035.76V2052.9L614.352 2015.26Z" fill="#8C8C8C"/>
<path d="M614.352 2042.68V2025.67L680.062 2063.18V2080.3L614.352 2042.68" fill="#8C8C8C"/>
<path d="M530.083 1965.91V1948.91L595.793 1986.41V2003.56L530.083 1965.91Z" fill="#8C8C8C"/>
<path d="M530.083 1993.33V1976.32L595.793 2013.83V2030.96L530.083 1993.33" fill="#8C8C8C"/>
<path d="M859.792 2099.26L870.753 2094.69L489.382 1877.02L478.419 1881.59L859.791 2099.26" fill="#191919"/>
<path d="M870.758 1397.95L859.797 1402.52V1501.97L870.758 1497.39V1397.95Z" fill="#0F0F0F"/>
<path d="M1646.64 2073.29L1643.98 1959.9L1627.59 1970.98L1630.21 2083.05L1646.64 2073.29" fill="#1E1E1E"/>
<path d="M1621.32 2086.96L1618.66 1973.58L1602.25 1984.65L1604.89 2096.71L1621.32 2086.96" fill="#1E1E1E"/>
<path d="M1594.54 2102.72L1591.87 1989.33L1575.47 2000.41L1578.11 2112.47L1594.54 2102.72" fill="#1E1E1E"/>
<path d="M1569.22 2116.39L1566.56 2003.01L1550.15 2014.09L1552.79 2126.14L1569.22 2116.39" fill="#1E1E1E"/>
<path d="M1542.3 2132.16L1539.64 2018.76L1523.23 2029.84L1525.87 2141.9L1542.3 2132.16" fill="#1E1E1E"/>
<path d="M1516.99 2145.82L1514.32 2032.44L1497.93 2043.52L1500.56 2155.57L1516.99 2145.82Z" fill="#1E1E1E"/>
<path d="M1490.2 2161.57L1487.54 2048.19L1471.13 2059.27L1473.77 2171.33L1490.2 2161.57" fill="#1E1E1E"/>
<path d="M1465.02 2175.25L1462.35 2061.87L1445.95 2072.95L1448.59 2185L1465.02 2175.25" fill="#1E1E1E"/>
<path d="M1439.43 2190.59L1436.77 2077.2L1420.36 2088.29L1423 2200.35L1439.43 2190.59" fill="#1E1E1E"/>
<path d="M1414.11 2204.27L1411.45 2090.87L1395.04 2101.95L1397.67 2214.02L1414.11 2204.27" fill="#1E1E1E"/>
<path d="M1387.33 2220.02L1384.66 2106.63L1368.26 2117.72L1370.9 2229.78L1387.33 2220.02" fill="#1E1E1E"/>
<path d="M1362.01 2233.7L1359.35 2120.31L1342.94 2131.38L1345.58 2243.45L1362.01 2233.7" fill="#1E1E1E"/>
<path d="M1335.23 2249.45L1332.56 2136.06L1316.16 2147.15L1318.78 2259.21L1335.23 2249.45Z" fill="#1E1E1E"/>
<path d="M1309.91 2263.13L1307.24 2149.74L1290.84 2160.81L1293.48 2272.87L1309.91 2263.13" fill="#1E1E1E"/>
<path d="M1283.12 2278.88L1280.46 2165.49L1264.06 2176.57L1266.69 2288.64L1283.12 2278.88" fill="#1E1E1E"/>
<path d="M1257.81 2292.54L1255.14 2179.17L1238.75 2190.24L1241.38 2302.3L1257.81 2292.54" fill="#1E1E1E"/>
<path d="M1232.36 2306.74L1229.69 2193.35L1213.29 2204.44L1215.93 2316.5L1232.36 2306.74" fill="#1E1E1E"/>
<path d="M1207.04 2320.4L1204.36 2207.03L1187.97 2218.1L1190.59 2330.16L1207.04 2320.4" fill="#1E1E1E"/>
<path d="M1180.25 2336.17L1177.59 2222.78L1161.2 2233.86L1163.82 2345.93L1180.25 2336.17" fill="#1E1E1E"/>
<path d="M1154.93 2349.83L1152.27 2236.46L1135.87 2247.53L1138.5 2359.59L1154.93 2349.83" fill="#1E1E1E"/>
<path d="M1128.15 2365.6L1125.49 2252.21L1109.08 2263.29L1111.71 2375.36L1128.15 2365.6" fill="#1E1E1E"/>
<path d="M1102.83 2379.26L1100.17 2265.89L1083.76 2276.96L1086.4 2389.02L1102.83 2379.26" fill="#1E1E1E"/>
<path d="M1076.05 2395.03L1073.38 2281.64L1056.98 2292.72L1059.62 2404.79L1076.05 2395.03" fill="#1E1E1E"/>
<path d="M1050.73 2408.69L1048.07 2295.32L1031.68 2306.39L1034.3 2418.45L1050.73 2408.69Z" fill="#1E1E1E"/>
<path d="M1646.64 1653.53L1643.98 1540.14L1627.59 1551.22L1630.21 1663.29L1646.64 1653.53" fill="#1E1E1E"/>
<path d="M1621.32 1667.19L1618.66 1553.82L1602.25 1564.89L1604.89 1676.95L1621.32 1667.19" fill="#1E1E1E"/>
<path d="M1594.54 1682.96L1591.87 1569.57L1575.47 1580.65L1578.11 1692.72L1594.54 1682.96" fill="#1E1E1E"/>
<path d="M1569.22 1696.63L1566.56 1583.25L1550.15 1594.32L1552.79 1706.38L1569.22 1696.63" fill="#1E1E1E"/>
<path d="M1542.3 1712.39L1539.64 1599L1523.23 1610.08L1525.87 1722.15L1542.3 1712.39" fill="#1E1E1E"/>
<path d="M1516.99 1726.06L1514.32 1612.68L1497.93 1623.76L1500.56 1735.81L1516.99 1726.06Z" fill="#1E1E1E"/>
<path d="M1490.2 1741.81L1487.54 1628.43L1471.13 1639.51L1473.77 1751.58L1490.2 1741.81" fill="#1E1E1E"/>
<path d="M1465.02 1755.49L1462.35 1642.11L1445.95 1653.19L1448.59 1765.24L1465.02 1755.49" fill="#1E1E1E"/>
<path d="M1439.43 1770.83L1436.77 1657.45L1420.36 1668.53L1423 1780.59L1439.43 1770.83" fill="#1E1E1E"/>
<path d="M1414.11 1784.5L1411.45 1671.11L1395.04 1682.19L1397.67 1794.26L1414.11 1784.5Z" fill="#1E1E1E"/>
<path d="M1387.33 1800.26L1384.66 1686.88L1368.26 1697.96L1370.9 1810.02L1387.33 1800.26" fill="#1E1E1E"/>
<path d="M1362.01 1813.94L1359.35 1700.54L1342.94 1711.62L1345.58 1823.69L1362.01 1813.94" fill="#1E1E1E"/>
<path d="M1335.23 1829.69L1332.56 1716.31L1316.16 1727.39L1318.78 1839.45L1335.23 1829.69Z" fill="#1E1E1E"/>
<path d="M1309.91 1843.37L1307.24 1729.98L1290.84 1741.05L1293.48 1853.12L1309.91 1843.37" fill="#1E1E1E"/>
<path d="M1283.12 1859.12L1280.46 1745.73L1264.06 1756.82L1266.69 1868.88L1283.12 1859.12" fill="#1E1E1E"/>
<path d="M1257.81 1872.8L1255.14 1759.41L1238.75 1770.48L1241.38 1882.54L1257.81 1872.8Z" fill="#1E1E1E"/>
<path d="M1232.36 1886.98L1229.69 1773.59L1213.29 1784.68L1215.93 1896.74L1232.36 1886.98" fill="#1E1E1E"/>
<path d="M1207.04 1900.64L1204.36 1787.26L1187.97 1798.34L1190.59 1910.4L1207.04 1900.64Z" fill="#1E1E1E"/>
<path d="M1180.25 1916.41L1177.59 1803.02L1161.2 1814.1L1163.82 1926.17L1180.25 1916.41" fill="#1E1E1E"/>
<path d="M1154.93 1930.09L1152.27 1816.69L1135.87 1827.77L1138.5 1939.83L1154.93 1930.09" fill="#1E1E1E"/>
<path d="M1128.15 1945.84L1125.49 1832.45L1109.08 1843.53L1111.71 1955.6L1128.15 1945.84" fill="#1E1E1E"/>
<path d="M1102.83 1959.5L1100.17 1846.13L1083.76 1857.2L1086.4 1969.26L1102.83 1959.5" fill="#1E1E1E"/>
<path d="M1076.05 1975.27L1073.38 1861.88L1056.98 1872.96L1059.62 1985.03L1076.05 1975.27" fill="#1E1E1E"/>
<path d="M1050.73 1988.93L1048.07 1875.56L1031.68 1886.63L1034.3 1998.69L1050.73 1988.93Z" fill="#1E1E1E"/>
<path d="M1646.64 1208.27L1643.98 1094.88L1627.59 1105.96L1630.21 1218.02L1646.64 1208.27Z" fill="#1E1E1E"/>
<path d="M1621.32 1222L1618.66 1108.62L1602.25 1119.7L1604.89 1231.76L1621.32 1222" fill="#1E1E1E"/>
<path d="M1594.54 1237.73L1591.87 1124.35L1575.47 1135.43L1578.11 1247.49L1594.54 1237.73" fill="#1E1E1E"/>
<path d="M1569.22 1251.33L1566.56 1137.95L1550.15 1149.02L1552.79 1261.08L1569.22 1251.33" fill="#1E1E1E"/>
<path d="M1542.3 1267.19L1539.64 1153.81L1523.23 1164.89L1525.87 1276.94L1542.3 1267.19" fill="#1E1E1E"/>
<path d="M1516.99 1280.78L1514.32 1167.41L1497.93 1178.48L1500.56 1290.54L1516.99 1280.78Z" fill="#1E1E1E"/>
<path d="M1490.2 1296.51L1487.54 1183.13L1471.13 1194.21L1473.77 1306.27L1490.2 1296.51" fill="#1E1E1E"/>
<path d="M1465.02 1310.24L1462.35 1196.85L1445.95 1207.94L1448.59 1320L1465.02 1310.24" fill="#1E1E1E"/>
<path d="M1439.43 1325.57L1436.77 1212.18L1420.36 1223.27L1423 1335.33L1439.43 1325.57" fill="#1E1E1E"/>
<path d="M1414.11 1339.3L1411.45 1225.92L1395.04 1237L1397.67 1349.05L1414.11 1339.3Z" fill="#1E1E1E"/>
<path d="M1387.33 1355.03L1384.66 1241.64L1368.26 1252.71L1370.9 1364.78L1387.33 1355.03" fill="#1E1E1E"/>
<path d="M1362.01 1368.62L1359.35 1255.24L1342.94 1266.32L1345.58 1378.38L1362.01 1368.62" fill="#1E1E1E"/>
<path d="M1335.23 1384.48L1332.56 1271.09L1316.16 1282.17L1318.78 1394.24L1335.23 1384.48" fill="#1E1E1E"/>
<path d="M1309.91 1398.08L1307.24 1284.7L1290.84 1295.78L1293.48 1407.84L1309.91 1398.08" fill="#1E1E1E"/>
<path d="M1283.12 1413.94L1280.46 1300.55L1264.06 1311.63L1266.69 1423.7L1283.12 1413.94" fill="#1E1E1E"/>
<path d="M1257.81 1427.54L1255.14 1314.16L1238.75 1325.24L1241.38 1437.29L1257.81 1427.54Z" fill="#1E1E1E"/>
<path d="M1232.36 1441.67L1229.69 1328.27L1213.29 1339.35L1215.93 1451.41L1232.36 1441.67" fill="#1E1E1E"/>
<path d="M1207.04 1455.39L1204.36 1342.02L1187.97 1353.09L1190.59 1465.15L1207.04 1455.39Z" fill="#1E1E1E"/>
<path d="M1180.25 1471.12L1177.59 1357.75L1161.2 1368.82L1163.82 1480.88L1180.25 1471.12Z" fill="#1E1E1E"/>
<path d="M1154.93 1484.85L1152.27 1371.47L1135.87 1382.55L1138.5 1494.61L1154.93 1484.85" fill="#1E1E1E"/>
<path d="M1128.15 1500.58L1125.49 1387.2L1109.08 1398.28L1111.71 1510.34L1128.15 1500.58Z" fill="#1E1E1E"/>
<path d="M1102.83 1514.26L1100.17 1400.88L1083.76 1411.96L1086.4 1524.01L1102.83 1514.26" fill="#1E1E1E"/>
<path d="M1076.05 1530.01L1073.38 1416.63L1056.98 1427.71L1059.62 1539.77L1076.05 1530.01" fill="#1E1E1E"/>
<path d="M1050.73 1543.69L1048.07 1430.31L1031.68 1441.39L1034.3 1553.44L1050.73 1543.69Z" fill="#1E1E1E"/>
<path d="M965.808 1220.27L1024.89 1184.89L1013.34 1177.67L955.089 1214.31L965.808 1220.27Z" fill="#1E1E1E"/>
<path d="M947.912 1209.87L1006.99 1174.5L995.437 1167.27L937.193 1203.91L947.912 1209.87" fill="#1E1E1E"/>
<path d="M930.39 1199.88L989.471 1164.49L977.917 1157.28L919.672 1193.92L930.39 1199.88Z" fill="#1E1E1E"/>
<path d="M912.494 1189.48L971.576 1154.1L960.017 1146.88L901.775 1183.52L912.494 1189.48Z" fill="#1E1E1E"/>
<path d="M893.865 1178.68L952.944 1143.29L941.39 1136.07L883.146 1172.72L893.865 1178.68" fill="#1E1E1E"/>
<path d="M875.969 1168.28L935.051 1132.9L923.494 1125.69L865.251 1162.33L875.969 1168.28Z" fill="#1E1E1E"/>
<path d="M858.446 1158.29L917.525 1122.9L905.97 1115.67L847.727 1152.33L858.446 1158.29" fill="#1E1E1E"/>
<path d="M840.55 1147.89L899.632 1112.5L888.076 1105.28L829.831 1141.93L840.55 1147.89Z" fill="#1E1E1E"/>
<path d="M821.015 1135.9L880.094 1100.51L868.539 1093.28L810.295 1129.92L821.015 1135.9" fill="#1E1E1E"/>
<path d="M803.119 1125.37L862.199 1089.98L850.645 1082.75L792.4 1119.39L803.119 1125.37" fill="#1E1E1E"/>
<path d="M785.583 1115.5L844.664 1080.13L833.108 1072.9L774.864 1109.54L785.583 1115.5" fill="#1E1E1E"/>
<path d="M767.7 1104.97L826.78 1069.58L815.224 1062.36L756.98 1099L767.7 1104.97" fill="#1E1E1E"/>
<path d="M749.071 1094.31L808.152 1058.93L796.596 1051.71L738.351 1088.35L749.071 1094.31Z" fill="#1E1E1E"/>
<path d="M731.176 1083.78L790.255 1048.4L778.699 1041.18L720.456 1077.82L731.176 1083.78" fill="#1E1E1E"/>
<path d="M713.653 1073.91L772.734 1038.54L761.179 1031.31L702.934 1067.96L713.653 1073.91Z" fill="#1E1E1E"/>
<path d="M695.757 1063.38L754.838 1028.01L743.282 1020.78L685.037 1057.43L695.757 1063.38" fill="#1E1E1E"/>
<path d="M677.248 1052.45L736.328 1017.07L724.773 1009.84L666.529 1046.48L677.248 1052.45" fill="#1E1E1E"/>
<path d="M659.352 1041.92L718.433 1006.54L706.876 999.312L648.632 1035.95L659.352 1041.92" fill="#1E1E1E"/>
<path d="M641.829 1032.06L700.91 996.685L689.355 989.461L631.11 1026.1L641.829 1032.06" fill="#1E1E1E"/>
<path d="M623.92 1021.53L683 986.142L671.446 978.918L613.202 1015.56L623.92 1021.53" fill="#1E1E1E"/>
<path d="M605.304 1010.87L664.385 975.492L652.828 968.268L594.585 1004.91L605.304 1010.87Z" fill="#1E1E1E"/>
<path d="M587.408 1000.34L646.49 964.949L634.933 957.725L576.689 994.366L587.408 1000.34" fill="#1E1E1E"/>
<path d="M569.885 990.474L628.965 955.099L617.409 947.874L559.165 984.516L569.885 990.474" fill="#1E1E1E"/>
<path d="M551.989 979.944L611.07 944.569L599.516 937.344L541.271 973.986L551.989 979.944" fill="#1E1E1E"/>
<path d="M532.455 968.081L591.535 932.692L579.981 925.481L521.736 962.123L532.455 968.081" fill="#1E1E1E"/>
<path d="M514.545 957.551L573.624 922.176L562.069 914.951L503.826 951.593L514.545 957.551" fill="#1E1E1E"/>
<path d="M497.023 947.688L556.102 912.299L544.549 905.074L486.304 941.729L497.023 947.688" fill="#1E1E1E"/>
<path d="M479.127 937.158L538.207 901.769L526.652 894.558L468.409 931.2L479.127 937.158Z" fill="#1E1E1E"/>
<path d="M460.511 926.494L519.593 891.106L508.037 883.881L449.793 920.523L460.511 926.494" fill="#1E1E1E"/>
<path d="M442.615 915.964L501.696 880.575L490.141 873.351L431.896 910.006L442.615 915.964" fill="#1E1E1E"/>
<path d="M425.079 906.101L484.158 870.712L472.602 863.488L414.358 900.129L425.079 906.101" fill="#1E1E1E"/>
<path d="M407.183 895.571L466.262 860.182L454.709 852.958L396.464 889.613L407.183 895.571" fill="#1E1E1E"/>
<path d="M964.649 662.523L951.562 654.941L979.601 638.614L992.689 646.198L964.649 662.523Z" fill="#0F0F0F" fill-opacity="0.87513"/>
<path d="M977.708 670.121L964.622 662.54L992.661 646.216L1005.75 653.799L977.708 670.121Z" fill="#0F0F0F" fill-opacity="0.87513"/>
<path d="M1005.02 664.922L986.959 675.438L985.415 674.544L1001.73 665.048L993.936 660.533L995.688 659.512L1005.02 664.922ZM983.126 673.218L981.583 672.324L993.546 665.36L989.586 663.065L991.338 662.045L996.842 665.234L983.126 673.218Z" fill="#0F0F0F" fill-opacity="0.87513"/>
<path d="M1082.31 730.635L1069.24 723.063L1097.28 706.758L1110.35 714.332L1082.31 730.635Z" fill="#0F0F0F" fill-opacity="0.87513"/>
<path d="M1095.37 738.232L1082.3 730.662L1110.34 714.359L1123.41 721.932L1095.37 738.232Z" fill="#0F0F0F" fill-opacity="0.87513"/>
<path d="M1108.43 745.83L1095.36 738.26L1123.4 721.959L1136.47 729.531L1108.43 745.83Z" fill="#0F0F0F" fill-opacity="0.87513"/>
<path d="M1121.49 753.428L1108.42 745.859L1136.46 729.56L1149.53 737.131L1121.49 753.428Z" fill="#0F0F0F" fill-opacity="0.87513"/>
<path d="M1134.55 761.025L1121.48 753.458L1149.52 737.162L1162.59 744.731L1134.55 761.025Z" fill="#0F0F0F" fill-opacity="0.87513"/>
<path d="M1161.87 755.827L1143.8 766.325L1142.26 765.432L1158.57 755.952L1150.79 751.445L1152.54 750.427L1161.87 755.827ZM1139.97 764.109L1138.43 763.216L1150.39 756.264L1146.44 753.973L1148.19 752.955L1153.69 756.138L1139.97 764.109Z" fill="#0F0F0F" fill-opacity="0.87513"/>
<path d="M1173.72 783.685L1160.67 776.121L1188.71 759.831L1201.76 767.398L1173.72 783.685Z" fill="#0F0F0F" fill-opacity="0.87513"/>
<path d="M1186.78 791.283L1173.73 783.719L1201.77 767.433L1214.82 774.998L1186.78 791.283Z" fill="#0F0F0F" fill-opacity="0.87513"/>
<path d="M1199.84 798.747L1186.79 791.185L1214.83 774.9L1227.88 782.465L1199.84 798.747Z" fill="#0F0F0F" fill-opacity="0.87513"/>
<path d="M1212.9 806.344L1199.85 798.784L1227.89 782.501L1240.94 790.064L1212.9 806.344Z" fill="#0F0F0F" fill-opacity="0.87513"/>
<path d="M1225.96 813.942L1212.91 806.382L1240.95 790.102L1254 797.664L1225.96 813.942Z" fill="#0F0F0F" fill-opacity="0.87513"/>
<path d="M1239.02 821.406L1225.97 813.847L1254.01 797.57L1267.06 805.131L1239.02 821.406Z" fill="#0F0F0F" fill-opacity="0.87513"/>
<path d="M1252.08 829.004L1239.03 821.446L1267.07 805.171L1280.12 812.731L1252.08 829.004Z" fill="#0F0F0F" fill-opacity="0.87513"/>
<path d="M1279.39 823.806L1261.33 834.29L1259.79 833.399L1276.1 823.931L1268.33 819.429L1270.09 818.412L1279.39 823.806ZM1257.51 832.077L1255.97 831.185L1267.93 824.242L1263.98 821.954L1265.73 820.937L1271.22 824.117L1257.51 832.077Z" fill="#0F0F0F" fill-opacity="0.87513"/>
<path d="M1278.19 844.199L1265.15 836.644L1293.19 820.373L1306.23 827.93L1278.19 844.199Z" fill="#0F0F0F" fill-opacity="0.87513"/>
<path d="M1291.25 851.663L1278.21 844.109L1306.25 827.841L1319.29 835.397L1291.25 851.663Z" fill="#0F0F0F" fill-opacity="0.87513"/>
<path d="M1318.44 846.599L1300.37 857.079L1298.83 856.187L1315.15 846.724L1307.38 842.224L1309.13 841.208L1318.44 846.599ZM1296.55 854.866L1295.01 853.975L1306.98 847.035L1303.03 844.748L1304.78 843.732L1310.27 846.91L1296.55 854.866Z" fill="#0F0F0F" fill-opacity="0.87513"/>
<path d="M1356.41 889.385L1343.38 881.836L1371.42 865.58L1384.45 873.131L1356.41 889.385Z" fill="#0F0F0F" fill-opacity="0.87513"/>
<path d="M1369.34 896.983L1356.31 889.435L1384.35 873.181L1397.38 880.731L1369.34 896.983Z" fill="#0F0F0F" fill-opacity="0.87513"/>
<path d="M1396.66 891.784L1378.59 902.255L1377.05 901.365L1393.37 891.909L1385.61 887.413L1387.36 886.398L1396.66 891.784ZM1374.77 900.044L1373.24 899.154L1385.2 892.22L1381.26 889.935L1383.01 888.92L1388.49 892.095L1374.77 900.044Z" fill="#0F0F0F" fill-opacity="0.87513"/>
<path d="M932.935 680.917L919.847 673.338L947.875 657.017L960.963 664.598L932.935 680.917Z" fill="#0F0F0F" fill-opacity="0.87513"/>
<path d="M945.994 688.515L932.908 680.937L960.936 664.618L974.022 672.198L945.994 688.515Z" fill="#0F0F0F" fill-opacity="0.87513"/>
<path d="M977.975 674.386L979.519 675.28L951.49 691.595L949.946 690.701L977.975 674.386ZM981.808 676.606L983.351 677.5L955.323 693.815L953.779 692.921L981.808 676.606Z" fill="#0F0F0F" fill-opacity="0.87513"/>
<path d="M1037.54 741.565L1024.47 733.994L1052.49 717.692L1065.57 725.264L1037.54 741.565Z" fill="#0F0F0F" fill-opacity="0.87513"/>
<path d="M1050.6 749.162L1037.53 741.593L1065.56 725.293L1078.63 732.865L1050.6 749.162Z" fill="#0F0F0F" fill-opacity="0.87513"/>
<path d="M1072.58 740.765L1081.91 746.167L1080.16 747.185L1072.37 742.677L1056.07 752.159L1054.52 751.266L1072.58 740.765ZM1072.06 745.511L1077.56 748.695L1075.81 749.714L1071.85 747.423L1059.89 754.376L1058.35 753.483L1072.06 745.511Z" fill="#0F0F0F" fill-opacity="0.87513"/>
<path d="M1075.52 749.695L1077.27 748.677L1090.55 756.368L1088.8 757.387L1075.52 749.695ZM1079.87 747.167L1081.62 746.148L1094.9 753.84L1093.15 754.858L1079.87 747.167Z" fill="#0F0F0F" fill-opacity="0.87513"/>
<path d="M1088.58 757.16L1090.33 756.141L1103.6 763.832L1101.85 764.85L1088.58 757.16ZM1092.92 754.632L1094.68 753.613L1107.95 761.304L1106.2 762.322L1092.92 754.632Z" fill="#0F0F0F" fill-opacity="0.87513"/>
<path d="M1102.97 779.419L1089.9 771.854L1117.93 755.564L1131 763.131L1102.97 779.419Z" fill="#0F0F0F" fill-opacity="0.87513"/>
<path d="M1116.03 786.884L1102.96 779.32L1130.99 763.032L1144.05 770.598L1116.03 786.884Z" fill="#0F0F0F" fill-opacity="0.87513"/>
<path d="M1143.21 781.819L1125.15 792.312L1123.61 791.419L1139.92 781.944L1132.14 777.439L1133.89 776.421L1143.21 781.819ZM1121.32 790.096L1119.78 789.204L1131.74 782.255L1127.79 779.966L1129.54 778.948L1135.03 782.13L1121.32 790.096Z" fill="#0F0F0F" fill-opacity="0.87513"/>
<path d="M1160.93 780.486L1162.47 781.379L1148.16 789.696L1155.93 794.2L1154.18 795.218L1144.86 789.821L1160.93 780.486ZM1164.76 782.702L1166.3 783.594L1156.33 789.385L1160.28 791.674L1158.53 792.691L1153.04 789.51L1164.76 782.702Z" fill="#0F0F0F" fill-opacity="0.87513"/>
<path d="M1154 795.015L1155.75 793.997L1169.02 801.682L1167.27 802.699L1154 795.015ZM1158.35 792.488L1160.1 791.471L1173.37 799.156L1171.62 800.173L1158.35 792.488Z" fill="#0F0F0F" fill-opacity="0.87513"/>
<path d="M1167.06 802.612L1168.81 801.595L1182.08 809.278L1180.33 810.296L1167.06 802.612ZM1171.41 800.086L1173.16 799.069L1186.43 806.753L1184.68 807.77L1171.41 800.086Z" fill="#0F0F0F" fill-opacity="0.87513"/>
<path d="M1181.32 824.739L1168.27 817.18L1196.3 800.904L1209.35 808.465L1181.32 824.739Z" fill="#0F0F0F" fill-opacity="0.87513"/>
<path d="M1194.24 832.336L1181.19 824.779L1209.22 808.504L1222.27 816.064L1194.24 832.336Z" fill="#0F0F0F" fill-opacity="0.87513"/>
<path d="M1207.3 839.801L1194.26 832.244L1222.28 815.972L1235.33 823.531L1207.3 839.801Z" fill="#0F0F0F" fill-opacity="0.87513"/>
<path d="M1229.29 831.536L1238.6 836.928L1236.85 837.945L1229.08 833.445L1212.77 842.911L1211.23 842.019L1229.29 831.536ZM1228.76 836.274L1234.25 839.453L1232.5 840.469L1228.55 838.183L1216.59 845.124L1215.05 844.232L1228.76 836.274Z" fill="#0F0F0F" fill-opacity="0.87513"/>
<path d="M1241.55 845.799L1232.24 840.408L1233.99 839.391L1241.76 843.891L1256.08 835.582L1257.62 836.474L1241.55 845.799ZM1252.26 833.368L1253.8 834.26L1242.08 841.062L1236.59 837.883L1238.34 836.867L1242.29 839.154L1252.26 833.368Z" fill="#0F0F0F" fill-opacity="0.87513"/>
<path d="M1265.27 840.867L1266.81 841.758L1252.49 850.066L1260.26 854.565L1258.51 855.581L1249.2 850.191L1265.27 840.867ZM1269.09 843.08L1270.63 843.971L1260.66 849.755L1264.61 852.041L1262.86 853.058L1257.37 849.88L1269.09 843.08Z" fill="#0F0F0F" fill-opacity="0.87513"/>
<path d="M1259.54 870.058L1246.5 862.506L1274.53 846.243L1287.57 853.797L1259.54 870.058Z" fill="#0F0F0F" fill-opacity="0.87513"/>
<path d="M1272.6 877.655L1259.56 870.105L1287.59 853.844L1300.63 861.397L1272.6 877.655Z" fill="#0F0F0F" fill-opacity="0.87513"/>
<path d="M1299.78 872.457L1281.72 882.932L1280.18 882.041L1296.49 872.582L1288.73 868.085L1290.48 867.069L1299.78 872.457ZM1277.9 880.721L1276.36 879.83L1288.32 872.893L1284.38 870.608L1286.13 869.591L1291.61 872.768L1277.9 880.721Z" fill="#0F0F0F" fill-opacity="0.87513"/>
<path d="M1311.64 900.315L1298.61 892.767L1326.64 876.514L1339.67 884.063L1311.64 900.315Z" fill="#0F0F0F" fill-opacity="0.87513"/>
<path d="M1324.7 907.779L1311.67 900.233L1339.7 883.982L1352.73 891.531L1324.7 907.779Z" fill="#0F0F0F" fill-opacity="0.87513"/>
<path d="M1346.55 899.515L1355.85 904.9L1354.1 905.915L1346.34 901.421L1330.03 910.875L1328.49 909.984L1346.55 899.515ZM1346.02 904.247L1351.5 907.421L1349.75 908.436L1345.81 906.152L1333.85 913.085L1332.31 912.194L1346.02 904.247Z" fill="#0F0F0F" fill-opacity="0.87513"/>
<path d="M1358.95 913.777L1349.65 908.393L1351.4 907.377L1359.16 911.872L1373.48 903.573L1375.01 904.464L1358.95 913.777ZM1369.66 901.363L1371.2 902.253L1359.48 909.046L1354 905.872L1355.75 904.856L1359.69 907.141L1369.66 901.363Z" fill="#0F0F0F" fill-opacity="0.87513"/>
<path d="M901.354 699.311L888.266 691.735L916.285 675.42L929.373 682.999L901.354 699.311Z" fill="#0F0F0F" fill-opacity="0.87513"/>
<path d="M914.413 706.909L901.327 699.334L929.346 683.02L942.432 690.598L914.413 706.909Z" fill="#0F0F0F" fill-opacity="0.87513"/>
<path d="M946.261 692.914L947.804 693.807L919.785 710.117L918.241 709.223L946.261 692.914ZM950.093 695.133L951.637 696.027L923.618 712.336L922.074 711.443L950.093 695.133Z" fill="#0F0F0F" fill-opacity="0.87513"/>
<path d="M1005.96 759.959L992.885 752.391L1020.9 736.095L1033.98 743.665L1005.96 759.959Z" fill="#0F0F0F" fill-opacity="0.87513"/>
<path d="M1019.02 767.557L1005.95 759.99L1033.97 743.697L1047.04 751.265L1019.02 767.557Z" fill="#0F0F0F" fill-opacity="0.87513"/>
<path d="M1032.08 775.021L1019.01 767.455L1047.03 751.163L1060.09 758.731L1032.08 775.021Z" fill="#0F0F0F" fill-opacity="0.87513"/>
<path d="M1045.13 782.618L1032.07 775.054L1060.09 758.764L1073.15 766.331L1045.13 782.618Z" fill="#0F0F0F" fill-opacity="0.87513"/>
<path d="M1058.19 790.216L1045.13 782.653L1073.15 766.366L1086.21 773.932L1058.19 790.216Z" fill="#0F0F0F" fill-opacity="0.87513"/>
<path d="M1071.25 797.814L1058.19 790.251L1086.21 773.966L1099.27 781.53L1071.25 797.814Z" fill="#0F0F0F" fill-opacity="0.87513"/>
<path d="M1084.31 805.278L1071.25 797.717L1099.27 781.434L1112.33 788.998L1084.31 805.278Z" fill="#0F0F0F" fill-opacity="0.87513"/>
<path d="M1116.16 791.282L1117.7 792.175L1089.68 808.454L1088.14 807.562L1116.16 791.282ZM1119.98 793.498L1121.52 794.39L1093.51 810.669L1091.96 809.777L1119.98 793.498Z" fill="#0F0F0F" fill-opacity="0.87513"/>
<path d="M1136.55 835.535L1123.49 827.979L1151.51 811.705L1164.57 819.264L1136.55 835.535Z" fill="#0F0F0F" fill-opacity="0.87513"/>
<path d="M1149.61 843.133L1136.55 835.577L1164.57 819.306L1177.62 826.864L1149.61 843.133Z" fill="#0F0F0F" fill-opacity="0.87513"/>
<path d="M1162.66 850.73L1149.61 843.176L1177.63 826.908L1190.68 834.465L1162.66 850.73Z" fill="#0F0F0F" fill-opacity="0.87513"/>
<path d="M1184.52 842.466L1193.83 847.857L1192.08 848.874L1184.31 844.374L1168 853.838L1166.46 852.947L1184.52 842.466ZM1183.99 847.203L1189.48 850.381L1187.73 851.397L1183.78 849.111L1171.82 856.051L1170.29 855.16L1183.99 847.203Z" fill="#0F0F0F" fill-opacity="0.87513"/>
<path d="M1196.91 856.595L1187.6 851.205L1189.35 850.189L1197.12 854.688L1211.44 846.381L1212.97 847.272L1196.91 856.595ZM1207.61 844.168L1209.15 845.059L1197.44 851.859L1191.95 848.681L1193.7 847.665L1197.65 849.952L1207.61 844.168Z" fill="#0F0F0F" fill-opacity="0.87513"/>
<path d="M1246.75 866.859L1248.29 867.75L1233.97 876.053L1241.74 880.55L1239.99 881.566L1230.68 876.179L1246.75 866.859ZM1250.57 869.071L1252.11 869.962L1242.14 875.743L1246.09 878.028L1244.34 879.044L1238.85 875.868L1250.57 869.071Z" fill="#0F0F0F" fill-opacity="0.87513"/>
<path d="M1240.88 895.916L1227.85 888.368L1255.86 872.113L1268.9 879.663L1240.88 895.916Z" fill="#0F0F0F" fill-opacity="0.87513"/>
<path d="M1253.94 903.514L1240.91 895.967L1268.92 879.715L1281.96 887.264L1253.94 903.514Z" fill="#0F0F0F" fill-opacity="0.87513"/>
<path d="M1267 911.112L1253.97 903.566L1281.99 887.316L1295.02 894.864L1267 911.112Z" fill="#0F0F0F" fill-opacity="0.87513"/>
<path d="M1280.06 918.576L1267.03 911.031L1295.05 894.784L1308.08 902.331L1280.06 918.576Z" fill="#0F0F0F" fill-opacity="0.87513"/>
<path d="M1301.91 910.312L1311.21 915.696L1309.46 916.711L1301.7 912.217L1285.4 921.669L1283.86 920.779L1301.91 910.312ZM1301.38 915.043L1306.87 918.216L1305.11 919.231L1301.17 916.948L1289.21 923.879L1287.68 922.989L1301.38 915.043Z" fill="#0F0F0F" fill-opacity="0.87513"/>
<path d="M1314.17 924.574L1304.88 919.191L1306.63 918.176L1314.39 922.669L1328.7 914.372L1330.24 915.262L1314.17 924.574ZM1324.88 912.162L1326.42 913.053L1314.7 919.844L1309.22 916.67L1310.97 915.655L1314.92 917.939L1324.88 912.162Z" fill="#0F0F0F" fill-opacity="0.87513"/>
<path d="M869.639 717.839L856.551 710.265L884.561 693.956L897.649 701.531L869.639 717.839Z" fill="#0F0F0F" fill-opacity="0.87513"/>
<path d="M882.699 725.303L869.612 717.731L897.622 701.424L910.708 708.999L882.699 725.303Z" fill="#0F0F0F" fill-opacity="0.87513"/>
<path d="M914.546 711.308L916.09 712.201L888.08 728.505L886.536 727.612L914.546 711.308ZM918.379 713.526L919.922 714.42L891.912 730.723L890.369 729.829L918.379 713.526Z" fill="#0F0F0F" fill-opacity="0.87513"/>
<path d="M974.244 778.353L961.171 770.788L989.181 754.497L1002.25 762.065L974.244 778.353Z" fill="#0F0F0F" fill-opacity="0.87513"/>
<path d="M987.302 785.951L974.231 778.387L1002.24 762.099L1015.31 769.665L987.302 785.951Z" fill="#0F0F0F" fill-opacity="0.87513"/>
<path d="M1009.29 777.687L1018.62 783.084L1016.86 784.102L1009.08 779.597L992.784 789.073L991.242 788.181L1009.29 777.687ZM1008.77 782.429L1014.27 785.611L1012.52 786.629L1008.56 784.34L996.612 791.288L995.07 790.396L1008.77 782.429Z" fill="#0F0F0F" fill-opacity="0.87513"/>
<path d="M1012.22 786.484L1013.97 785.466L1027.25 793.152L1025.5 794.17L1012.22 786.484ZM1016.57 783.957L1018.32 782.94L1031.6 790.626L1029.85 791.644L1016.57 783.957Z" fill="#0F0F0F" fill-opacity="0.87513"/>
<path d="M1025.28 794.082L1027.03 793.064L1040.31 800.749L1038.56 801.766L1025.28 794.082ZM1029.63 791.555L1031.38 790.538L1044.65 798.223L1042.9 799.24L1029.63 791.555Z" fill="#0F0F0F" fill-opacity="0.87513"/>
<path d="M1039.67 816.208L1026.61 808.649L1054.62 792.37L1067.68 799.931L1039.67 816.208Z" fill="#0F0F0F" fill-opacity="0.87513"/>
<path d="M1052.73 823.673L1039.67 816.114L1067.68 799.836L1080.74 807.397L1052.73 823.673Z" fill="#0F0F0F" fill-opacity="0.87513"/>
<path d="M1084.58 809.677L1086.12 810.569L1058.11 826.842L1056.57 825.95L1084.58 809.677ZM1088.4 811.891L1089.94 812.783L1061.93 829.055L1060.39 828.164L1088.4 811.891Z" fill="#0F0F0F" fill-opacity="0.87513"/>
<path d="M1091.91 846.332L1078.85 838.777L1106.86 822.507L1119.92 830.065L1091.91 846.332Z" fill="#0F0F0F" fill-opacity="0.87513"/>
<path d="M1104.97 853.929L1091.91 846.375L1119.92 830.108L1132.98 837.665L1104.97 853.929Z" fill="#0F0F0F" fill-opacity="0.87513"/>
<path d="M1118.02 861.527L1104.97 853.974L1132.98 837.708L1146.03 845.264L1118.02 861.527Z" fill="#0F0F0F" fill-opacity="0.87513"/>
<path d="M1139.88 853.263L1149.19 858.653L1147.44 859.669L1139.67 855.171L1123.37 864.633L1121.83 863.742L1139.88 853.263ZM1139.35 857.999L1144.84 861.176L1143.09 862.192L1139.14 859.906L1127.19 866.845L1125.65 865.954L1139.35 857.999Z" fill="#0F0F0F" fill-opacity="0.87513"/>
<path d="M1152.14 867.392L1142.83 862.003L1144.58 860.987L1152.35 865.485L1166.66 857.179L1168.2 858.07L1152.14 867.392ZM1162.83 854.967L1164.37 855.858L1152.66 862.657L1147.17 859.48L1148.92 858.463L1152.87 860.749L1162.83 854.967Z" fill="#0F0F0F" fill-opacity="0.87513"/>
<path d="M1228.09 892.717L1229.63 893.608L1215.32 901.907L1223.09 906.402L1221.34 907.417L1212.03 902.033L1228.09 892.717ZM1231.91 894.928L1233.45 895.819L1223.49 901.597L1227.43 903.881L1225.68 904.896L1220.2 901.722L1231.91 894.928Z" fill="#0F0F0F" fill-opacity="0.87513"/>
<path d="M1222.36 921.908L1209.32 914.364L1237.33 898.117L1250.37 905.663L1222.36 921.908Z" fill="#0F0F0F" fill-opacity="0.87513"/>
<path d="M1235.29 929.372L1222.25 921.829L1250.26 905.585L1263.3 913.13L1235.29 929.372Z" fill="#0F0F0F" fill-opacity="0.87513"/>
<path d="M1257.27 921.108L1266.57 926.491L1264.82 927.506L1257.06 923.014L1240.76 932.463L1239.23 931.574L1257.27 921.108ZM1256.75 925.838L1262.23 929.011L1260.48 930.026L1256.53 927.743L1244.58 934.673L1243.04 933.783L1256.75 925.838Z" fill="#0F0F0F" fill-opacity="0.87513"/>
<path d="M1269.53 935.37L1260.23 929.989L1261.98 928.974L1269.75 933.466L1284.05 925.171L1285.59 926.061L1269.53 935.37ZM1280.24 922.961L1281.77 923.852L1270.06 930.642L1264.58 927.469L1266.33 926.453L1270.28 928.737L1280.24 922.961Z" fill="#0F0F0F" fill-opacity="0.87513"/>
<path d="M838.058 736.233L824.97 728.662L852.969 712.358L866.057 719.931L838.058 736.233Z" fill="#0F0F0F" fill-opacity="0.87513"/>
<path d="M851.117 743.831L838.031 736.26L866.03 719.959L879.117 727.531L851.117 743.831Z" fill="#0F0F0F" fill-opacity="0.87513"/>
<path d="M864.176 751.295L851.092 743.726L879.091 727.427L892.175 734.999L864.176 751.295Z" fill="#0F0F0F" fill-opacity="0.87513"/>
<path d="M877.235 758.893L864.153 751.325L892.152 735.028L905.235 742.598L877.235 758.893Z" fill="#0F0F0F" fill-opacity="0.87513"/>
<path d="M890.294 766.49L877.214 758.923L905.213 742.628L918.293 750.197L890.294 766.49Z" fill="#0F0F0F" fill-opacity="0.87513"/>
<path d="M903.486 774.088L890.407 766.522L918.406 750.23L931.485 757.798L903.486 774.088Z" fill="#0F0F0F" fill-opacity="0.87513"/>
<path d="M916.545 781.552L903.468 773.988L931.467 757.698L944.544 765.265L916.545 781.552Z" fill="#0F0F0F" fill-opacity="0.87513"/>
<path d="M943.729 776.487L925.686 786.981L924.144 786.089L940.435 776.613L932.648 772.107L934.398 771.089L943.729 776.487ZM921.857 784.766L920.314 783.873L932.261 776.924L928.303 774.634L930.053 773.616L935.554 776.798L921.857 784.766Z" fill="#0F0F0F" fill-opacity="0.87513"/>
<path d="M942.663 796.747L929.59 789.185L957.589 772.9L970.662 780.464L942.663 796.747Z" fill="#0F0F0F" fill-opacity="0.87513"/>
<path d="M955.721 804.345L942.65 796.784L970.65 780.501L983.721 788.065L955.721 804.345Z" fill="#0F0F0F" fill-opacity="0.87513"/>
<path d="M987.569 790.216L989.111 791.108L961.112 807.389L959.57 806.497L987.569 790.216ZM991.397 792.432L992.939 793.323L964.94 809.602L963.398 808.711L991.397 792.432Z" fill="#0F0F0F" fill-opacity="0.87513"/>
<path d="M1007.96 834.469L994.893 826.912L1022.89 810.638L1035.96 818.198L1007.96 834.469Z" fill="#0F0F0F" fill-opacity="0.87513"/>
<path d="M1021.02 842.066L1007.95 834.511L1035.95 818.24L1049.02 825.798L1021.02 842.066Z" fill="#0F0F0F" fill-opacity="0.87513"/>
<path d="M1052.86 828.071L1054.4 828.963L1026.41 845.231L1024.86 844.339L1052.86 828.071ZM1056.69 830.284L1058.23 831.176L1030.23 847.443L1028.69 846.552L1056.69 830.284Z" fill="#0F0F0F" fill-opacity="0.87513"/>
<path d="M1047.13 857.262L1034.08 849.708L1062.07 833.441L1075.13 840.997L1047.13 857.262Z" fill="#0F0F0F" fill-opacity="0.87513"/>
<path d="M1060.19 864.726L1047.14 857.174L1075.14 840.909L1088.19 848.464L1060.19 864.726Z" fill="#0F0F0F" fill-opacity="0.87513"/>
<path d="M1073.25 872.324L1060.2 864.772L1088.2 848.51L1101.25 856.064L1073.25 872.324Z" fill="#0F0F0F" fill-opacity="0.87513"/>
<path d="M1086.31 879.788L1073.26 872.238L1101.26 855.979L1114.31 863.532L1086.31 879.788Z" fill="#0F0F0F" fill-opacity="0.87513"/>
<path d="M1099.37 887.385L1086.32 879.836L1114.32 863.579L1127.37 871.13L1099.37 887.385Z" fill="#0F0F0F" fill-opacity="0.87513"/>
<path d="M1112.43 894.983L1099.38 887.435L1127.38 871.18L1140.43 878.731L1112.43 894.983Z" fill="#0F0F0F" fill-opacity="0.87513"/>
<path d="M1125.49 902.448L1112.44 894.9L1140.44 878.648L1153.49 886.198L1125.49 902.448Z" fill="#0F0F0F" fill-opacity="0.87513"/>
<path d="M1152.67 897.382L1134.63 907.852L1133.09 906.962L1149.38 897.507L1141.61 893.012L1143.36 891.996L1152.67 897.382ZM1130.81 905.642L1129.27 904.751L1141.22 897.818L1137.27 895.534L1139.02 894.518L1144.5 897.693L1130.81 905.642Z" fill="#0F0F0F" fill-opacity="0.87513"/>
<path d="M1190.65 940.169L1177.61 932.627L1205.61 916.387L1218.65 923.931L1190.65 940.169Z" fill="#0F0F0F" fill-opacity="0.87513"/>
<path d="M1203.71 947.767L1190.67 940.226L1218.67 923.987L1231.71 931.53L1203.71 947.767Z" fill="#0F0F0F" fill-opacity="0.87513"/>
<path d="M1235.55 933.771L1237.09 934.661L1209.09 950.896L1207.55 950.006L1235.55 933.771ZM1239.37 935.98L1240.91 936.87L1212.91 953.105L1211.37 952.215L1239.37 935.98Z" fill="#0F0F0F" fill-opacity="0.87513"/>
<path d="M825.133 733.034L826.677 733.927L812.379 742.252L820.174 746.761L818.425 747.779L809.086 742.378L825.133 733.034ZM828.967 735.252L830.511 736.145L820.557 741.941L824.518 744.232L822.768 745.25L817.263 742.066L828.967 735.252Z" fill="#0F0F0F" fill-opacity="0.87513"/>
<path d="M818.204 747.563L819.953 746.545L833.252 754.236L831.503 755.255L818.204 747.563ZM822.547 745.034L824.296 744.016L837.595 751.708L835.846 752.726L822.547 745.034Z" fill="#0F0F0F" fill-opacity="0.87513"/>
<path d="M837.792 764.091L835.578 762.81C837.272 761.214 838.56 759.999 839.442 759.165C840.33 758.335 841.394 757.382 842.633 756.307C841.422 756.773 840.321 757.191 839.332 757.562C838.349 757.936 835.71 758.883 831.415 760.403L829.201 759.122L843.23 748.349L845.242 749.513L836.328 756.048C835.388 756.727 834.114 757.605 832.505 758.681C833.842 758.167 834.947 757.742 835.82 757.406C836.7 757.076 839.362 756.119 843.807 754.536L845.671 755.614C844.125 757.081 842.908 758.235 842.019 759.074C841.136 759.917 839.985 760.954 838.563 762.185L843.109 759.97L854.291 754.747L856.303 755.911L837.792 764.091Z" fill="#0F0F0F" fill-opacity="0.87513"/>
<path d="M850.851 771.689L848.637 770.408C850.332 768.813 851.62 767.598 852.501 766.764C853.39 765.934 854.453 764.981 855.692 763.906C854.481 764.372 853.381 764.79 852.391 765.16C851.408 765.535 848.77 766.482 844.475 768.001L842.261 766.721L856.29 755.949L858.302 757.113L849.388 763.647C848.448 764.326 847.173 765.204 845.565 766.28C846.902 765.765 848.007 765.34 848.879 765.005C849.76 764.674 852.422 763.718 856.867 762.135L858.73 763.213C857.184 764.68 855.967 765.833 855.078 766.672C854.195 767.515 853.043 768.552 851.622 769.783L856.168 767.569L867.35 762.346L869.361 763.51L850.851 771.689Z" fill="#0F0F0F" fill-opacity="0.87513"/>
<path d="M857.514 770.356L859.263 769.338L872.556 777.026L870.807 778.044L857.514 770.356ZM861.857 767.828L863.606 766.81L876.9 774.499L875.15 775.517L861.857 767.828Z" fill="#0F0F0F" fill-opacity="0.87513"/>
<path d="M870.572 777.82L872.322 776.802L885.613 784.489L883.864 785.507L870.572 777.82ZM874.916 775.293L876.665 774.275L889.956 781.962L888.207 782.98L874.916 775.293Z" fill="#0F0F0F" fill-opacity="0.87513"/>
<path d="M883.631 785.418L885.381 784.4L898.67 792.086L896.921 793.103L883.631 785.418ZM887.974 782.891L889.724 781.873L903.013 789.559L901.264 790.577L887.974 782.891Z" fill="#0F0F0F" fill-opacity="0.87513"/>
<path d="M906.018 798.347L896.688 792.951L898.437 791.933L906.224 796.437L920.523 788.121L922.065 789.013L906.018 798.347ZM916.692 785.906L918.235 786.798L906.531 793.606L901.031 790.424L902.78 789.407L906.738 791.696L916.692 785.906Z" fill="#0F0F0F" fill-opacity="0.87513"/>
<path d="M929.737 793.548L931.28 794.441L916.981 802.756L924.767 807.259L923.018 808.276L913.689 802.881L929.737 793.548ZM933.566 795.764L935.109 796.656L925.154 802.445L929.111 804.733L927.362 805.751L921.863 802.57L933.566 795.764Z" fill="#0F0F0F" fill-opacity="0.87513"/>
<path d="M922.808 808.077L924.557 807.06L937.841 814.743L936.091 815.76L922.808 808.077ZM927.151 805.551L928.9 804.534L942.184 812.217L940.434 813.234L927.151 805.551Z" fill="#0F0F0F" fill-opacity="0.87513"/>
<path d="M945.328 821.007L936.001 815.613L937.751 814.596L945.535 819.098L959.833 810.785L961.375 811.677L945.328 821.007ZM956.004 808.57L957.546 809.462L945.843 816.267L940.345 813.087L942.094 812.07L946.05 814.358L956.004 808.57Z" fill="#0F0F0F" fill-opacity="0.87513"/>
<path d="M995.165 831.27L996.706 832.161L982.408 840.471L990.188 844.971L988.439 845.987L979.117 840.596L995.165 831.27ZM998.991 833.483L1000.53 834.375L990.578 840.16L994.532 842.447L992.783 843.463L987.287 840.285L998.991 833.483Z" fill="#0F0F0F" fill-opacity="0.87513"/>
<path d="M988.235 845.932L989.985 844.915L1003.26 852.593L1001.51 853.609L988.235 845.932ZM992.578 843.408L994.328 842.391L1007.6 850.069L1005.85 851.085L992.578 843.408Z" fill="#0F0F0F" fill-opacity="0.87513"/>
<path d="M1010.62 858.861L1001.3 853.471L1003.05 852.455L1010.83 856.954L1025.13 848.647L1026.67 849.538L1010.62 858.861ZM1021.3 846.434L1022.84 847.325L1011.14 854.125L1005.65 850.947L1007.39 849.931L1011.35 852.218L1021.3 846.434Z" fill="#0F0F0F" fill-opacity="0.87513"/>
<path d="M1034.34 853.929L1035.88 854.82L1021.58 863.126L1029.36 867.624L1027.61 868.64L1018.29 863.251L1034.34 853.929ZM1038.17 856.142L1039.71 857.033L1029.75 862.815L1033.7 865.101L1031.96 866.117L1026.46 862.941L1038.17 856.142Z" fill="#0F0F0F" fill-opacity="0.87513"/>
<path d="M1027.41 868.591L1029.16 867.575L1042.43 875.249L1040.68 876.265L1027.41 868.591ZM1031.76 866.069L1033.5 865.052L1046.77 872.727L1045.02 873.743L1031.76 866.069Z" fill="#0F0F0F" fill-opacity="0.87513"/>
<path d="M1040.47 876.056L1042.22 875.04L1055.49 882.712L1053.74 883.728L1040.47 876.056ZM1044.81 873.533L1046.56 872.517L1059.83 880.19L1058.08 881.206L1044.81 873.533Z" fill="#0F0F0F" fill-opacity="0.87513"/>
<path d="M1053.53 883.653L1055.28 882.637L1068.54 890.309L1066.79 891.325L1053.53 883.653ZM1057.87 881.131L1059.62 880.115L1072.89 887.787L1071.14 888.803L1057.87 881.131Z" fill="#0F0F0F" fill-opacity="0.87513"/>
<path d="M1066.59 891.251L1068.34 890.235L1081.6 897.906L1079.85 898.921L1066.59 891.251ZM1070.93 888.729L1072.68 887.713L1085.94 895.384L1084.19 896.4L1070.93 888.729Z" fill="#0F0F0F" fill-opacity="0.87513"/>
<path d="M1079.65 898.715L1081.4 897.7L1094.66 905.369L1092.91 906.385L1079.65 898.715ZM1083.99 896.194L1085.74 895.178L1099 902.848L1097.25 903.864L1083.99 896.194Z" fill="#0F0F0F" fill-opacity="0.87513"/>
<path d="M1092.71 906.313L1094.46 905.297L1107.71 912.966L1105.97 913.981L1092.71 906.313ZM1097.05 903.792L1098.8 902.776L1112.06 910.445L1110.31 911.46L1097.05 903.792Z" fill="#0F0F0F" fill-opacity="0.87513"/>
<path d="M1114.96 919.242L1105.65 913.859L1107.4 912.843L1115.17 917.337L1129.47 909.04L1131.01 909.93L1114.96 919.242ZM1125.65 906.83L1127.19 907.72L1115.48 914.512L1109.99 911.338L1111.74 910.323L1115.69 912.607L1125.65 906.83Z" fill="#0F0F0F" fill-opacity="0.87513"/>
<path d="M1177.86 936.97L1179.39 937.86L1165.1 946.152L1172.86 950.643L1171.11 951.658L1161.81 946.277L1177.86 936.97ZM1181.67 939.179L1183.21 940.069L1173.26 945.842L1177.2 948.124L1175.45 949.139L1169.97 945.967L1181.67 939.179Z" fill="#0F0F0F" fill-opacity="0.87513"/>
<path d="M1177.32 960.429L1175.12 959.153C1176.81 957.564 1178.1 956.353 1178.98 955.522C1179.87 954.695 1180.94 953.746 1182.18 952.675C1180.97 953.139 1179.87 953.555 1178.88 953.924C1177.9 954.297 1175.26 955.241 1170.97 956.755L1168.76 955.479L1182.8 944.746L1184.8 945.905L1175.89 952.417C1174.95 953.093 1173.67 953.968 1172.06 955.04C1173.4 954.527 1174.5 954.104 1175.37 953.77C1176.25 953.44 1178.91 952.487 1183.36 950.91L1185.21 951.984C1183.67 953.446 1182.45 954.595 1181.56 955.431C1180.67 956.271 1179.52 957.304 1178.1 958.53L1182.64 956.324L1193.82 951.12L1195.82 952.28L1177.32 960.429Z" fill="#0F0F0F" fill-opacity="0.87513"/>
<path d="M1193.18 964.428L1183.88 959.049L1185.63 958.035L1193.39 962.524L1207.69 954.234L1209.23 955.124L1193.18 964.428ZM1203.87 952.026L1205.41 952.915L1193.71 959.702L1188.22 956.53L1189.97 955.516L1193.92 957.798L1203.87 952.026Z" fill="#0F0F0F" fill-opacity="0.87513"/>
<path d="M795.817 782.485L818.841 769.084L820.608 770.106L797.585 783.507L795.817 782.485Z" fill="#0F0F0F" fill-opacity="0.87513"/>
<path d="M808.876 790.083L831.9 776.683L833.667 777.705L810.643 791.105L808.876 790.083Z" fill="#0F0F0F" fill-opacity="0.87513"/>
<path d="M910.282 845.799L911.44 845.126L924.603 852.735L923.445 853.408L910.282 845.799Z" fill="#0F0F0F" fill-opacity="0.87513"/>
<path d="M923.341 853.396L924.498 852.723L937.659 860.332L936.502 861.005L923.341 853.396Z" fill="#0F0F0F" fill-opacity="0.87513"/>
<path d="M936.399 860.861L937.557 860.188L950.716 867.795L949.559 868.468L936.399 860.861Z" fill="#0F0F0F" fill-opacity="0.87513"/>
<path d="M949.458 868.458L950.616 867.785L963.773 875.392L962.616 876.064L949.458 868.458Z" fill="#0F0F0F" fill-opacity="0.87513"/>
<path d="M966.249 875.389L993.112 869.895L995.004 870.988L968.183 876.508L966.249 875.389Z" fill="#0F0F0F" fill-opacity="0.87513"/>
<path d="M979.308 882.854L1006.17 877.36L1008.06 878.453L981.241 883.972L979.308 882.854Z" fill="#0F0F0F" fill-opacity="0.87513"/>
<path d="M992.366 890.451L1019.23 884.958L1021.12 886.052L994.3 891.569L992.366 890.451Z" fill="#0F0F0F" fill-opacity="0.87513"/>
<path d="M1001.69 898.715L1002.85 898.043L1016 905.645L1014.84 906.317L1001.69 898.715Z" fill="#0F0F0F" fill-opacity="0.87513"/>
<path d="M1014.75 906.179L1015.91 905.507L1029.06 913.108L1027.9 913.78L1014.75 906.179Z" fill="#0F0F0F" fill-opacity="0.87513"/>
<path d="M1135.35 978.823L1158.37 965.472L1160.13 966.49L1137.11 979.842L1135.35 978.823Z" fill="#0F0F0F" fill-opacity="0.87513"/>
<path d="M1148.41 986.288L1171.43 972.938L1173.19 973.956L1150.17 987.305L1148.41 986.288Z" fill="#0F0F0F" fill-opacity="0.87513"/>
<path d="M751.177 793.415L774.193 780.017L775.96 781.038L752.945 794.437L751.177 793.415Z" fill="#0F0F0F" fill-opacity="0.87513"/>
<path d="M777.295 808.477L800.31 795.083L802.078 796.104L779.062 809.498L777.295 808.477Z" fill="#0F0F0F" fill-opacity="0.87513"/>
<path d="M869.24 855.929L896.104 850.432L897.996 851.526L871.175 857.047L869.24 855.929Z" fill="#0F0F0F" fill-opacity="0.87513"/>
<path d="M891.759 871.79L892.917 871.118L906.078 878.724L904.92 879.396L891.759 871.79Z" fill="#0F0F0F" fill-opacity="0.87513"/>
<path d="M904.818 879.255L905.976 878.582L919.135 886.187L917.977 886.859L904.818 879.255Z" fill="#0F0F0F" fill-opacity="0.87513"/>
<path d="M917.877 886.852L919.035 886.18L932.192 893.783L931.035 894.456L917.877 886.852Z" fill="#0F0F0F" fill-opacity="0.87513"/>
<path d="M930.936 894.45L932.093 893.778L945.249 901.38L944.091 902.052L930.936 894.45Z" fill="#0F0F0F" fill-opacity="0.87513"/>
<path d="M943.995 901.914L945.152 901.242L958.306 908.843L957.148 909.516L943.995 901.914Z" fill="#0F0F0F" fill-opacity="0.87513"/>
<path d="M957.054 909.512L958.211 908.84L971.363 916.44L970.205 917.112L957.054 909.512Z" fill="#0F0F0F" fill-opacity="0.87513"/>
<path d="M970.113 916.976L971.27 916.304L984.42 923.903L983.262 924.576L970.113 916.976Z" fill="#0F0F0F" fill-opacity="0.87513"/>
<path d="M1008.62 936.437L1018.08 920.895L1019.97 921.988L1010.56 937.553L1008.62 936.437Z" fill="#0F0F0F" fill-opacity="0.87513"/>
<path d="M1103.77 997.084L1126.78 983.738L1128.54 984.756L1105.53 998.102L1103.77 997.084Z" fill="#0F0F0F" fill-opacity="0.87513"/>
<path d="M1129.88 1012.15L1152.9 998.804L1154.66 999.821L1131.64 1013.16L1129.88 1012.15Z" fill="#0F0F0F" fill-opacity="0.87513"/>
<path d="M719.596 811.676L742.604 798.282L744.371 799.303L721.364 812.696L719.596 811.676Z" fill="#0F0F0F" fill-opacity="0.87513"/>
<path d="M745.714 826.871L768.721 813.481L770.488 814.502L747.481 827.892L745.714 826.871Z" fill="#0F0F0F" fill-opacity="0.87513"/>
<path d="M824.6 866.725L851.459 861.23L853.352 862.323L826.536 867.844L824.6 866.725Z" fill="#0F0F0F" fill-opacity="0.87513"/>
<path d="M850.718 881.921L877.573 876.427L879.466 877.52L852.653 883.039L850.718 881.921Z" fill="#0F0F0F" fill-opacity="0.87513"/>
<path d="M860.179 890.051L861.336 889.379L874.497 896.982L873.34 897.654L860.179 890.051Z" fill="#0F0F0F" fill-opacity="0.87513"/>
<path d="M938.532 935.371L939.689 934.699L952.838 942.295L951.681 942.967L938.532 935.371Z" fill="#0F0F0F" fill-opacity="0.87513"/>
<path d="M963.983 947.233L973.433 931.694L975.323 932.787L965.916 948.35L963.983 947.233Z" fill="#0F0F0F" fill-opacity="0.87513"/>
<path d="M989.968 962.295L999.42 946.761L1001.31 947.854L991.9 963.411L989.968 962.295Z" fill="#0F0F0F" fill-opacity="0.87513"/>
<path d="M1072.19 1015.48L1095.19 1002.14L1096.95 1003.15L1073.95 1016.5L1072.19 1015.48Z" fill="#0F0F0F" fill-opacity="0.87513"/>
<path d="M1098.3 1030.54L1121.31 1017.2L1123.07 1018.22L1100.06 1031.56L1098.3 1030.54Z" fill="#0F0F0F" fill-opacity="0.87513"/>
<path d="M688.015 830.07L711.015 816.681L712.782 817.702L689.783 831.091L688.015 830.07Z" fill="#0F0F0F" fill-opacity="0.87513"/>
<path d="M714.133 845.265L737.132 831.88L738.9 832.901L715.9 846.286L714.133 845.265Z" fill="#0F0F0F" fill-opacity="0.87513"/>
<path d="M792.619 890.584L815.619 877.21L817.384 878.23L794.385 891.604L792.619 890.584Z" fill="#0F0F0F" fill-opacity="0.87513"/>
<path d="M815.539 900.848L816.695 900.176L829.858 907.777L828.702 908.45L815.539 900.848Z" fill="#0F0F0F" fill-opacity="0.87513"/>
<path d="M840.457 905.78L842.385 904.659L848.338 908.098L846.41 909.218L840.457 905.78Z" fill="#0F0F0F" fill-opacity="0.87513"/>
<path d="M860.179 916.176C857.93 917.483 855.624 918.483 853.261 919.174C850.913 919.866 848.111 920.369 844.855 920.685L842.814 919.506C846.139 919.184 848.99 918.676 851.368 917.984C853.754 917.287 856.028 916.31 858.188 915.055C860.341 913.804 862.011 912.488 863.199 911.108C864.395 909.723 865.266 908.067 865.813 906.14L867.854 907.319C867.308 909.237 866.447 910.871 865.27 912.22C864.093 913.569 862.396 914.888 860.179 916.176V916.176Z" fill="#0F0F0F" fill-opacity="0.87513"/>
<path d="M888.695 932.571C886.502 933.845 884.377 934.563 882.32 934.724C880.278 934.884 878.418 934.48 876.739 933.51C875.096 932.561 874.421 931.492 874.715 930.303C875.016 929.119 876.251 927.897 878.419 926.637C880.66 925.335 882.789 924.615 884.807 924.477C886.839 924.338 888.677 924.744 890.32 925.693C892.049 926.692 892.776 927.759 892.503 928.894C892.229 930.03 890.96 931.255 888.695 932.571V932.571ZM886.687 931.411C888.414 930.408 889.459 929.518 889.821 928.741C890.191 927.968 889.834 927.269 888.75 926.643C887.652 926.008 886.414 925.796 885.036 926.005C883.659 926.215 882.123 926.812 880.428 927.797C878.741 928.777 877.711 929.671 877.338 930.479C876.972 931.282 877.299 931.978 878.32 932.567C879.446 933.218 880.691 933.438 882.053 933.229C883.415 933.021 884.96 932.415 886.687 931.411V931.411Z" fill="#0F0F0F" fill-opacity="0.87513"/>
<path d="M908.55 944.168C906.341 945.45 904.646 946.784 903.465 948.167C902.284 949.55 901.426 951.185 900.891 953.071L898.872 951.905C899.408 950.019 900.265 948.389 901.445 947.014C902.641 945.639 904.354 944.303 906.587 943.006C908.78 941.733 911.046 940.753 913.386 940.066C915.734 939.375 918.563 938.869 921.871 938.547L923.89 939.713C920.634 940.028 917.81 940.533 915.417 941.225C913.032 941.913 910.743 942.894 908.55 944.168V944.168Z" fill="#0F0F0F" fill-opacity="0.87513"/>
<path d="M918.81 950.966L920.738 949.846L926.686 953.282L924.758 954.401L918.81 950.966Z" fill="#0F0F0F" fill-opacity="0.87513"/>
<path d="M920.01 961.229L921.166 960.557L934.314 968.15L933.157 968.822L920.01 961.229Z" fill="#0F0F0F" fill-opacity="0.87513"/>
<path d="M949.325 981.089L972.325 967.739L974.087 968.757L951.087 982.107L949.325 981.089Z" fill="#0F0F0F" fill-opacity="0.87513"/>
<path d="M1040.6 1033.74L1063.6 1020.4L1065.36 1021.42L1042.36 1034.76L1040.6 1033.74Z" fill="#0F0F0F" fill-opacity="0.87513"/>
<path d="M1066.72 1048.8L1089.72 1035.47L1091.48 1036.48L1068.48 1049.82L1066.72 1048.8Z" fill="#0F0F0F" fill-opacity="0.87513"/>
<path d="M656.434 848.464L679.426 835.079L681.193 836.1L658.202 849.485L656.434 848.464Z" fill="#0F0F0F" fill-opacity="0.87513"/>
<path d="M704.805 870.724L714.224 855.162L716.118 856.256L706.742 871.842L704.805 870.724Z" fill="#0F0F0F" fill-opacity="0.87513"/>
<path d="M705.471 873.923L706.627 873.25L719.802 880.856L718.645 881.529L705.471 873.923Z" fill="#0F0F0F" fill-opacity="0.87513"/>
<path d="M718.53 881.521L719.686 880.848L732.859 888.453L731.703 889.125L718.53 881.521Z" fill="#0F0F0F" fill-opacity="0.87513"/>
<path d="M731.589 889.119L732.745 888.446L745.916 896.049L744.759 896.722L731.589 889.119Z" fill="#0F0F0F" fill-opacity="0.87513"/>
<path d="M744.781 896.583L745.937 895.91L759.106 903.512L757.95 904.185L744.781 896.583Z" fill="#0F0F0F" fill-opacity="0.87513"/>
<path d="M761.038 908.845L784.03 895.476L785.795 896.496L762.803 909.865L761.038 908.845Z" fill="#0F0F0F" fill-opacity="0.87513"/>
<path d="M796.351 923.641L805.778 908.095L807.67 909.188L798.285 924.758L796.351 923.641Z" fill="#0F0F0F" fill-opacity="0.87513"/>
<path d="M797.017 926.84L798.173 926.168L811.334 933.766L810.178 934.438L797.017 926.84Z" fill="#0F0F0F" fill-opacity="0.87513"/>
<path d="M810.075 934.304L811.231 933.632L824.391 941.229L823.234 941.901L810.075 934.304Z" fill="#0F0F0F" fill-opacity="0.87513"/>
<path d="M823.134 941.902L824.29 941.23L837.448 948.826L836.292 949.497L823.134 941.902Z" fill="#0F0F0F" fill-opacity="0.87513"/>
<path d="M854.182 950.566L860.357 942.928L847.222 946.547L845.606 945.615L860.547 941.587L862.704 942.832L855.818 951.51L854.182 950.566Z" fill="#0F0F0F" fill-opacity="0.87513"/>
<path d="M849.252 956.964L850.408 956.292L863.562 963.885L862.406 964.557L849.252 956.964Z" fill="#0F0F0F" fill-opacity="0.87513"/>
<path d="M862.311 964.561L863.467 963.89L876.619 971.482L875.463 972.153L862.311 964.561Z" fill="#0F0F0F" fill-opacity="0.87513"/>
<path d="M875.37 972.026L876.526 971.354L889.675 978.945L888.519 979.617L875.37 972.026Z" fill="#0F0F0F" fill-opacity="0.87513"/>
<path d="M892.159 978.957L918.992 973.473L920.883 974.564L894.092 980.073L892.159 978.957Z" fill="#0F0F0F" fill-opacity="0.87513"/>
<path d="M917.744 999.35L940.736 986.004L942.498 987.021L919.507 1000.37L917.744 999.35Z" fill="#0F0F0F" fill-opacity="0.87513"/>
<path d="M927.605 1002.15L928.761 1001.48L941.903 1009.07L940.747 1009.74L927.605 1002.15Z" fill="#0F0F0F" fill-opacity="0.87513"/>
<path d="M940.664 1009.75L941.819 1009.08L954.96 1016.66L953.803 1017.33L940.664 1009.75Z" fill="#0F0F0F" fill-opacity="0.87513"/>
<path d="M953.723 1017.21L954.879 1016.54L968.017 1024.13L966.861 1024.8L953.723 1017.21Z" fill="#0F0F0F" fill-opacity="0.87513"/>
<path d="M966.648 1024.81L967.804 1024.14L980.941 1031.72L979.785 1032.39L966.648 1024.81Z" fill="#0F0F0F" fill-opacity="0.87513"/>
<path d="M979.707 1032.27L980.863 1031.6L993.998 1039.19L992.842 1039.86L979.707 1032.27Z" fill="#0F0F0F" fill-opacity="0.87513"/>
<path d="M996.497 1039.2L1023.32 1033.73L1025.21 1034.82L998.427 1040.32L996.497 1039.2Z" fill="#0F0F0F" fill-opacity="0.87513"/>
<path d="M1035.14 1067.06L1058.13 1053.73L1059.89 1054.75L1036.9 1068.08L1035.14 1067.06Z" fill="#0F0F0F" fill-opacity="0.87513"/>
<path d="M647.106 874.056L656.516 858.496L658.411 859.59L649.044 875.174L647.106 874.056Z" fill="#0F0F0F" fill-opacity="0.87513"/>
<path d="M991.034 1072.53L1017.85 1067.05L1019.74 1068.14L992.964 1073.64L991.034 1072.53Z" fill="#0F0F0F" fill-opacity="0.87513"/>
</svg>
