<svg width="2584" height="2073" viewBox="0 0 2584 2073" fill="none" xmlns="http://www.w3.org/2000/svg">
<path d="M1988.94 1640.55V379.108L1247.8 808.119V2072.04L1988.94 1640.55" fill="#B5B5B5"/>
<path d="M595.053 1693.6V432.157L1247.85 808.119V2072.04L595.053 1693.6" fill="#EFEFEF"/>
<path d="M650.567 1618.52V571.62L1192.34 883.629V1932.58L650.567 1618.52" fill="#2D2D2D"/>
<path d="M1988.94 379.054L1336.14 -0.000212642L595 432.104L1247.8 808.066L1988.94 379.054Z" fill="#D6D6D6"/>
<path d="M650.567 1618.52L723.045 1573.61L1192.34 1842.63V1932.58L650.568 1618.52" fill="#1E1E1E"/>
<path d="M723.043 1573.61V613.354L650.565 571.62V1618.52L723.043 1573.61" fill="#0F0F0F"/>
<path d="M1142.79 1037.94L1153.75 1033.37V933.92L1142.79 938.491V1037.94Z" fill="#0C0C0C"/>
<path d="M772.387 814.917V716.201L1153.76 933.879V1033.33L772.387 814.917Z" fill="#1C1C1C"/>
<path d="M761.42 819.582V720.867L1142.79 938.545V1037.99L761.42 819.582Z" fill="#3F3F3F"/>
<path d="M1066.8 926.349V909.341L1132.51 946.835V963.977L1066.8 926.349Z" fill="#8C8C8C"/>
<path d="M1066.8 953.673V936.665L1132.51 974.173V991.315L1066.8 953.673Z" fill="#8C8C8C"/>
<path d="M1066.8 981.131V964.123L1132.51 1001.63V1018.76L1066.8 981.131Z" fill="#8C8C8C"/>
<path d="M982.528 904.355V887.334L1048.24 924.842V941.983L982.528 904.355Z" fill="#8C8C8C"/>
<path d="M982.528 931.814V914.806L1048.24 952.314V969.442L982.528 931.814Z" fill="#8C8C8C"/>
<path d="M897.352 827.046V810.038L963.062 847.546V864.674L897.352 827.046Z" fill="#8C8C8C"/>
<path d="M897.352 854.505V837.497L963.062 874.991V892.133L897.352 854.505Z" fill="#8C8C8C"/>
<path d="M897.352 881.962V864.955L963.062 902.463V919.604L897.352 881.962Z" fill="#8C8C8C"/>
<path d="M813.083 805.187V788.179L878.793 825.673V842.815L813.083 805.187Z" fill="#8C8C8C"/>
<path d="M813.083 832.511V815.503L878.793 853.012V870.153L813.083 832.511Z" fill="#8C8C8C"/>
<path d="M1142.79 938.478L1153.75 933.906L772.382 716.228L761.419 720.8L1142.79 938.478" fill="#191919"/>
<path d="M772.387 954.34V855.624L1153.76 1073.3V1172.75L772.387 954.34Z" fill="#1C1C1C"/>
<path d="M761.42 958.872V860.156L1142.79 1077.82V1177.28L761.42 958.872Z" fill="#3F3F3F"/>
<path d="M1066.8 1065.65V1048.64L1132.51 1086.14V1103.28L1066.8 1065.65Z" fill="#8C8C8C"/>
<path d="M1066.8 1093.06V1076.05L1132.51 1113.56V1130.7L1066.8 1093.06Z" fill="#8C8C8C"/>
<path d="M1066.8 1120.47V1103.47L1132.51 1140.97V1158.1L1066.8 1120.47Z" fill="#8C8C8C"/>
<path d="M982.528 1043.71V1026.7L1048.24 1064.21V1081.35L982.528 1043.71Z" fill="#8C8C8C"/>
<path d="M982.528 1071.13V1054.12L1048.24 1091.63V1108.76L982.528 1071.13Z" fill="#8C8C8C"/>
<path d="M897.352 966.469V949.461L963.062 986.969V1004.1L897.352 966.469Z" fill="#8C8C8C"/>
<path d="M897.352 993.794V976.786L963.062 1014.28V1031.42L897.352 993.794Z" fill="#8C8C8C"/>
<path d="M897.352 1021.25V1004.24L963.062 1041.75V1058.88L897.352 1021.25Z" fill="#8C8C8C"/>
<path d="M813.083 944.476V927.468L878.793 964.963V982.104L813.083 944.476Z" fill="#8C8C8C"/>
<path d="M813.083 971.934V954.926L878.793 992.434V1009.56L813.083 971.934Z" fill="#8C8C8C"/>
<path d="M1142.79 1077.83L1153.75 1073.28L772.382 855.597L761.419 860.169L1142.79 1077.83" fill="#191919"/>
<path d="M772.387 1093.67V994.954L1153.76 1212.63V1312.08L772.387 1093.67Z" fill="#1C1C1C"/>
<path d="M761.42 1098.24V999.526L1142.79 1217.19V1316.65L761.42 1098.24Z" fill="#3F3F3F"/>
<path d="M1066.8 1205.01V1188L1132.51 1225.49V1242.64L1066.8 1205.01Z" fill="#8C8C8C"/>
<path d="M1066.8 1232.41V1215.4L1132.51 1252.91V1270.04L1066.8 1232.41Z" fill="#8C8C8C"/>
<path d="M1066.8 1259.83V1242.82L1132.51 1280.33V1297.46L1066.8 1259.83Z" fill="#8C8C8C"/>
<path d="M982.528 1183.07V1166.06L1048.24 1203.57V1220.71L982.528 1183.07Z" fill="#8C8C8C"/>
<path d="M982.528 1210.49V1193.48L1048.24 1230.99V1248.11L982.528 1210.49Z" fill="#8C8C8C"/>
<path d="M897.352 1105.79V1088.78L963.062 1126.29V1143.41L897.352 1105.79Z" fill="#8C8C8C"/>
<path d="M897.352 1133.2V1116.2L963.062 1153.69V1170.83L897.352 1133.2Z" fill="#8C8C8C"/>
<path d="M897.352 1160.61V1143.6L963.062 1181.11V1198.25L897.352 1160.61Z" fill="#8C8C8C"/>
<path d="M813.083 1083.86V1066.85L878.793 1104.35V1121.49L813.083 1083.86Z" fill="#8C8C8C"/>
<path d="M813.083 1111.26V1094.26L878.793 1131.76V1148.89L813.083 1111.26Z" fill="#8C8C8C"/>
<path d="M1142.79 1217.19L1153.75 1212.63L772.382 994.954L761.419 999.526L1142.79 1217.19" fill="#191919"/>
<path d="M772.387 1233.03V1134.31L1153.76 1351.99V1451.44L772.387 1233.03Z" fill="#1C1C1C"/>
<path d="M761.42 1237.6V1138.88L1142.79 1356.55V1456.01L761.42 1237.6Z" fill="#3F3F3F"/>
<path d="M1066.8 1344.36V1327.36L1132.51 1364.85V1381.99L1066.8 1344.36Z" fill="#8C8C8C"/>
<path d="M1066.8 1371.77V1354.76L1132.51 1392.27V1409.41L1066.8 1371.77Z" fill="#8C8C8C"/>
<path d="M1066.8 1399.19V1382.18L1132.51 1419.69V1436.81L1066.8 1399.19" fill="#8C8C8C"/>
<path d="M982.528 1322.42V1305.42L1048.24 1342.92V1360.07L982.528 1322.42Z" fill="#8C8C8C"/>
<path d="M982.528 1349.84V1332.83L1048.24 1370.34V1387.47L982.528 1349.84" fill="#8C8C8C"/>
<path d="M897.352 1245.14V1228.13L963.062 1265.64V1282.77L897.352 1245.14Z" fill="#8C8C8C"/>
<path d="M897.352 1272.56V1255.54L963.062 1293.05V1310.19L897.352 1272.56Z" fill="#8C8C8C"/>
<path d="M897.352 1299.96V1282.96L963.062 1320.46V1337.59L897.352 1299.96" fill="#8C8C8C"/>
<path d="M813.083 1223.2V1206.21L878.793 1243.7V1260.84L813.083 1223.2Z" fill="#8C8C8C"/>
<path d="M813.083 1250.62V1233.61L878.793 1271.12V1288.25L813.083 1250.62Z" fill="#8C8C8C"/>
<path d="M1142.79 1356.55L1153.75 1351.99L772.382 1134.31L761.419 1138.88L1142.79 1356.55" fill="#191919"/>
<path d="M772.387 1372.38V1273.67L1153.76 1491.33V1590.79L772.387 1372.38" fill="#1C1C1C"/>
<path d="M761.42 1376.94V1278.24L1142.79 1495.9V1595.36L761.42 1376.94Z" fill="#3F3F3F"/>
<path d="M1066.8 1483.72V1466.71L1132.51 1504.21V1521.35L1066.8 1483.72Z" fill="#8C8C8C"/>
<path d="M1066.8 1511.12V1494.12L1132.51 1531.62V1548.75L1066.8 1511.12" fill="#8C8C8C"/>
<path d="M1066.8 1538.54V1521.53L1132.51 1559.04V1576.17L1066.8 1538.54" fill="#8C8C8C"/>
<path d="M982.528 1461.78V1444.77L1048.24 1482.28V1499.41L982.528 1461.78" fill="#8C8C8C"/>
<path d="M982.528 1489.2V1472.19L1048.24 1509.7V1526.83L982.528 1489.2" fill="#8C8C8C"/>
<path d="M897.352 1384.5V1367.49L963.062 1404.98V1422.13L897.352 1384.5Z" fill="#8C8C8C"/>
<path d="M897.352 1411.9V1394.89L963.062 1432.4V1449.54L897.352 1411.9Z" fill="#8C8C8C"/>
<path d="M897.352 1439.32V1422.31L963.062 1459.82V1476.95L897.352 1439.32" fill="#8C8C8C"/>
<path d="M813.083 1362.56V1345.55L878.793 1383.06V1400.2L813.083 1362.56Z" fill="#8C8C8C"/>
<path d="M813.083 1389.98V1372.97L878.793 1410.48V1427.6L813.083 1389.98" fill="#8C8C8C"/>
<path d="M1142.79 1495.9L1153.75 1491.33L772.382 1273.67L761.419 1278.24L1142.79 1495.9" fill="#191919"/>
<path d="M772.387 1511.74V1413.02L1153.76 1630.69V1730.15L772.387 1511.74" fill="#1C1C1C"/>
<path d="M761.42 1516.3V1417.59L1142.79 1635.26V1734.72L761.42 1516.3Z" fill="#3F3F3F"/>
<path d="M1066.8 1623.06V1606.05L1132.51 1643.56V1660.7L1066.8 1623.06Z" fill="#8C8C8C"/>
<path d="M1066.8 1650.48V1633.47L1132.51 1670.98V1688.11L1066.8 1650.48" fill="#8C8C8C"/>
<path d="M1066.8 1677.9V1660.89L1132.51 1698.4V1715.53L1066.8 1677.9" fill="#8C8C8C"/>
<path d="M982.528 1601.14V1584.13L1048.24 1621.64V1638.76L982.528 1601.14" fill="#8C8C8C"/>
<path d="M982.528 1628.55V1611.55L1048.24 1649.05V1666.18L982.528 1628.55" fill="#8C8C8C"/>
<path d="M897.352 1523.85V1506.85L963.062 1544.34V1561.48L897.352 1523.85Z" fill="#8C8C8C"/>
<path d="M897.352 1551.26V1534.25L963.062 1571.76V1588.9L897.352 1551.26Z" fill="#8C8C8C"/>
<path d="M897.352 1578.68V1561.67L963.062 1599.18V1616.3L897.352 1578.68" fill="#8C8C8C"/>
<path d="M813.083 1501.91V1484.91L878.793 1522.41V1539.56L813.083 1501.91Z" fill="#8C8C8C"/>
<path d="M813.083 1529.33V1512.32L878.793 1549.83V1566.96L813.083 1529.33" fill="#8C8C8C"/>
<path d="M1142.79 1635.26L1153.75 1630.69L772.382 1413.02L761.419 1417.59L1142.79 1635.26" fill="#191919"/>
<path d="M1153.76 933.946L1142.8 938.518V1037.97L1153.76 1033.39V933.946Z" fill="#0F0F0F"/>
<path d="M1929.64 1609.29L1926.98 1495.9L1910.59 1506.98L1913.21 1619.05L1929.64 1609.29" fill="#1E1E1E"/>
<path d="M1904.32 1622.96L1901.66 1509.58L1885.25 1520.65L1887.89 1632.71L1904.32 1622.96" fill="#1E1E1E"/>
<path d="M1877.54 1638.72L1874.87 1525.33L1858.47 1536.41L1861.11 1648.47L1877.54 1638.72" fill="#1E1E1E"/>
<path d="M1852.22 1652.39L1849.56 1539.01L1833.15 1550.09L1835.79 1662.14L1852.22 1652.39" fill="#1E1E1E"/>
<path d="M1825.3 1668.16L1822.64 1554.76L1806.23 1565.84L1808.87 1677.9L1825.3 1668.16" fill="#1E1E1E"/>
<path d="M1799.99 1681.82L1797.32 1568.44L1780.93 1579.52L1783.56 1691.57L1799.99 1681.82Z" fill="#1E1E1E"/>
<path d="M1773.2 1697.57L1770.54 1584.19L1754.13 1595.27L1756.77 1707.33L1773.2 1697.57" fill="#1E1E1E"/>
<path d="M1748.02 1711.25L1745.35 1597.87L1728.95 1608.95L1731.59 1721.01L1748.02 1711.25" fill="#1E1E1E"/>
<path d="M1722.43 1726.59L1719.77 1613.2L1703.36 1624.29L1706 1736.35L1722.43 1726.59" fill="#1E1E1E"/>
<path d="M1697.11 1740.27L1694.45 1626.87L1678.04 1637.95L1680.67 1750.02L1697.11 1740.27" fill="#1E1E1E"/>
<path d="M1670.33 1756.02L1667.66 1642.63L1651.26 1653.72L1653.9 1765.78L1670.33 1756.02" fill="#1E1E1E"/>
<path d="M1645.01 1769.7L1642.35 1656.31L1625.94 1667.38L1628.58 1779.45L1645.01 1769.7" fill="#1E1E1E"/>
<path d="M1618.23 1785.45L1615.56 1672.06L1599.16 1683.15L1601.78 1795.21L1618.23 1785.45Z" fill="#1E1E1E"/>
<path d="M1592.91 1799.13L1590.24 1685.74L1573.84 1696.81L1576.48 1808.87L1592.91 1799.13" fill="#1E1E1E"/>
<path d="M1566.12 1814.88L1563.46 1701.49L1547.06 1712.57L1549.69 1824.64L1566.12 1814.88" fill="#1E1E1E"/>
<path d="M1540.81 1828.54L1538.14 1715.17L1521.75 1726.24L1524.38 1838.3L1540.81 1828.54" fill="#1E1E1E"/>
<path d="M1515.36 1842.74L1512.69 1729.35L1496.29 1740.44L1498.93 1852.5L1515.36 1842.74" fill="#1E1E1E"/>
<path d="M1490.04 1856.4L1487.36 1743.02L1470.97 1754.1L1473.59 1866.16L1490.04 1856.4" fill="#1E1E1E"/>
<path d="M1463.25 1872.17L1460.59 1758.78L1444.2 1769.86L1446.82 1881.93L1463.25 1872.17" fill="#1E1E1E"/>
<path d="M1437.93 1885.83L1435.27 1772.46L1418.87 1783.53L1421.5 1895.59L1437.93 1885.83" fill="#1E1E1E"/>
<path d="M1411.15 1901.6L1408.49 1788.21L1392.08 1799.29L1394.71 1911.36L1411.15 1901.6" fill="#1E1E1E"/>
<path d="M1385.83 1915.26L1383.17 1801.89L1366.76 1812.96L1369.4 1925.02L1385.83 1915.26" fill="#1E1E1E"/>
<path d="M1359.05 1931.03L1356.38 1817.64L1339.98 1828.72L1342.62 1940.79L1359.05 1931.03" fill="#1E1E1E"/>
<path d="M1333.73 1944.69L1331.07 1831.32L1314.68 1842.39L1317.3 1954.45L1333.73 1944.69Z" fill="#1E1E1E"/>
<path d="M1929.64 1189.53L1926.98 1076.14L1910.59 1087.22L1913.21 1199.29L1929.64 1189.53" fill="#1E1E1E"/>
<path d="M1904.32 1203.19L1901.66 1089.82L1885.25 1100.89L1887.89 1212.95L1904.32 1203.19" fill="#1E1E1E"/>
<path d="M1877.54 1218.96L1874.87 1105.57L1858.47 1116.65L1861.11 1228.72L1877.54 1218.96" fill="#1E1E1E"/>
<path d="M1852.22 1232.63L1849.56 1119.25L1833.15 1130.32L1835.79 1242.38L1852.22 1232.63" fill="#1E1E1E"/>
<path d="M1825.3 1248.39L1822.64 1135L1806.23 1146.08L1808.87 1258.15L1825.3 1248.39" fill="#1E1E1E"/>
<path d="M1799.99 1262.06L1797.32 1148.68L1780.93 1159.76L1783.56 1271.81L1799.99 1262.06Z" fill="#1E1E1E"/>
<path d="M1773.2 1277.81L1770.54 1164.43L1754.13 1175.51L1756.77 1287.58L1773.2 1277.81" fill="#1E1E1E"/>
<path d="M1748.02 1291.49L1745.35 1178.11L1728.95 1189.19L1731.59 1301.24L1748.02 1291.49" fill="#1E1E1E"/>
<path d="M1722.43 1306.83L1719.77 1193.45L1703.36 1204.53L1706 1316.59L1722.43 1306.83" fill="#1E1E1E"/>
<path d="M1697.11 1320.5L1694.45 1207.11L1678.04 1218.19L1680.67 1330.26L1697.11 1320.5Z" fill="#1E1E1E"/>
<path d="M1670.33 1336.26L1667.66 1222.88L1651.26 1233.96L1653.9 1346.02L1670.33 1336.26" fill="#1E1E1E"/>
<path d="M1645.01 1349.94L1642.35 1236.54L1625.94 1247.62L1628.58 1359.69L1645.01 1349.94" fill="#1E1E1E"/>
<path d="M1618.23 1365.69L1615.56 1252.31L1599.16 1263.39L1601.78 1375.45L1618.23 1365.69Z" fill="#1E1E1E"/>
<path d="M1592.91 1379.37L1590.24 1265.98L1573.84 1277.05L1576.48 1389.12L1592.91 1379.37" fill="#1E1E1E"/>
<path d="M1566.12 1395.12L1563.46 1281.73L1547.06 1292.82L1549.69 1404.88L1566.12 1395.12" fill="#1E1E1E"/>
<path d="M1540.81 1408.8L1538.14 1295.41L1521.75 1306.48L1524.38 1418.54L1540.81 1408.8Z" fill="#1E1E1E"/>
<path d="M1515.36 1422.98L1512.69 1309.59L1496.29 1320.68L1498.93 1432.74L1515.36 1422.98" fill="#1E1E1E"/>
<path d="M1490.04 1436.64L1487.36 1323.26L1470.97 1334.34L1473.59 1446.4L1490.04 1436.64Z" fill="#1E1E1E"/>
<path d="M1463.25 1452.41L1460.59 1339.02L1444.2 1350.1L1446.82 1462.17L1463.25 1452.41" fill="#1E1E1E"/>
<path d="M1437.93 1466.09L1435.27 1352.69L1418.87 1363.77L1421.5 1475.83L1437.93 1466.09" fill="#1E1E1E"/>
<path d="M1411.15 1481.84L1408.49 1368.45L1392.08 1379.53L1394.71 1491.6L1411.15 1481.84" fill="#1E1E1E"/>
<path d="M1385.83 1495.5L1383.17 1382.13L1366.76 1393.2L1369.4 1505.26L1385.83 1495.5" fill="#1E1E1E"/>
<path d="M1359.05 1511.27L1356.38 1397.88L1339.98 1408.96L1342.62 1521.03L1359.05 1511.27" fill="#1E1E1E"/>
<path d="M1333.73 1524.93L1331.07 1411.56L1314.68 1422.63L1317.3 1534.69L1333.73 1524.93Z" fill="#1E1E1E"/>
<path d="M1929.64 744.272L1926.98 630.881L1910.59 641.958L1913.21 754.016L1929.64 744.272Z" fill="#1E1E1E"/>
<path d="M1904.32 758.001L1901.66 644.624L1885.25 655.7L1887.89 767.758L1904.32 758.001" fill="#1E1E1E"/>
<path d="M1877.54 773.73L1874.87 660.352L1858.47 671.429L1861.11 783.487L1877.54 773.73" fill="#1E1E1E"/>
<path d="M1852.22 787.325L1849.56 673.948L1833.15 685.024L1835.79 797.082L1852.22 787.325" fill="#1E1E1E"/>
<path d="M1825.3 803.187L1822.64 689.81L1806.23 700.886L1808.87 812.944L1825.3 803.187" fill="#1E1E1E"/>
<path d="M1799.99 816.783L1797.32 703.405L1780.93 714.482L1783.56 826.54L1799.99 816.783Z" fill="#1E1E1E"/>
<path d="M1773.2 832.511L1770.54 719.134L1754.13 730.21L1756.77 842.268L1773.2 832.511" fill="#1E1E1E"/>
<path d="M1748.02 846.24L1745.35 732.849L1728.95 743.939L1731.59 855.997L1748.02 846.24" fill="#1E1E1E"/>
<path d="M1722.43 861.569L1719.77 748.178L1703.36 759.268L1706 871.326L1722.43 861.569" fill="#1E1E1E"/>
<path d="M1697.11 875.298L1694.45 761.92L1678.04 772.997L1680.67 885.055L1697.11 875.298Z" fill="#1E1E1E"/>
<path d="M1670.33 891.026L1667.66 777.635L1651.26 788.712L1653.9 900.783L1670.33 891.026" fill="#1E1E1E"/>
<path d="M1645.01 904.622L1642.35 791.244L1625.94 802.321L1628.58 914.379L1645.01 904.622" fill="#1E1E1E"/>
<path d="M1618.23 920.484L1615.56 807.093L1599.16 818.169L1601.78 930.241L1618.23 920.484" fill="#1E1E1E"/>
<path d="M1592.91 934.079L1590.24 820.702L1573.84 831.778L1576.48 943.836L1592.91 934.079" fill="#1E1E1E"/>
<path d="M1566.12 949.941L1563.46 836.55L1547.06 847.626L1549.69 959.698L1566.12 949.941" fill="#1E1E1E"/>
<path d="M1540.81 963.537L1538.14 850.159L1521.75 861.236L1524.38 973.294L1540.81 963.537Z" fill="#1E1E1E"/>
<path d="M1515.36 977.666L1512.69 864.275L1496.29 875.351L1498.93 987.409L1515.36 977.666" fill="#1E1E1E"/>
<path d="M1490.04 991.395L1487.36 878.017L1470.97 889.094L1473.59 1001.15L1490.04 991.395Z" fill="#1E1E1E"/>
<path d="M1463.25 1007.12L1460.59 893.745L1444.2 904.822L1446.82 1016.88L1463.25 1007.12Z" fill="#1E1E1E"/>
<path d="M1437.93 1020.85L1435.27 907.474L1418.87 918.551L1421.5 1030.61L1437.93 1020.85" fill="#1E1E1E"/>
<path d="M1411.15 1036.58L1408.49 923.203L1392.08 934.279L1394.71 1046.34L1411.15 1036.58Z" fill="#1E1E1E"/>
<path d="M1385.83 1050.26L1383.17 936.878L1366.76 947.955L1369.4 1060.01L1385.83 1050.26" fill="#1E1E1E"/>
<path d="M1359.05 1066.01L1356.38 952.634L1339.98 963.71L1342.62 1075.77L1359.05 1066.01" fill="#1E1E1E"/>
<path d="M1333.73 1079.69L1331.07 966.309L1314.68 977.386L1317.3 1089.44L1333.73 1079.69Z" fill="#1E1E1E"/>
<path d="M1248.81 756.269L1307.89 720.893L1296.34 713.669L1238.09 750.311L1248.81 756.269Z" fill="#1E1E1E"/>
<path d="M1230.91 745.872L1289.99 710.496L1278.44 703.272L1220.19 739.914L1230.91 745.872" fill="#1E1E1E"/>
<path d="M1213.39 735.875L1272.47 700.486L1260.92 693.275L1202.67 729.917L1213.39 735.875Z" fill="#1E1E1E"/>
<path d="M1195.49 725.478L1254.58 690.103L1243.02 682.879L1184.77 719.52L1195.49 725.478Z" fill="#1E1E1E"/>
<path d="M1176.86 714.682L1235.94 679.293L1224.39 672.068L1166.15 708.724L1176.86 714.682" fill="#1E1E1E"/>
<path d="M1158.97 704.285L1218.05 668.896L1206.49 661.685L1148.25 698.327L1158.97 704.285Z" fill="#1E1E1E"/>
<path d="M1141.45 694.288L1200.53 658.899L1188.97 651.675L1130.73 688.33L1141.45 694.288" fill="#1E1E1E"/>
<path d="M1123.55 683.891L1182.63 648.502L1171.08 641.278L1112.83 677.933L1123.55 683.891Z" fill="#1E1E1E"/>
<path d="M1104.02 671.895L1163.09 636.506L1151.54 629.282L1093.29 665.924L1104.02 671.895" fill="#1E1E1E"/>
<path d="M1086.12 661.365L1145.2 625.976L1133.65 618.752L1075.4 655.394L1086.12 661.365" fill="#1E1E1E"/>
<path d="M1068.58 651.502L1127.66 616.126L1116.11 608.902L1057.86 645.543L1068.58 651.502" fill="#1E1E1E"/>
<path d="M1050.7 640.972L1109.78 605.583L1098.22 598.359L1039.98 635L1050.7 640.972" fill="#1E1E1E"/>
<path d="M1032.07 630.308L1091.15 594.933L1079.6 587.708L1021.35 624.35L1032.07 630.308Z" fill="#1E1E1E"/>
<path d="M1014.18 619.778L1073.26 584.402L1061.7 577.178L1003.46 613.82L1014.18 619.778" fill="#1E1E1E"/>
<path d="M996.653 609.915L1055.73 574.539L1044.18 567.315L985.934 603.957L996.653 609.915Z" fill="#1E1E1E"/>
<path d="M978.757 599.385L1037.84 564.009L1026.28 556.785L968.037 593.426L978.757 599.385" fill="#1E1E1E"/>
<path d="M960.248 588.455L1019.33 553.066L1007.77 545.842L949.529 582.483L960.248 588.455" fill="#1E1E1E"/>
<path d="M942.352 577.925L1001.43 542.536L989.876 535.312L931.632 571.953L942.352 577.925" fill="#1E1E1E"/>
<path d="M924.829 568.061L983.91 532.686L972.355 525.461L914.11 562.103L924.829 568.061" fill="#1E1E1E"/>
<path d="M906.92 557.531L966 522.142L954.446 514.918L896.202 551.56L906.92 557.531" fill="#1E1E1E"/>
<path d="M888.304 546.868L947.385 511.492L935.828 504.268L877.585 540.91L888.304 546.868Z" fill="#1E1E1E"/>
<path d="M870.408 536.338L929.49 500.949L917.933 493.725L859.689 530.366L870.408 536.338" fill="#1E1E1E"/>
<path d="M852.885 526.474L911.965 491.099L900.409 483.874L842.165 520.516L852.885 526.474" fill="#1E1E1E"/>
<path d="M834.989 515.944L894.07 480.569L882.516 473.344L824.271 509.986L834.989 515.944" fill="#1E1E1E"/>
<path d="M815.455 504.081L874.535 468.692L862.981 461.481L804.736 498.123L815.455 504.081" fill="#1E1E1E"/>
<path d="M797.545 493.551L856.624 458.176L845.069 450.951L786.826 487.593L797.545 493.551" fill="#1E1E1E"/>
<path d="M780.023 483.688L839.102 448.299L827.549 441.074L769.304 477.729L780.023 483.688" fill="#1E1E1E"/>
<path d="M762.127 473.158L821.207 437.769L809.652 430.558L751.409 467.199L762.127 473.158Z" fill="#1E1E1E"/>
<path d="M743.511 462.494L802.593 427.106L791.037 419.881L732.793 456.523L743.511 462.494" fill="#1E1E1E"/>
<path d="M725.615 451.964L784.696 416.576L773.141 409.351L714.896 446.006L725.615 451.964" fill="#1E1E1E"/>
<path d="M708.079 442.101L767.158 406.712L755.602 399.488L697.358 436.129L708.079 442.101" fill="#1E1E1E"/>
<path d="M690.183 431.571L749.262 396.182L737.709 388.958L679.464 425.613L690.183 431.571" fill="#1E1E1E"/>
<path d="M1247.65 198.523L1234.56 190.941L1262.6 174.614L1275.69 182.198L1247.65 198.523Z" fill="#0F0F0F" fill-opacity="0.87513"/>
<path d="M1260.71 206.121L1247.62 198.54L1275.66 182.216L1288.75 189.799L1260.71 206.121Z" fill="#0F0F0F" fill-opacity="0.87513"/>
<path d="M1288.02 200.922L1269.96 211.438L1268.41 210.544L1284.73 201.048L1276.94 196.533L1278.69 195.512L1288.02 200.922ZM1266.13 209.218L1264.58 208.324L1276.55 201.36L1272.59 199.065L1274.34 198.045L1279.84 201.234L1266.13 209.218Z" fill="#0F0F0F" fill-opacity="0.87513"/>
<path d="M1365.31 266.635L1352.24 259.063L1380.28 242.758L1393.35 250.332L1365.31 266.635Z" fill="#0F0F0F" fill-opacity="0.87513"/>
<path d="M1378.37 274.232L1365.3 266.662L1393.34 250.359L1406.41 257.932L1378.37 274.232Z" fill="#0F0F0F" fill-opacity="0.87513"/>
<path d="M1391.43 281.83L1378.36 274.26L1406.4 257.959L1419.47 265.531L1391.43 281.83Z" fill="#0F0F0F" fill-opacity="0.87513"/>
<path d="M1404.49 289.428L1391.42 281.859L1419.46 265.56L1432.53 273.131L1404.49 289.428Z" fill="#0F0F0F" fill-opacity="0.87513"/>
<path d="M1417.55 297.025L1404.48 289.458L1432.52 273.162L1445.59 280.731L1417.55 297.025Z" fill="#0F0F0F" fill-opacity="0.87513"/>
<path d="M1444.87 291.827L1426.8 302.325L1425.26 301.432L1441.57 291.952L1433.79 287.445L1435.54 286.427L1444.87 291.827ZM1422.97 300.109L1421.43 299.216L1433.39 292.264L1429.44 289.973L1431.19 288.955L1436.69 292.138L1422.97 300.109Z" fill="#0F0F0F" fill-opacity="0.87513"/>
<path d="M1456.72 319.685L1443.67 312.121L1471.71 295.831L1484.76 303.398L1456.72 319.685Z" fill="#0F0F0F" fill-opacity="0.87513"/>
<path d="M1469.78 327.283L1456.73 319.719L1484.77 303.433L1497.82 310.998L1469.78 327.283Z" fill="#0F0F0F" fill-opacity="0.87513"/>
<path d="M1482.84 334.747L1469.79 327.185L1497.83 310.9L1510.88 318.465L1482.84 334.747Z" fill="#0F0F0F" fill-opacity="0.87513"/>
<path d="M1495.9 342.344L1482.85 334.784L1510.89 318.501L1523.94 326.064L1495.9 342.344Z" fill="#0F0F0F" fill-opacity="0.87513"/>
<path d="M1508.96 349.942L1495.91 342.382L1523.95 326.102L1537 333.664L1508.96 349.942Z" fill="#0F0F0F" fill-opacity="0.87513"/>
<path d="M1522.02 357.406L1508.97 349.847L1537.01 333.57L1550.06 341.131L1522.02 357.406Z" fill="#0F0F0F" fill-opacity="0.87513"/>
<path d="M1535.08 365.004L1522.03 357.446L1550.07 341.171L1563.12 348.731L1535.08 365.004Z" fill="#0F0F0F" fill-opacity="0.87513"/>
<path d="M1562.39 359.805L1544.33 370.29L1542.79 369.398L1559.1 359.931L1551.33 355.429L1553.09 354.412L1562.39 359.805ZM1540.51 368.076L1538.97 367.185L1550.93 360.242L1546.98 357.954L1548.73 356.937L1554.22 360.117L1540.51 368.076Z" fill="#0F0F0F" fill-opacity="0.87513"/>
<path d="M1561.19 380.199L1548.15 372.644L1576.19 356.373L1589.23 363.931L1561.19 380.199Z" fill="#0F0F0F" fill-opacity="0.87513"/>
<path d="M1574.25 387.663L1561.21 380.109L1589.25 363.841L1602.29 371.397L1574.25 387.663Z" fill="#0F0F0F" fill-opacity="0.87513"/>
<path d="M1601.44 382.598L1583.37 393.079L1581.83 392.187L1598.15 382.724L1590.38 378.224L1592.13 377.207L1601.44 382.598ZM1579.55 390.866L1578.01 389.975L1589.98 383.035L1586.03 380.748L1587.78 379.731L1593.27 382.909L1579.55 390.866Z" fill="#0F0F0F" fill-opacity="0.87513"/>
<path d="M1639.41 425.385L1626.38 417.836L1654.42 401.58L1667.45 409.131L1639.41 425.385Z" fill="#0F0F0F" fill-opacity="0.87513"/>
<path d="M1652.34 432.982L1639.31 425.435L1667.35 409.181L1680.38 416.731L1652.34 432.982Z" fill="#0F0F0F" fill-opacity="0.87513"/>
<path d="M1679.66 427.784L1661.59 438.255L1660.05 437.365L1676.37 427.909L1668.61 423.413L1670.36 422.398L1679.66 427.784ZM1657.77 436.044L1656.24 435.154L1668.2 428.22L1664.26 425.935L1666.01 424.919L1671.49 428.095L1657.77 436.044Z" fill="#0F0F0F" fill-opacity="0.87513"/>
<path d="M1215.93 216.917L1202.85 209.338L1230.88 193.017L1243.96 200.598L1215.93 216.917Z" fill="#0F0F0F" fill-opacity="0.87513"/>
<path d="M1228.99 224.515L1215.91 216.937L1243.94 200.618L1257.02 208.198L1228.99 224.515Z" fill="#0F0F0F" fill-opacity="0.87513"/>
<path d="M1260.98 210.386L1262.52 211.28L1234.49 227.595L1232.95 226.701L1260.98 210.386ZM1264.81 212.606L1266.35 213.5L1238.32 229.815L1236.78 228.921L1264.81 212.606Z" fill="#0F0F0F" fill-opacity="0.87513"/>
<path d="M1320.54 277.565L1307.47 269.994L1335.49 253.692L1348.57 261.264L1320.54 277.565Z" fill="#0F0F0F" fill-opacity="0.87513"/>
<path d="M1333.6 285.162L1320.53 277.593L1348.56 261.293L1361.63 268.865L1333.6 285.162Z" fill="#0F0F0F" fill-opacity="0.87513"/>
<path d="M1355.58 276.765L1364.91 282.167L1363.16 283.185L1355.37 278.677L1339.07 288.159L1337.52 287.266L1355.58 276.765ZM1355.06 281.511L1360.56 284.695L1358.81 285.714L1354.85 283.423L1342.89 290.376L1341.35 289.483L1355.06 281.511Z" fill="#0F0F0F" fill-opacity="0.87513"/>
<path d="M1358.52 285.696L1360.27 284.677L1373.55 292.368L1371.8 293.387L1358.52 285.696ZM1362.87 283.167L1364.62 282.148L1377.9 289.84L1376.15 290.858L1362.87 283.167Z" fill="#0F0F0F" fill-opacity="0.87513"/>
<path d="M1371.58 293.16L1373.33 292.142L1386.6 299.832L1384.85 300.85L1371.58 293.16ZM1375.92 290.632L1377.68 289.613L1390.95 297.304L1389.2 298.322L1375.92 290.632Z" fill="#0F0F0F" fill-opacity="0.87513"/>
<path d="M1385.97 315.419L1372.9 307.855L1400.93 291.564L1414 299.131L1385.97 315.419Z" fill="#0F0F0F" fill-opacity="0.87513"/>
<path d="M1399.03 322.884L1385.96 315.32L1413.99 299.032L1427.05 306.598L1399.03 322.884Z" fill="#0F0F0F" fill-opacity="0.87513"/>
<path d="M1426.21 317.819L1408.15 328.312L1406.61 327.42L1422.92 317.944L1415.14 313.439L1416.89 312.421L1426.21 317.819ZM1404.32 326.097L1402.78 325.204L1414.74 318.256L1410.79 315.966L1412.54 314.948L1418.03 318.13L1404.32 326.097Z" fill="#0F0F0F" fill-opacity="0.87513"/>
<path d="M1443.93 316.486L1445.47 317.378L1431.16 325.696L1438.93 330.2L1437.18 331.217L1427.86 325.821L1443.93 316.486ZM1447.76 318.702L1449.3 319.594L1439.33 325.385L1443.28 327.674L1441.53 328.691L1436.04 325.51L1447.76 318.702Z" fill="#0F0F0F" fill-opacity="0.87513"/>
<path d="M1437 331.015L1438.75 329.997L1452.02 337.682L1450.27 338.699L1437 331.015ZM1441.35 328.488L1443.1 327.471L1456.37 335.156L1454.62 336.173L1441.35 328.488Z" fill="#0F0F0F" fill-opacity="0.87513"/>
<path d="M1450.06 338.612L1451.81 337.595L1465.08 345.278L1463.33 346.295L1450.06 338.612ZM1454.41 336.086L1456.16 335.069L1469.43 342.752L1467.68 343.77L1454.41 336.086Z" fill="#0F0F0F" fill-opacity="0.87513"/>
<path d="M1464.32 360.739L1451.27 353.18L1479.3 336.904L1492.35 344.465L1464.32 360.739Z" fill="#0F0F0F" fill-opacity="0.87513"/>
<path d="M1477.24 368.336L1464.19 360.779L1492.22 344.504L1505.27 352.064L1477.24 368.336Z" fill="#0F0F0F" fill-opacity="0.87513"/>
<path d="M1490.3 375.8L1477.26 368.244L1505.28 351.972L1518.33 359.531L1490.3 375.8Z" fill="#0F0F0F" fill-opacity="0.87513"/>
<path d="M1512.29 367.536L1521.6 372.928L1519.85 373.945L1512.08 369.445L1495.77 378.911L1494.23 378.019L1512.29 367.536ZM1511.76 372.274L1517.25 375.453L1515.5 376.469L1511.55 374.183L1499.59 381.124L1498.05 380.232L1511.76 372.274Z" fill="#0F0F0F" fill-opacity="0.87513"/>
<path d="M1524.55 381.799L1515.24 376.407L1516.99 375.391L1524.76 379.891L1539.08 371.582L1540.62 372.473L1524.55 381.799ZM1535.26 369.368L1536.8 370.26L1525.08 377.062L1519.59 373.883L1521.34 372.867L1525.29 375.153L1535.26 369.368Z" fill="#0F0F0F" fill-opacity="0.87513"/>
<path d="M1548.27 376.867L1549.81 377.758L1535.49 386.066L1543.26 390.565L1541.51 391.581L1532.2 386.191L1548.27 376.867ZM1552.09 379.08L1553.63 379.971L1543.66 385.755L1547.61 388.041L1545.86 389.058L1540.37 385.88L1552.09 379.08Z" fill="#0F0F0F" fill-opacity="0.87513"/>
<path d="M1542.54 406.058L1529.5 398.506L1557.53 382.243L1570.57 389.797L1542.54 406.058Z" fill="#0F0F0F" fill-opacity="0.87513"/>
<path d="M1555.6 413.655L1542.56 406.105L1570.59 389.844L1583.63 397.397L1555.6 413.655Z" fill="#0F0F0F" fill-opacity="0.87513"/>
<path d="M1582.78 408.457L1564.72 418.932L1563.18 418.041L1579.49 408.582L1571.73 404.085L1573.48 403.069L1582.78 408.457ZM1560.9 416.721L1559.36 415.83L1571.32 408.893L1567.38 406.607L1569.13 405.591L1574.61 408.768L1560.9 416.721Z" fill="#0F0F0F" fill-opacity="0.87513"/>
<path d="M1594.64 436.315L1581.61 428.767L1609.64 412.514L1622.67 420.063L1594.64 436.315Z" fill="#0F0F0F" fill-opacity="0.87513"/>
<path d="M1607.7 443.779L1594.67 436.233L1622.7 419.982L1635.73 427.531L1607.7 443.779Z" fill="#0F0F0F" fill-opacity="0.87513"/>
<path d="M1629.55 435.515L1638.85 440.9L1637.1 441.915L1629.34 437.421L1613.03 446.875L1611.49 445.984L1629.55 435.515ZM1629.02 440.247L1634.5 443.421L1632.75 444.436L1628.81 442.152L1616.85 449.085L1615.31 448.195L1629.02 440.247Z" fill="#0F0F0F" fill-opacity="0.87513"/>
<path d="M1641.95 449.777L1632.65 444.393L1634.4 443.377L1642.16 447.872L1656.48 439.573L1658.01 440.464L1641.95 449.777ZM1652.66 437.363L1654.2 438.253L1642.48 445.046L1637 441.872L1638.75 440.856L1642.69 443.141L1652.66 437.363Z" fill="#0F0F0F" fill-opacity="0.87513"/>
<path d="M1184.35 235.311L1171.27 227.735L1199.29 211.42L1212.37 218.999L1184.35 235.311Z" fill="#0F0F0F" fill-opacity="0.87513"/>
<path d="M1197.41 242.909L1184.33 235.334L1212.35 219.02L1225.43 226.598L1197.41 242.909Z" fill="#0F0F0F" fill-opacity="0.87513"/>
<path d="M1229.26 228.913L1230.8 229.807L1202.78 246.117L1201.24 245.223L1229.26 228.913ZM1233.09 231.133L1234.64 232.027L1206.62 248.336L1205.07 247.443L1233.09 231.133Z" fill="#0F0F0F" fill-opacity="0.87513"/>
<path d="M1288.96 295.959L1275.88 288.391L1303.9 272.095L1316.98 279.665L1288.96 295.959Z" fill="#0F0F0F" fill-opacity="0.87513"/>
<path d="M1302.02 303.557L1288.95 295.99L1316.97 279.697L1330.04 287.265L1302.02 303.557Z" fill="#0F0F0F" fill-opacity="0.87513"/>
<path d="M1315.08 311.021L1302.01 303.455L1330.03 287.163L1343.09 294.731L1315.08 311.021Z" fill="#0F0F0F" fill-opacity="0.87513"/>
<path d="M1328.13 318.618L1315.07 311.054L1343.09 294.764L1356.15 302.331L1328.13 318.618Z" fill="#0F0F0F" fill-opacity="0.87513"/>
<path d="M1341.19 326.216L1328.13 318.653L1356.15 302.366L1369.21 309.932L1341.19 326.216Z" fill="#0F0F0F" fill-opacity="0.87513"/>
<path d="M1354.25 333.814L1341.19 326.251L1369.21 309.966L1382.27 317.531L1354.25 333.814Z" fill="#0F0F0F" fill-opacity="0.87513"/>
<path d="M1367.31 341.278L1354.25 333.717L1382.27 317.434L1395.33 324.997L1367.31 341.278Z" fill="#0F0F0F" fill-opacity="0.87513"/>
<path d="M1399.16 327.282L1400.7 328.175L1372.68 344.454L1371.14 343.562L1399.16 327.282ZM1402.98 329.498L1404.52 330.39L1376.51 346.669L1374.96 345.777L1402.98 329.498Z" fill="#0F0F0F" fill-opacity="0.87513"/>
<path d="M1419.55 371.535L1406.49 363.978L1434.51 347.705L1447.57 355.264L1419.55 371.535Z" fill="#0F0F0F" fill-opacity="0.87513"/>
<path d="M1432.61 379.133L1419.55 371.577L1447.57 355.306L1460.62 362.864L1432.61 379.133Z" fill="#0F0F0F" fill-opacity="0.87513"/>
<path d="M1445.66 386.73L1432.61 379.176L1460.63 362.908L1473.68 370.464L1445.66 386.73Z" fill="#0F0F0F" fill-opacity="0.87513"/>
<path d="M1467.52 378.466L1476.83 383.857L1475.08 384.874L1467.31 380.374L1451 389.838L1449.46 388.947L1467.52 378.466ZM1466.99 383.203L1472.48 386.381L1470.73 387.397L1466.78 385.111L1454.82 392.051L1453.29 391.16L1466.99 383.203Z" fill="#0F0F0F" fill-opacity="0.87513"/>
<path d="M1479.91 392.595L1470.6 387.205L1472.35 386.189L1480.12 390.688L1494.44 382.381L1495.97 383.272L1479.91 392.595ZM1490.61 380.168L1492.15 381.059L1480.44 387.859L1474.95 384.681L1476.7 383.665L1480.65 385.952L1490.61 380.168Z" fill="#0F0F0F" fill-opacity="0.87513"/>
<path d="M1529.75 402.859L1531.29 403.75L1516.97 412.053L1524.74 416.55L1522.99 417.566L1513.68 412.179L1529.75 402.859ZM1533.57 405.071L1535.11 405.962L1525.14 411.743L1529.09 414.028L1527.34 415.044L1521.85 411.868L1533.57 405.071Z" fill="#0F0F0F" fill-opacity="0.87513"/>
<path d="M1523.88 431.916L1510.85 424.368L1538.86 408.113L1551.9 415.663L1523.88 431.916Z" fill="#0F0F0F" fill-opacity="0.87513"/>
<path d="M1536.94 439.514L1523.91 431.967L1551.92 415.715L1564.96 423.264L1536.94 439.514Z" fill="#0F0F0F" fill-opacity="0.87513"/>
<path d="M1550 447.112L1536.97 439.566L1564.99 423.316L1578.02 430.864L1550 447.112Z" fill="#0F0F0F" fill-opacity="0.87513"/>
<path d="M1563.06 454.576L1550.03 447.031L1578.05 430.784L1591.08 438.331L1563.06 454.576Z" fill="#0F0F0F" fill-opacity="0.87513"/>
<path d="M1584.91 446.312L1594.21 451.696L1592.46 452.711L1584.7 448.217L1568.4 457.669L1566.86 456.779L1584.91 446.312ZM1584.38 451.042L1589.87 454.216L1588.11 455.231L1584.17 452.948L1572.21 459.879L1570.68 458.988L1584.38 451.042Z" fill="#0F0F0F" fill-opacity="0.87513"/>
<path d="M1597.17 460.574L1587.88 455.191L1589.63 454.176L1597.39 458.669L1611.7 450.372L1613.24 451.263L1597.17 460.574ZM1607.88 448.162L1609.42 449.053L1597.7 455.844L1592.22 452.67L1593.97 451.655L1597.92 453.939L1607.88 448.162Z" fill="#0F0F0F" fill-opacity="0.87513"/>
<path d="M1152.64 253.839L1139.55 246.265L1167.56 229.956L1180.65 237.532L1152.64 253.839Z" fill="#0F0F0F" fill-opacity="0.87513"/>
<path d="M1165.7 261.303L1152.61 253.731L1180.62 237.424L1193.71 244.999L1165.7 261.303Z" fill="#0F0F0F" fill-opacity="0.87513"/>
<path d="M1197.55 247.308L1199.09 248.201L1171.08 264.505L1169.54 263.612L1197.55 247.308ZM1201.38 249.526L1202.92 250.42L1174.91 266.722L1173.37 265.829L1201.38 249.526Z" fill="#0F0F0F" fill-opacity="0.87513"/>
<path d="M1257.24 314.353L1244.17 306.788L1272.18 290.497L1285.25 298.065L1257.24 314.353Z" fill="#0F0F0F" fill-opacity="0.87513"/>
<path d="M1270.3 321.951L1257.23 314.387L1285.24 298.099L1298.31 305.665L1270.3 321.951Z" fill="#0F0F0F" fill-opacity="0.87513"/>
<path d="M1292.29 313.687L1301.62 319.084L1299.86 320.102L1292.08 315.597L1275.78 325.073L1274.24 324.18L1292.29 313.687ZM1291.77 318.429L1297.27 321.611L1295.52 322.629L1291.56 320.34L1279.61 327.288L1278.07 326.396L1291.77 318.429Z" fill="#0F0F0F" fill-opacity="0.87513"/>
<path d="M1295.22 322.484L1296.97 321.466L1310.25 329.152L1308.5 330.17L1295.22 322.484ZM1299.57 319.957L1301.32 318.94L1314.6 326.626L1312.85 327.643L1299.57 319.957Z" fill="#0F0F0F" fill-opacity="0.87513"/>
<path d="M1308.28 330.081L1310.03 329.064L1323.31 336.749L1321.56 337.766L1308.28 330.081ZM1312.63 327.555L1314.38 326.537L1327.65 334.223L1325.9 335.24L1312.63 327.555Z" fill="#0F0F0F" fill-opacity="0.87513"/>
<path d="M1322.67 352.208L1309.61 344.648L1337.62 328.369L1350.68 335.931L1322.67 352.208Z" fill="#0F0F0F" fill-opacity="0.87513"/>
<path d="M1335.73 359.672L1322.67 352.114L1350.68 335.836L1363.74 343.397L1335.73 359.672Z" fill="#0F0F0F" fill-opacity="0.87513"/>
<path d="M1367.58 345.677L1369.12 346.569L1341.11 362.842L1339.57 361.95L1367.58 345.677ZM1371.4 347.891L1372.94 348.783L1344.93 365.055L1343.39 364.164L1371.4 347.891Z" fill="#0F0F0F" fill-opacity="0.87513"/>
<path d="M1374.91 382.332L1361.85 374.777L1389.86 358.507L1402.92 366.065L1374.91 382.332Z" fill="#0F0F0F" fill-opacity="0.87513"/>
<path d="M1387.97 389.929L1374.91 382.375L1402.92 366.108L1415.98 373.665L1387.97 389.929Z" fill="#0F0F0F" fill-opacity="0.87513"/>
<path d="M1401.02 397.527L1387.97 389.974L1415.98 373.708L1429.03 381.264L1401.02 397.527Z" fill="#0F0F0F" fill-opacity="0.87513"/>
<path d="M1422.88 389.263L1432.19 394.653L1430.44 395.669L1422.67 391.171L1406.37 400.633L1404.83 399.742L1422.88 389.263ZM1422.35 393.999L1427.84 397.176L1426.09 398.192L1422.14 395.906L1410.19 402.845L1408.65 401.954L1422.35 393.999Z" fill="#0F0F0F" fill-opacity="0.87513"/>
<path d="M1435.14 403.392L1425.83 398.003L1427.58 396.987L1435.35 401.485L1449.66 393.179L1451.2 394.071L1435.14 403.392ZM1445.83 390.967L1447.37 391.858L1435.66 398.657L1430.17 395.48L1431.92 394.463L1435.87 396.75L1445.83 390.967Z" fill="#0F0F0F" fill-opacity="0.87513"/>
<path d="M1511.09 428.717L1512.63 429.608L1498.32 437.907L1506.09 442.402L1504.34 443.417L1495.03 438.032L1511.09 428.717ZM1514.91 430.928L1516.45 431.819L1506.49 437.597L1510.43 439.881L1508.68 440.896L1503.2 437.722L1514.91 430.928Z" fill="#0F0F0F" fill-opacity="0.87513"/>
<path d="M1505.36 457.908L1492.32 450.364L1520.33 434.117L1533.37 441.663L1505.36 457.908Z" fill="#0F0F0F" fill-opacity="0.87513"/>
<path d="M1518.29 465.372L1505.25 457.829L1533.26 441.585L1546.3 449.13L1518.29 465.372Z" fill="#0F0F0F" fill-opacity="0.87513"/>
<path d="M1540.27 457.108L1549.57 462.491L1547.82 463.506L1540.06 459.013L1523.76 468.463L1522.23 467.573L1540.27 457.108ZM1539.75 461.838L1545.23 465.011L1543.48 466.026L1539.53 463.743L1527.58 470.673L1526.04 469.783L1539.75 461.838Z" fill="#0F0F0F" fill-opacity="0.87513"/>
<path d="M1552.53 471.37L1543.23 465.988L1544.98 464.973L1552.75 469.466L1567.05 461.171L1568.59 462.061L1552.53 471.37ZM1563.24 458.961L1564.77 459.852L1553.06 466.642L1547.58 463.469L1549.33 462.453L1553.28 464.737L1563.24 458.961Z" fill="#0F0F0F" fill-opacity="0.87513"/>
<path d="M1121.06 272.233L1107.97 264.662L1135.97 248.358L1149.06 255.931L1121.06 272.233Z" fill="#0F0F0F" fill-opacity="0.87513"/>
<path d="M1134.12 279.831L1121.03 272.261L1149.03 255.959L1162.12 263.531L1134.12 279.831Z" fill="#0F0F0F" fill-opacity="0.87513"/>
<path d="M1147.18 287.295L1134.09 279.726L1162.09 263.427L1175.18 270.998L1147.18 287.295Z" fill="#0F0F0F" fill-opacity="0.87513"/>
<path d="M1160.24 294.893L1147.15 287.325L1175.15 271.027L1188.23 278.598L1160.24 294.893Z" fill="#0F0F0F" fill-opacity="0.87513"/>
<path d="M1173.29 302.49L1160.21 294.923L1188.21 278.629L1201.29 286.198L1173.29 302.49Z" fill="#0F0F0F" fill-opacity="0.87513"/>
<path d="M1186.49 310.088L1173.41 302.522L1201.41 286.23L1214.48 293.798L1186.49 310.088Z" fill="#0F0F0F" fill-opacity="0.87513"/>
<path d="M1199.55 317.552L1186.47 309.988L1214.47 293.698L1227.54 301.265L1199.55 317.552Z" fill="#0F0F0F" fill-opacity="0.87513"/>
<path d="M1226.73 312.487L1208.69 322.981L1207.14 322.089L1223.44 312.613L1215.65 308.107L1217.4 307.089L1226.73 312.487ZM1204.86 320.766L1203.31 319.873L1215.26 312.924L1211.3 310.634L1213.05 309.616L1218.55 312.798L1204.86 320.766Z" fill="#0F0F0F" fill-opacity="0.87513"/>
<path d="M1225.66 332.747L1212.59 325.185L1240.59 308.9L1253.66 316.464L1225.66 332.747Z" fill="#0F0F0F" fill-opacity="0.87513"/>
<path d="M1238.72 340.345L1225.65 332.784L1253.65 316.501L1266.72 324.065L1238.72 340.345Z" fill="#0F0F0F" fill-opacity="0.87513"/>
<path d="M1270.57 326.216L1272.11 327.108L1244.11 343.389L1242.57 342.497L1270.57 326.216ZM1274.4 328.432L1275.94 329.323L1247.94 345.602L1246.4 344.711L1274.4 328.432Z" fill="#0F0F0F" fill-opacity="0.87513"/>
<path d="M1290.96 370.469L1277.89 362.912L1305.89 346.638L1318.96 354.198L1290.96 370.469Z" fill="#0F0F0F" fill-opacity="0.87513"/>
<path d="M1304.02 378.066L1290.95 370.511L1318.95 354.24L1332.02 361.798L1304.02 378.066Z" fill="#0F0F0F" fill-opacity="0.87513"/>
<path d="M1335.86 364.071L1337.4 364.963L1309.41 381.231L1307.86 380.339L1335.86 364.071ZM1339.69 366.284L1341.23 367.176L1313.23 383.443L1311.69 382.552L1339.69 366.284Z" fill="#0F0F0F" fill-opacity="0.87513"/>
<path d="M1330.13 393.262L1317.08 385.708L1345.07 369.441L1358.13 376.997L1330.13 393.262Z" fill="#0F0F0F" fill-opacity="0.87513"/>
<path d="M1343.19 400.726L1330.14 393.174L1358.14 376.909L1371.19 384.464L1343.19 400.726Z" fill="#0F0F0F" fill-opacity="0.87513"/>
<path d="M1356.25 408.324L1343.2 400.772L1371.2 384.51L1384.25 392.064L1356.25 408.324Z" fill="#0F0F0F" fill-opacity="0.87513"/>
<path d="M1369.31 415.788L1356.26 408.238L1384.26 391.979L1397.31 399.532L1369.31 415.788Z" fill="#0F0F0F" fill-opacity="0.87513"/>
<path d="M1382.37 423.385L1369.32 415.836L1397.32 399.579L1410.37 407.13L1382.37 423.385Z" fill="#0F0F0F" fill-opacity="0.87513"/>
<path d="M1395.43 430.983L1382.38 423.435L1410.38 407.18L1423.43 414.731L1395.43 430.983Z" fill="#0F0F0F" fill-opacity="0.87513"/>
<path d="M1408.49 438.448L1395.44 430.9L1423.44 414.648L1436.49 422.198L1408.49 438.448Z" fill="#0F0F0F" fill-opacity="0.87513"/>
<path d="M1435.67 433.382L1417.63 443.852L1416.09 442.962L1432.38 433.507L1424.61 429.012L1426.36 427.996L1435.67 433.382ZM1413.81 441.642L1412.27 440.751L1424.22 433.818L1420.27 431.534L1422.02 430.518L1427.5 433.693L1413.81 441.642Z" fill="#0F0F0F" fill-opacity="0.87513"/>
<path d="M1473.65 476.169L1460.61 468.627L1488.61 452.387L1501.65 459.931L1473.65 476.169Z" fill="#0F0F0F" fill-opacity="0.87513"/>
<path d="M1486.71 483.767L1473.67 476.226L1501.67 459.987L1514.71 467.53L1486.71 483.767Z" fill="#0F0F0F" fill-opacity="0.87513"/>
<path d="M1518.55 469.771L1520.09 470.661L1492.09 486.896L1490.55 486.006L1518.55 469.771ZM1522.37 471.98L1523.91 472.87L1495.91 489.105L1494.37 488.215L1522.37 471.98Z" fill="#0F0F0F" fill-opacity="0.87513"/>
<path d="M1108.13 269.034L1109.68 269.927L1095.38 278.252L1103.17 282.761L1101.43 283.779L1092.09 278.378L1108.13 269.034ZM1111.97 271.252L1113.51 272.145L1103.56 277.941L1107.52 280.232L1105.77 281.25L1100.26 278.066L1111.97 271.252Z" fill="#0F0F0F" fill-opacity="0.87513"/>
<path d="M1101.2 283.563L1102.95 282.544L1116.25 290.236L1114.5 291.254L1101.2 283.563ZM1105.55 281.034L1107.3 280.016L1120.6 287.708L1118.85 288.726L1105.55 281.034Z" fill="#0F0F0F" fill-opacity="0.87513"/>
<path d="M1120.79 300.091L1118.58 298.81C1120.27 297.214 1121.56 295.999 1122.44 295.165C1123.33 294.335 1124.39 293.382 1125.63 292.307C1124.42 292.773 1123.32 293.191 1122.33 293.561C1121.35 293.936 1118.71 294.883 1114.42 296.403L1112.2 295.122L1126.23 284.349L1128.24 285.513L1119.33 292.048C1118.39 292.727 1117.11 293.605 1115.51 294.681C1116.84 294.167 1117.95 293.742 1118.82 293.406C1119.7 293.075 1122.36 292.119 1126.81 290.536L1128.67 291.614C1127.13 293.081 1125.91 294.235 1125.02 295.074C1124.14 295.917 1122.98 296.954 1121.56 298.185L1126.11 295.97L1137.29 290.747L1139.3 291.911L1120.79 300.091Z" fill="#0F0F0F" fill-opacity="0.87513"/>
<path d="M1133.85 307.689L1131.64 306.408C1133.33 304.813 1134.62 303.598 1135.5 302.764C1136.39 301.934 1137.45 300.981 1138.69 299.906C1137.48 300.372 1136.38 300.79 1135.39 301.16C1134.41 301.534 1131.77 302.481 1127.47 304.001L1125.26 302.721L1139.29 291.949L1141.3 293.113L1132.39 299.647C1131.45 300.326 1130.17 301.204 1128.56 302.28C1129.9 301.765 1131.01 301.34 1131.88 301.005C1132.76 300.674 1135.42 299.718 1139.87 298.135L1141.73 299.213C1140.18 300.68 1138.97 301.833 1138.08 302.672C1137.2 303.515 1136.04 304.552 1134.62 305.783L1139.17 303.569L1150.35 298.346L1152.36 299.51L1133.85 307.689Z" fill="#0F0F0F" fill-opacity="0.87513"/>
<path d="M1140.51 306.356L1142.26 305.338L1155.56 313.026L1153.81 314.044L1140.51 306.356ZM1144.86 303.828L1146.61 302.81L1159.9 310.499L1158.15 311.517L1144.86 303.828Z" fill="#0F0F0F" fill-opacity="0.87513"/>
<path d="M1153.57 313.82L1155.32 312.802L1168.61 320.489L1166.86 321.507L1153.57 313.82ZM1157.92 311.293L1159.66 310.275L1172.96 317.962L1171.21 318.98L1157.92 311.293Z" fill="#0F0F0F" fill-opacity="0.87513"/>
<path d="M1166.63 321.418L1168.38 320.4L1181.67 328.086L1179.92 329.103L1166.63 321.418ZM1170.97 318.891L1172.72 317.873L1186.01 325.559L1184.26 326.577L1170.97 318.891Z" fill="#0F0F0F" fill-opacity="0.87513"/>
<path d="M1189.02 334.347L1179.69 328.951L1181.44 327.933L1189.22 332.437L1203.52 324.121L1205.06 325.013L1189.02 334.347ZM1199.69 321.906L1201.23 322.798L1189.53 329.606L1184.03 326.424L1185.78 325.407L1189.74 327.696L1199.69 321.906Z" fill="#0F0F0F" fill-opacity="0.87513"/>
<path d="M1212.74 329.548L1214.28 330.441L1199.98 338.756L1207.77 343.259L1206.02 344.276L1196.69 338.881L1212.74 329.548ZM1216.57 331.764L1218.11 332.656L1208.15 338.445L1212.11 340.733L1210.36 341.751L1204.86 338.57L1216.57 331.764Z" fill="#0F0F0F" fill-opacity="0.87513"/>
<path d="M1205.81 344.077L1207.56 343.06L1220.84 350.743L1219.09 351.76L1205.81 344.077ZM1210.15 341.551L1211.9 340.534L1225.18 348.217L1223.43 349.234L1210.15 341.551Z" fill="#0F0F0F" fill-opacity="0.87513"/>
<path d="M1228.33 357.007L1219 351.613L1220.75 350.596L1228.53 355.098L1242.83 346.785L1244.37 347.677L1228.33 357.007ZM1239 344.57L1240.55 345.462L1228.84 352.267L1223.34 349.087L1225.09 348.07L1229.05 350.358L1239 344.57Z" fill="#0F0F0F" fill-opacity="0.87513"/>
<path d="M1278.16 367.27L1279.71 368.161L1265.41 376.471L1273.19 380.971L1271.44 381.987L1262.12 376.596L1278.16 367.27ZM1281.99 369.483L1283.53 370.375L1273.58 376.16L1277.53 378.447L1275.78 379.463L1270.29 376.285L1281.99 369.483Z" fill="#0F0F0F" fill-opacity="0.87513"/>
<path d="M1271.24 381.932L1272.98 380.915L1286.26 388.593L1284.51 389.609L1271.24 381.932ZM1275.58 379.408L1277.33 378.391L1290.6 386.069L1288.85 387.085L1275.58 379.408Z" fill="#0F0F0F" fill-opacity="0.87513"/>
<path d="M1293.62 394.861L1284.3 389.471L1286.05 388.455L1293.83 392.954L1308.13 384.647L1309.67 385.538L1293.62 394.861ZM1304.3 382.434L1305.84 383.325L1294.14 390.125L1288.65 386.948L1290.39 385.931L1294.35 388.218L1304.3 382.434Z" fill="#0F0F0F" fill-opacity="0.87513"/>
<path d="M1317.34 389.929L1318.88 390.82L1304.58 399.126L1312.36 403.624L1310.61 404.64L1301.29 399.251L1317.34 389.929ZM1321.17 392.142L1322.71 393.033L1312.75 398.815L1316.7 401.101L1314.96 402.118L1309.46 398.941L1321.17 392.142Z" fill="#0F0F0F" fill-opacity="0.87513"/>
<path d="M1310.41 404.591L1312.16 403.575L1325.43 411.249L1323.68 412.265L1310.41 404.591ZM1314.76 402.069L1316.5 401.052L1329.77 408.727L1328.02 409.743L1314.76 402.069Z" fill="#0F0F0F" fill-opacity="0.87513"/>
<path d="M1323.47 412.056L1325.22 411.04L1338.49 418.712L1336.74 419.728L1323.47 412.056ZM1327.81 409.533L1329.56 408.517L1342.83 416.19L1341.08 417.206L1327.81 409.533Z" fill="#0F0F0F" fill-opacity="0.87513"/>
<path d="M1336.53 419.653L1338.28 418.637L1351.54 426.309L1349.79 427.325L1336.53 419.653ZM1340.87 417.131L1342.62 416.115L1355.89 423.787L1354.14 424.803L1340.87 417.131Z" fill="#0F0F0F" fill-opacity="0.87513"/>
<path d="M1349.59 427.251L1351.34 426.235L1364.6 433.906L1362.85 434.922L1349.59 427.251ZM1353.93 424.729L1355.68 423.713L1368.94 431.384L1367.19 432.4L1353.93 424.729Z" fill="#0F0F0F" fill-opacity="0.87513"/>
<path d="M1362.65 434.715L1364.4 433.7L1377.66 441.369L1375.91 442.385L1362.65 434.715ZM1366.99 432.194L1368.74 431.178L1382 438.848L1380.25 439.864L1366.99 432.194Z" fill="#0F0F0F" fill-opacity="0.87513"/>
<path d="M1375.71 442.313L1377.46 441.297L1390.71 448.966L1388.97 449.981L1375.71 442.313ZM1380.05 439.792L1381.8 438.776L1395.06 446.445L1393.31 447.46L1380.05 439.792Z" fill="#0F0F0F" fill-opacity="0.87513"/>
<path d="M1397.96 455.242L1388.65 449.859L1390.4 448.843L1398.17 453.337L1412.47 445.04L1414.01 445.93L1397.96 455.242ZM1408.65 442.829L1410.19 443.72L1398.48 450.512L1392.99 447.338L1394.74 446.323L1398.69 448.606L1408.65 442.829Z" fill="#0F0F0F" fill-opacity="0.87513"/>
<path d="M1460.86 472.97L1462.39 473.86L1448.1 482.152L1455.86 486.643L1454.11 487.658L1444.81 482.277L1460.86 472.97ZM1464.67 475.179L1466.21 476.069L1456.26 481.842L1460.2 484.124L1458.45 485.139L1452.97 481.967L1464.67 475.179Z" fill="#0F0F0F" fill-opacity="0.87513"/>
<path d="M1460.32 496.429L1458.12 495.153C1459.81 493.564 1461.1 492.353 1461.98 491.522C1462.87 490.695 1463.94 489.746 1465.18 488.674C1463.97 489.139 1462.87 489.555 1461.88 489.924C1460.9 490.297 1458.26 491.241 1453.97 492.755L1451.76 491.479L1465.8 480.746L1467.8 481.905L1458.89 488.417C1457.95 489.093 1456.67 489.968 1455.06 491.04C1456.4 490.527 1457.5 490.104 1458.37 489.77C1459.25 489.44 1461.91 488.487 1466.36 486.91L1468.21 487.984C1466.67 489.446 1465.45 490.595 1464.56 491.431C1463.67 492.271 1462.52 493.304 1461.1 494.53L1465.64 492.324L1476.82 487.12L1478.82 488.28L1460.32 496.429Z" fill="#0F0F0F" fill-opacity="0.87513"/>
<path d="M1476.18 500.428L1466.88 495.049L1468.63 494.035L1476.39 498.524L1490.69 490.234L1492.23 491.124L1476.18 500.428ZM1486.87 488.026L1488.41 488.915L1476.71 495.702L1471.22 492.53L1472.97 491.516L1476.92 493.798L1486.87 488.026Z" fill="#0F0F0F" fill-opacity="0.87513"/>
<path d="M1078.82 318.485L1101.84 305.084L1103.61 306.106L1080.58 319.507L1078.82 318.485Z" fill="#0F0F0F" fill-opacity="0.87513"/>
<path d="M1091.88 326.083L1114.9 312.683L1116.67 313.705L1093.64 327.105L1091.88 326.083Z" fill="#0F0F0F" fill-opacity="0.87513"/>
<path d="M1193.28 381.799L1194.44 381.126L1207.6 388.735L1206.44 389.408L1193.28 381.799Z" fill="#0F0F0F" fill-opacity="0.87513"/>
<path d="M1206.34 389.396L1207.5 388.723L1220.66 396.332L1219.5 397.005L1206.34 389.396Z" fill="#0F0F0F" fill-opacity="0.87513"/>
<path d="M1219.4 396.861L1220.56 396.188L1233.72 403.795L1232.56 404.468L1219.4 396.861Z" fill="#0F0F0F" fill-opacity="0.87513"/>
<path d="M1232.46 404.458L1233.62 403.785L1246.77 411.392L1245.62 412.064L1232.46 404.458Z" fill="#0F0F0F" fill-opacity="0.87513"/>
<path d="M1249.25 411.389L1276.11 405.894L1278 406.988L1251.18 412.507L1249.25 411.389Z" fill="#0F0F0F" fill-opacity="0.87513"/>
<path d="M1262.31 418.854L1289.17 413.36L1291.06 414.453L1264.24 419.972L1262.31 418.854Z" fill="#0F0F0F" fill-opacity="0.87513"/>
<path d="M1275.37 426.451L1302.23 420.958L1304.12 422.052L1277.3 427.569L1275.37 426.451Z" fill="#0F0F0F" fill-opacity="0.87513"/>
<path d="M1284.69 434.715L1285.85 434.043L1299 441.645L1297.84 442.317L1284.69 434.715Z" fill="#0F0F0F" fill-opacity="0.87513"/>
<path d="M1297.75 442.179L1298.91 441.507L1312.06 449.108L1310.9 449.78L1297.75 442.179Z" fill="#0F0F0F" fill-opacity="0.87513"/>
<path d="M1418.35 514.823L1441.37 501.472L1443.13 502.49L1420.11 515.842L1418.35 514.823Z" fill="#0F0F0F" fill-opacity="0.87513"/>
<path d="M1431.41 522.288L1454.43 508.938L1456.19 509.956L1433.17 523.305L1431.41 522.288Z" fill="#0F0F0F" fill-opacity="0.87513"/>
<path d="M1034.18 329.415L1057.19 316.017L1058.96 317.038L1035.94 330.437L1034.18 329.415Z" fill="#0F0F0F" fill-opacity="0.87513"/>
<path d="M1060.29 344.477L1083.31 331.083L1085.08 332.104L1062.06 345.498L1060.29 344.477Z" fill="#0F0F0F" fill-opacity="0.87513"/>
<path d="M1152.24 391.929L1179.1 386.432L1181 387.526L1154.18 393.047L1152.24 391.929Z" fill="#0F0F0F" fill-opacity="0.87513"/>
<path d="M1174.76 407.79L1175.92 407.118L1189.08 414.724L1187.92 415.396L1174.76 407.79Z" fill="#0F0F0F" fill-opacity="0.87513"/>
<path d="M1187.82 415.255L1188.98 414.582L1202.13 422.187L1200.98 422.859L1187.82 415.255Z" fill="#0F0F0F" fill-opacity="0.87513"/>
<path d="M1200.88 422.852L1202.03 422.18L1215.19 429.784L1214.03 430.456L1200.88 422.852Z" fill="#0F0F0F" fill-opacity="0.87513"/>
<path d="M1213.94 430.45L1215.09 429.778L1228.25 437.38L1227.09 438.053L1213.94 430.45Z" fill="#0F0F0F" fill-opacity="0.87513"/>
<path d="M1227 437.914L1228.15 437.242L1241.31 444.843L1240.15 445.516L1227 437.914Z" fill="#0F0F0F" fill-opacity="0.87513"/>
<path d="M1240.05 445.512L1241.21 444.84L1254.36 452.44L1253.21 453.112L1240.05 445.512Z" fill="#0F0F0F" fill-opacity="0.87513"/>
<path d="M1253.11 452.976L1254.27 452.304L1267.42 459.903L1266.26 460.575L1253.11 452.976Z" fill="#0F0F0F" fill-opacity="0.87513"/>
<path d="M1291.62 472.437L1301.08 456.895L1302.97 457.988L1293.56 473.553L1291.62 472.437Z" fill="#0F0F0F" fill-opacity="0.87513"/>
<path d="M1386.77 533.084L1409.78 519.738L1411.54 520.756L1388.53 534.102L1386.77 533.084Z" fill="#0F0F0F" fill-opacity="0.87513"/>
<path d="M1412.88 548.146L1435.9 534.804L1437.66 535.821L1414.64 549.164L1412.88 548.146Z" fill="#0F0F0F" fill-opacity="0.87513"/>
<path d="M1002.6 347.676L1025.6 334.282L1027.37 335.303L1004.36 348.696L1002.6 347.676Z" fill="#0F0F0F" fill-opacity="0.87513"/>
<path d="M1028.71 362.871L1051.72 349.481L1053.49 350.502L1030.48 363.892L1028.71 362.871Z" fill="#0F0F0F" fill-opacity="0.87513"/>
<path d="M1107.6 402.725L1134.46 397.23L1136.35 398.323L1109.54 403.844L1107.6 402.725Z" fill="#0F0F0F" fill-opacity="0.87513"/>
<path d="M1133.72 417.921L1160.57 412.426L1162.47 413.52L1135.65 419.039L1133.72 417.921Z" fill="#0F0F0F" fill-opacity="0.87513"/>
<path d="M1143.18 426.051L1144.34 425.379L1157.5 432.982L1156.34 433.654L1143.18 426.051Z" fill="#0F0F0F" fill-opacity="0.87513"/>
<path d="M1221.53 471.37L1222.69 470.699L1235.84 478.295L1234.68 478.967L1221.53 471.37Z" fill="#0F0F0F" fill-opacity="0.87513"/>
<path d="M1246.98 483.233L1256.43 467.694L1258.32 468.787L1248.92 484.35L1246.98 483.233Z" fill="#0F0F0F" fill-opacity="0.87513"/>
<path d="M1272.97 498.295L1282.42 482.762L1284.31 483.854L1274.9 499.411L1272.97 498.295Z" fill="#0F0F0F" fill-opacity="0.87513"/>
<path d="M1355.19 551.478L1378.19 538.136L1379.95 539.153L1356.95 552.496L1355.19 551.478Z" fill="#0F0F0F" fill-opacity="0.87513"/>
<path d="M1381.3 566.54L1404.31 553.202L1406.07 554.219L1383.06 567.558L1381.3 566.54Z" fill="#0F0F0F" fill-opacity="0.87513"/>
<path d="M971.015 366.07L994.015 352.681L995.782 353.702L972.783 367.091L971.015 366.07Z" fill="#0F0F0F" fill-opacity="0.87513"/>
<path d="M997.133 381.265L1020.13 367.88L1021.9 368.901L998.9 382.286L997.133 381.265Z" fill="#0F0F0F" fill-opacity="0.87513"/>
<path d="M1075.62 426.584L1098.62 413.21L1100.38 414.23L1077.38 427.604L1075.62 426.584Z" fill="#0F0F0F" fill-opacity="0.87513"/>
<path d="M1098.54 436.848L1099.7 436.176L1112.86 443.777L1111.7 444.45L1098.54 436.848Z" fill="#0F0F0F" fill-opacity="0.87513"/>
<path d="M1123.46 441.78L1125.38 440.659L1131.34 444.098L1129.41 445.218L1123.46 441.78Z" fill="#0F0F0F" fill-opacity="0.87513"/>
<path d="M1143.18 452.176C1140.93 453.483 1138.62 454.483 1136.26 455.175C1133.91 455.866 1131.11 456.369 1127.86 456.685L1125.81 455.506C1129.14 455.184 1131.99 454.676 1134.37 453.984C1136.75 453.287 1139.03 452.31 1141.19 451.055C1143.34 449.804 1145.01 448.488 1146.2 447.108C1147.4 445.723 1148.27 444.067 1148.81 442.14L1150.85 443.319C1150.31 445.237 1149.45 446.871 1148.27 448.22C1147.09 449.57 1145.4 450.888 1143.18 452.176V452.176Z" fill="#0F0F0F" fill-opacity="0.87513"/>
<path d="M1171.7 468.571C1169.5 469.845 1167.38 470.563 1165.32 470.724C1163.28 470.884 1161.42 470.48 1159.74 469.51C1158.1 468.561 1157.42 467.492 1157.71 466.303C1158.02 465.119 1159.25 463.897 1161.42 462.637C1163.66 461.335 1165.79 460.615 1167.81 460.477C1169.84 460.338 1171.68 460.744 1173.32 461.693C1175.05 462.692 1175.78 463.759 1175.5 464.894C1175.23 466.03 1173.96 467.255 1171.7 468.571V468.571ZM1169.69 467.411C1171.41 466.408 1172.46 465.518 1172.82 464.741C1173.19 463.968 1172.83 463.269 1171.75 462.643C1170.65 462.008 1169.41 461.796 1168.04 462.005C1166.66 462.215 1165.12 462.812 1163.43 463.797C1161.74 464.776 1160.71 465.671 1160.34 466.478C1159.97 467.282 1160.3 467.978 1161.32 468.567C1162.45 469.217 1163.69 469.438 1165.05 469.229C1166.42 469.021 1167.96 468.415 1169.69 467.411V467.411Z" fill="#0F0F0F" fill-opacity="0.87513"/>
<path d="M1191.55 480.168C1189.34 481.45 1187.65 482.784 1186.47 484.167C1185.28 485.55 1184.43 487.185 1183.89 489.071L1181.87 487.905C1182.41 486.019 1183.27 484.389 1184.45 483.014C1185.64 481.639 1187.35 480.303 1189.59 479.006C1191.78 477.733 1194.05 476.753 1196.39 476.066C1198.73 475.375 1201.56 474.869 1204.87 474.547L1206.89 475.713C1203.63 476.028 1200.81 476.532 1198.42 477.225C1196.03 477.913 1193.74 478.894 1191.55 480.168V480.168Z" fill="#0F0F0F" fill-opacity="0.87513"/>
<path d="M1201.81 486.966L1203.74 485.846L1209.69 489.282L1207.76 490.401L1201.81 486.966Z" fill="#0F0F0F" fill-opacity="0.87513"/>
<path d="M1203.01 497.229L1204.17 496.557L1217.31 504.15L1216.16 504.822L1203.01 497.229Z" fill="#0F0F0F" fill-opacity="0.87513"/>
<path d="M1232.33 517.089L1255.32 503.739L1257.09 504.757L1234.09 518.107L1232.33 517.089Z" fill="#0F0F0F" fill-opacity="0.87513"/>
<path d="M1323.6 569.739L1346.6 556.402L1348.36 557.419L1325.36 570.756L1323.6 569.739Z" fill="#0F0F0F" fill-opacity="0.87513"/>
<path d="M1349.72 584.801L1372.72 571.467L1374.48 572.484L1351.48 585.817L1349.72 584.801Z" fill="#0F0F0F" fill-opacity="0.87513"/>
<path d="M939.434 384.464L962.426 371.079L964.193 372.1L941.202 385.485L939.434 384.464Z" fill="#0F0F0F" fill-opacity="0.87513"/>
<path d="M987.805 406.724L997.224 391.162L999.118 392.256L989.742 407.842L987.805 406.724Z" fill="#0F0F0F" fill-opacity="0.87513"/>
<path d="M988.471 409.923L989.627 409.25L1002.8 416.856L1001.65 417.529L988.471 409.923Z" fill="#0F0F0F" fill-opacity="0.87513"/>
<path d="M1001.53 417.521L1002.69 416.848L1015.86 424.453L1014.7 425.125L1001.53 417.521Z" fill="#0F0F0F" fill-opacity="0.87513"/>
<path d="M1014.59 425.118L1015.75 424.446L1028.92 432.049L1027.76 432.722L1014.59 425.118Z" fill="#0F0F0F" fill-opacity="0.87513"/>
<path d="M1027.78 432.583L1028.94 431.91L1042.11 439.512L1040.95 440.185L1027.78 432.583Z" fill="#0F0F0F" fill-opacity="0.87513"/>
<path d="M1044.04 444.845L1067.03 431.476L1068.8 432.496L1045.8 445.865L1044.04 444.845Z" fill="#0F0F0F" fill-opacity="0.87513"/>
<path d="M1079.35 459.641L1088.78 444.095L1090.67 445.188L1081.29 460.758L1079.35 459.641Z" fill="#0F0F0F" fill-opacity="0.87513"/>
<path d="M1080.02 462.84L1081.17 462.168L1094.33 469.766L1093.18 470.437L1080.02 462.84Z" fill="#0F0F0F" fill-opacity="0.87513"/>
<path d="M1093.08 470.304L1094.23 469.632L1107.39 477.229L1106.23 477.901L1093.08 470.304Z" fill="#0F0F0F" fill-opacity="0.87513"/>
<path d="M1106.13 477.902L1107.29 477.23L1120.45 484.826L1119.29 485.497L1106.13 477.902Z" fill="#0F0F0F" fill-opacity="0.87513"/>
<path d="M1137.18 486.566L1143.36 478.928L1130.22 482.547L1128.61 481.614L1143.55 477.587L1145.7 478.832L1138.82 487.51L1137.18 486.566Z" fill="#0F0F0F" fill-opacity="0.87513"/>
<path d="M1132.25 492.964L1133.41 492.292L1146.56 499.885L1145.41 500.557L1132.25 492.964Z" fill="#0F0F0F" fill-opacity="0.87513"/>
<path d="M1145.31 500.561L1146.47 499.89L1159.62 507.482L1158.46 508.153L1145.31 500.561Z" fill="#0F0F0F" fill-opacity="0.87513"/>
<path d="M1158.37 508.026L1159.53 507.354L1172.68 514.945L1171.52 515.617L1158.37 508.026Z" fill="#0F0F0F" fill-opacity="0.87513"/>
<path d="M1175.16 514.957L1201.99 509.473L1203.88 510.564L1177.09 516.073L1175.16 514.957Z" fill="#0F0F0F" fill-opacity="0.87513"/>
<path d="M1200.74 535.35L1223.74 522.004L1225.5 523.021L1202.51 536.368L1200.74 535.35Z" fill="#0F0F0F" fill-opacity="0.87513"/>
<path d="M1210.6 538.149L1211.76 537.478L1224.9 545.065L1223.75 545.736L1210.6 538.149Z" fill="#0F0F0F" fill-opacity="0.87513"/>
<path d="M1223.66 545.747L1224.82 545.076L1237.96 552.662L1236.8 553.333L1223.66 545.747Z" fill="#0F0F0F" fill-opacity="0.87513"/>
<path d="M1236.72 553.211L1237.88 552.54L1251.02 560.125L1249.86 560.796L1236.72 553.211Z" fill="#0F0F0F" fill-opacity="0.87513"/>
<path d="M1249.65 560.809L1250.8 560.138L1263.94 567.722L1262.78 568.393L1249.65 560.809Z" fill="#0F0F0F" fill-opacity="0.87513"/>
<path d="M1262.71 568.273L1263.86 567.602L1277 575.185L1275.84 575.856L1262.71 568.273Z" fill="#0F0F0F" fill-opacity="0.87513"/>
<path d="M1279.5 575.204L1306.32 569.727L1308.21 570.817L1281.43 576.319L1279.5 575.204Z" fill="#0F0F0F" fill-opacity="0.87513"/>
<path d="M1318.14 603.062L1341.13 589.733L1342.89 590.75L1319.9 604.079L1318.14 603.062Z" fill="#0F0F0F" fill-opacity="0.87513"/>
<path d="M930.106 410.056L939.516 394.496L941.411 395.59L932.044 411.174L930.106 410.056Z" fill="#0F0F0F" fill-opacity="0.87513"/>
<path d="M1274.03 608.527L1300.85 603.053L1302.74 604.143L1275.96 609.641L1274.03 608.527Z" fill="#0F0F0F" fill-opacity="0.87513"/>
</svg>
