<svg width="400" height="400" viewBox="0 0 400 400" fill="none" xmlns="http://www.w3.org/2000/svg">
<rect x="50" y="50" width="300" height="300" rx="42" fill="white"/>
<path d="M96.625 155.727H126.114L146.398 205.159H147.42L167.705 155.727H197.193V243H174.011V192.545H173.33L153.898 242.318H139.92L120.489 192.205H119.807V243H96.625V155.727ZM208.422 243V155.727H232.115V223.909H267.399V243H208.422ZM290.102 244.364C286.806 244.364 283.979 243.213 281.621 240.912C279.292 238.582 278.141 235.756 278.17 232.432C278.141 229.193 279.292 226.423 281.621 224.122C283.979 221.821 286.806 220.67 290.102 220.67C293.227 220.67 295.982 221.821 298.369 224.122C300.783 226.423 302.005 229.193 302.033 232.432C302.005 234.648 301.423 236.665 300.286 238.483C299.178 240.273 297.729 241.707 295.94 242.787C294.15 243.838 292.204 244.364 290.102 244.364Z" fill="black"/>
</svg>
