<svg width="300" height="300" viewBox="0 0 300 300" fill="none" xmlns="http://www.w3.org/2000/svg">
<path fill-rule="evenodd" clip-rule="evenodd" d="M42 0C18.804 0 0 18.804 0 42V258C0 281.196 18.804 300 42 300H258C281.196 300 300 281.196 300 258V42C300 18.804 281.196 0 258 0H42ZM76.1136 105.727H46.625V193H69.8068V142.205H70.4886L89.9205 192.318H103.898L123.33 142.545H124.011V193H147.193V105.727H117.705L97.4205 155.159H96.3977L76.1136 105.727ZM158.422 105.727V193H217.399V173.909H182.115V105.727H158.422ZM231.621 190.912C233.979 193.213 236.806 194.364 240.102 194.364C242.204 194.364 244.15 193.838 245.94 192.787C247.729 191.707 249.178 190.273 250.286 188.483C251.423 186.665 252.005 184.648 252.033 182.432C252.005 179.193 250.783 176.423 248.369 174.122C245.982 171.821 243.227 170.67 240.102 170.67C236.806 170.67 233.979 171.821 231.621 174.122C229.292 176.423 228.141 179.193 228.17 182.432C228.141 185.756 229.292 188.582 231.621 190.912Z" fill="white"/>
</svg>
