<svg width="595" height="510" viewBox="0 0 595 510" fill="none" xmlns="http://www.w3.org/2000/svg">
<g filter="url(#filter0_d_24_138)">
<rect width="157.563" height="157.563" transform="matrix(0.886213 -0.463278 0.963168 0.2689 165.063 359.422)" fill="#E2E2E2"/>
<path d="M173.111 436L165.063 359.422L316.823 401.791L324.872 478.369L173.111 436Z" fill="#CDCDCD"/>
<path d="M464.506 405.373L456.458 328.795L316.823 401.791L324.871 478.369L464.506 405.373Z" fill="#FCFCFC"/>
<path d="M291.888 306.964L299.335 303.078L302.803 304.043L295.356 307.929L291.888 306.964ZM295.354 307.928L302.801 304.043L306.269 305.008L298.822 308.894L295.354 307.928ZM301.23 309.564L300.779 309.438L304.71 307.387L302.525 306.779L302.94 306.563L305.576 307.296L301.23 309.564ZM300.328 309.313L299.878 309.187L302.979 307.569L301.696 307.212L302.111 306.996L303.845 307.478L300.328 309.313ZM323.081 315.646L330.528 311.76L333.997 312.726L326.549 316.611L323.081 315.646ZM326.547 316.611L333.994 312.725L337.462 313.69L330.015 317.576L326.547 316.611ZM330.013 317.575L337.46 313.69L340.928 314.655L333.481 318.541L330.013 317.575ZM333.479 318.54L340.926 314.654L344.394 315.62L336.947 319.505L333.479 318.54ZM336.945 319.505L344.392 315.619L347.86 316.584L340.413 320.47L336.945 319.505ZM342.821 321.14L342.37 321.015L346.301 318.964L344.116 318.355L344.531 318.139L347.167 318.873L342.821 321.14ZM341.919 320.889L341.468 320.764L344.57 319.146L343.286 318.788L343.701 318.572L345.435 319.055L341.919 320.889ZM347.342 322.399L354.79 318.513L358.258 319.478L350.811 323.364L347.342 322.399ZM350.808 323.363L358.256 319.478L361.724 320.443L354.277 324.329L350.808 323.363ZM354.274 324.328L361.722 320.442L365.19 321.408L357.742 325.293L354.274 324.328ZM357.74 325.293L365.187 321.407L368.656 322.372L361.208 326.258L357.74 325.293ZM361.206 326.257L368.653 322.372L372.122 323.337L364.674 327.223L361.206 326.257ZM364.672 327.222L372.119 323.336L375.587 324.302L368.14 328.187L364.672 327.222ZM368.138 328.187L375.585 324.301L379.053 325.266L371.606 329.152L368.138 328.187ZM374.014 329.822L373.563 329.697L377.494 327.646L375.309 327.038L375.724 326.821L378.36 327.555L374.014 329.822ZM373.112 329.571L372.662 329.446L375.763 327.828L374.48 327.471L374.895 327.254L376.629 327.737L373.112 329.571ZM375.07 330.116L382.517 326.231L385.985 327.196L378.538 331.082L375.07 330.116ZM378.536 331.081L385.983 327.195L389.451 328.161L382.004 332.046L378.536 331.081ZM384.412 332.716L383.961 332.591L387.892 330.54L385.707 329.932L386.122 329.715L388.758 330.449L384.412 332.716ZM383.51 332.465L383.059 332.34L386.161 330.722L384.877 330.365L385.292 330.148L387.026 330.631L383.51 332.465ZM395.865 335.904L403.312 332.019L406.781 332.984L399.333 336.87L395.865 335.904ZM399.331 336.869L406.778 332.983L410.246 333.949L402.799 337.834L399.331 336.869ZM405.207 338.505L404.756 338.379L408.688 336.328L406.503 335.72L406.918 335.503L409.553 336.237L405.207 338.505ZM404.306 338.254L403.855 338.128L406.956 336.51L405.673 336.153L406.088 335.936L407.822 336.419L404.306 338.254ZM284.795 310.664L292.243 306.779L295.711 307.744L288.264 311.63L284.795 310.664ZM288.261 311.629L295.708 307.743L299.177 308.709L291.729 312.594L288.261 311.629ZM293.687 313.139L301.134 309.253L301.585 309.379L294.138 313.265L293.687 313.139ZM292.785 312.888L300.232 309.002L300.683 309.128L293.236 313.014L292.785 312.888ZM312.523 318.382L319.97 314.496L323.438 315.461L315.991 319.347L312.523 318.382ZM315.989 319.347L323.436 315.461L326.904 316.426L319.457 320.312L315.989 319.347ZM327.079 319.288L324.894 318.68L320.963 320.731L320.512 320.606L324.858 318.338L327.494 319.072L327.079 319.288ZM326.249 319.721L324.966 319.364L321.865 320.982L321.414 320.857L324.93 319.022L326.664 319.505L326.249 319.721ZM326.626 319.162L327.041 318.946L330.96 320.036L330.545 320.253L326.626 319.162ZM325.796 319.595L326.211 319.379L330.13 320.469L329.715 320.686L325.796 319.595ZM330.092 320.127L330.507 319.91L334.426 321.001L334.011 321.218L330.092 320.127ZM329.262 320.56L329.677 320.343L333.596 321.434L333.181 321.651L329.262 320.56ZM329.852 323.205L337.299 319.32L340.768 320.285L333.32 324.171L329.852 323.205ZM333.318 324.17L340.765 320.284L344.233 321.25L336.786 325.135L333.318 324.17ZM339.194 325.806L338.743 325.68L342.675 323.629L340.49 323.021L340.905 322.804L343.54 323.538L339.194 325.806ZM338.293 325.555L337.842 325.429L340.943 323.811L339.66 323.454L340.075 323.237L341.809 323.72L338.293 325.555ZM346.14 324.594L349.657 322.759L350.107 322.885L347.006 324.503L348.289 324.86L347.875 325.076L346.14 324.594ZM344.409 324.776L348.755 322.508L349.206 322.634L345.275 324.685L347.46 325.293L347.045 325.509L344.409 324.776ZM347.421 324.95L347.836 324.734L351.755 325.825L351.34 326.041L347.421 324.95ZM346.592 325.383L347.006 325.167L350.926 326.257L350.511 326.474L346.592 325.383ZM350.887 325.915L351.302 325.698L355.221 326.789L354.806 327.006L350.887 325.915ZM350.057 326.348L350.472 326.131L354.391 327.222L353.977 327.439L350.057 326.348ZM350.648 328.993L358.095 325.108L361.563 326.073L354.116 329.959L350.648 328.993ZM354.113 329.958L361.561 326.072L365.029 327.038L357.582 330.923L354.113 329.958ZM357.579 330.923L365.027 327.037L368.495 328.002L361.048 331.888L357.579 330.923ZM368.67 330.864L366.485 330.256L362.554 332.307L362.103 332.182L366.449 329.914L369.085 330.648L368.67 330.864ZM367.84 331.297L366.557 330.94L363.456 332.558L363.005 332.433L366.521 330.598L368.255 331.081L367.84 331.297ZM369.951 331.221L368.217 330.738L368.632 330.522L369.915 330.879L373.016 329.261L373.467 329.386L369.951 331.221ZM370.023 331.905L367.387 331.171L367.802 330.955L369.987 331.563L373.918 329.512L374.369 329.637L370.023 331.905ZM373.868 332.311L377.384 330.477L377.835 330.602L374.733 332.22L376.017 332.577L375.602 332.794L373.868 332.311ZM372.136 332.493L376.482 330.226L376.933 330.351L373.002 332.402L375.187 333.01L374.772 333.227L372.136 332.493ZM371.443 334.782L378.89 330.896L382.358 331.861L374.911 335.747L371.443 334.782ZM374.909 335.746L382.356 331.861L385.824 332.826L378.377 336.712L374.909 335.746ZM380.785 337.382L380.334 337.256L384.265 335.205L382.08 334.597L382.495 334.381L385.131 335.114L380.785 337.382ZM379.883 337.131L379.433 337.005L382.534 335.387L381.251 335.03L381.666 334.814L383.4 335.296L379.883 337.131ZM385.307 338.64L392.754 334.755L396.222 335.72L388.775 339.606L385.307 338.64ZM388.773 339.605L396.22 335.719L399.688 336.685L392.241 340.57L388.773 339.605ZM399.863 339.547L397.678 338.938L393.747 340.99L393.296 340.864L397.642 338.596L400.278 339.33L399.863 339.547ZM399.033 339.98L397.75 339.622L394.649 341.241L394.198 341.115L397.714 339.28L399.448 339.763L399.033 339.98ZM401.144 339.903L399.41 339.421L399.825 339.204L401.108 339.561L404.209 337.943L404.66 338.069L401.144 339.903ZM401.216 340.587L398.58 339.853L398.995 339.637L401.18 340.245L405.111 338.194L405.562 338.32L401.216 340.587ZM277.703 314.365L285.15 310.479L288.618 311.445L281.171 315.33L277.703 314.365ZM281.169 315.33L288.616 311.444L292.084 312.409L284.637 316.295L281.169 315.33ZM286.594 316.84L294.041 312.954L294.492 313.08L287.045 316.965L286.594 316.84ZM285.692 316.589L293.14 312.703L293.59 312.829L286.143 316.714L285.692 316.589ZM305.43 322.082L312.877 318.197L316.345 319.162L308.898 323.048L305.43 322.082ZM308.896 323.047L316.343 319.161L319.811 320.127L312.364 324.012L308.896 323.047ZM312.362 324.012L319.809 320.126L323.277 321.091L315.83 324.977L312.362 324.012ZM315.828 324.977L323.275 321.091L326.743 322.056L319.296 325.942L315.828 324.977ZM319.294 325.941L326.741 322.056L330.209 323.021L322.762 326.907L319.294 325.941ZM322.76 326.906L330.207 323.02L333.675 323.986L326.228 327.871L322.76 326.906ZM326.225 327.871L333.673 323.985L337.141 324.95L329.694 328.836L326.225 327.871ZM331.651 329.381L339.098 325.495L339.549 325.621L332.102 329.506L331.651 329.381ZM330.749 329.13L338.196 325.244L338.647 325.37L331.2 329.255L330.749 329.13ZM340.089 331.729L347.536 327.844L351.004 328.809L343.557 332.695L340.089 331.729ZM343.555 332.694L351.002 328.808L354.47 329.774L347.023 333.659L343.555 332.694ZM347.021 333.659L354.468 329.773L357.936 330.738L350.489 334.624L347.021 333.659ZM358.111 333.6L355.927 332.992L351.995 335.043L351.545 334.918L355.891 332.65L358.526 333.384L358.111 333.6ZM357.282 334.033L355.998 333.676L352.897 335.294L352.446 335.169L355.962 333.334L357.697 333.817L357.282 334.033ZM359.392 333.957L357.658 333.474L358.073 333.258L359.356 333.615L362.458 331.997L362.909 332.122L359.392 333.957ZM359.464 334.641L356.828 333.907L357.243 333.691L359.428 334.299L363.359 332.248L363.81 332.373L359.464 334.641ZM370.241 336.976L373.757 335.142L374.208 335.267L371.107 336.885L372.39 337.243L371.975 337.459L370.241 336.976ZM368.509 337.158L372.855 334.891L373.306 335.016L369.375 337.067L371.56 337.676L371.145 337.892L368.509 337.158ZM367.816 339.447L375.264 335.561L378.732 336.526L371.284 340.412L367.816 339.447ZM371.282 340.412L378.729 336.526L382.198 337.491L374.75 341.377L371.282 340.412ZM374.748 341.376L382.195 337.491L385.664 338.456L378.216 342.342L374.748 341.376ZM378.214 342.341L385.661 338.455L389.129 339.421L381.682 343.306L378.214 342.341ZM389.305 342.283L387.12 341.674L383.189 343.726L382.738 343.6L387.084 341.332L389.72 342.066L389.305 342.283ZM388.475 342.716L387.192 342.358L384.09 343.977L383.639 343.851L387.156 342.016L388.89 342.499L388.475 342.716ZM390.586 342.639L388.851 342.156L389.266 341.94L390.55 342.297L393.651 340.679L394.102 340.805L390.586 342.639ZM390.657 343.323L388.022 342.589L388.437 342.373L390.622 342.981L394.553 340.93L395.003 341.056L390.657 343.323ZM270.61 318.066L278.057 314.18L281.526 315.145L274.078 319.031L270.61 318.066ZM274.076 319.03L281.523 315.145L284.991 316.11L277.544 319.996L274.076 319.03ZM279.501 320.54L286.949 316.655L287.4 316.78L279.952 320.666L279.501 320.54ZM278.6 320.289L286.047 316.404L286.498 316.529L279.051 320.415L278.6 320.289ZM298.337 325.783L305.785 321.897L309.253 322.863L301.806 326.748L298.337 325.783ZM301.803 326.748L309.251 322.862L312.719 323.827L305.271 327.713L301.803 326.748ZM312.894 326.689L310.709 326.081L306.778 328.132L306.327 328.007L310.673 325.739L313.309 326.473L312.894 326.689ZM312.064 327.122L310.781 326.765L307.68 328.383L307.229 328.258L310.745 326.423L312.479 326.906L312.064 327.122ZM312.441 326.563L312.856 326.347L316.775 327.438L316.36 327.654L312.441 326.563ZM311.611 326.996L312.026 326.78L315.945 327.871L315.53 328.087L311.611 326.996ZM315.907 327.528L316.322 327.312L320.241 328.402L319.826 328.619L315.907 327.528ZM315.077 327.961L315.492 327.745L319.411 328.835L318.996 329.052L315.077 327.961ZM315.667 330.607L323.114 326.721L326.582 327.686L319.135 331.572L315.667 330.607ZM319.133 331.571L326.58 327.686L330.048 328.651L322.601 332.537L319.133 331.571ZM324.558 333.081L332.005 329.196L332.456 329.321L325.009 333.207L324.558 333.081ZM323.657 332.83L331.104 328.945L331.555 329.07L324.107 332.956L323.657 332.83ZM329.531 334.465L336.978 330.58L340.446 331.545L332.999 335.431L329.531 334.465ZM332.996 335.43L340.444 331.544L343.912 332.51L336.465 336.395L332.996 335.43ZM336.462 336.395L343.91 332.509L347.378 333.474L339.931 337.36L336.462 336.395ZM347.553 336.336L345.368 335.728L341.437 337.779L340.986 337.654L345.332 335.386L347.968 336.12L347.553 336.336ZM346.723 336.769L345.44 336.412L342.339 338.03L341.888 337.905L345.404 336.07L347.138 336.553L346.723 336.769ZM348.834 336.693L347.1 336.21L347.515 335.994L348.798 336.351L351.899 334.733L352.35 334.858L348.834 336.693ZM348.906 337.377L346.27 336.643L346.685 336.427L348.87 337.035L352.801 334.984L353.252 335.109L348.906 337.377ZM366.614 341.642L370.13 339.807L370.581 339.933L367.48 341.551L368.763 341.908L368.348 342.124L366.614 341.642ZM364.883 341.824L369.229 339.556L369.68 339.682L365.749 341.733L367.933 342.341L367.519 342.557L364.883 341.824ZM364.19 344.112L371.637 340.227L375.105 341.192L367.658 345.078L364.19 344.112ZM367.656 345.077L375.103 341.191L378.571 342.157L371.124 346.042L367.656 345.077ZM378.746 345.019L376.561 344.41L372.63 346.461L372.179 346.336L376.525 344.068L379.161 344.802L378.746 345.019ZM377.916 345.452L376.633 345.094L373.532 346.712L373.081 346.587L376.597 344.752L378.331 345.235L377.916 345.452ZM380.027 345.375L378.293 344.892L378.708 344.676L379.991 345.033L383.092 343.415L383.543 343.54L380.027 345.375ZM380.099 346.059L377.463 345.325L377.878 345.109L380.063 345.717L383.994 343.666L384.445 343.791L380.099 346.059ZM263.518 321.766L270.965 317.881L274.433 318.846L266.986 322.732L263.518 321.766ZM266.983 322.731L274.431 318.845L277.899 319.811L270.452 323.696L266.983 322.731ZM270.449 323.696L277.897 319.81L281.365 320.775L273.917 324.661L270.449 323.696ZM273.915 324.66L281.362 320.775L284.831 321.74L277.383 325.626L273.915 324.66ZM277.381 325.625L284.828 321.739L288.297 322.705L280.849 326.59L277.381 325.625ZM280.847 326.59L288.294 322.704L291.762 323.669L284.315 327.555L280.847 326.59ZM284.313 327.554L291.76 323.669L295.228 324.634L287.781 328.52L284.313 327.554ZM290.189 329.19L289.738 329.065L293.669 327.013L291.485 326.405L291.899 326.189L294.535 326.922L290.189 329.19ZM289.288 328.939L288.837 328.814L291.938 327.195L290.655 326.838L291.07 326.622L292.804 327.104L289.288 328.939ZM291.245 329.484L298.692 325.598L302.16 326.563L294.713 330.449L291.245 329.484ZM294.711 330.448L302.158 326.563L305.626 327.528L298.179 331.414L294.711 330.448ZM300.136 331.959L307.583 328.073L308.034 328.198L300.587 332.084L300.136 331.959ZM299.234 331.708L306.682 327.822L307.132 327.947L299.685 331.833L299.234 331.708ZM308.574 334.307L316.022 330.422L319.49 331.387L312.042 335.273L308.574 334.307ZM312.04 335.272L319.487 331.386L322.956 332.352L315.508 336.237L312.04 335.272ZM317.466 336.782L324.913 332.896L325.364 333.022L317.916 336.908L317.466 336.782ZM316.564 336.531L324.011 332.645L324.462 332.771L317.015 336.657L316.564 336.531ZM318.972 337.201L326.419 333.316L329.887 334.281L322.44 338.167L318.972 337.201ZM322.438 338.166L329.885 334.28L333.353 335.246L325.906 339.131L322.438 338.166ZM325.904 339.131L333.351 335.245L336.819 336.21L329.372 340.096L325.904 339.131ZM329.37 340.095L336.817 336.21L340.285 337.175L332.838 341.061L329.37 340.095ZM332.836 341.06L340.283 337.174L343.751 338.14L336.304 342.025L332.836 341.06ZM336.302 342.025L343.749 338.139L347.217 339.104L339.77 342.99L336.302 342.025ZM339.767 342.989L347.215 339.104L350.683 340.069L343.236 343.955L339.767 342.989ZM345.644 344.625L345.193 344.5L349.124 342.448L346.939 341.84L347.354 341.624L349.99 342.357L345.644 344.625ZM344.742 344.374L344.291 344.249L347.392 342.63L346.109 342.273L346.524 342.057L348.258 342.539L344.742 344.374ZM357.097 347.813L364.544 343.927L368.012 344.892L360.565 348.778L357.097 347.813ZM360.563 348.778L368.01 344.892L371.478 345.857L364.031 349.743L360.563 348.778ZM365.988 350.288L373.436 346.402L373.886 346.527L366.439 350.413L365.988 350.288ZM365.087 350.037L372.534 346.151L372.985 346.276L365.537 350.162L365.087 350.037ZM262.315 323.961L265.832 322.127L266.283 322.252L263.181 323.87L264.464 324.227L264.05 324.444L262.315 323.961ZM260.584 324.143L264.93 321.876L265.381 322.001L261.45 324.052L263.635 324.66L263.22 324.877L260.584 324.143ZM263.596 324.318L264.011 324.101L267.93 325.192L267.515 325.409L263.596 324.318ZM262.767 324.751L263.182 324.534L267.101 325.625L266.686 325.842L262.767 324.751ZM266.12 326.463L269.037 324.479L269.581 324.63L267.666 325.851C267.582 325.904 267.503 325.953 267.429 325.997C267.363 326.041 267.291 326.087 267.213 326.133C267.14 326.178 267.046 326.231 266.933 326.293L266.95 326.298C267.09 326.244 267.211 326.198 267.312 326.161C267.416 326.122 267.517 326.084 267.614 326.049C267.712 326.014 267.82 325.974 267.938 325.931L269.606 325.356L270.069 325.485L269.129 326.262C269.06 326.32 268.997 326.371 268.938 326.417C268.879 326.463 268.815 326.511 268.745 326.56C268.683 326.607 268.605 326.665 268.511 326.733L268.534 326.739C268.659 326.68 268.764 326.63 268.849 326.589C268.942 326.546 269.031 326.506 269.117 326.467C269.203 326.429 269.299 326.386 269.407 326.339L271.87 325.267L272.39 325.412L268.34 327.081L267.739 326.914L268.773 326.078C268.853 326.015 268.932 325.953 269.012 325.893C269.092 325.833 269.175 325.773 269.262 325.712L269.245 325.707C269.119 325.757 268.995 325.806 268.873 325.855C268.751 325.903 268.621 325.951 268.484 325.997L266.71 326.627L266.12 326.463ZM269.586 327.428L272.503 325.443L273.046 325.595L271.132 326.815C271.048 326.869 270.969 326.917 270.895 326.962C270.829 327.006 270.757 327.051 270.679 327.098C270.606 327.143 270.512 327.196 270.399 327.258L270.416 327.263C270.556 327.208 270.677 327.162 270.778 327.125C270.882 327.086 270.983 327.049 271.08 327.014C271.177 326.978 271.286 326.939 271.404 326.895L273.072 326.321L273.535 326.45L272.595 327.227C272.526 327.284 272.463 327.336 272.404 327.382C272.345 327.428 272.281 327.476 272.211 327.524C272.149 327.572 272.071 327.63 271.977 327.697L272 327.704C272.125 327.645 272.23 327.595 272.315 327.553C272.408 327.511 272.497 327.471 272.583 327.432C272.669 327.393 272.765 327.351 272.873 327.304L275.335 326.232L275.856 326.377L271.806 328.046L271.205 327.878L272.239 327.043C272.319 326.98 272.398 326.918 272.478 326.858C272.558 326.798 272.641 326.737 272.728 326.676L272.711 326.672C272.585 326.722 272.461 326.771 272.339 326.819C272.217 326.868 272.087 326.915 271.95 326.962L270.176 327.592L269.586 327.428ZM273.994 327.212L274.409 326.995L278.328 328.086L277.913 328.303L273.994 327.212ZM273.164 327.645L273.579 327.428L277.498 328.519L277.083 328.736L273.164 327.645ZM277.46 328.177L277.875 327.96L281.794 329.051L281.379 329.267L277.46 328.177ZM276.63 328.61L277.045 328.393L280.964 329.484L280.549 329.7L276.63 328.61ZM280.926 329.141L281.341 328.925L285.26 330.016L284.845 330.232L280.926 329.141ZM280.096 329.574L280.511 329.358L284.43 330.449L284.015 330.665L280.096 329.574ZM286.126 330.589L284.392 330.106L284.807 329.889L286.09 330.247L289.191 328.628L289.642 328.754L286.126 330.589ZM286.198 331.273L283.562 330.539L283.977 330.322L286.162 330.931L290.093 328.879L290.544 329.005L286.198 331.273ZM290.043 331.679L293.559 329.844L294.01 329.97L290.909 331.588L292.192 331.945L291.777 332.161L290.043 331.679ZM288.311 331.861L292.657 329.593L293.108 329.719L289.177 331.77L291.362 332.378L290.947 332.594L288.311 331.861ZM291.324 332.035L291.739 331.819L295.658 332.91L295.243 333.126L291.324 332.035ZM290.494 332.468L290.909 332.252L294.828 333.343L294.413 333.559L290.494 332.468ZM296.524 333.483L294.79 333L295.205 332.784L296.488 333.141L299.589 331.523L300.04 331.648L296.524 333.483ZM296.596 334.167L293.96 333.433L294.375 333.216L296.56 333.825L300.491 331.774L300.942 331.899L296.596 334.167ZM307.372 336.502L310.888 334.668L311.339 334.793L308.238 336.411L309.521 336.768L309.106 336.985L307.372 336.502ZM305.641 336.684L309.987 334.417L310.438 334.542L306.506 336.593L308.691 337.201L308.277 337.418L305.641 336.684ZM308.653 336.859L309.068 336.642L312.987 337.733L312.572 337.95L308.653 336.859ZM307.823 337.292L308.238 337.075L312.157 338.166L311.742 338.383L307.823 337.292ZM313.853 338.306L312.119 337.823L312.534 337.607L313.817 337.964L316.919 336.346L317.369 336.471L313.853 338.306ZM313.925 338.99L311.289 338.256L311.704 338.04L313.889 338.648L317.82 336.597L318.271 336.722L313.925 338.99ZM317.77 339.396L321.286 337.562L321.737 337.687L318.636 339.305L319.919 339.662L319.504 339.879L317.77 339.396ZM316.038 339.578L320.384 337.311L320.835 337.436L316.904 339.487L319.089 340.095L318.674 340.312L316.038 339.578ZM319.051 339.753L319.466 339.536L323.385 340.627L322.97 340.844L319.051 339.753ZM318.221 340.186L318.636 339.969L322.555 341.06L322.14 341.277L318.221 340.186ZM322.517 340.717L322.932 340.501L326.851 341.592L326.436 341.808L322.517 340.717ZM321.687 341.15L322.102 340.934L326.021 342.025L325.606 342.241L321.687 341.15ZM325.983 341.682L326.398 341.466L330.317 342.556L329.902 342.773L325.983 341.682ZM325.153 342.115L325.568 341.899L329.487 342.989L329.072 343.206L325.153 342.115ZM329.449 342.647L329.864 342.43L333.783 343.521L333.368 343.738L329.449 342.647ZM328.619 343.08L329.034 342.863L332.953 343.954L332.538 344.171L328.619 343.08ZM332.915 343.612L333.329 343.395L337.249 344.486L336.834 344.702L332.915 343.612ZM332.085 344.045L332.5 343.828L336.419 344.919L336.004 345.135L332.085 344.045ZM336.38 344.576L336.795 344.36L340.714 345.451L340.3 345.667L336.38 344.576ZM335.551 345.009L335.966 344.793L339.885 345.884L339.47 346.1L335.551 345.009ZM341.58 346.024L339.846 345.541L340.261 345.324L341.545 345.682L344.646 344.063L345.097 344.189L341.58 346.024ZM341.652 346.708L339.017 345.974L339.431 345.757L341.616 346.366L345.547 344.314L345.998 344.44L341.652 346.708ZM355.895 350.008L359.411 348.173L359.862 348.299L356.761 349.917L358.044 350.274L357.629 350.49L355.895 350.008ZM354.163 350.19L358.509 347.922L358.96 348.048L355.029 350.099L357.214 350.707L356.799 350.923L354.163 350.19ZM356.234 351.545L359.151 349.561L359.694 349.712L357.78 350.933C357.696 350.986 357.617 351.035 357.543 351.079C357.476 351.123 357.404 351.169 357.327 351.215C357.253 351.26 357.16 351.313 357.047 351.375L357.064 351.38C357.204 351.326 357.324 351.28 357.425 351.242C357.53 351.203 357.631 351.166 357.728 351.131C357.825 351.096 357.933 351.056 358.052 351.013L359.72 350.438L360.182 350.567L359.243 351.344C359.174 351.401 359.11 351.453 359.052 351.499C358.993 351.545 358.929 351.593 358.859 351.641C358.797 351.689 358.718 351.747 358.625 351.815L358.648 351.821C358.772 351.762 358.877 351.712 358.963 351.67C359.056 351.628 359.145 351.588 359.231 351.549C359.316 351.511 359.413 351.468 359.52 351.421L361.983 350.349L362.503 350.494L358.454 352.163L357.852 351.995L358.887 351.16C358.966 351.097 359.046 351.035 359.125 350.975C359.205 350.915 359.289 350.855 359.376 350.794L359.358 350.789C359.233 350.839 359.109 350.888 358.987 350.936C358.865 350.985 358.735 351.032 358.598 351.079L356.823 351.709L356.234 351.545ZM362.376 351.812L360.642 351.329L361.057 351.113L362.34 351.47L365.441 349.852L365.892 349.977L362.376 351.812ZM362.448 352.496L359.812 351.762L360.227 351.546L362.412 352.154L366.343 350.103L366.794 350.228L362.448 352.496ZM258.582 331.104L263.902 328.328L264.329 328.447L259.01 331.223L258.582 331.104ZM262.048 332.068L267.368 329.293L267.795 329.412L262.476 332.188L262.048 332.068ZM289.187 339.154L289.565 338.957L292.339 339.729L291.962 339.926L289.187 339.154ZM292.653 340.119L293.031 339.922L295.805 340.694L295.428 340.891L292.653 340.119ZM296.119 341.083L296.497 340.886L299.271 341.659L298.893 341.856L296.119 341.083ZM299.585 342.048L299.963 341.851L302.737 342.623L302.359 342.82L299.585 342.048ZM303.17 343.131L309.694 341.244L310.121 341.363L303.598 343.25L303.17 343.131ZM306.636 344.096L313.16 342.209L313.587 342.328L307.063 344.215L306.636 344.096ZM310.102 345.06L316.625 343.173L317.053 343.293L310.529 345.18L310.102 345.06ZM313.448 345.907L313.826 345.71L316.601 346.482L316.223 346.679L313.448 345.907ZM316.914 346.872L317.292 346.675L320.067 347.447L319.689 347.644L316.914 346.872ZM348.696 356.186L354.015 353.41L354.443 353.529L349.124 356.305L348.696 356.186ZM352.162 357.15L357.481 354.375L357.909 354.494L352.589 357.269L352.162 357.15ZM248.024 333.84L253.343 331.064L253.771 331.183L248.451 333.959L248.024 333.84ZM254.956 335.769L260.275 332.994L260.703 333.113L255.383 335.888L254.956 335.769ZM278.748 342.008L285.272 340.121L285.699 340.24L279.175 342.127L278.748 342.008ZM285.56 343.819L285.938 343.622L288.713 344.395L288.335 344.592L285.56 343.819ZM289.026 344.784L289.404 344.587L292.179 345.359L291.801 345.556L289.026 344.784ZM292.492 345.749L292.87 345.552L295.644 346.324L295.267 346.521L292.492 345.749ZM295.958 346.713L296.336 346.516L299.11 347.289L298.733 347.486L295.958 346.713ZM299.424 347.678L299.802 347.481L302.576 348.253L302.199 348.45L299.424 347.678ZM302.89 348.643L303.268 348.446L306.042 349.218L305.664 349.415L302.89 348.643ZM306.356 349.608L306.734 349.41L309.508 350.183L309.13 350.38L306.356 349.608ZM315.303 352.183L318.035 349.24L318.462 349.36L315.73 352.302L315.303 352.183ZM341.603 359.886L346.923 357.111L347.35 357.23L342.031 360.005L341.603 359.886ZM348.535 361.816L353.854 359.04L354.282 359.159L348.963 361.935L348.535 361.816ZM240.931 337.54L246.251 334.765L246.678 334.884L241.359 337.659L240.931 337.54ZM247.863 339.47L253.182 336.694L253.61 336.813L248.291 339.589L247.863 339.47ZM268.189 344.744L274.713 342.857L275.141 342.976L268.617 344.863L268.189 344.744ZM275.121 346.674L281.645 344.787L282.073 344.906L275.549 346.793L275.121 346.674ZM278.468 347.52L278.845 347.323L281.62 348.095L281.242 348.292L278.468 347.52ZM299.263 353.308L299.641 353.111L302.415 353.883L302.038 354.08L299.263 353.308ZM304.744 354.919L307.476 351.976L307.904 352.096L305.172 355.038L304.744 354.919ZM311.676 356.848L314.408 353.906L314.836 354.025L312.104 356.967L311.676 356.848ZM334.511 363.587L339.83 360.811L340.258 360.931L334.938 363.706L334.511 363.587ZM341.442 365.516L346.762 362.741L347.19 362.86L341.87 365.635L341.442 365.516ZM233.838 341.241L239.158 338.466L239.586 338.585L234.266 341.36L233.838 341.241ZM240.77 343.17L246.09 340.395L246.517 340.514L241.198 343.289L240.77 343.17ZM261.566 348.959L266.885 346.183L267.313 346.302L261.993 349.078L261.566 348.959ZM267.909 350.256L268.287 350.059L271.061 350.831L270.684 351.028L267.909 350.256ZM273.855 350.042L274.185 349.87L276.67 350.562L276.34 350.734L273.855 350.042ZM275.268 352.457L275.231 352.268C275.918 352.218 276.531 352.127 277.071 351.993C277.614 351.858 278.109 351.673 278.556 351.44C279.003 351.207 279.313 350.971 279.486 350.733C279.659 350.495 279.702 350.244 279.615 349.981L280.098 349.937C280.216 350.2 280.188 350.469 280.015 350.744C279.842 351.019 279.498 351.291 278.984 351.559C278.469 351.828 277.895 352.035 277.259 352.182C276.627 352.326 275.963 352.418 275.268 352.457ZM283.841 354.146C283.594 354.077 283.418 353.985 283.313 353.871C283.211 353.757 283.196 353.63 283.267 353.488C283.342 353.347 283.521 353.203 283.805 353.055C284.096 352.903 284.406 352.792 284.735 352.722C285.068 352.653 285.392 352.62 285.707 352.622C286.025 352.625 286.307 352.661 286.554 352.73C286.801 352.799 286.975 352.89 287.076 353.003C287.182 353.118 287.197 353.245 287.122 353.386C287.051 353.528 286.87 353.675 286.579 353.827C286.296 353.975 285.987 354.083 285.654 354.152C285.325 354.222 285.001 354.256 284.683 354.252C284.368 354.25 284.088 354.214 283.841 354.146ZM284.203 353.957C284.384 354.007 284.583 354.03 284.799 354.025C285.019 354.018 285.24 353.986 285.462 353.929C285.684 353.871 285.893 353.792 286.088 353.69C286.287 353.586 286.424 353.486 286.5 353.387C286.579 353.288 286.592 353.198 286.539 353.117C286.489 353.035 286.373 352.969 286.192 352.919C286.011 352.868 285.811 352.847 285.591 352.854C285.378 352.86 285.157 352.892 284.927 352.95C284.705 353.007 284.495 353.088 284.296 353.191C284.101 353.293 283.966 353.393 283.89 353.491C283.818 353.59 283.805 353.68 283.851 353.761C283.904 353.841 284.022 353.906 284.203 353.957ZM290.669 356.744C290.559 356.481 290.587 356.212 290.753 355.937C290.926 355.662 291.27 355.39 291.784 355.122C292.298 354.854 292.873 354.646 293.508 354.5C294.148 354.354 294.811 354.262 295.499 354.224L295.536 354.413C294.853 354.461 294.24 354.553 293.696 354.688C293.153 354.824 292.658 355.008 292.211 355.241C291.765 355.474 291.455 355.71 291.281 355.948C291.112 356.185 291.069 356.435 291.153 356.7L290.669 356.744ZM294.65 355.831L294.98 355.659L297.466 356.35L297.136 356.522L294.65 355.831ZM295.637 357.974L296.014 357.776L298.789 358.549L298.411 358.746L295.637 357.974ZM303.157 360.535L308.476 357.759L308.904 357.878L303.584 360.654L303.157 360.535ZM327.418 367.288L332.737 364.512L333.165 364.631L327.846 367.407L327.418 367.288ZM334.35 369.217L339.669 366.441L340.097 366.561L334.778 369.336L334.35 369.217ZM226.746 344.942L232.065 342.166L232.493 342.285L227.174 345.061L226.746 344.942ZM238.57 347.85L241.302 344.907L241.73 345.026L238.998 347.969L238.57 347.85ZM240.021 348.169L240.399 347.971L243.173 348.744L242.796 348.941L240.021 348.169ZM243.487 349.133L243.865 348.936L246.639 349.708L246.262 349.905L243.487 349.133ZM246.953 350.098L247.331 349.901L250.105 350.673L249.728 350.87L246.953 350.098ZM250.419 351.063L250.797 350.866L253.571 351.638L253.193 351.835L250.419 351.063ZM254.473 352.659L259.793 349.884L260.22 350.003L254.901 352.778L254.473 352.659ZM262.832 354.603L265.564 351.66L265.991 351.779L263.259 354.722L262.832 354.603ZM264.283 354.921L264.66 354.724L267.435 355.497L267.057 355.694L264.283 354.921ZM267.748 355.886L268.126 355.689L270.901 356.461L270.523 356.658L267.748 355.886ZM271.214 356.851L271.592 356.654L274.367 357.426L273.989 357.623L271.214 356.851ZM277.231 356.721L280.168 355.895L280.584 356.011L279.415 357.329L278.999 357.213L279.554 356.618L279.978 356.17L279.955 356.164L278.964 356.454L277.647 356.837L277.231 356.721ZM278.146 358.78L278.524 358.583L281.298 359.355L280.921 359.552L278.146 358.78ZM281.612 359.745L281.99 359.548L284.764 360.32L284.387 360.517L281.612 359.745ZM285.078 360.709L285.456 360.512L288.23 361.285L287.853 361.482L285.078 360.709ZM288.663 361.792L295.187 359.905L295.615 360.025L289.091 361.911L288.663 361.792ZM296.064 364.235L301.383 361.46L301.811 361.579L296.492 364.355L296.064 364.235ZM298.942 364.568L299.319 364.371L302.094 365.143L301.716 365.34L298.942 364.568ZM302.408 365.533L302.785 365.336L305.56 366.108L305.182 366.305L302.408 365.533ZM305.873 366.498L306.251 366.301L309.026 367.073L308.648 367.27L305.873 366.498ZM309.339 367.462L309.717 367.265L312.492 368.037L312.114 368.235L309.339 367.462ZM312.805 368.427L313.183 368.23L315.957 369.002L315.58 369.199L312.805 368.427ZM316.39 369.51L322.914 367.623L323.342 367.742L316.818 369.629L316.39 369.51ZM327.257 372.918L332.577 370.142L333.004 370.261L327.685 373.037L327.257 372.918ZM224.546 349.621L227.278 346.679L227.706 346.798L224.974 349.74L224.546 349.621ZM316.229 375.14L322.753 373.253L323.181 373.372L316.657 375.259L316.229 375.14Z" fill="#101010" fill-opacity="0.78"/>
</g>
<g filter="url(#filter1_d_24_138)">
<rect width="157.563" height="157.563" transform="matrix(0.929784 -0.368106 0.929784 0.368106 163 219)" fill="#E2E2E2"/>
<path d="M163 296V219L309.5 277V354L163 296Z" fill="#CDCDCD"/>
<path d="M456 296V219L309.5 277V354L456 296Z" fill="#FCFCFC"/>
<path d="M294.614 180.086L302.427 177L305.775 178.323L297.962 181.408L294.614 180.086ZM297.96 181.408L305.773 178.322L309.121 179.644L301.308 182.73L297.96 181.408ZM303.633 183.648L303.198 183.477L307.322 181.848L305.212 181.014L305.648 180.842L308.192 181.848L303.633 183.648ZM302.763 183.305L302.327 183.133L305.581 181.848L304.342 181.358L304.777 181.186L306.451 181.848L302.763 183.305ZM324.729 191.981L332.541 188.895L335.89 190.218L328.077 193.304L324.729 191.981ZM328.075 193.303L335.887 190.217L339.236 191.539L331.423 194.625L328.075 193.303ZM331.421 194.625L339.233 191.539L342.582 192.861L334.769 195.947L331.421 194.625ZM334.767 195.946L342.58 192.86L345.928 194.183L338.115 197.269L334.767 195.946ZM338.113 197.268L345.926 194.182L349.274 195.505L341.461 198.59L338.113 197.268ZM343.786 199.509L343.351 199.337L347.475 197.708L345.365 196.875L345.801 196.703L348.345 197.708L343.786 199.509ZM342.916 199.165L342.48 198.993L345.734 197.708L344.495 197.219L344.93 197.047L346.604 197.708L342.916 199.165ZM348.151 201.233L355.964 198.147L359.312 199.47L351.499 202.556L348.151 201.233ZM351.497 202.555L359.31 199.469L362.658 200.791L354.846 203.877L351.497 202.555ZM354.843 203.876L362.656 200.79L366.004 202.113L358.192 205.199L354.843 203.876ZM358.189 205.198L366.002 202.112L369.35 203.435L361.538 206.521L358.189 205.198ZM361.536 206.52L369.348 203.434L372.696 204.756L364.884 207.842L361.536 206.52ZM364.882 207.841L372.694 204.755L376.043 206.078L368.23 209.164L364.882 207.841ZM368.228 209.163L376.04 206.077L379.389 207.4L371.576 210.486L368.228 209.163ZM373.901 211.404L373.466 211.232L377.59 209.603L375.48 208.77L375.915 208.598L378.46 209.603L373.901 211.404ZM373.03 211.06L372.595 210.888L375.848 209.603L374.61 209.114L375.045 208.942L376.719 209.603L373.03 211.06ZM374.92 211.806L382.732 208.721L386.081 210.043L378.268 213.129L374.92 211.806ZM378.266 213.128L386.079 210.042L389.427 211.365L381.614 214.451L378.266 213.128ZM383.939 215.369L383.504 215.197L387.628 213.568L385.518 212.735L385.954 212.563L388.498 213.568L383.939 215.369ZM383.069 215.025L382.633 214.853L385.887 213.568L384.648 213.079L385.083 212.907L386.757 213.568L383.069 215.025ZM394.996 219.737L402.809 216.651L406.157 217.973L398.345 221.059L394.996 219.737ZM398.342 221.058L406.155 217.972L409.503 219.295L401.691 222.381L398.342 221.058ZM404.016 223.299L403.58 223.127L407.704 221.498L405.595 220.665L406.03 220.493L408.575 221.498L404.016 223.299ZM403.145 222.955L402.71 222.783L405.963 221.498L404.724 221.009L405.16 220.837L406.834 221.498L403.145 222.955ZM287.173 183.025L294.986 179.939L298.334 181.262L290.522 184.347L287.173 183.025ZM290.519 184.347L298.332 181.261L301.68 182.583L293.868 185.669L290.519 184.347ZM295.757 186.416L303.57 183.33L304.005 183.502L296.193 186.587L295.757 186.416ZM294.887 186.072L302.699 182.986L303.135 183.158L295.322 186.244L294.887 186.072ZM313.942 193.598L321.755 190.513L325.103 191.835L317.29 194.921L313.942 193.598ZM317.288 194.92L325.101 191.834L328.449 193.157L320.636 196.243L317.288 194.92ZM328.324 196.021L326.215 195.188L322.091 196.817L321.655 196.645L326.215 194.844L328.759 195.849L328.324 196.021ZM327.453 196.365L326.215 195.876L322.961 197.161L322.526 196.989L326.215 195.532L327.889 196.193L327.453 196.365ZM327.887 195.849L328.322 195.677L332.105 197.171L331.67 197.343L327.887 195.849ZM327.016 196.192L327.451 196.021L331.235 197.515L330.8 197.687L327.016 196.192ZM331.233 197.17L331.668 196.998L335.451 198.493L335.016 198.665L331.233 197.17ZM330.362 197.514L330.797 197.342L334.581 198.837L334.146 199.009L330.362 197.514ZM330.672 200.207L338.485 197.121L341.833 198.444L334.021 201.529L330.672 200.207ZM334.018 201.529L341.831 198.443L345.179 199.765L337.367 202.851L334.018 201.529ZM339.692 203.769L339.256 203.598L343.38 201.969L341.271 201.135L341.706 200.963L344.251 201.969L339.692 203.769ZM338.821 203.426L338.386 203.254L341.639 201.969L340.4 201.479L340.836 201.307L342.51 201.969L338.821 203.426ZM346.726 203.29L350.415 201.833L350.85 202.005L347.597 203.29L348.836 203.78L348.4 203.952L346.726 203.29ZM344.985 203.29L349.544 201.489L349.98 201.661L345.856 203.29L347.965 204.123L347.53 204.295L344.985 203.29ZM347.963 203.779L348.398 203.607L352.182 205.101L351.747 205.273L347.963 203.779ZM347.092 204.123L347.528 203.951L351.311 205.445L350.876 205.617L347.092 204.123ZM351.309 205.1L351.744 204.929L355.528 206.423L355.093 206.595L351.309 205.1ZM350.439 205.444L350.874 205.272L354.657 206.767L354.222 206.939L350.439 205.444ZM350.749 208.137L358.561 205.051L361.91 206.374L354.097 209.46L350.749 208.137ZM354.095 209.459L361.908 206.373L365.256 207.695L357.443 210.781L354.095 209.459ZM357.441 210.78L365.254 207.694L368.602 209.017L360.789 212.103L357.441 210.78ZM368.477 211.882L366.368 211.048L362.244 212.677L361.808 212.505L366.368 210.705L368.912 211.71L368.477 211.882ZM367.606 212.226L366.368 211.736L363.114 213.021L362.679 212.849L366.368 211.392L368.042 212.054L367.606 212.226ZM369.714 212.37L368.04 211.709L368.475 211.537L369.714 212.026L372.967 210.741L373.402 210.913L369.714 212.37ZM369.714 213.058L367.169 212.053L367.604 211.881L369.714 212.714L373.838 211.085L374.273 211.257L369.714 213.058ZM373.495 213.864L377.184 212.407L377.619 212.579L374.366 213.864L375.604 214.353L375.169 214.525L373.495 213.864ZM371.754 213.864L376.313 212.063L376.748 212.235L372.624 213.864L374.734 214.697L374.299 214.869L371.754 213.864ZM370.825 216.067L378.638 212.981L381.986 214.304L374.174 217.39L370.825 216.067ZM374.171 217.389L381.984 214.303L385.332 215.625L377.52 218.711L374.171 217.389ZM379.845 219.63L379.409 219.458L383.533 217.829L381.424 216.996L381.859 216.824L384.404 217.829L379.845 219.63ZM378.974 219.286L378.539 219.114L381.792 217.829L380.553 217.34L380.989 217.168L382.663 217.829L378.974 219.286ZM384.21 221.354L392.022 218.268L395.371 219.591L387.558 222.676L384.21 221.354ZM387.556 222.676L395.368 219.59L398.717 220.912L390.904 223.998L387.556 222.676ZM398.592 223.777L396.482 222.944L392.358 224.573L391.923 224.401L396.482 222.6L399.027 223.605L398.592 223.777ZM397.721 224.121L396.482 223.631L393.229 224.916L392.794 224.745L396.482 223.288L398.156 223.949L397.721 224.121ZM399.828 224.265L398.154 223.604L398.59 223.432L399.828 223.921L403.082 222.636L403.517 222.808L399.828 224.265ZM399.828 224.953L397.284 223.948L397.719 223.776L399.828 224.609L403.952 222.98L404.388 223.152L399.828 224.953ZM279.733 185.964L287.545 182.878L290.894 184.201L283.081 187.286L279.733 185.964ZM283.079 187.286L290.891 184.2L294.24 185.522L286.427 188.608L283.079 187.286ZM288.317 189.355L296.129 186.269L296.565 186.441L288.752 189.526L288.317 189.355ZM287.446 189.011L295.259 185.925L295.694 186.097L287.881 189.183L287.446 189.011ZM306.501 196.537L314.314 193.452L317.662 194.774L309.85 197.86L306.501 196.537ZM309.847 197.859L317.66 194.773L321.008 196.096L313.196 199.182L309.847 197.859ZM313.194 199.181L321.006 196.095L324.354 197.417L316.542 200.503L313.194 199.181ZM316.54 200.503L324.352 197.417L327.701 198.739L319.888 201.825L316.54 200.503ZM319.886 201.824L327.698 198.738L331.047 200.061L323.234 203.147L319.886 201.824ZM323.232 203.146L331.044 200.06L334.393 201.383L326.58 204.468L323.232 203.146ZM326.578 204.468L334.391 201.382L337.739 202.704L329.926 205.79L326.578 204.468ZM331.816 206.537L339.628 203.451L340.064 203.623L332.251 206.708L331.816 206.537ZM330.945 206.193L338.758 203.107L339.193 203.279L331.38 206.365L330.945 206.193ZM339.962 209.754L347.775 206.668L351.123 207.991L343.31 211.077L339.962 209.754ZM343.308 211.076L351.121 207.99L354.469 209.313L346.657 212.399L343.308 211.076ZM346.654 212.398L354.467 209.312L357.815 210.634L350.003 213.72L346.654 212.398ZM357.69 213.499L355.581 212.666L351.457 214.295L351.022 214.123L355.581 212.322L358.126 213.327L357.69 213.499ZM356.82 213.843L355.581 213.354L352.328 214.639L351.892 214.467L355.581 213.01L357.255 213.671L356.82 213.843ZM358.927 213.987L357.253 213.326L357.688 213.154L358.927 213.644L362.18 212.359L362.616 212.53L358.927 213.987ZM358.927 214.675L356.382 213.67L356.818 213.498L358.927 214.331L363.051 212.702L363.486 212.874L358.927 214.675ZM369.401 218.124L373.089 216.667L373.524 216.839L370.271 218.124L371.51 218.614L371.075 218.786L369.401 218.124ZM367.659 218.124L372.219 216.324L372.654 216.496L368.53 218.124L370.639 218.958L370.204 219.13L367.659 218.124ZM366.731 220.328L374.543 217.242L377.892 218.564L370.079 221.65L366.731 220.328ZM370.077 221.65L377.89 218.564L381.238 219.886L373.425 222.972L370.077 221.65ZM373.423 222.971L381.236 219.885L384.584 221.208L376.771 224.294L373.423 222.971ZM376.769 224.293L384.582 221.207L387.93 222.53L380.117 225.615L376.769 224.293ZM387.805 225.394L385.696 224.561L381.572 226.19L381.136 226.018L385.696 224.217L388.24 225.222L387.805 225.394ZM386.935 225.738L385.696 225.249L382.442 226.534L382.007 226.362L385.696 224.905L387.37 225.566L386.935 225.738ZM389.042 225.883L387.368 225.221L387.803 225.049L389.042 225.539L392.295 224.254L392.73 224.426L389.042 225.883ZM389.042 226.57L386.497 225.565L386.932 225.393L389.042 226.227L393.166 224.598L393.601 224.77L389.042 226.57ZM272.292 188.903L280.105 185.817L283.453 187.14L275.64 190.225L272.292 188.903ZM275.638 190.225L283.451 187.139L286.799 188.461L278.986 191.547L275.638 190.225ZM280.876 192.294L288.689 189.208L289.124 189.38L281.311 192.465L280.876 192.294ZM280.006 191.95L287.818 188.864L288.253 189.036L280.441 192.122L280.006 191.95ZM299.061 199.476L306.873 196.391L310.222 197.713L302.409 200.799L299.061 199.476ZM302.407 200.798L310.22 197.712L313.568 199.035L305.755 202.121L302.407 200.798ZM313.443 201.899L311.333 201.066L307.209 202.695L306.774 202.523L311.333 200.722L313.878 201.727L313.443 201.899ZM312.572 202.243L311.333 201.754L308.08 203.039L307.645 202.867L311.333 201.41L313.008 202.071L312.572 202.243ZM313.005 201.727L313.441 201.555L317.224 203.049L316.789 203.221L313.005 201.727ZM312.135 202.07L312.57 201.899L316.354 203.393L315.918 203.565L312.135 202.07ZM316.351 203.048L316.787 202.876L320.57 204.371L320.135 204.543L316.351 203.048ZM315.481 203.392L315.916 203.22L319.7 204.715L319.264 204.887L315.481 203.392ZM315.791 206.085L323.604 202.999L326.952 204.322L319.139 207.407L315.791 206.085ZM319.137 207.407L326.95 204.321L330.298 205.643L322.486 208.729L319.137 207.407ZM324.375 209.476L332.188 206.39L332.623 206.562L324.81 209.647L324.375 209.476ZM323.505 209.132L331.317 206.046L331.752 206.218L323.94 209.304L323.505 209.132ZM329.176 211.372L336.988 208.286L340.336 209.608L332.524 212.694L329.176 211.372ZM332.522 212.693L340.334 209.607L343.683 210.93L335.87 214.016L332.522 212.693ZM335.868 214.015L343.68 210.929L347.029 212.252L339.216 215.338L335.868 214.015ZM346.904 215.116L344.794 214.283L340.67 215.912L340.235 215.74L344.794 213.939L347.339 214.944L346.904 215.116ZM346.033 215.46L344.794 214.971L341.541 216.256L341.106 216.084L344.794 214.627L346.468 215.288L346.033 215.46ZM348.14 215.605L346.466 214.944L346.901 214.772L348.14 215.261L351.394 213.976L351.829 214.148L348.14 215.605ZM348.14 216.293L345.596 215.287L346.031 215.115L348.14 215.949L352.264 214.32L352.7 214.492L348.14 216.293ZM365.306 222.385L368.995 220.928L369.43 221.1L366.177 222.385L367.415 222.874L366.98 223.046L365.306 222.385ZM363.565 222.385L368.124 220.584L368.559 220.756L364.435 222.385L366.545 223.218L366.11 223.39L363.565 222.385ZM362.636 224.589L370.449 221.503L373.797 222.825L365.985 225.911L362.636 224.589ZM365.982 225.91L373.795 222.824L377.143 224.147L369.331 227.233L365.982 225.91ZM377.018 227.011L374.909 226.178L370.785 227.807L370.35 227.635L374.909 225.834L377.454 226.84L377.018 227.011ZM376.148 227.355L374.909 226.866L371.656 228.151L371.22 227.979L374.909 226.522L376.583 227.183L376.148 227.355ZM378.255 227.5L376.581 226.839L377.016 226.667L378.255 227.156L381.508 225.871L381.944 226.043L378.255 227.5ZM378.255 228.188L375.71 227.183L376.146 227.011L378.255 227.844L382.379 226.215L382.814 226.387L378.255 228.188ZM264.852 191.842L272.664 188.756L276.012 190.079L268.2 193.164L264.852 191.842ZM268.198 193.164L276.01 190.078L279.359 191.4L271.546 194.486L268.198 193.164ZM271.544 194.485L279.356 191.399L282.705 192.722L274.892 195.808L271.544 194.485ZM274.89 195.807L282.702 192.721L286.051 194.044L278.238 197.13L274.89 195.807ZM278.236 197.129L286.049 194.043L289.397 195.365L281.584 198.451L278.236 197.129ZM281.582 198.45L289.395 195.364L292.743 196.687L284.93 199.773L281.582 198.45ZM284.928 199.772L292.741 196.686L296.089 198.009L288.276 201.095L284.928 199.772ZM290.601 202.013L290.166 201.841L294.29 200.212L292.18 199.379L292.616 199.207L295.16 200.212L290.601 202.013ZM289.731 201.669L289.295 201.497L292.549 200.212L291.31 199.723L291.745 199.551L293.419 200.212L289.731 201.669ZM291.62 202.415L299.433 199.33L302.781 200.652L294.968 203.738L291.62 202.415ZM294.966 203.737L302.779 200.651L306.127 201.974L298.315 205.06L294.966 203.737ZM300.204 205.806L308.017 202.72L308.452 202.892L300.639 205.978L300.204 205.806ZM299.334 205.462L307.146 202.376L307.582 202.548L299.769 205.634L299.334 205.462ZM308.351 209.024L316.163 205.938L319.512 207.261L311.699 210.346L308.351 209.024ZM311.697 210.346L319.509 207.26L322.858 208.582L315.045 211.668L311.697 210.346ZM316.935 212.415L324.747 209.329L325.182 209.501L317.37 212.586L316.935 212.415ZM316.064 212.071L323.877 208.985L324.312 209.157L316.499 212.243L316.064 212.071ZM318.389 212.989L326.202 209.903L329.55 211.226L321.737 214.312L318.389 212.989ZM321.735 214.311L329.548 211.225L332.896 212.547L325.083 215.633L321.735 214.311ZM325.081 215.632L332.894 212.546L336.242 213.869L328.429 216.955L325.081 215.632ZM328.427 216.954L336.24 213.868L339.588 215.191L331.775 218.277L328.427 216.954ZM331.773 218.276L339.586 215.19L342.934 216.512L335.121 219.598L331.773 218.276ZM335.119 219.597L342.932 216.511L346.28 217.834L338.468 220.92L335.119 219.597ZM338.465 220.919L346.278 217.833L349.626 219.156L341.814 222.242L338.465 220.919ZM344.139 223.16L343.703 222.988L347.827 221.359L345.718 220.526L346.153 220.354L348.698 221.359L344.139 223.16ZM343.268 222.816L342.833 222.644L346.086 221.359L344.847 220.87L345.283 220.698L346.957 221.359L343.268 222.816ZM355.196 227.528L363.008 224.442L366.357 225.764L358.544 228.85L355.196 227.528ZM358.542 228.849L366.354 225.763L369.703 227.086L361.89 230.172L358.542 228.849ZM363.78 230.918L371.592 227.832L372.028 228.004L364.215 231.09L363.78 230.918ZM362.909 230.574L370.722 227.488L371.157 227.66L363.344 230.746L362.909 230.574ZM263.427 193.899L267.115 192.442L267.551 192.614L264.297 193.899L265.536 194.389L265.101 194.561L263.427 193.899ZM261.686 193.899L266.245 192.098L266.68 192.27L262.556 193.899L264.666 194.732L264.23 194.904L261.686 193.899ZM264.663 194.388L265.099 194.216L268.882 195.71L268.447 195.882L264.663 194.388ZM263.793 194.732L264.228 194.56L268.012 196.054L267.576 196.226L263.793 194.732ZM266.949 196.785L270.057 195.116L270.582 195.324L268.551 196.338C268.461 196.382 268.378 196.422 268.3 196.459C268.229 196.496 268.153 196.533 268.071 196.571C267.993 196.608 267.894 196.651 267.775 196.701L267.792 196.708C267.937 196.668 268.062 196.635 268.166 196.609C268.274 196.581 268.378 196.554 268.478 196.529C268.579 196.504 268.69 196.476 268.813 196.446L270.532 196.049L270.978 196.225L269.963 196.9C269.888 196.95 269.819 196.994 269.756 197.034C269.693 197.074 269.624 197.114 269.55 197.155C269.483 197.197 269.399 197.246 269.299 197.303L269.321 197.312C269.451 197.266 269.561 197.227 269.65 197.195C269.747 197.163 269.84 197.132 269.929 197.103C270.018 197.073 270.119 197.041 270.23 197.006L272.792 196.197L273.294 196.395L269.092 197.632L268.512 197.402L269.628 196.679C269.713 196.625 269.799 196.572 269.884 196.521C269.97 196.469 270.059 196.418 270.152 196.366L270.136 196.36C270.005 196.396 269.877 196.432 269.751 196.468C269.624 196.503 269.49 196.537 269.349 196.569L267.518 197.01L266.949 196.785ZM270.295 198.107L273.404 196.438L273.928 196.645L271.897 197.659C271.808 197.703 271.724 197.744 271.646 197.781C271.575 197.817 271.499 197.855 271.417 197.893C271.339 197.93 271.24 197.973 271.121 198.023L271.138 198.03C271.283 197.99 271.408 197.957 271.512 197.93C271.62 197.903 271.724 197.876 271.824 197.851C271.925 197.826 272.036 197.798 272.159 197.767L273.878 197.371L274.324 197.547L273.309 198.221C273.234 198.271 273.165 198.316 273.102 198.356C273.039 198.396 272.97 198.436 272.896 198.477C272.829 198.518 272.745 198.567 272.645 198.625L272.667 198.634C272.797 198.588 272.907 198.549 272.996 198.517C273.093 198.484 273.186 198.454 273.275 198.424C273.364 198.395 273.465 198.362 273.577 198.327L276.138 197.518L276.64 197.717L272.438 198.953L271.858 198.724L272.974 198.001C273.059 197.947 273.145 197.894 273.231 197.842C273.316 197.791 273.405 197.739 273.498 197.688L273.482 197.681C273.351 197.718 273.223 197.754 273.097 197.789C272.97 197.825 272.836 197.858 272.695 197.891L270.864 198.332L270.295 198.107ZM274.702 198.353L275.137 198.181L278.92 199.675L278.485 199.847L274.702 198.353ZM273.831 198.697L274.266 198.525L278.05 200.019L277.615 200.191L273.831 198.697ZM278.048 199.674L278.483 199.503L282.267 200.997L281.831 201.169L278.048 199.674ZM277.177 200.018L277.612 199.846L281.396 201.341L280.961 201.513L277.177 200.018ZM281.394 200.996L281.829 200.824L285.613 202.319L285.177 202.491L281.394 200.996ZM280.523 201.34L280.959 201.168L284.742 202.663L284.307 202.835L280.523 201.34ZM286.414 202.979L284.74 202.318L285.175 202.146L286.414 202.635L289.667 201.35L290.103 201.522L286.414 202.979ZM286.414 203.667L283.869 202.662L284.305 202.49L286.414 203.323L290.538 201.694L290.973 201.866L286.414 203.667ZM290.195 204.473L293.884 203.016L294.319 203.188L291.066 204.473L292.305 204.962L291.869 205.134L290.195 204.473ZM288.454 204.473L293.013 202.672L293.449 202.844L289.325 204.473L291.434 205.306L290.999 205.478L288.454 204.473ZM291.432 204.961L291.867 204.789L295.651 206.284L295.216 206.456L291.432 204.961ZM290.561 205.305L290.997 205.133L294.78 206.628L294.345 206.8L290.561 205.305ZM296.452 206.944L294.778 206.283L295.213 206.111L296.452 206.6L299.706 205.315L300.141 205.487L296.452 206.944ZM296.452 207.632L293.908 206.627L294.343 206.455L296.452 207.288L300.576 205.659L301.011 205.831L296.452 207.632ZM306.926 211.081L310.614 209.624L311.05 209.796L307.796 211.081L309.035 211.571L308.6 211.742L306.926 211.081ZM305.185 211.081L309.744 209.28L310.179 209.452L306.055 211.081L308.165 211.914L307.729 212.086L305.185 211.081ZM308.162 211.57L308.598 211.398L312.381 212.892L311.946 213.064L308.162 211.57ZM307.292 211.914L307.727 211.742L311.511 213.236L311.075 213.408L307.292 211.914ZM313.183 213.553L311.509 212.891L311.944 212.719L313.183 213.209L316.436 211.924L316.871 212.096L313.183 213.553ZM313.183 214.24L310.638 213.235L311.073 213.063L313.183 213.897L317.307 212.268L317.742 212.439L313.183 214.24ZM316.964 215.046L320.653 213.589L321.088 213.761L317.835 215.046L319.073 215.536L318.638 215.708L316.964 215.046ZM315.223 215.046L319.782 213.245L320.217 213.417L316.093 215.046L318.203 215.879L317.768 216.051L315.223 215.046ZM318.201 215.535L318.636 215.363L322.42 216.857L321.984 217.029L318.201 215.535ZM317.33 215.879L317.765 215.707L321.549 217.201L321.114 217.373L317.33 215.879ZM321.547 216.856L321.982 216.685L325.766 218.179L325.33 218.351L321.547 216.856ZM320.676 217.2L321.112 217.028L324.895 218.523L324.46 218.695L320.676 217.2ZM324.893 218.178L325.328 218.006L329.112 219.501L328.676 219.673L324.893 218.178ZM324.022 218.522L324.458 218.35L328.241 219.845L327.806 220.016L324.022 218.522ZM328.239 219.5L328.674 219.328L332.458 220.822L332.022 220.994L328.239 219.5ZM327.368 219.844L327.804 219.672L331.587 221.166L331.152 221.338L327.368 219.844ZM331.585 220.822L332.02 220.65L335.804 222.144L335.369 222.316L331.585 220.822ZM330.714 221.165L331.15 220.993L334.933 222.488L334.498 222.66L330.714 221.165ZM334.931 222.143L335.366 221.971L339.15 223.466L338.715 223.638L334.931 222.143ZM334.061 222.487L334.496 222.315L338.279 223.81L337.844 223.982L334.061 222.487ZM339.951 224.126L338.277 223.465L338.712 223.293L339.951 223.782L343.205 222.497L343.64 222.669L339.951 224.126ZM339.951 224.814L337.407 223.809L337.842 223.637L339.951 224.47L344.075 222.841L344.511 223.013L339.951 224.814ZM353.771 229.585L357.46 228.128L357.895 228.3L354.641 229.585L355.88 230.074L355.445 230.246L353.771 229.585ZM352.03 229.585L356.589 227.784L357.024 227.956L352.9 229.585L355.01 230.418L354.575 230.59L352.03 229.585ZM353.947 231.149L357.056 229.48L357.58 229.688L355.549 230.702C355.46 230.746 355.376 230.786 355.298 230.823C355.227 230.86 355.151 230.897 355.069 230.935C354.991 230.972 354.892 231.015 354.773 231.065L354.79 231.072C354.935 231.032 355.06 230.999 355.164 230.973C355.272 230.945 355.376 230.918 355.476 230.893C355.577 230.868 355.688 230.84 355.811 230.81L357.53 230.413L357.976 230.589L356.961 231.264C356.886 231.314 356.818 231.358 356.754 231.398C356.691 231.438 356.622 231.478 356.548 231.519C356.481 231.56 356.397 231.61 356.297 231.667L356.319 231.676C356.449 231.63 356.559 231.591 356.648 231.559C356.745 231.527 356.838 231.496 356.927 231.466C357.017 231.437 357.117 231.405 357.229 231.369L359.79 230.56L360.292 230.759L356.09 231.995L355.51 231.766L356.626 231.043C356.711 230.989 356.797 230.936 356.883 230.884C356.968 230.833 357.057 230.782 357.15 230.73L357.134 230.724C357.004 230.76 356.875 230.796 356.749 230.832C356.622 230.867 356.488 230.901 356.347 230.933L354.517 231.374L353.947 231.149ZM360.028 232.056L358.354 231.395L358.789 231.223L360.028 231.712L363.281 230.427L363.716 230.599L360.028 232.056ZM360.028 232.744L357.483 231.739L357.918 231.567L360.028 232.4L364.152 230.771L364.587 230.943L360.028 232.744ZM258.967 200.612L264.548 198.408L264.961 198.571L259.38 200.776L258.967 200.612ZM262.313 201.934L267.894 199.73L268.307 199.893L262.726 202.097L262.313 201.934ZM288.563 211.818L288.959 211.661L291.638 212.719L291.242 212.876L288.563 211.818ZM291.909 213.139L292.305 212.983L294.984 214.041L294.588 214.197L291.909 213.139ZM295.255 214.461L295.651 214.305L298.33 215.363L297.934 215.519L295.255 214.461ZM298.601 215.783L298.998 215.626L301.676 216.684L301.28 216.841L298.601 215.783ZM302.053 217.234L308.739 216.04L309.152 216.203L302.466 217.398L302.053 217.234ZM305.399 218.556L312.085 217.361L312.498 217.525L305.812 218.719L305.399 218.556ZM308.746 219.878L315.431 218.683L315.844 218.846L309.159 220.041L308.746 219.878ZM311.986 221.069L312.382 220.913L315.06 221.971L314.664 222.128L311.986 221.069ZM315.332 222.391L315.728 222.235L318.407 223.293L318.01 223.449L315.332 222.391ZM345.965 234.976L351.546 232.772L351.959 232.935L346.378 235.139L345.965 234.976ZM349.312 236.298L354.892 234.094L355.305 234.257L349.724 236.461L349.312 236.298ZM248.181 202.23L253.761 200.025L254.174 200.189L248.594 202.393L248.181 202.23ZM254.873 204.873L260.453 202.669L260.866 202.832L255.286 205.036L254.873 204.873ZM277.882 213.565L284.568 212.37L284.981 212.533L278.295 213.728L277.882 213.565ZM284.469 216.078L284.865 215.922L287.543 216.98L287.147 217.136L284.469 216.078ZM287.815 217.4L288.211 217.244L290.889 218.302L290.493 218.458L287.815 217.4ZM291.161 218.722L291.557 218.565L294.236 219.623L293.839 219.78L291.161 218.722ZM294.507 220.043L294.903 219.887L297.582 220.945L297.185 221.101L294.507 220.043ZM297.853 221.365L298.249 221.209L300.928 222.267L300.531 222.423L297.853 221.365ZM301.199 222.687L301.595 222.53L304.274 223.588L303.878 223.745L301.199 222.687ZM304.545 224.008L304.941 223.852L307.62 224.91L307.224 225.067L304.545 224.008ZM313.174 227.505L316.198 224.864L316.611 225.027L313.587 227.668L313.174 227.505ZM338.525 237.915L344.105 235.711L344.518 235.874L338.938 238.078L338.525 237.915ZM345.217 240.559L350.797 238.354L351.21 238.518L345.63 240.722L345.217 240.559ZM240.74 205.169L246.32 202.964L246.733 203.128L241.153 205.332L240.74 205.169ZM247.432 207.812L253.013 205.608L253.426 205.771L247.845 207.975L247.432 207.812ZM267.096 215.182L273.781 213.988L274.194 214.151L267.509 215.345L267.096 215.182ZM273.788 217.826L280.473 216.631L280.886 216.794L274.201 217.989L273.788 217.826ZM277.028 219.017L277.424 218.861L280.103 219.919L279.707 220.075L277.028 219.017ZM297.104 226.947L297.501 226.791L300.179 227.849L299.783 228.006L297.104 226.947ZM302.387 229.122L305.412 226.482L305.825 226.645L302.8 229.285L302.387 229.122ZM309.079 231.766L312.104 229.125L312.517 229.288L309.492 231.929L309.079 231.766ZM331.084 240.854L336.665 238.65L337.078 238.813L331.497 241.017L331.084 240.854ZM337.776 243.498L343.357 241.293L343.77 241.457L338.189 243.661L337.776 243.498ZM233.299 208.108L238.88 205.903L239.293 206.067L233.712 208.271L233.299 208.108ZM239.992 210.751L245.572 208.547L245.985 208.71L240.405 210.914L239.992 210.751ZM260.068 218.681L265.649 216.477L266.062 216.64L260.481 218.844L260.068 218.681ZM266.241 220.635L266.638 220.478L269.316 221.536L268.92 221.693L266.241 220.635ZM272.177 221.044L272.523 220.907L274.922 221.855L274.576 221.992L272.177 221.044ZM273.33 223.593L273.313 223.401C274.001 223.424 274.621 223.396 275.171 223.32C275.726 223.242 276.237 223.111 276.706 222.925C277.175 222.74 277.508 222.538 277.705 222.319C277.902 222.1 277.971 221.856 277.911 221.585L278.397 221.592C278.486 221.865 278.43 222.13 278.229 222.385C278.028 222.641 277.658 222.875 277.119 223.088C276.579 223.302 275.986 223.448 275.339 223.527C274.695 223.605 274.025 223.627 273.33 223.593ZM281.679 226.168C281.441 226.074 281.276 225.965 281.183 225.84C281.093 225.716 281.091 225.588 281.177 225.454C281.266 225.322 281.46 225.197 281.757 225.079C282.062 224.959 282.382 224.881 282.717 224.846C283.056 224.812 283.381 224.813 283.694 224.848C284.01 224.885 284.287 224.95 284.525 225.044C284.763 225.138 284.927 225.247 285.016 225.37C285.109 225.495 285.111 225.624 285.022 225.756C284.936 225.89 284.741 226.017 284.436 226.137C284.138 226.255 283.82 226.331 283.482 226.364C283.147 226.4 282.821 226.399 282.505 226.362C282.193 226.327 281.917 226.262 281.679 226.168ZM282.059 226.018C282.234 226.087 282.429 226.131 282.645 226.148C282.864 226.165 283.087 226.156 283.314 226.122C283.541 226.088 283.757 226.031 283.962 225.95C284.17 225.868 284.317 225.782 284.402 225.692C284.492 225.601 284.514 225.513 284.469 225.428C284.429 225.341 284.321 225.263 284.146 225.194C283.971 225.125 283.774 225.082 283.554 225.066C283.342 225.05 283.119 225.059 282.885 225.093C282.658 225.126 282.44 225.184 282.232 225.267C282.027 225.348 281.882 225.433 281.796 225.522C281.715 225.614 281.692 225.702 281.729 225.787C281.774 225.872 281.884 225.949 282.059 226.018ZM288.198 229.466C288.117 229.193 288.172 228.929 288.366 228.673C288.567 228.417 288.937 228.183 289.476 227.97C290.016 227.757 290.609 227.61 291.256 227.531C291.908 227.453 292.577 227.431 293.265 227.465L293.282 227.657C292.598 227.633 291.978 227.66 291.424 227.738C290.87 227.816 290.358 227.948 289.889 228.133C289.421 228.318 289.088 228.52 288.89 228.739C288.697 228.956 288.628 229.201 288.684 229.473L288.198 229.466ZM292.253 228.974L292.599 228.837L294.999 229.785L294.653 229.922L292.253 228.974ZM293.01 231.208L293.406 231.052L296.085 232.11L295.689 232.266L293.01 231.208ZM300.221 234.541L305.802 232.337L306.214 232.5L300.634 234.705L300.221 234.541ZM323.644 243.793L329.224 241.589L329.637 241.752L324.057 243.956L323.644 243.793ZM330.336 246.437L335.916 244.232L336.329 244.396L330.749 246.6L330.336 246.437ZM225.859 211.047L231.439 208.842L231.852 209.006L226.272 211.21L225.859 211.047ZM237.315 215.175L240.339 212.534L240.752 212.697L237.728 215.338L237.315 215.175ZM238.724 215.644L239.12 215.487L241.799 216.545L241.403 216.702L238.724 215.644ZM242.07 216.965L242.467 216.809L245.145 217.867L244.749 218.023L242.07 216.965ZM245.416 218.287L245.813 218.13L248.491 219.188L248.095 219.345L245.416 218.287ZM248.762 219.609L249.159 219.452L251.837 220.51L251.441 220.667L248.762 219.609ZM252.628 221.62L258.208 219.416L258.621 219.579L253.04 221.783L252.628 221.62ZM260.737 224.427L263.762 221.786L264.175 221.949L261.15 224.59L260.737 224.427ZM262.147 224.895L262.543 224.739L265.222 225.797L264.825 225.953L262.147 224.895ZM265.493 226.217L265.889 226.061L268.568 227.119L268.171 227.275L265.493 226.217ZM268.839 227.539L269.235 227.382L271.914 228.44L271.518 228.597L268.839 227.539ZM274.836 228.038L277.844 227.525L278.245 227.683L276.945 228.871L276.543 228.713L277.157 228.179L277.626 227.778L277.604 227.769L276.588 227.954L275.238 228.197L274.836 228.038ZM275.531 230.182L275.927 230.026L278.606 231.084L278.21 231.24L275.531 230.182ZM278.877 231.504L279.273 231.347L281.952 232.405L281.556 232.562L278.877 231.504ZM282.223 232.825L282.62 232.669L285.298 233.727L284.902 233.884L282.223 232.825ZM285.675 234.277L292.361 233.083L292.774 233.246L286.088 234.44L285.675 234.277ZM292.781 237.48L298.361 235.276L298.774 235.439L293.193 237.644L292.781 237.48ZM295.608 238.112L296.004 237.956L298.682 239.014L298.286 239.17L295.608 238.112ZM298.954 239.434L299.35 239.277L302.029 240.335L301.632 240.492L298.954 239.434ZM302.3 240.756L302.696 240.599L305.375 241.657L304.978 241.814L302.3 240.756ZM305.646 242.077L306.042 241.921L308.721 242.979L308.324 243.135L305.646 242.077ZM308.992 243.399L309.388 243.242L312.067 244.301L311.671 244.457L308.992 243.399ZM312.444 244.851L319.129 243.656L319.542 243.819L312.857 245.014L312.444 244.851ZM322.895 249.376L328.476 247.171L328.889 247.335L323.308 249.539L322.895 249.376ZM223.182 215.471L226.206 212.83L226.619 212.993L223.595 215.634L223.182 215.471ZM311.696 250.433L318.381 249.238L318.794 249.402L312.109 250.596L311.696 250.433Z" fill="#101010" fill-opacity="0.78"/>
</g>
<g filter="url(#filter2_d_24_138)">
<rect width="157.563" height="157.563" transform="matrix(0.971966 -0.235122 0.869505 0.493924 163.788 68.4355)" fill="#E2E2E2"/>
<path d="M153.072 144.686L163.788 68.4355L300.791 146.26L290.074 222.511L153.072 144.686Z" fill="#CDCDCD"/>
<path d="M443.22 185.464L453.937 109.213L300.79 146.26L290.074 222.511L443.22 185.464Z" fill="#FCFCFC"/>
<path d="M299.537 48.2174L307.703 46.2488L310.835 48.0244L302.669 49.9931L299.537 48.2174ZM302.667 49.9919L310.833 48.0233L313.964 49.799L305.798 51.7676L302.667 49.9919ZM307.973 53.0005L307.566 52.7697L311.876 51.7305L309.903 50.6118L310.358 50.5022L312.738 51.8517L307.973 53.0005ZM307.158 52.5388L306.751 52.308L310.152 51.4882L308.993 50.8312L309.448 50.7215L311.014 51.6094L307.158 52.5388ZM327.703 64.188L335.869 62.2194L339.001 63.995L330.835 65.9637L327.703 64.188ZM330.833 65.9625L338.999 63.9939L342.13 65.7696L333.964 67.7382L330.833 65.9625ZM333.962 67.737L342.128 65.7684L345.26 67.5441L337.094 69.5127L333.962 67.737ZM337.092 69.5115L345.258 67.5429L348.39 69.3186L340.224 71.2872L337.092 69.5115ZM340.222 71.286L348.388 69.3174L351.519 71.0931L343.353 73.0617L340.222 71.286ZM345.528 74.2946L345.12 74.0638L349.431 73.0246L347.458 71.906L347.913 71.7963L350.293 73.1458L345.528 74.2946ZM344.713 73.833L344.306 73.6021L347.707 72.7823L346.548 72.1253L347.003 72.0157L348.569 72.9035L344.713 73.833ZM349.61 76.6096L357.776 74.641L360.908 76.4166L352.742 78.3852L349.61 76.6096ZM352.74 78.3841L360.906 76.4155L364.038 78.1911L355.871 80.1597L352.74 78.3841ZM355.869 80.1586L364.035 78.19L367.167 79.9656L359.001 81.9343L355.869 80.1586ZM358.999 81.9331L367.165 79.9645L370.297 81.7402L362.131 83.7088L358.999 81.9331ZM362.129 83.7076L370.295 81.739L373.426 83.5147L365.26 85.4833L362.129 83.7076ZM365.258 85.4821L373.424 83.5135L376.556 85.2892L368.39 87.2578L365.258 85.4821ZM368.388 87.2566L376.554 85.288L379.685 87.0637L371.519 89.0323L368.388 87.2566ZM373.694 90.2652L373.287 90.0344L377.597 88.9952L375.624 87.8766L376.079 87.7669L378.459 89.1164L373.694 90.2652ZM372.88 89.8036L372.472 89.5727L375.873 88.7529L374.714 88.0959L375.169 87.9863L376.735 88.8741L372.88 89.8036ZM374.647 90.8057L382.813 88.837L385.945 90.6127L377.778 92.5813L374.647 90.8057ZM377.776 92.5802L385.943 90.6116L389.074 92.3872L380.908 94.3558L377.776 92.5802ZM383.082 95.5888L382.675 95.3579L386.986 94.3188L385.013 93.2001L385.468 93.0904L387.848 94.4399L383.082 95.5888ZM382.268 95.1271L381.861 94.8963L385.262 94.0765L384.103 93.4195L384.558 93.3098L386.124 94.1976L382.268 95.1271ZM393.424 101.453L401.59 99.4841L404.722 101.26L396.556 103.228L393.424 101.453ZM396.554 103.227L404.72 101.259L407.852 103.034L399.686 105.003L396.554 103.227ZM401.86 106.236L401.453 106.005L405.763 104.966L403.79 103.847L404.245 103.737L406.625 105.087L401.86 106.236ZM401.046 105.774L400.639 105.543L404.039 104.724L402.881 104.067L403.335 103.957L404.901 104.845L401.046 105.774ZM291.76 50.0923L299.926 48.1236L303.058 49.8993L294.891 51.8679L291.76 50.0923ZM294.889 51.8668L303.055 49.8982L306.187 51.6738L298.021 53.6424L294.889 51.8668ZM299.788 54.6445L307.954 52.6759L308.362 52.9068L300.195 54.8754L299.788 54.6445ZM298.974 54.1829L307.14 52.2142L307.547 52.4451L299.381 54.4137L298.974 54.1829ZM316.796 64.2883L324.963 62.3197L328.094 64.0954L319.928 66.064L316.796 64.2883ZM319.926 66.0629L328.092 64.0942L331.224 65.8699L323.058 67.8385L319.926 66.0629ZM330.701 68.6893L328.728 67.5706L324.418 68.6098L324.011 68.3789L328.776 67.2301L331.156 68.5796L330.701 68.6893ZM329.791 68.9087L328.633 68.2517L325.232 69.0715L324.825 68.8406L328.681 67.9112L330.246 68.799L329.791 68.9087ZM330.292 68.4573L330.747 68.3476L334.286 70.3541L333.831 70.4638L330.292 68.4573ZM329.382 68.6767L329.837 68.567L333.376 70.5735L332.921 70.6832L329.382 68.6767ZM333.422 70.2318L333.877 70.1221L337.415 72.1286L336.96 72.2383L333.422 70.2318ZM332.512 70.4512L332.967 70.3415L336.505 72.348L336.051 72.4577L332.512 70.4512ZM332.444 73.1609L340.61 71.1923L343.742 72.968L335.576 74.9366L332.444 73.1609ZM335.574 74.9354L343.74 72.9668L346.872 74.7425L338.706 76.7111L335.574 74.9354ZM340.88 77.944L340.473 77.7132L344.783 76.674L342.81 75.5554L343.265 75.4457L345.645 76.7952L340.88 77.944ZM340.066 77.4823L339.659 77.2515L343.059 76.4317L341.901 75.7747L342.355 75.665L343.921 76.5529L340.066 77.4823ZM347.913 78.4485L351.768 77.5191L352.176 77.7499L348.775 78.5697L349.934 79.2267L349.479 79.3364L347.913 78.4485ZM346.189 78.2062L350.954 77.0574L351.361 77.2882L347.051 78.3274L349.024 79.4461L348.569 79.5557L346.189 78.2062ZM349.07 79.1044L349.525 78.9947L353.063 81.0012L352.608 81.1109L349.07 79.1044ZM348.16 79.3237L348.615 79.2141L352.153 81.2206L351.698 81.3302L348.16 79.3237ZM352.199 80.8789L352.654 80.7692L356.193 82.7757L355.738 82.8854L352.199 80.8789ZM351.289 81.0983L351.744 80.9886L355.283 82.9951L354.828 83.1048L351.289 81.0983ZM351.222 83.808L359.388 81.8394L362.519 83.615L354.353 85.5836L351.222 83.808ZM354.351 85.5825L362.517 83.6139L365.649 85.3895L357.483 87.3581L354.351 85.5825ZM357.481 87.357L365.647 85.3884L368.779 87.164L360.613 89.1327L357.481 87.357ZM368.256 89.9834L366.283 88.8648L361.973 89.9039L361.566 89.6731L366.331 88.5243L368.711 89.8738L368.256 89.9834ZM367.346 90.2028L366.188 89.5458L362.787 90.3656L362.38 90.1348L366.235 89.2053L367.801 90.0931L367.346 90.2028ZM369.413 90.6393L367.847 89.7514L368.302 89.6418L369.461 90.2988L372.861 89.479L373.268 89.7098L369.413 90.6393ZM369.317 91.3203L366.937 89.9708L367.392 89.8611L369.365 90.9798L373.676 89.9406L374.083 90.1715L369.317 91.3203ZM372.95 92.6446L376.805 91.7152L377.212 91.946L373.812 92.7658L374.97 93.4228L374.515 93.5325L372.95 92.6446ZM371.225 92.4023L375.991 91.2535L376.398 91.4843L372.087 92.5235L374.06 93.6421L373.605 93.7518L371.225 92.4023ZM369.999 94.455L378.165 92.4864L381.297 94.2621L373.131 96.2307L369.999 94.455ZM373.129 96.2295L381.295 94.2609L384.426 96.0366L376.26 98.0052L373.129 96.2295ZM378.435 99.2381L378.028 99.0073L382.338 97.9682L380.365 96.8495L380.82 96.7398L383.2 98.0893L378.435 99.2381ZM377.621 98.7765L377.214 98.5456L380.614 97.7258L379.455 97.0688L379.91 96.9592L381.476 97.847L377.621 98.7765ZM382.518 101.553L390.684 99.5845L393.815 101.36L385.649 103.329L382.518 101.553ZM385.647 103.328L393.813 101.359L396.945 103.135L388.779 105.103L385.647 103.328ZM396.422 105.954L394.449 104.835L390.139 105.875L389.732 105.644L394.497 104.495L396.877 105.844L396.422 105.954ZM395.512 106.173L394.354 105.516L390.953 106.336L390.546 106.105L394.402 105.176L395.967 106.064L395.512 106.173ZM397.579 106.61L396.013 105.722L396.468 105.612L397.627 106.269L401.027 105.45L401.435 105.68L397.579 106.61ZM397.483 107.291L395.103 105.941L395.558 105.832L397.531 106.95L401.842 105.911L402.249 106.142L397.483 107.291ZM283.983 51.9671L292.149 49.9985L295.28 51.7742L287.114 53.7428L283.983 51.9671ZM287.112 53.7416L295.278 51.773L298.41 53.5487L290.244 55.5173L287.112 53.7416ZM292.011 56.5194L300.177 54.5508L300.584 54.7816L292.418 56.7502L292.011 56.5194ZM291.197 56.0577L299.363 54.0891L299.77 54.32L291.604 56.2886L291.197 56.0577ZM309.019 66.1632L317.185 64.1946L320.317 65.9703L312.151 67.9389L309.019 66.1632ZM312.149 67.9377L320.315 65.9691L323.447 67.7448L315.28 69.7134L312.149 67.9377ZM315.278 69.7122L323.444 67.7436L326.576 69.5193L318.41 71.4879L315.278 69.7122ZM318.408 71.4867L326.574 69.5181L329.706 71.2938L321.54 73.2624L318.408 71.4867ZM321.538 73.2613L329.704 71.2926L332.835 73.0683L324.669 75.0369L321.538 73.2613ZM324.667 75.0358L332.833 73.0672L335.965 74.8428L327.799 76.8114L324.667 75.0358ZM327.797 76.8103L335.963 74.8417L339.094 76.6173L330.928 78.5859L327.797 76.8103ZM332.696 79.588L340.862 77.6194L341.269 77.8503L333.103 79.8189L332.696 79.588ZM331.881 79.1264L340.047 77.1578L340.455 77.3886L332.289 79.3572L331.881 79.1264ZM340.315 83.9083L348.481 81.9397L351.613 83.7154L343.447 85.684L340.315 83.9083ZM343.445 85.6828L351.611 83.7142L354.742 85.4899L346.576 87.4585L343.445 85.6828ZM346.574 87.4573L354.74 85.4887L357.872 87.2644L349.706 89.233L346.574 87.4573ZM357.349 90.0838L355.377 88.9651L351.066 90.0043L350.659 89.7734L355.424 88.6246L357.804 89.9741L357.349 90.0838ZM356.439 90.3032L355.281 89.6462L351.88 90.4659L351.473 90.2351L355.329 89.3056L356.894 90.1935L356.439 90.3032ZM358.506 90.7396L356.94 89.8518L357.395 89.7421L358.554 90.3991L361.955 89.5793L362.362 89.8102L358.506 90.7396ZM358.41 91.4207L356.03 90.0712L356.485 89.9615L358.458 91.0802L362.769 90.041L363.176 90.2718L358.41 91.4207ZM368.302 96.294L372.157 95.3645L372.565 95.5954L369.164 96.4152L370.323 97.0722L369.868 97.1818L368.302 96.294ZM366.578 96.0517L371.343 94.9029L371.75 95.1337L367.44 96.1728L369.413 97.2915L368.958 97.4012L366.578 96.0517ZM365.352 98.1044L373.518 96.1358L376.649 97.9115L368.483 99.8801L365.352 98.1044ZM368.481 99.8789L376.647 97.9103L379.779 99.686L371.613 101.655L368.481 99.8789ZM371.611 101.653L379.777 99.6848L382.908 101.46L374.742 103.429L371.611 101.653ZM374.74 103.428L382.906 101.459L386.038 103.235L377.872 105.204L374.74 103.428ZM385.516 106.054L383.543 104.936L379.232 105.975L378.825 105.744L383.591 104.595L385.971 105.945L385.516 106.054ZM384.606 106.274L383.447 105.617L380.046 106.437L379.639 106.206L383.495 105.276L385.061 106.164L384.606 106.274ZM386.672 106.71L385.106 105.822L385.561 105.713L386.72 106.37L390.121 105.55L390.528 105.781L386.672 106.71ZM386.577 107.391L384.197 106.042L384.651 105.932L386.624 107.051L390.935 106.012L391.342 106.242L386.577 107.391ZM276.205 53.842L284.372 51.8734L287.503 53.6491L279.337 55.6177L276.205 53.842ZM279.335 55.6165L287.501 53.6479L290.633 55.4236L282.467 57.3922L279.335 55.6165ZM284.234 58.3943L292.4 56.4257L292.807 56.6565L284.641 58.6251L284.234 58.3943ZM283.42 57.9326L291.586 55.964L291.993 56.1948L283.827 58.1634L283.42 57.9326ZM301.242 68.0381L309.408 66.0695L312.54 67.8451L304.374 69.8137L301.242 68.0381ZM304.372 69.8126L312.538 67.844L315.669 69.6196L307.503 71.5883L304.372 69.8126ZM315.147 72.439L313.174 71.3204L308.863 72.3595L308.456 72.1287L313.222 70.9799L315.602 72.3294L315.147 72.439ZM314.237 72.6584L313.078 72.0014L309.678 72.8212L309.271 72.5904L313.126 71.6609L314.692 72.5487L314.237 72.6584ZM314.738 72.2071L315.193 72.0974L318.731 74.1039L318.276 74.2136L314.738 72.2071ZM313.828 72.4264L314.283 72.3167L317.822 74.3232L317.367 74.4329L313.828 72.4264ZM317.867 73.9816L318.322 73.8719L321.861 75.8784L321.406 75.9881L317.867 73.9816ZM316.957 74.2009L317.412 74.0912L320.951 76.0977L320.496 76.2074L316.957 74.2009ZM316.89 76.9106L325.056 74.942L328.188 76.7177L320.022 78.6863L316.89 76.9106ZM320.02 78.6851L328.186 76.7165L331.317 78.4922L323.151 80.4608L320.02 78.6851ZM324.918 81.4629L333.085 79.4943L333.492 79.7251L325.326 81.6937L324.918 81.4629ZM324.104 81.0012L332.27 79.0326L332.677 79.2635L324.511 81.2321L324.104 81.0012ZM329.408 84.0087L337.574 82.0401L340.706 83.8157L332.54 85.7843L329.408 84.0087ZM332.538 85.7832L340.704 83.8146L343.835 85.5902L335.669 87.5589L332.538 85.7832ZM335.667 87.5577L343.833 85.5891L346.965 87.3648L338.799 89.3334L335.667 87.5577ZM346.443 90.1842L344.47 89.0655L340.159 90.1046L339.752 89.8738L344.518 88.725L346.898 90.0745L346.443 90.1842ZM345.533 90.4035L344.374 89.7465L340.973 90.5663L340.566 90.3355L344.422 89.406L345.988 90.2938L345.533 90.4035ZM347.599 90.84L346.033 89.9522L346.488 89.8425L347.647 90.4995L351.048 89.6797L351.455 89.9105L347.599 90.84ZM347.504 91.521L345.124 90.1715L345.579 90.0618L347.551 91.1805L351.862 90.1414L352.269 90.3722L347.504 91.521ZM363.654 99.9434L367.51 99.0139L367.917 99.2448L364.516 100.065L365.675 100.722L365.22 100.831L363.654 99.9434ZM361.93 99.7011L366.696 98.5522L367.103 98.7831L362.792 99.8222L364.765 100.941L364.31 101.051L361.93 99.7011ZM360.704 101.754L368.87 99.7852L372.002 101.561L363.836 103.529L360.704 101.754ZM363.834 103.528L372 101.56L375.131 103.335L366.965 105.304L363.834 103.528ZM374.609 106.155L372.636 105.036L368.325 106.075L367.918 105.844L372.684 104.696L375.064 106.045L374.609 106.155ZM373.699 106.374L372.54 105.717L369.14 106.537L368.733 106.306L372.588 105.377L374.154 106.264L373.699 106.374ZM375.765 106.811L374.2 105.923L374.655 105.813L375.813 106.47L379.214 105.65L379.621 105.881L375.765 106.811ZM375.67 107.492L373.29 106.142L373.745 106.032L375.718 107.151L380.028 106.112L380.435 106.343L375.67 107.492ZM268.428 55.7169L276.594 53.7483L279.726 55.5239L271.56 57.4925L268.428 55.7169ZM271.558 57.4914L279.724 55.5228L282.856 57.2984L274.689 59.267L271.558 57.4914ZM274.687 59.2659L282.853 57.2973L285.985 59.0729L277.819 61.0416L274.687 59.2659ZM277.817 61.0404L285.983 59.0718L289.115 60.8475L280.949 62.8161L277.817 61.0404ZM280.947 62.8149L289.113 60.8463L292.244 62.622L284.078 64.5906L280.947 62.8149ZM284.076 64.5894L292.242 62.6208L295.374 64.3965L287.208 66.3651L284.076 64.5894ZM287.206 66.3639L295.372 64.3953L298.503 66.171L290.337 68.1396L287.206 66.3639ZM292.512 69.3725L292.105 69.1417L296.415 68.1025L294.442 66.9839L294.897 66.8742L297.277 68.2237L292.512 69.3725ZM291.698 68.9109L291.29 68.68L294.691 67.8602L293.532 67.2032L293.987 67.0936L295.553 67.9814L291.698 68.9109ZM293.465 69.913L301.631 67.9443L304.763 69.72L296.596 71.6886L293.465 69.913ZM296.594 71.6875L304.76 69.7189L307.892 71.4945L299.726 73.4631L296.594 71.6875ZM301.493 74.4652L309.659 72.4966L310.067 72.7274L301.9 74.6961L301.493 74.4652ZM300.679 74.0036L308.845 72.0349L309.252 72.2658L301.086 74.2344L300.679 74.0036ZM309.113 78.7855L317.279 76.8169L320.41 78.5926L312.244 80.5612L309.113 78.7855ZM312.242 80.56L320.408 78.5914L323.54 80.3671L315.374 82.3357L312.242 80.56ZM317.141 83.3378L325.307 81.3692L325.714 81.6L317.548 83.5686L317.141 83.3378ZM316.327 82.8761L324.493 80.9075L324.9 81.1383L316.734 83.1069L316.327 82.8761ZM318.501 84.109L326.668 82.1404L329.799 83.9161L321.633 85.8847L318.501 84.109ZM321.631 85.8835L329.797 83.9149L332.929 85.6906L324.763 87.6592L321.631 85.8835ZM324.761 87.6581L332.927 85.6894L336.058 87.4651L327.892 89.4337L324.761 87.6581ZM327.89 89.4326L336.056 87.464L339.188 89.2396L331.022 91.2082L327.89 89.4326ZM331.02 91.2071L339.186 89.2385L342.317 91.0141L334.151 92.9827L331.02 91.2071ZM334.149 92.9816L342.315 91.013L345.447 92.7886L337.281 94.7573L334.149 92.9816ZM337.279 94.7561L345.445 92.7875L348.577 94.5632L340.411 96.5318L337.279 94.7561ZM342.585 97.7647L342.178 97.5339L346.488 96.4947L344.515 95.376L344.97 95.2664L347.35 96.6159L342.585 97.7647ZM341.771 97.303L341.364 97.0722L344.764 96.2524L343.606 95.5954L344.06 95.4857L345.626 96.3736L341.771 97.303ZM352.927 103.629L361.093 101.66L364.224 103.436L356.058 105.404L352.927 103.629ZM356.056 105.403L364.222 103.435L367.354 105.21L359.188 107.179L356.056 105.403ZM360.955 108.181L369.121 106.212L369.528 106.443L361.362 108.412L360.955 108.181ZM360.141 107.719L368.307 105.751L368.714 105.981L360.548 107.95L360.141 107.719ZM266.731 57.5558L270.586 56.6264L270.994 56.8572L267.593 57.677L268.752 58.334L268.297 58.4437L266.731 57.5558ZM265.007 57.3135L269.772 56.1647L270.179 56.3955L265.869 57.4347L267.842 58.5534L267.387 58.663L265.007 57.3135ZM267.888 58.2117L268.343 58.102L271.881 60.1085L271.426 60.2182L267.888 58.2117ZM266.978 58.431L267.433 58.3214L270.971 60.3279L270.516 60.4375L266.978 58.431ZM269.817 60.9038L273.128 59.684L273.618 59.9622L271.466 60.6836C271.371 60.7149 271.283 60.7432 271.2 60.7687C271.125 60.7953 271.044 60.8218 270.958 60.8482C270.876 60.8737 270.772 60.9029 270.647 60.9358L270.663 60.9447C270.812 60.9256 270.94 60.9102 271.047 60.8985C271.157 60.8859 271.264 60.8742 271.367 60.8634C271.47 60.8527 271.585 60.8406 271.71 60.8271L273.468 60.6734L273.885 60.9101L272.786 61.4367C272.705 61.4758 272.631 61.5107 272.562 61.5411C272.494 61.5716 272.421 61.6021 272.341 61.6325C272.269 61.6639 272.179 61.701 272.072 61.7438L272.093 61.7556C272.228 61.7286 272.342 61.7053 272.435 61.6857C272.535 61.6672 272.632 61.6496 272.724 61.6329C272.817 61.6162 272.921 61.5982 273.036 61.5788L275.685 61.1342L276.155 61.4005L271.822 62.0403L271.279 61.7325L272.485 61.1718C272.577 61.1299 272.669 61.0894 272.761 61.0504C272.853 61.0114 272.949 60.9729 273.048 60.9349L273.032 60.926C272.898 60.9443 272.766 60.9621 272.636 60.9794C272.506 60.9967 272.368 61.0115 272.224 61.0239L270.35 61.2057L269.817 60.9038ZM272.947 62.6783L276.257 61.4586L276.748 61.7367L274.595 62.4581C274.501 62.4894 274.412 62.5177 274.33 62.5432C274.255 62.5698 274.174 62.5963 274.088 62.6227C274.005 62.6482 273.901 62.6774 273.777 62.7103L273.792 62.7192C273.941 62.7001 274.069 62.6847 274.176 62.673C274.287 62.6604 274.394 62.6487 274.497 62.6379C274.6 62.6272 274.714 62.6151 274.84 62.6016L276.597 62.4479L277.015 62.6847L275.915 63.2112C275.835 63.2504 275.76 63.2852 275.692 63.3157C275.624 63.3461 275.55 63.3766 275.471 63.407C275.399 63.4384 275.309 63.4755 275.201 63.5183L275.222 63.5301C275.358 63.5031 275.472 63.4798 275.565 63.4602C275.665 63.4417 275.761 63.4241 275.854 63.4074C275.946 63.3907 276.05 63.3727 276.166 63.3533L278.815 62.9087L279.285 63.175L274.951 63.8148L274.408 63.507L275.614 62.9464C275.707 62.9044 275.799 62.8639 275.891 62.8249C275.983 62.7859 276.078 62.7474 276.177 62.7094L276.162 62.7005C276.028 62.7188 275.896 62.7366 275.765 62.7539C275.635 62.7712 275.498 62.786 275.353 62.7984L273.479 62.9802L272.947 62.6783ZM277.276 63.5352L277.731 63.4255L281.27 65.432L280.815 65.5417L277.276 63.5352ZM276.366 63.7546L276.821 63.6449L280.36 65.6514L279.905 65.7611L276.366 63.7546ZM280.406 65.3097L280.861 65.2L284.4 67.2065L283.945 67.3162L280.406 65.3097ZM279.496 65.5291L279.951 65.4194L283.49 67.4259L283.035 67.5356L279.496 65.5291ZM283.535 67.0842L283.99 66.9746L287.529 68.9811L287.074 69.0907L283.535 67.0842ZM282.626 67.3036L283.08 67.1939L286.619 69.2004L286.164 69.3101L282.626 67.3036ZM288.231 69.7466L286.665 68.8587L287.12 68.7491L288.279 69.4061L291.679 68.5863L292.086 68.8171L288.231 69.7466ZM288.135 70.4276L285.755 69.0781L286.21 68.9684L288.183 70.0871L292.494 69.0479L292.901 69.2788L288.135 70.4276ZM291.768 71.7519L295.623 70.8225L296.03 71.0533L292.63 71.8731L293.788 72.5301L293.333 72.6398L291.768 71.7519ZM290.043 71.5096L294.809 70.3608L295.216 70.5916L290.905 71.6308L292.878 72.7494L292.423 72.8591L290.043 71.5096ZM292.924 72.4078L293.379 72.2981L296.918 74.3046L296.463 74.4143L292.924 72.4078ZM292.014 72.6271L292.469 72.5174L296.008 74.5239L295.553 74.6336L292.014 72.6271ZM297.62 75.0701L296.054 74.1823L296.509 74.0726L297.667 74.7296L301.068 73.9098L301.475 74.1406L297.62 75.0701ZM297.524 75.7511L295.144 74.4016L295.599 74.292L297.572 75.4106L301.882 74.3715L302.289 74.6023L297.524 75.7511ZM307.415 80.6245L311.271 79.695L311.678 79.9259L308.277 80.7456L309.436 81.4026L308.981 81.5123L307.415 80.6245ZM305.691 80.3822L310.457 79.2333L310.864 79.4642L306.553 80.5033L308.526 81.622L308.071 81.7317L305.691 80.3822ZM308.572 81.2803L309.027 81.1706L312.566 83.1771L312.111 83.2868L308.572 81.2803ZM307.662 81.4997L308.117 81.39L311.656 83.3965L311.201 83.5062L307.662 81.4997ZM313.267 83.9427L311.702 83.0548L312.157 82.9452L313.315 83.6021L316.716 82.7824L317.123 83.0132L313.267 83.9427ZM313.172 84.6237L310.792 83.2742L311.247 83.1645L313.22 84.2832L317.53 83.244L317.937 83.4749L313.172 84.6237ZM316.804 85.948L320.66 85.0185L321.067 85.2494L317.666 86.0692L318.825 86.7262L318.37 86.8358L316.804 85.948ZM315.08 85.7057L319.845 84.5569L320.253 84.7877L315.942 85.8269L317.915 86.9455L317.46 87.0552L315.08 85.7057ZM317.961 86.6039L318.416 86.4942L321.954 88.5007L321.5 88.6104L317.961 86.6039ZM317.051 86.8232L317.506 86.7135L321.045 88.72L320.59 88.8297L317.051 86.8232ZM321.09 88.3784L321.545 88.2687L325.084 90.2752L324.629 90.3849L321.09 88.3784ZM320.18 88.5977L320.635 88.488L324.174 90.4945L323.719 90.6042L320.18 88.5977ZM324.22 90.1529L324.675 90.0432L328.214 92.0497L327.759 92.1594L324.22 90.1529ZM323.31 90.3722L323.765 90.2626L327.304 92.2691L326.849 92.3787L323.31 90.3722ZM327.35 91.9274L327.804 91.8177L331.343 93.8242L330.888 93.9339L327.35 91.9274ZM326.44 92.1467L326.895 92.0371L330.433 94.0436L329.978 94.1532L326.44 92.1467ZM330.479 93.7019L330.934 93.5922L334.473 95.5987L334.018 95.7084L330.479 93.7019ZM329.569 93.9213L330.024 93.8116L333.563 95.8181L333.108 95.9278L329.569 93.9213ZM333.609 95.4764L334.064 95.3667L337.602 97.3732L337.147 97.4829L333.609 95.4764ZM332.699 95.6958L333.154 95.5861L336.692 97.5926L336.237 97.7023L332.699 95.6958ZM338.304 98.1388L336.738 97.2509L337.193 97.1412L338.352 97.7982L341.752 96.9784L342.16 97.2093L338.304 98.1388ZM338.208 98.8198L335.828 97.4703L336.283 97.3606L338.256 98.4793L342.567 97.4401L342.974 97.671L338.208 98.8198ZM351.229 105.468L355.085 104.538L355.492 104.769L352.092 105.589L353.25 106.246L352.795 106.355L351.229 105.468ZM349.505 105.225L354.271 104.076L354.678 104.307L350.367 105.346L352.34 106.465L351.885 106.575L349.505 105.225ZM351.186 107.041L354.497 105.821L354.987 106.1L352.835 106.821C352.74 106.852 352.652 106.881 352.569 106.906C352.494 106.933 352.413 106.959 352.327 106.985C352.244 107.011 352.141 107.04 352.016 107.073L352.032 107.082C352.181 107.063 352.309 107.047 352.416 107.036C352.526 107.023 352.633 107.011 352.736 107.001C352.839 106.99 352.954 106.978 353.079 106.964L354.837 106.811L355.254 107.047L354.155 107.574C354.074 107.613 354 107.648 353.931 107.678C353.863 107.709 353.789 107.739 353.71 107.77C353.638 107.801 353.548 107.838 353.441 107.881L353.462 107.893C353.597 107.866 353.711 107.843 353.804 107.823C353.904 107.804 354.001 107.787 354.093 107.77C354.186 107.753 354.29 107.735 354.405 107.716L357.054 107.271L357.524 107.538L353.191 108.178L352.648 107.87L353.854 107.309C353.946 107.267 354.038 107.227 354.13 107.188C354.222 107.149 354.317 107.11 354.417 107.072L354.401 107.063C354.267 107.082 354.135 107.099 354.005 107.117C353.875 107.134 353.737 107.149 353.593 107.161L351.719 107.343L351.186 107.041ZM357.082 108.786L355.516 107.898L355.971 107.788L357.129 108.445L360.53 107.626L360.937 107.856L357.082 108.786ZM356.986 109.467L354.606 108.117L355.061 108.008L357.034 109.126L361.344 108.087L361.751 108.318L356.986 109.467ZM261.381 63.583L267.214 62.1769L267.6 62.3959L261.767 63.802L261.381 63.583ZM264.51 65.3575L270.343 63.9514L270.729 64.1704L264.896 65.5765L264.51 65.3575ZM289.129 78.7982L289.543 78.6984L292.048 80.1189L291.634 80.2187L289.129 78.7982ZM292.258 80.5727L292.673 80.4729L295.178 81.8934L294.764 81.9932L292.258 80.5727ZM295.388 82.3472L295.802 82.2474L298.307 83.6679L297.893 83.7677L295.388 82.3472ZM298.518 84.1217L298.932 84.0219L301.437 85.4424L301.023 85.5423L298.518 84.1217ZM301.734 86.0398L308.521 85.7871L308.907 86.0061L302.12 86.2588L301.734 86.0398ZM304.864 87.8143L311.65 87.5616L312.036 87.7806L305.25 88.0333L304.864 87.8143ZM307.993 89.5888L314.78 89.3361L315.166 89.5551L308.379 89.8078L307.993 89.5888ZM311.036 91.2198L311.45 91.1199L313.955 92.5405L313.541 92.6403L311.036 91.2198ZM314.165 92.9943L314.58 92.8944L317.085 94.315L316.671 94.4148L314.165 92.9943ZM342.75 109.72L348.582 108.314L348.969 108.533L343.136 109.939L342.75 109.72ZM345.879 111.495L351.712 110.089L352.098 110.308L346.265 111.714L345.879 111.495ZM250.474 63.6834L256.307 62.2772L256.693 62.4962L250.86 63.9024L250.474 63.6834ZM256.733 67.2324L262.566 65.8263L262.952 66.0453L257.119 67.4514L256.733 67.2324ZM278.309 79.0421L285.096 78.7894L285.482 79.0084L278.695 79.2611L278.309 79.0421ZM284.481 82.4476L284.895 82.3477L287.401 83.7683L286.987 83.8681L284.481 82.4476ZM287.611 84.2221L288.025 84.1222L290.53 85.5428L290.116 85.6426L287.611 84.2221ZM290.74 85.9966L291.155 85.8968L293.66 87.3173L293.246 87.4171L290.74 85.9966ZM293.87 87.7711L294.284 87.6713L296.789 89.0918L296.375 89.1916L293.87 87.7711ZM297 89.5456L297.414 89.4458L299.919 90.8663L299.505 90.9661L297 89.5456ZM300.129 91.3201L300.543 91.2203L303.049 92.6408L302.634 92.7407L300.129 91.3201ZM303.259 93.0946L303.673 92.9948L306.178 94.4153L305.764 94.5152L303.259 93.0946ZM311.317 97.7579L314.679 95.5638L315.066 95.7828L311.703 97.9769L311.317 97.7579ZM334.972 111.595L340.805 110.189L341.192 110.408L335.359 111.814L334.972 111.595ZM341.232 115.144L347.064 113.738L347.451 113.957L341.618 115.363L341.232 115.144ZM242.697 65.5583L248.53 64.1521L248.916 64.3711L243.083 65.7773L242.697 65.5583ZM248.956 69.1073L254.789 67.7011L255.175 67.9201L249.342 69.3263L248.956 69.1073ZM267.402 79.1424L274.189 78.8898L274.575 79.1088L267.788 79.3614L267.402 79.1424ZM273.661 82.6915L280.448 82.4388L280.834 82.6578L274.048 82.9105L273.661 82.6915ZM276.704 84.3224L277.118 84.2226L279.623 85.6431L279.209 85.743L276.704 84.3224ZM295.482 94.9695L295.896 94.8697L298.401 96.2902L297.987 96.39L295.482 94.9695ZM300.41 97.8583L303.773 95.6642L304.159 95.8832L300.796 98.0772L300.41 97.8583ZM306.669 101.407L310.032 99.2132L310.418 99.4322L307.055 101.626L306.669 101.407ZM327.195 113.47L333.028 112.064L333.414 112.283L327.581 113.689L327.195 113.47ZM333.454 117.019L339.287 115.613L339.673 115.832L333.841 117.238L333.454 117.019ZM234.919 67.4331L240.752 66.027L241.139 66.246L235.306 67.6521L234.919 67.4331ZM241.179 70.9821L247.011 69.576L247.398 69.795L241.565 71.2011L241.179 70.9821ZM259.956 81.6292L265.789 80.2231L266.175 80.4421L260.342 81.8482L259.956 81.6292ZM265.797 84.4228L266.211 84.323L268.717 85.7435L268.303 85.8433L265.797 84.4228ZM271.618 85.654L271.98 85.5668L274.224 86.8394L273.862 86.9266L271.618 85.654ZM272.405 88.3391L272.415 88.1469C273.094 88.2645 273.711 88.3238 274.267 88.3247C274.826 88.3247 275.351 88.2657 275.841 88.1476C276.331 88.0295 276.689 87.8757 276.915 87.6863C277.14 87.4969 277.243 87.2642 277.221 86.9882L277.701 87.0623C277.752 87.3454 277.66 87.5996 277.425 87.8248C277.19 88.0501 276.791 88.2307 276.227 88.3666C275.664 88.5025 275.056 88.5647 274.404 88.5532C273.755 88.5408 273.089 88.4694 272.405 88.3391ZM280.315 92.0511C280.092 91.9248 279.943 91.7934 279.869 91.6568C279.797 91.5221 279.814 91.3945 279.917 91.274C280.024 91.1554 280.233 91.0587 280.544 90.9837C280.863 90.9068 281.19 90.8742 281.527 90.8859C281.867 90.8995 282.189 90.9456 282.494 91.024C282.802 91.1044 283.067 91.2077 283.29 91.334C283.512 91.4602 283.659 91.5907 283.731 91.7254C283.805 91.862 283.789 91.9896 283.682 92.1081C283.579 92.2287 283.368 92.3273 283.049 92.4042C282.738 92.4792 282.412 92.5099 282.072 92.4962C281.736 92.4846 281.414 92.4385 281.106 92.3581C280.801 92.2797 280.538 92.1774 280.315 92.0511ZM280.711 91.9555C280.875 92.0482 281.062 92.1183 281.274 92.1658C281.489 92.2124 281.711 92.2347 281.94 92.2328C282.17 92.2309 282.392 92.2042 282.605 92.1527C282.823 92.1002 282.981 92.0355 283.078 91.9586C283.179 91.8808 283.213 91.7966 283.181 91.706C283.153 91.6145 283.057 91.5223 282.893 91.4296C282.729 91.3369 282.54 91.2672 282.325 91.2207C282.117 91.1751 281.895 91.1528 281.658 91.1537C281.429 91.1556 281.205 91.1827 280.987 91.2352C280.774 91.2868 280.618 91.351 280.521 91.4279C280.427 91.5067 280.393 91.5909 280.418 91.6805C280.45 91.7711 280.548 91.8628 280.711 91.9555ZM286.312 96.2244C286.269 95.9423 286.361 95.6881 286.588 95.4618C286.822 95.2366 287.222 95.056 287.785 94.9201C288.349 94.7842 288.957 94.7219 289.609 94.7335C290.265 94.7469 290.931 94.8183 291.608 94.9476L291.598 95.1398C290.923 95.0212 290.306 94.962 289.746 94.9619C289.186 94.9619 288.662 95.021 288.172 95.1391C287.682 95.2572 287.324 95.4109 287.098 95.6003C286.876 95.7888 286.774 96.0215 286.791 96.2985L286.312 96.2244ZM290.395 96.3011L290.757 96.2139L293.001 97.4864L292.64 97.5736L290.395 96.3011ZM290.834 98.6189L291.248 98.519L293.753 99.9396L293.339 100.039L290.834 98.6189ZM297.511 102.923L303.344 101.517L303.73 101.736L297.897 103.142L297.511 102.923ZM319.418 115.345L325.251 113.939L325.637 114.158L319.804 115.564L319.418 115.345ZM325.677 118.894L331.51 117.488L331.896 117.707L326.063 119.113L325.677 118.894ZM227.142 69.308L232.975 67.9018L233.361 68.1208L227.528 69.527L227.142 69.308ZM237.912 74.9903L241.275 72.7963L241.661 73.0153L238.298 75.2093L237.912 74.9903ZM239.243 75.6506L239.657 75.5508L242.162 76.9713L241.748 77.0711L239.243 75.6506ZM242.372 77.4251L242.786 77.3253L245.292 78.7458L244.878 78.8456L242.372 77.4251ZM245.502 79.1996L245.916 79.0998L248.421 80.5203L248.007 80.6202L245.502 79.1996ZM248.631 80.9741L249.045 80.8743L251.551 82.2948L251.137 82.3947L248.631 80.9741ZM252.179 83.5041L258.012 82.0979L258.398 82.3169L252.565 83.7231L252.179 83.5041ZM259.819 87.4119L263.182 85.2179L263.568 85.4368L260.205 87.6309L259.819 87.4119ZM261.15 88.0722L261.564 87.9723L264.069 89.3929L263.655 89.4927L261.15 88.0722ZM264.279 89.8467L264.693 89.7468L267.199 91.1674L266.785 91.2672L264.279 89.8467ZM267.409 91.6212L267.823 91.5214L270.328 92.9419L269.914 93.0417L267.409 91.6212ZM273.278 92.9504L276.328 92.8604L276.704 93.0735L275.251 94.0691L274.875 93.856L275.557 93.4132L276.077 93.0812L276.056 93.0693L275.025 93.1113L273.654 93.1635L273.278 92.9504ZM273.668 95.1702L274.082 95.0704L276.587 96.4909L276.173 96.5907L273.668 95.1702ZM276.798 96.9447L277.212 96.8449L279.717 98.2654L279.303 98.3653L276.798 96.9447ZM279.927 98.7192L280.341 98.6194L282.847 100.04L282.432 100.14L279.927 98.7192ZM283.144 100.637L289.93 100.385L290.316 100.604L283.53 100.856L283.144 100.637ZM289.734 104.798L295.567 103.392L295.953 103.611L290.12 105.017L289.734 104.798ZM292.445 105.817L292.86 105.717L295.365 107.138L294.951 107.238L292.445 105.817ZM295.575 107.592L295.989 107.492L298.494 108.912L298.08 109.012L295.575 107.592ZM298.705 109.366L299.119 109.266L301.624 110.687L301.21 110.787L298.705 109.366ZM301.834 111.141L302.248 111.041L304.754 112.462L304.339 112.561L301.834 111.141ZM304.964 112.915L305.378 112.815L307.883 114.236L307.469 114.336L304.964 112.915ZM308.18 114.833L314.967 114.581L315.353 114.8L308.566 115.052L308.18 114.833ZM317.9 120.769L323.733 119.363L324.119 119.582L318.286 120.988L317.9 120.769ZM223.876 73.3162L227.238 71.1221L227.624 71.3411L224.262 73.5352L223.876 73.3162ZM306.662 120.257L313.449 120.005L313.835 120.224L307.048 120.476L306.662 120.257Z" fill="#101010" fill-opacity="0.78"/>
</g>
<defs>
<filter id="filter0_d_24_138" x="161.063" y="286.426" width="307.443" height="199.943" filterUnits="userSpaceOnUse" color-interpolation-filters="sRGB">
<feFlood flood-opacity="0" result="BackgroundImageFix"/>
<feColorMatrix in="SourceAlpha" type="matrix" values="0 0 0 0 0 0 0 0 0 0 0 0 0 0 0 0 0 0 127 0" result="hardAlpha"/>
<feOffset dy="4"/>
<feGaussianBlur stdDeviation="2"/>
<feComposite in2="hardAlpha" operator="out"/>
<feColorMatrix type="matrix" values="0 0 0 0 0 0 0 0 0 0 0 0 0 0 0 0 0 0 0.25 0"/>
<feBlend mode="normal" in2="BackgroundImageFix" result="effect1_dropShadow_24_138"/>
<feBlend mode="normal" in="SourceGraphic" in2="effect1_dropShadow_24_138" result="shape"/>
</filter>
<filter id="filter1_d_24_138" x="159" y="161" width="301" height="201" filterUnits="userSpaceOnUse" color-interpolation-filters="sRGB">
<feFlood flood-opacity="0" result="BackgroundImageFix"/>
<feColorMatrix in="SourceAlpha" type="matrix" values="0 0 0 0 0 0 0 0 0 0 0 0 0 0 0 0 0 0 127 0" result="hardAlpha"/>
<feOffset dy="4"/>
<feGaussianBlur stdDeviation="2"/>
<feComposite in2="hardAlpha" operator="out"/>
<feColorMatrix type="matrix" values="0 0 0 0 0 0 0 0 0 0 0 0 0 0 0 0 0 0 0.25 0"/>
<feBlend mode="normal" in2="BackgroundImageFix" result="effect1_dropShadow_24_138"/>
<feBlend mode="normal" in="SourceGraphic" in2="effect1_dropShadow_24_138" result="shape"/>
</filter>
<filter id="filter2_d_24_138" x="149.072" y="31.3889" width="308.865" height="199.122" filterUnits="userSpaceOnUse" color-interpolation-filters="sRGB">
<feFlood flood-opacity="0" result="BackgroundImageFix"/>
<feColorMatrix in="SourceAlpha" type="matrix" values="0 0 0 0 0 0 0 0 0 0 0 0 0 0 0 0 0 0 127 0" result="hardAlpha"/>
<feOffset dy="4"/>
<feGaussianBlur stdDeviation="2"/>
<feComposite in2="hardAlpha" operator="out"/>
<feColorMatrix type="matrix" values="0 0 0 0 0 0 0 0 0 0 0 0 0 0 0 0 0 0 0.25 0"/>
<feBlend mode="normal" in2="BackgroundImageFix" result="effect1_dropShadow_24_138"/>
<feBlend mode="normal" in="SourceGraphic" in2="effect1_dropShadow_24_138" result="shape"/>
</filter>
</defs>
</svg>
