<svg width="300" height="300" viewBox="0 0 300 300" fill="none" xmlns="http://www.w3.org/2000/svg">
<rect width="300" height="300" rx="42" fill="white"/>
<path d="M44.2386 124.818V105.727H120.091V124.818H93.8409V193H70.4886V124.818H44.2386ZM129.008 193V105.727H152.701V141.011H153.894L180.144 105.727H207.758L178.269 144.591L208.44 193H180.144L160.542 160.273L152.701 170.5V193H129.008ZM227.914 194.364C224.619 194.364 221.792 193.213 219.434 190.912C217.104 188.582 215.954 185.756 215.982 182.432C215.954 179.193 217.104 176.423 219.434 174.122C221.792 171.821 224.619 170.67 227.914 170.67C231.039 170.67 233.795 171.821 236.181 174.122C238.596 176.423 239.817 179.193 239.846 182.432C239.817 184.648 239.235 186.665 238.099 188.483C236.991 190.273 235.542 191.707 233.752 192.787C231.962 193.838 230.016 194.364 227.914 194.364Z" fill="black"/>
</svg>
